<?xml version="1.0" encoding="UTF-8"?>
<svg xmlns="http://www.w3.org/2000/svg" xmlns:xlink="http://www.w3.org/1999/xlink" width="440.9pt" height="606.2pt" viewBox="0 0 440.9 606.2" version="1.1">
<defs>
<clipPath id="clip1">
  <path d="M 0 0 L 440.898438 0 L 440.898438 606.199219 L 0 606.199219 Z M 0 0 "/>
</clipPath>
<clipPath id="clip2">
  <path d="M 0 0 L 440.898438 0 L 440.898438 606.199219 L 0 606.199219 Z M 0 0 "/>
</clipPath>
</defs>
<g id="surface1">
<g clip-path="url(#clip1)" clip-rule="nonzero">
<path style="fill:none;stroke-width:99.213;stroke-linecap:butt;stroke-linejoin:miter;stroke:rgb(89.0625%,0%,8.616638%);stroke-opacity:1;stroke-miterlimit:4;" d="M 2204.921875 56.140625 C 1256.171875 552.546875 564.960938 1274.265625 49.921875 2150.164063 L 49.921875 6012.859375 L 4359.921875 6012.859375 L 4359.921875 2150.164063 C 3844.882813 1274.265625 3153.671875 552.546875 2204.921875 56.140625 Z M 2204.921875 56.140625 " transform="matrix(0.1,0,0,-0.1,0,606.2)"/>
<path style="fill:none;stroke-width:99.213;stroke-linecap:butt;stroke-linejoin:miter;stroke:rgb(100%,100%,100%);stroke-opacity:1;stroke-miterlimit:4;" d="M 2204.921875 169.5 L 2164.6875 191.023438 L 2079.648438 238.601563 L 1996.015625 287.46875 L 1913.90625 337.546875 L 1833.164063 388.914063 L 1753.867188 441.453125 L 1675.976563 495.242188 L 1599.453125 550.203125 L 1524.296875 606.375 L 1450.46875 663.71875 L 1378.007813 722.234375 L 1306.835938 781.882813 L 1236.992188 842.703125 L 1168.4375 904.65625 L 1101.09375 967.703125 L 1035.078125 1031.882813 L 970.234375 1097.195313 L 906.640625 1163.5625 L 844.257813 1230.984375 L 783.046875 1299.5 L 723.046875 1369.070313 L 664.179688 1439.695313 L 606.445313 1511.335938 L 549.84375 1584.03125 L 494.375 1657.703125 L 440 1732.390625 L 386.71875 1808.054688 L 334.492188 1884.695313 L 283.359375 1962.3125 L 233.242188 2040.867188 L 184.140625 2120.359375 L 149.882813 2177.742188 L 149.882813 5912.9375 L 4259.960938 5912.9375 L 4259.960938 2177.742188 L 4225.703125 2120.398438 L 4176.601563 2040.867188 L 4126.484375 1962.3125 L 4075.351563 1884.695313 L 4023.125 1808.054688 L 3969.84375 1732.390625 L 3915.46875 1657.703125 L 3859.960938 1584.03125 L 3803.398438 1511.335938 L 3745.664063 1439.695313 L 3686.796875 1369.070313 L 3626.757813 1299.5 L 3565.585938 1230.984375 L 3503.164063 1163.5625 L 3439.570313 1097.195313 L 3374.765625 1031.882813 L 3308.710938 967.703125 L 3241.40625 904.65625 L 3172.8125 842.703125 L 3102.96875 781.882813 L 3031.796875 722.234375 L 2959.335938 663.71875 L 2885.546875 606.375 L 2810.390625 550.203125 L 2733.867188 495.242188 L 2655.976563 441.453125 L 2576.679688 388.914063 L 2495.9375 337.546875 L 2413.789063 287.46875 L 2330.195313 238.601563 L 2245.117188 191.023438 Z M 2204.921875 169.5 " transform="matrix(0.1,0,0,-0.1,0,606.2)"/>
<path style="fill:none;stroke-width:79.999;stroke-linecap:butt;stroke-linejoin:miter;stroke:rgb(6.272888%,16.479492%,51.367188%);stroke-opacity:1;stroke-miterlimit:4;" d="M 1879.882813 460.828125 L 1801.914063 512.507813 L 1725.351563 565.359375 L 1650.15625 619.382813 L 1576.289063 674.578125 L 1503.75 730.945313 L 1432.5 788.445313 L 1362.578125 847.117188 L 1293.90625 906.882813 L 1226.484375 967.78125 L 1160.3125 1029.773438 L 1095.390625 1092.859375 L 1031.640625 1157.078125 L 969.101563 1222.351563 L 907.734375 1288.679688 L 847.5 1356.101563 L 788.4375 1424.539063 L 730.507813 1494.070313 L 673.671875 1564.617188 L 617.929688 1636.140625 L 563.28125 1708.757813 L 509.726563 1782.3125 L 457.226563 1856.882813 L 405.742188 1932.429688 L 355.3125 2008.992188 L 305.859375 2086.453125 L 257.421875 2164.890625 L 235.625 2201.414063 L 235.625 5827.195313 L 4174.21875 5827.195313 L 4174.21875 2201.414063 L 4152.382813 2164.890625 L 4103.984375 2086.453125 L 4054.53125 2008.992188 L 4004.101563 1932.429688 L 3952.617188 1856.882813 L 3900.117188 1782.3125 L 3846.523438 1708.71875 L 3791.875 1636.140625 L 3736.171875 1564.617188 L 3679.335938 1494.070313 L 3621.40625 1424.539063 L 3562.34375 1356.101563 L 3502.109375 1288.679688 L 3440.742188 1222.351563 L 3378.203125 1157.078125 L 3314.453125 1092.859375 L 3249.492188 1029.773438 L 3183.359375 967.78125 L 3115.9375 906.882813 L 3047.265625 847.117188 L 2977.34375 788.445313 L 2906.09375 730.945313 L 2833.554688 674.578125 L 2759.6875 619.382813 L 2684.492188 565.359375 L 2607.890625 512.507813 L 2529.960938 460.828125 L 2450.585938 410.359375 L 2369.84375 361.101563 L 2287.617188 313.054688 L 2204.921875 266.804688 L 2122.226563 313.054688 L 2040 361.101563 L 1959.21875 410.359375 Z M 1879.882813 460.828125 " transform="matrix(0.1,0,0,-0.1,0,606.2)"/>
<path style="fill:none;stroke-width:79.999;stroke-linecap:butt;stroke-linejoin:miter;stroke:rgb(100%,100%,100%);stroke-opacity:1;stroke-miterlimit:4;" d="M 1918.867188 520.867188 L 1842.03125 571.804688 L 1766.5625 623.875 L 1692.460938 677.117188 L 1619.648438 731.53125 L 1548.203125 787.078125 L 1478.007813 843.71875 L 1409.0625 901.53125 L 1341.40625 960.4375 L 1274.960938 1020.4375 L 1209.726563 1081.570313 L 1145.742188 1143.757813 L 1082.890625 1207.039063 L 1021.210938 1271.414063 L 960.703125 1336.84375 L 901.289063 1403.328125 L 843.046875 1470.867188 L 785.859375 1539.421875 L 729.804688 1609.03125 L 674.804688 1679.695313 L 620.820313 1751.335938 L 567.929688 1823.992188 L 516.054688 1897.664063 L 465.195313 1972.3125 L 415.351563 2047.9375 L 366.484375 2124.5 L 318.632813 2202.078125 L 307.226563 2221.179688 L 307.226563 5755.59375 L 4102.617188 5755.59375 L 4102.617188 2221.179688 L 4091.210938 2202.078125 L 4043.320313 2124.539063 L 3994.453125 2047.9375 L 3944.609375 1972.3125 L 3893.75 1897.664063 L 3841.914063 1823.992188 L 3788.984375 1751.335938 L 3735.039063 1679.695313 L 3680.039063 1609.03125 L 3623.984375 1539.421875 L 3566.796875 1470.867188 L 3508.515625 1403.328125 L 3449.140625 1336.84375 L 3388.632813 1271.414063 L 3326.953125 1207.039063 L 3264.101563 1143.757813 L 3200.078125 1081.570313 L 3134.882813 1020.4375 L 3068.4375 960.4375 L 3000.742188 901.53125 L 2931.835938 843.71875 L 2861.640625 787.078125 L 2790.15625 731.53125 L 2717.382813 677.117188 L 2643.28125 623.875 L 2567.8125 571.804688 L 2490.976563 520.867188 L 2412.773438 471.140625 L 2333.125 422.585938 L 2252.070313 375.203125 L 2204.921875 348.835938 L 2157.734375 375.203125 L 2076.679688 422.585938 L 1997.070313 471.101563 Z M 1918.867188 520.867188 " transform="matrix(0.1,0,0,-0.1,0,606.2)"/>
</g>
<path style=" stroke:none;fill-rule:evenodd;fill:rgb(89.0625%,0%,8.616638%);fill-opacity:1;" d="M 195.785156 548.109375 L 188.214844 543.089844 L 180.777344 537.957031 L 173.476563 532.710938 L 166.304688 527.351563 L 159.261719 521.882813 L 152.347656 516.296875 L 145.558594 510.605469 L 138.890625 504.800781 L 132.34375 498.886719 L 125.917969 492.863281 L 119.605469 486.734375 L 113.414063 480.496094 L 107.332031 474.152344 L 101.367188 467.699219 L 95.511719 461.144531 L 89.761719 454.484375 L 84.125 447.71875 L 78.589844 440.851563 L 73.164063 433.878906 L 67.835938 426.804688 L 62.613281 419.632813 L 57.492188 412.359375 L 52.46875 404.984375 L 47.542969 397.511719 L 42.714844 389.941406 L 37.980469 382.277344 L 37.878906 382.105469 L 37.878906 37.800781 L 403.105469 37.800781 L 403.105469 382.105469 L 403.003906 382.277344 L 398.269531 389.941406 L 393.441406 397.511719 L 388.515625 404.984375 L 383.492188 412.359375 L 378.371094 419.632813 L 373.144531 426.808594 L 367.820313 433.878906 L 362.390625 440.851563 L 356.859375 447.71875 L 351.21875 454.484375 L 345.472656 461.144531 L 339.617188 467.699219 L 333.648438 474.152344 L 327.570313 480.496094 L 321.375 486.734375 L 315.066406 492.863281 L 308.640625 498.886719 L 302.09375 504.800781 L 295.425781 510.605469 L 288.636719 516.296875 L 281.71875 521.882813 L 274.675781 527.355469 L 267.507813 532.710938 L 260.203125 537.957031 L 252.769531 543.089844 L 245.199219 548.109375 L 237.492188 553.011719 L 229.644531 557.796875 L 221.65625 562.464844 L 220.492188 563.113281 L 219.328125 562.464844 L 211.339844 557.796875 L 203.492188 553.011719 Z M 195.785156 548.109375 "/>
<g clip-path="url(#clip2)" clip-rule="nonzero">
<path style="fill:none;stroke-width:79.999;stroke-linecap:butt;stroke-linejoin:miter;stroke:rgb(6.272888%,16.479492%,51.367188%);stroke-opacity:1;stroke-miterlimit:4;" d="M 1957.851563 580.90625 L 1882.148438 631.101563 L 1807.773438 682.429688 L 1734.765625 734.890625 L 1663.046875 788.484375 L 1592.617188 843.171875 L 1523.476563 899.03125 L 1455.585938 955.945313 L 1388.90625 1013.992188 L 1323.4375 1073.132813 L 1259.179688 1133.367188 L 1196.054688 1194.65625 L 1134.140625 1257.039063 L 1073.320313 1320.476563 L 1013.671875 1385.007813 L 955.117188 1450.554688 L 897.617188 1517.15625 L 841.25 1584.8125 L 785.898438 1653.484375 L 731.640625 1723.210938 L 678.359375 1793.953125 L 626.132813 1865.671875 L 574.921875 1938.40625 L 524.6875 2012.15625 L 475.429688 2086.882813 L 427.148438 2162.585938 L 379.804688 2239.226563 L 378.789063 2240.945313 L 378.789063 5683.992188 L 4031.054688 5683.992188 L 4031.054688 2240.945313 L 4030.039063 2239.226563 L 3982.695313 2162.585938 L 3934.414063 2086.882813 L 3885.15625 2012.15625 L 3834.921875 1938.40625 L 3783.710938 1865.671875 L 3731.445313 1793.914063 L 3678.203125 1723.210938 L 3623.90625 1653.484375 L 3568.59375 1584.8125 L 3512.1875 1517.15625 L 3454.726563 1450.554688 L 3396.171875 1385.007813 L 3336.484375 1320.476563 L 3275.703125 1257.039063 L 3213.75 1194.65625 L 3150.664063 1133.367188 L 3086.40625 1073.132813 L 3020.9375 1013.992188 L 2954.257813 955.945313 L 2886.367188 899.03125 L 2817.1875 843.171875 L 2746.757813 788.445313 L 2675.078125 734.890625 L 2602.03125 682.429688 L 2527.695313 631.101563 L 2451.992188 580.90625 L 2374.921875 531.882813 L 2296.445313 484.03125 L 2216.5625 437.351563 L 2204.921875 430.867188 L 2193.28125 437.351563 L 2113.398438 484.03125 L 2034.921875 531.882813 Z M 1957.851563 580.90625 " transform="matrix(0.1,0,0,-0.1,0,606.2)"/>
</g>
<path style="fill-rule:evenodd;fill:rgb(6.272888%,16.479492%,51.367188%);fill-opacity:1;stroke-width:40;stroke-linecap:butt;stroke-linejoin:miter;stroke:rgb(6.272888%,16.479492%,51.367188%);stroke-opacity:1;stroke-miterlimit:4;" d="M 1954.882813 596.21875 L 1879.179688 646.414063 L 1804.804688 697.742188 L 1731.796875 750.203125 L 1660.078125 803.796875 L 1589.648438 858.484375 L 1520.507813 914.34375 L 1452.578125 971.257813 L 1385.898438 1029.304688 L 1320.46875 1088.445313 L 1256.171875 1148.679688 L 1193.085938 1209.96875 L 1131.171875 1272.351563 L 1070.351563 1335.789063 L 1010.703125 1400.320313 L 952.109375 1465.867188 L 894.648438 1532.46875 L 838.242188 1600.125 L 782.929688 1668.796875 L 728.632813 1738.523438 L 675.390625 1809.265625 L 623.164063 1880.984375 L 571.953125 1953.71875 L 521.71875 2027.46875 L 472.460938 2102.195313 L 424.179688 2177.898438 L 376.835938 2254.539063 L 375.820313 2256.257813 L 375.820313 5699.34375 L 4028.085938 3414.695313 L 4028.085938 2256.257813 L 4027.070313 2254.578125 L 3979.726563 2177.898438 L 3931.445313 2102.195313 L 3882.1875 2027.46875 L 3831.953125 1953.757813 L 3780.703125 1880.984375 L 3728.476563 1809.265625 L 3675.234375 1738.523438 L 3620.9375 1668.835938 L 3565.625 1600.125 L 3509.21875 1532.46875 L 3451.757813 1465.867188 L 3393.203125 1400.320313 L 3333.515625 1335.789063 L 3272.734375 1272.351563 L 3210.78125 1209.96875 L 3147.695313 1148.679688 L 3083.4375 1088.445313 L 3017.96875 1029.304688 L 2951.289063 971.257813 L 2883.359375 914.34375 L 2814.21875 858.484375 L 2743.789063 803.796875 L 2672.109375 750.203125 L 2599.0625 697.742188 L 2524.726563 646.414063 L 2448.984375 596.21875 L 2371.914063 547.195313 L 2293.476563 499.34375 L 2213.554688 452.664063 L 2201.953125 446.179688 L 2190.3125 452.664063 L 2110.429688 499.34375 L 2031.953125 547.195313 Z M 1954.882813 596.21875 " transform="matrix(0.1,0,0,-0.1,0,606.2)"/>
<path style="fill-rule:evenodd;fill:rgb(100%,100%,100%);fill-opacity:1;stroke-width:40;stroke-linecap:butt;stroke-linejoin:miter;stroke:rgb(6.272888%,16.479492%,51.367188%);stroke-opacity:1;stroke-miterlimit:4;" d="M 391.5625 5683.601563 L 391.5625 4732.117188 L 4014.492188 2426.609375 L 4014.492188 3396.414063 Z M 391.5625 5683.601563 " transform="matrix(0.1,0,0,-0.1,0,606.2)"/>
<path style="fill-rule:evenodd;fill:rgb(100%,100%,100%);fill-opacity:1;stroke-width:2.16;stroke-linecap:butt;stroke-linejoin:miter;stroke:rgb(100%,100%,100%);stroke-opacity:1;stroke-miterlimit:4;" d="M 1158.203125 3792.039063 L 1216.132813 3611.257813 L 1400.039063 3610.046875 L 1251.914063 3497.117188 L 1307.65625 3315.59375 L 1158.203125 3426.609375 L 1008.75 3315.59375 L 1064.492188 3497.117188 L 916.367188 3610.046875 L 1100.273438 3611.257813 Z M 1158.203125 3792.039063 " transform="matrix(0.1,0,0,-0.1,0,606.2)"/>
<path style="fill:none;stroke-width:79.999;stroke-linecap:butt;stroke-linejoin:miter;stroke:rgb(100%,79.6875%,0%);stroke-opacity:1;stroke-miterlimit:4;" d="M 2633.046875 5390.828125 C 2789.6875 5390.828125 2916.640625 5263.875 2916.640625 5107.234375 C 2916.640625 4950.59375 2789.6875 4823.601563 2633.046875 4823.601563 C 2476.40625 4823.601563 2349.414063 4950.59375 2349.414063 5107.234375 C 2349.414063 5263.875 2476.40625 5390.828125 2633.046875 5390.828125 Z M 2633.046875 5390.828125 " transform="matrix(0.1,0,0,-0.1,0,606.2)"/>
<path style="fill:none;stroke-width:79.999;stroke-linecap:butt;stroke-linejoin:miter;stroke:rgb(100%,79.6875%,0%);stroke-opacity:1;stroke-miterlimit:4;" d="M 3069.21875 5369.578125 C 3225.820313 5369.578125 3352.8125 5242.585938 3352.8125 5085.945313 C 3352.8125 4929.304688 3225.820313 4802.351563 3069.21875 4802.351563 C 2912.578125 4802.351563 2785.585938 4929.304688 2785.585938 5085.945313 C 2785.585938 5242.585938 2912.578125 5369.578125 3069.21875 5369.578125 Z M 3069.21875 5369.578125 " transform="matrix(0.1,0,0,-0.1,0,606.2)"/>
<path style="fill:none;stroke-width:79.999;stroke-linecap:butt;stroke-linejoin:miter;stroke:rgb(100%,79.6875%,0%);stroke-opacity:1;stroke-miterlimit:4;" d="M 3505.351563 5384.890625 C 3661.992188 5384.890625 3788.984375 5257.898438 3788.984375 5101.257813 C 3788.984375 4944.65625 3661.992188 4817.664063 3505.351563 4817.664063 C 3348.75 4817.664063 3221.757813 4944.65625 3221.757813 5101.257813 C 3221.757813 5257.898438 3348.75 5384.890625 3505.351563 5384.890625 Z M 3505.351563 5384.890625 " transform="matrix(0.1,0,0,-0.1,0,606.2)"/>
<path style="fill:none;stroke-width:79.999;stroke-linecap:butt;stroke-linejoin:miter;stroke:rgb(100%,79.6875%,0%);stroke-opacity:1;stroke-miterlimit:4;" d="M 3301.132813 4979.34375 C 3457.773438 4979.34375 3584.726563 4852.390625 3584.726563 4695.75 C 3584.726563 4539.109375 3457.773438 4412.15625 3301.132813 4412.15625 C 3144.492188 4412.15625 3017.5 4539.109375 3017.5 4695.75 C 3017.5 4852.390625 3144.492188 4979.34375 3301.132813 4979.34375 Z M 3301.132813 4979.34375 " transform="matrix(0.1,0,0,-0.1,0,606.2)"/>
<path style="fill:none;stroke-width:79.999;stroke-linecap:butt;stroke-linejoin:miter;stroke:rgb(100%,79.6875%,0%);stroke-opacity:1;stroke-miterlimit:4;" d="M 2840.703125 4976.375 C 2997.34375 4976.375 3124.296875 4849.421875 3124.296875 4692.78125 C 3124.296875 4536.140625 2997.34375 4409.148438 2840.703125 4409.148438 C 2684.0625 4409.148438 2557.109375 4536.140625 2557.109375 4692.78125 C 2557.109375 4849.421875 2684.0625 4976.375 2840.703125 4976.375 Z M 2840.703125 4976.375 " transform="matrix(0.1,0,0,-0.1,0,606.2)"/>
<path style=" stroke:none;fill-rule:evenodd;fill:rgb(0%,28.24707%,59.179688%);fill-opacity:1;" d="M 353.859375 266.480469 L 351.605469 266.480469 C 351.039063 264.867188 350.042969 263.152344 348.617188 261.328125 C 347.179688 259.503906 345.824219 258.507813 344.539063 258.339844 C 343.953125 258.257813 343.175781 258.1875 342.207031 258.128906 C 341.230469 258.070313 340.332031 258.039063 339.515625 258.039063 L 333.066406 258.039063 L 333.066406 274.304688 L 337.183594 274.304688 C 338.351563 274.304688 339.355469 274.175781 340.214844 273.917969 C 341.070313 273.648438 341.828125 273.179688 342.496094 272.5 C 342.984375 272.011719 343.453125 271.195313 343.914063 270.058594 C 344.371094 268.921875 344.648438 267.945313 344.738281 267.128906 L 346.960938 267.128906 L 346.960938 284.5625 L 344.738281 284.5625 C 344.667969 283.683594 344.359375 282.617188 343.84375 281.363281 C 343.3125 280.105469 342.867188 279.269531 342.496094 278.859375 C 341.929688 278.242188 341.210938 277.773438 340.332031 277.476563 C 339.457031 277.175781 338.410156 277.027344 337.183594 277.027344 L 333.066406 277.027344 L 333.066406 290.75 C 333.066406 291.449219 333.199219 292.046875 333.457031 292.546875 C 333.714844 293.042969 334.222656 293.441406 334.960938 293.75 C 335.390625 293.929688 335.976563 294.089844 336.726563 294.238281 C 337.472656 294.378906 338.222656 294.5 338.957031 294.570313 L 338.957031 296.851563 L 316.621094 296.851563 L 316.621094 294.570313 C 317.191406 294.519531 317.9375 294.429688 318.875 294.328125 C 319.800781 294.21875 320.460938 294.089844 320.828125 293.929688 C 321.527344 293.660156 322.015625 293.285156 322.292969 292.792969 C 322.5625 292.304688 322.703125 291.679688 322.703125 290.921875 L 322.703125 261.699219 C 322.703125 261.03125 322.574219 260.453125 322.332031 259.953125 C 322.085938 259.464844 321.585938 259.046875 320.828125 258.71875 C 320.28125 258.476563 319.5625 258.269531 318.664063 258.070313 C 317.769531 257.878906 317.089844 257.75 316.621094 257.691406 L 316.621094 255.417969 L 353.859375 255.417969 Z M 370.34375 292.007813 C 370.34375 293.542969 369.777344 294.878906 368.640625 296.003906 C 367.503906 297.128906 366.160156 297.699219 364.59375 297.699219 C 363.019531 297.699219 361.664063 297.140625 360.527344 296.023438 C 359.382813 294.898438 358.8125 293.5625 358.8125 292.007813 C 358.8125 290.441406 359.382813 289.097656 360.527344 287.960938 C 361.664063 286.824219 363.019531 286.257813 364.59375 286.257813 C 366.160156 286.257813 367.503906 286.824219 368.640625 287.972656 C 369.777344 289.128906 370.34375 290.460938 370.34375 292.007813 Z M 370.34375 292.007813 "/>
<path style=" stroke:none;fill-rule:evenodd;fill:rgb(0%,28.24707%,59.179688%);fill-opacity:1;" d="M 126.0625 113.859375 C 128.59375 115.523438 130.636719 117.726563 132.203125 120.476563 C 133.757813 123.230469 134.535156 126.609375 134.535156 130.59375 C 134.535156 134.101563 133.835938 137.152344 132.441406 139.753906 C 131.054688 142.347656 129.210938 144.480469 126.910156 146.132813 C 124.578125 147.789063 121.925781 149.015625 118.957031 149.820313 C 115.984375 150.628906 112.875 151.039063 109.625 151.039063 L 88.746094 151.039063 L 88.746094 148.753906 C 89.371094 148.746094 90.148438 148.683594 91.085938 148.585938 C 92.015625 148.484375 92.640625 148.367188 92.949219 148.238281 C 93.648438 147.9375 94.136719 147.546875 94.417969 147.050781 C 94.683594 146.550781 94.824219 145.953125 94.824219 145.257813 L 94.824219 115.882813 C 94.824219 115.214844 94.695313 114.617188 94.4375 114.078125 C 94.1875 113.550781 93.6875 113.113281 92.949219 112.785156 C 92.214844 112.453125 91.425781 112.226563 90.597656 112.117188 C 89.769531 111.996094 89.132813 111.917969 88.683594 111.875 L 88.683594 109.605469 L 110.730469 109.605469 C 113.09375 109.605469 115.605469 109.902344 118.296875 110.511719 C 120.988281 111.109375 123.570313 112.226563 126.0625 113.859375 Z M 120.109375 143.5625 C 121.058594 142.007813 121.753906 140.152344 122.195313 138 C 122.632813 135.847656 122.851563 133.375 122.851563 130.566406 C 122.851563 127.824219 122.5625 125.320313 121.976563 123.058594 C 121.398438 120.808594 120.539063 118.875 119.402344 117.277344 C 118.277344 115.683594 116.871094 114.449219 115.1875 113.570313 C 113.503906 112.695313 111.589844 112.253906 109.445313 112.253906 C 108.769531 112.253906 107.992188 112.273438 107.125 112.304688 C 106.257813 112.335938 105.617188 112.355469 105.191406 112.375 L 105.191406 143.820313 C 105.191406 144.527344 105.28125 145.144531 105.460938 145.675781 C 105.648438 146.214844 105.96875 146.679688 106.417969 147.089844 C 106.863281 147.507813 107.414063 147.816406 108.0625 148.046875 C 108.71875 148.265625 109.566406 148.375 110.613281 148.375 C 112.816406 148.375 114.710938 147.96875 116.285156 147.148438 C 117.859375 146.332031 119.132813 145.136719 120.109375 143.5625 Z M 152.195313 146.191406 C 152.195313 147.726563 151.628906 149.0625 150.492188 150.191406 C 149.355469 151.316406 148.007813 151.882813 146.445313 151.882813 C 144.871094 151.882813 143.515625 151.328125 142.378906 150.210938 C 141.230469 149.082031 140.664063 147.746094 140.664063 146.191406 C 140.664063 144.628906 141.230469 143.28125 142.378906 142.148438 C 143.515625 141.011719 144.871094 140.441406 146.445313 140.441406 C 148.007813 140.441406 149.355469 141.011719 150.492188 142.15625 C 151.628906 143.3125 152.195313 144.648438 152.195313 146.191406 Z M 152.195313 146.191406 "/>
<path style=" stroke:none;fill-rule:evenodd;fill:rgb(0%,28.24707%,59.179688%);fill-opacity:1;" d="M 213.054688 198.429688 L 190.65625 198.429688 L 190.65625 196.148438 C 191.144531 196.117188 191.855469 196.058594 192.789063 195.976563 C 193.726563 195.898438 194.367188 195.777344 194.722656 195.628906 C 195.441406 195.332031 195.941406 194.953125 196.210938 194.472656 C 196.476563 193.996094 196.617188 193.386719 196.617188 192.648438 L 196.617188 178.367188 L 178.925781 178.367188 L 178.925781 192.332031 C 178.925781 192.988281 179.066406 193.585938 179.34375 194.105469 C 179.625 194.632813 180.113281 195.042969 180.789063 195.332031 C 181.160156 195.488281 181.796875 195.660156 182.695313 195.828125 C 183.582031 196.007813 184.320313 196.117188 184.875 196.148438 L 184.875 198.429688 L 162.480469 198.429688 L 162.480469 196.148438 C 162.96875 196.136719 163.6875 196.066406 164.625 195.957031 C 165.570313 195.859375 166.257813 195.730469 166.6875 195.570313 C 167.382813 195.308594 167.871094 194.933594 168.152344 194.414063 C 168.421875 193.894531 168.5625 193.289063 168.5625 192.589844 L 168.5625 163.277344 C 168.5625 162.589844 168.429688 162.019531 168.191406 161.550781 C 167.941406 161.082031 167.445313 160.675781 166.6875 160.328125 C 166.117188 160.066406 165.382813 159.835938 164.464844 159.636719 C 163.558594 159.429688 162.890625 159.308594 162.480469 159.269531 L 162.480469 156.996094 L 184.875 156.996094 L 184.875 159.269531 C 184.277344 159.308594 183.550781 159.410156 182.714844 159.570313 C 181.875 159.71875 181.238281 159.867188 180.789063 160.007813 C 180.03125 160.257813 179.535156 160.65625 179.285156 161.214844 C 179.046875 161.769531 178.925781 162.359375 178.925781 162.976563 L 178.925781 175.367188 L 196.617188 175.367188 L 196.617188 163.277344 C 196.617188 162.589844 196.488281 162.019531 196.238281 161.550781 C 195.980469 161.082031 195.480469 160.675781 194.722656 160.328125 C 194.214844 160.085938 193.539063 159.867188 192.691406 159.667969 C 191.84375 159.460938 191.167969 159.328125 190.65625 159.269531 L 190.65625 156.996094 L 213.054688 156.996094 L 213.054688 159.269531 C 212.4375 159.308594 211.738281 159.390625 210.949219 159.519531 C 210.171875 159.648438 209.476563 159.808594 208.859375 160.007813 C 208.109375 160.257813 207.613281 160.65625 207.363281 161.203125 C 207.113281 161.742188 206.984375 162.339844 206.984375 162.976563 L 206.984375 192.332031 C 206.984375 193.027344 207.113281 193.625 207.363281 194.105469 C 207.613281 194.59375 208.109375 195 208.859375 195.332031 C 209.316406 195.53125 209.992188 195.710938 210.882813 195.859375 C 211.769531 196.019531 212.496094 196.117188 213.054688 196.148438 Z M 230.664063 193.585938 C 230.664063 195.121094 230.097656 196.457031 228.960938 197.582031 C 227.824219 198.710938 226.480469 199.277344 224.914063 199.277344 C 223.339844 199.277344 221.984375 198.71875 220.847656 197.601563 C 219.703125 196.476563 219.132813 195.140625 219.132813 193.585938 C 219.132813 192.023438 219.703125 190.675781 220.847656 189.539063 C 221.984375 188.402344 223.339844 187.835938 224.914063 187.835938 C 226.480469 187.835938 227.824219 188.402344 228.960938 189.550781 C 230.097656 190.707031 230.664063 192.042969 230.664063 193.585938 Z M 230.664063 193.585938 "/>
<path style=" stroke:none;fill-rule:evenodd;fill:rgb(0%,28.24707%,59.179688%);fill-opacity:1;" d="M 260.363281 252.8125 C 257.324219 252.8125 254.484375 252.324219 251.832031 251.335938 C 249.191406 250.359375 246.878906 248.933594 244.917969 247.0625 C 242.992188 245.238281 241.46875 242.976563 240.359375 240.273438 C 239.253906 237.582031 238.695313 234.613281 238.695313 231.382813 C 238.695313 228.171875 239.253906 225.195313 240.371094 222.460938 C 241.496094 219.730469 243.0625 217.359375 245.09375 215.355469 C 247.078125 213.382813 249.460938 211.859375 252.242188 210.78125 C 255.03125 209.703125 258.011719 209.15625 261.183594 209.15625 C 263.476563 209.15625 265.566406 209.4375 267.460938 209.992188 C 269.34375 210.550781 270.941406 211.179688 272.246094 211.878906 L 274.058594 210.273438 L 276.601563 210.273438 L 276.859375 225.394531 L 274.289063 225.394531 C 272.832031 220.777344 271.078125 217.398438 269.035156 215.238281 C 266.992188 213.074219 264.5 211.996094 261.5625 211.996094 C 257.902344 211.996094 255.113281 213.601563 253.207031 216.820313 C 251.304688 220.050781 250.347656 224.566406 250.347656 230.386719 C 250.347656 233.675781 250.675781 236.484375 251.324219 238.820313 C 251.984375 241.140625 252.828125 243.015625 253.875 244.429688 C 255.011719 245.914063 256.347656 247 257.882813 247.6875 C 259.417969 248.386719 261.121094 248.726563 262.996094 248.726563 C 265.71875 248.726563 268.148438 247.988281 270.273438 246.511719 C 272.40625 245.027344 274.347656 242.785156 276.101563 239.796875 L 278.613281 241.308594 C 277.777344 243.023438 276.820313 244.558594 275.753906 245.90625 C 274.675781 247.261719 273.441406 248.425781 272.046875 249.402344 C 270.5 250.46875 268.808594 251.308594 266.941406 251.914063 C 265.089844 252.511719 262.898438 252.8125 260.363281 252.8125 Z M 294.992188 246.863281 C 294.992188 248.398438 294.421875 249.734375 293.285156 250.859375 C 292.148438 251.984375 290.804688 252.554688 289.238281 252.554688 C 287.664063 252.554688 286.308594 251.996094 285.171875 250.878906 C 284.027344 249.753906 283.457031 248.417969 283.457031 246.863281 C 283.457031 245.296875 284.027344 243.953125 285.171875 242.816406 C 286.308594 241.679688 287.664063 241.109375 289.238281 241.109375 C 290.804688 241.109375 292.148438 241.679688 293.285156 242.824219 C 294.421875 243.980469 294.992188 245.316406 294.992188 246.863281 Z M 294.992188 246.863281 "/>
</g>
</svg>
