<?xml version="1.0" encoding="utf-8"?>
<!-- Generator: Adobe Illustrator 27.0.0, SVG Export Plug-In . SVG Version: 6.00 Build 0)  -->
<svg version="1.1" id="Layer_1" xmlns="http://www.w3.org/2000/svg" xmlns:xlink="http://www.w3.org/1999/xlink" x="0px" y="0px"
	 viewBox="0 0 867.3 867.3" style="enable-background:new 0 0 867.3 867.3;" xml:space="preserve">
<style type="text/css">
	.st0{fill:#B6593A;stroke:#231F20;stroke-width:6.9901;stroke-linecap:round;stroke-linejoin:round;stroke-miterlimit:10;}
	.st1{fill:#FCE8C8;}
	.st2{fill:none;stroke:#231F20;stroke-width:6.9901;stroke-linecap:round;stroke-linejoin:round;stroke-miterlimit:10;}
	.st3{fill:#FCE8C8;stroke:#231F20;stroke-width:6.9901;stroke-linecap:round;stroke-linejoin:round;stroke-miterlimit:10;}
	.st4{fill:#FCB329;stroke:#231F20;stroke-width:6.9901;stroke-linecap:round;stroke-linejoin:round;stroke-miterlimit:10;}
	.st5{fill:#45AA5A;stroke:#231F20;stroke-width:6.9901;stroke-linecap:round;stroke-linejoin:round;stroke-miterlimit:10;}
	.st6{fill:#231F20;}
	.st7{fill:#A63B1C;stroke:#231F20;stroke-width:6.9901;stroke-linecap:round;stroke-linejoin:round;stroke-miterlimit:10;}
	.st8{fill:#DF5026;stroke:#231F20;stroke-width:6.9901;stroke-linecap:round;stroke-linejoin:round;stroke-miterlimit:10;}
	.st9{fill:#45AA5A;}
	.st10{fill:#FCB329;stroke:#231F20;stroke-width:6.9901;stroke-miterlimit:10;}
	.st11{fill:none;}
</style>
<path class="st0" d="M374.7,346.2l-70.1-88.7c-131.5-161.1-96.9-238-96.9-238c11.8,86.6,109.4,208.1,109.4,208.1
	c-1.2-51,22.6-72,22.6-72c-20.5,97.4,57.9,173.2,57.9,173.2L374.7,346.2z"/>
<path class="st1" d="M393.3,335.6c0,0-18.8-12-40.8-55.9l4.3-3.1c0,0,23.7,44.3,40.6,55L393.3,335.6z"/>
<g>
	<path class="st1" d="M207,29.7C221,95.1,273.4,167,314.8,219.3c3.1,3.8,6.2,7.6,9.3,11.2l-11.7,4.7c-0.3-6.6-0.4-13.3,0-20
		c1.3-19.6,5.5-40.3,18.2-56c0.8-1,1.8-2,2.8-2.9c0.1-0.1,0.3-0.2,0.4-0.2c0,0,6.7,10.8,6.7,10.8c-0.2,0.1,2.8-4,2.8-4
		c-3.4,14.5-4.3,29.6-3.2,44.7c3.7,46.1,22.3,90.2,46.1,129.5c-2.5-3-4.9-6.1-7.3-9.2c-34.3-47.6-59.9-108.1-48-167.8
		c0-0.3,2.7-3.7,2.9-4.1c0,0,6.7,10.8,6.7,10.8c0,0,0,0.1,0,0.1l0.9-0.7c-1.8,1.9-3.2,4-4.5,6.3c-10.4,18.6-11.9,40.9-11.2,62
		c0.2,3.7-2.6,6.9-6.3,7c-2.1,0.1-4.1-0.8-5.4-2.3c-3.3-3.9-6.4-7.7-9.5-11.6C263.2,174.7,212.2,97.5,207,29.7L207,29.7z"/>
</g>
<path class="st2" d="M374.7,346.2l-70.1-88.7c-131.5-161.1-96.9-238-96.9-238c11.8,86.6,109.4,208.1,109.4,208.1
	c-1.2-51,22.6-72,22.6-72c-20.5,97.4,57.9,173.2,57.9,173.2L374.7,346.2z"/>
<path class="st3" d="M482.5,523.1c-2.1,11.3-7.1,37.4-24.2,58c0,0,24.3-5.4,46.5-35.3c12.6-16.9,8.2-25.4,0.7-29.2
	C496.6,512.1,484,514.9,482.5,523.1z"/>
<path class="st3" d="M541.3,528.2c-2.1,11.3-7.1,37.4-24.2,58c0,0,24.3-5.4,46.5-35.3c12.6-16.9,8.2-25.4,0.7-29.2
	C555.4,517.2,542.8,520,541.3,528.2z"/>
<path class="st4" d="M617.5,537c3.7,32.4-18.8,78.5-18.8,78.5c28.7-8.1,47.1-53.3,47.1-53.3c3.8,24-3.7,64-3.7,64
	c29.3-18.1,29.3-60.6,29.3-60.6c6.9,10.6,20.6,54.9,20.6,54.9c12.1-30.7,2.4-62.1,2.4-62.1c23,15.2,43.4,51.1,43.4,51.1
	c9.5-37.8-15.4-67.7-15.4-67.7c30.8,4.4,56.2,40.9,56.2,40.9c0.5-40.6-36.3-68.1-36.3-68.1c31.3-0.8,60.7,19.3,60.7,19.3
	c-15.9-36-61.7-50.8-61.7-50.8c23.1-9.7,67,0,67,0c-22.7-33.2-75.3-27.1-75.3-27.1c9.1-20,54-24.7,54-24.7c-28.3-20.4-69.1,0-69.1,0
	c4.7-21.8,38.4-36.8,38.4-36.8c-34.8-11.6-59.5,23.2-59.5,23.2c-9.1-14.4,10.3-39.2,10.3-39.2c-66.2,19.9-32.2,73-32.2,73l-50.7,43
	L617.5,537z"/>
<path class="st5" d="M664.3,477.8c0,0-36.5-11.2-36.7-46.1c0-10.8,0.7-22.3,25.1-49.8c42.3-47.8-18.8-125-76.3-114.6
	c-19.4,3.5-35.2,15.2-48,21.2c-8.9,4.2-15.9,4.4-24,0.7c-8.6-4-12.4-12.7-14.1-21c-0.6-2.7-2.3-21.1-8.6-32
	c-11.8-20.3-45.7-41.2-99.3,11.1c81.6-55.9,86.9,19.6,86.9,19.6s2.2,42.1,39.3,47.2c20.9,2.8,38.8-14.4,60.2-21.6
	c40.9-13.6,100.3,40.3,60.9,77c-49.6,46.1-17.2,97.2-12.5,111.5L664.3,477.8z"/>
<g>
	<path class="st1" d="M665.5,477.8c-16.7-4.3-33.8-13.4-41.8-29.5c-2.7-5.4-3.9-11.5-4-17.6c-0.1-2.9-0.2-5.9,0.2-9
		c1.7-15.2,11.4-27.8,20.9-39c1.6-1.8,4-4.5,5.5-6.4c5-6.3,8.6-13.6,10.3-21.4c8.3-40.2-32-79.4-71.1-79.2
		c-13.6,0-26.3,5.4-38.3,11.8c-7.8,3.9-15.6,9.5-24.3,11.8c-9.9,2.2-20.4-0.4-28.7-5.8c-6.9-5-10.6-13.1-12.1-21.2
		c-1.5-10.3-2.4-21-7-30.2c-7-13.8-22-22.4-37.6-21.5c-11.1,0.4-21.9,4.6-31.6,10c-10,5.6-19.1,12.6-27.7,20.1
		c11.9-12.6,25.4-24.3,41.6-31c22.3-9.6,47.2-4.5,60.8,16.6c4.1,6.5,6.2,14.2,7.8,21.5c0.9,4,1.5,8.7,2.3,12.6
		c1.6,7.1,5.1,14.3,11.8,16.9c8.3,3.7,16.8,4.1,24.6-0.8c10.1-5.4,20.1-11.8,31.1-16.1c11.3-4.5,24.1-6.7,36.3-5.1
		c36.4,4.8,69,35.8,72.1,72.9c1.5,17.1-5.6,34.1-17.4,46.2c-8.5,9-17.3,18.6-21.9,30.1c-2.4,5.7-2.7,11.8-2.8,18
		C624.3,455.7,645.9,471,665.5,477.8L665.5,477.8z"/>
</g>
<path class="st2" d="M664.3,477.8c0,0-36.5-11.2-36.7-46.1c0-10.8,0.7-22.3,25.1-49.8c42.3-47.8-18.8-125-76.3-114.6
	c-19.4,3.5-35.2,15.2-48,21.2c-8.9,4.2-15.9,4.4-24,0.7c-8.6-4-12.4-12.7-14.1-21c-0.6-2.7-2.3-21.1-8.6-32
	c-11.8-20.3-45.7-41.2-99.3,11.1c81.6-55.9,86.9,19.6,86.9,19.6s2.2,42.1,39.3,47.2c20.9,2.8,38.8-14.4,60.2-21.6
	c40.9-13.6,100.3,40.3,60.9,77c-49.6,46.1-17.2,97.2-12.5,111.5L664.3,477.8z"/>
<circle class="st3" cx="554.9" cy="413.1" r="28.3"/>
<circle class="st6" cx="554.9" cy="413.1" r="14.7"/>
<path class="st7" d="M522.9,676c0,0,14.5-25.2-22.8-30.9l-37.3-2.4l-33.2-7l-17.2-9.2l-18.6-8.6v45l6.5,22.2l6.6,10.6l47.2,10.6
	l20.9-12.6l36.1,1.2L522.9,676z"/>
<path class="st3" d="M490.9,652.6c3.3-11,6.8-36.6,1-62.7c0,0,17.8,9.2,23.9,45.9c0.8,13.9-5.1,14.4-13.6,14.3
	C492.3,649.9,488.5,660.6,490.9,652.6z"/>
<path class="st8" d="M432.6,501.6c0,0,15.6,42.4,5,89.4c-10.6,46.9,48,46.9,64.7,31.5c16.5-13.3,47.6-22.2,69.3,2.5
	c19.8,22.6,41.4,24.2,60.1,12.1c0,0-28.3,38.1-70.7,8.8c0,0-18.7-17.1-36.1-5c-4.7,3.3-11.1,10.3-17.9,14.1
	c-20.6,11.5-43.8,13.2-66.2,5.8c-13.8-4.5-27.5-13.4-37.2-29.8l-15-62.1l-15.1-27.8l-26.2-19.2l-40.9-13.1l-25.2-14.5l-4.5-33.9
	l36.3-9.1l32.8,17.7l58,20.6L432.6,501.6z"/>
<g>
	<path class="st1" d="M422.4,601.9c3.5,26.4,34,31.8,56.1,28.9c7.5-1.1,14.9-2.9,21.1-7.1c9.8-7.6,21.3-13.5,33.9-14.6
		c14-1.3,27.8,5.2,36.7,15.9c1.5,1.8,3.2,3.8,4.8,5.6c14.5,16.1,31.5,21.8,51.3,11c-19.1,15.1-39.7,9.8-56.3-6
		c-1.8-1.7-3.7-3.6-5.4-5.4c-11.9-12.3-27.6-14.8-43.1-7.7c-5.6,2.4-10.8,5.8-15.6,9.7c-7.6,5.6-17.2,8.1-26.3,9
		c-10.6,1-21.4,0-31.5-3.5C432.6,632.5,419.6,619.3,422.4,601.9L422.4,601.9z"/>
</g>
<path class="st2" d="M432.6,501.6c0,0,15.6,42.4,5,89.4c-10.6,46.9,48,46.9,64.7,31.5c16.5-13.3,47.6-22.2,69.3,2.5
	c19.8,22.6,41.4,24.2,60.1,12.1c0,0-28.3,38.1-70.7,8.8c0,0-18.7-17.1-36.1-5c-4.7,3.3-11.1,10.3-17.9,14.1
	c-20.6,11.5-43.8,13.2-66.2,5.8c-13.8-4.5-27.5-13.4-37.2-29.8l-15-62.1l-15.1-27.8l-26.2-19.2l-40.9-13.1l-25.2-14.5l-4.5-33.9
	l36.3-9.1l32.8,17.7l58,20.6L432.6,501.6z"/>
<g>
	<path class="st9" d="M396.6,718.7L376.9,683l2.2-78.3c0-0.5-0.1-1.1-0.3-1.6l-17.7-48.2c-0.4-1-1-1.8-1.9-2.3l-44.7-25.3
		c-0.1-0.1-0.2-0.1-0.3-0.2l-42-19.5l-31.9-35.5c-0.6-0.6-1.3-1.1-2.2-1.3c-0.1,0-2.7-0.7-7.4-1.6c-7.6-1.6-27.6-5.4-53.9-6.8
		c-4.8-4.9-24.7-26.4-35.1-58.1c-6.9-21-8.4-42.3-4.4-63.5c4.9-25.7,18-51.2,39-75.9l30.1,11.1l46.1,17.1c0.5,0.2,1,0.3,1.5,0.3
		c1,0,1.9-0.3,2.7-0.9c6.2-4.8,24.4-14,49.1-14c16.2,0,33.2,3.8,50.4,11.3c4,1.7,10.2,5.6,17.4,10.1c16.7,10.4,39.5,24.5,59.4,27.9
		c4.4,0.7,9,1.4,13.8,2.1c35,5.2,74.7,11,92.9,48.6l-7.8,23.1c-0.1,0.4-0.2,0.7-0.2,1.1c0,0.3-1.2,27.6,29.3,39.1
		c0.5,0.2,1,0.3,1.5,0.3c0.6,0,1.1-0.1,1.7-0.3c0,0,5.3-2.2,12.5-2.2c12,0,22.1,5.6,29.8,16.7c0.8,1.2,2.2,1.8,3.5,1.8
		c0.8,0,1.6-0.2,2.3-0.7c0.1-0.1,11.6-7.1,25.2-7.1c7.7,0,14.7,2.3,20.6,6.9c0.8,0.6,1.7,0.9,2.6,0.9c0.4,0,0.7,0,1.1-0.1
		c1.3-0.3,2.3-1.2,2.9-2.4c0.1-0.1,7-15.1,20.1-15.1c3,0,6.2,0.8,9.6,2.3c3,1.5,16.8,9.6,9.3,25.3c-0.8,1.7-0.4,3.7,0.9,5
		c0.2,0.2,19.7,19.2,11.5,39.2c-3.5,8.7-8.6,13.1-15.1,13.1c-3.5,0-6.2-1.3-6.2-1.3c-0.6-0.3-1.3-0.4-1.9-0.4
		c-0.6,0-1.2,0.1-1.8,0.4c-1.2,0.5-2.1,1.6-2.4,2.8c-0.1,0.5-3.5,12-17.5,12.7c-0.9,0-1.8,0.1-2.6,0.1c-11.9,0-15.9-4.7-16.4-5.3
		c-0.6-1-1.6-1.7-2.8-1.9c-0.2,0-0.5-0.1-0.7-0.1c-1,0-1.9,0.4-2.7,1c-0.1,0.1-10.9,8.2-27.7,8.2c-9.6,0-19.4-2.6-29.1-7.8
		c-0.6-0.3-1.3-0.5-2-0.5c-0.6,0-1.3,0.1-1.8,0.4c-0.2,0.1-21.2,9.8-46.9,9.8c-24.9,0-45.6-8.9-61.5-26.5c-0.8-0.9-2-1.4-3.2-1.4
		c-0.4,0-0.8,0.1-1.3,0.2c-0.1,0-13,3.9-28.7,3.9c-26.2,0-43.5-10.2-51.6-30.2c-0.6-1.5-2.1-2.6-3.8-2.7c-0.5,0-51.7-3.1-70.7-24.8
		c-0.5-0.6-1.3-1.1-2.1-1.3c-0.2-0.1-6.1-1.7-12.9-1.7c-13.5,0-22,6.6-23.3,18c-2.6,20.5,21.6,26.7,39.2,31.3c3.9,1,7.5,2,10.6,3
		c11.1,3.8,67,25.4,70,79c1.1,20.9,0.3,37.1-0.3,50.1c-1.1,21.8-1.8,34.9,8.5,45.1c5.9,6,15,9,26.9,9c12.7,0,24.3-3.5,24.8-3.6
		c0.2,0,0.3-0.1,0.5-0.2c0.1-0.1,13.6-5.8,30.7-5.8c4.6,0,9.1,0.4,13.4,1.2c0.2,0,2.4,0.4,5.3,0.4c4,0,7.5-0.7,10.4-2.1
		c-0.1,3.7-0.9,7.6-3.2,10.2c-0.1,0.1-0.1,0.2-0.2,0.3c-3.8,4.9-9.3,7.5-17.5,8.1c-1.1,0.1-2.2,0.6-2.9,1.4l-11,12.5l-48.5,7.2
		L396.6,718.7z"/>
	<g>
		<path class="st1" d="M177.5,270.3l27.3,10.1l46.1,17.1c1,0.4,2,0.5,3,0.5c1.9,0,3.7-0.6,5.3-1.8c0.2-0.1,17.3-13.1,46.5-13.1
			c15.6,0,32,3.7,48.7,10.9c3.7,1.6,9.8,5.4,16.8,9.8c17,10.5,40.2,25,61,28.5c4.5,0.8,9.1,1.4,13.9,2.1
			c33.5,4.9,71.3,10.5,88.9,44.7l-7.3,21.4c-0.2,0.7-0.4,1.5-0.4,2.3c0,0.8-0.4,8.3,3.5,17.3c3.5,8.3,11.4,19.5,28.6,26.1
			c1,0.4,2,0.6,3.1,0.6c1.1,0,2.2-0.2,3.3-0.7c0.4-0.2,4.9-1.8,10.9-1.8c10.5,0,19.4,5,26.3,14.8c1.7,2.4,4.3,3.7,7.1,3.7
			c1.6,0,3.1-0.4,4.5-1.3c0.1-0.1,10.7-6.5,22.9-6.5c6.9,0,12.7,2,18,6c1.5,1.2,3.4,1.8,5.3,1.8c0.7,0,1.4-0.1,2.1-0.3
			c2.6-0.7,4.7-2.4,5.7-4.9c0.3-0.6,6.1-12.6,16.2-12.6c2.4,0,5,0.6,7.7,1.9c0.7,0.4,4.2,2.3,6.7,5.6c1.9,2.5,4,6.8,0.6,14
			c-1.6,3.4-0.9,7.4,1.8,9.9c0.2,0.2,17.5,17.2,10.5,34.5c-1,2.6-4.2,10.4-11.1,10.4c-2.2,0-4-0.7-4.3-0.9c-1.3-0.7-2.7-1.1-4.1-1.1
			c-1.1,0-2.3,0.2-3.3,0.7c-2.4,1.1-4.1,3.2-4.7,5.8c-0.1,0.4-0.9,2.6-2.9,4.8c-2.6,3-6.1,4.5-10.7,4.8c-0.8,0-1.6,0.1-2.4,0.1
			c-9.3,0-12.6-3.2-13-3.6c-1.3-1.8-3.3-3.1-5.5-3.5c-0.5-0.1-0.9-0.1-1.4-0.1c-1.9,0-3.7,0.6-5.2,1.8c-0.6,0.4-10.3,7.3-25.1,7.3
			c-8.9,0-18-2.5-27.1-7.3c-1.3-0.7-2.7-1-4.1-1c-1.3,0-2.5,0.3-3.7,0.8c-0.2,0.1-20.2,9.4-45,9.4c-23.6,0-43.2-8.4-58.3-25.1
			c-1.7-1.8-4-2.8-6.4-2.8c-0.8,0-1.7,0.1-2.5,0.4c-0.1,0-12.5,3.7-27.4,3.7c-24.2,0-40.3-9.3-47.6-27.5c-1.2-3.1-4.2-5.2-7.5-5.4
			c-13.8-0.8-52.9-6.5-67.7-23.3c-1.1-1.2-2.5-2.2-4.1-2.6c-0.7-0.2-6.8-1.9-14.1-1.9c-15.7,0-26,8.2-27.6,21.8
			c-1,7.7,0.9,18.5,15.2,26.5c8.1,4.6,18.3,7.2,27.2,9.5c3.8,1,7.4,1.9,10.3,2.9c10.8,3.7,64.3,24.4,67,75.1
			c1.1,20.7,0.3,36.7-0.3,49.6c-1.1,22.2-1.9,36.8,9.7,48.4c6.8,6.8,16.9,10.3,30,10.3c13.4,0,25.5-3.7,26-3.8
			c0.3-0.1,0.6-0.2,0.9-0.3c0.1-0.1,12.9-5.4,29-5.4c4.3,0,8.6,0.4,12.6,1.2c0.4,0.1,2.9,0.5,6.1,0.5c1.7,0,3.3-0.1,4.8-0.3
			c-0.2,0.5-0.5,0.9-0.9,1.3c-0.1,0.2-0.3,0.3-0.4,0.5c-3,3.9-7.5,5.9-14.4,6.5c-2.2,0.2-4.3,1.2-5.8,2.9l-10,11.3l-46.3,6.9
			l-36.8-5.2L381.2,682l2.2-77.1c0-1.1-0.1-2.2-0.5-3.2l-17.7-48.2c-0.7-1.9-2.1-3.5-3.8-4.5l-44.7-25.3c-0.2-0.1-0.4-0.2-0.6-0.3
			l-41.2-19.2l-31.3-34.8c-1.1-1.3-2.6-2.2-4.3-2.6c-0.1,0-2.8-0.7-7.6-1.6c-7.5-1.6-27.1-5.3-52.9-6.8
			c-6.1-6.4-23.6-26.7-33.1-55.6c-6.6-20.3-8-40.9-4.1-61.2C146.1,317.6,158.2,293.6,177.5,270.3 M565.8,445.9L565.8,445.9
			L565.8,445.9 M668.5,457.5L668.5,457.5L668.5,457.5 M174.9,260.1c-99.4,113.9,0,206.7,0,206.7c24.8,1.2,44.8,4.6,55,6.8
			c4.6,0.9,7.2,1.5,7.2,1.5l32.5,36.1l42.8,19.9l44.7,25.3l17.7,48.2l-2.3,79.5l21.3,38.6l42.3,6l50.7-7.5l12-13.6
			c7.9-0.6,15.3-3,20.5-9.8c6.9-7.6,3.5-21.7,3.5-21.7c-3.2,5.4-9.6,6.4-13.9,6.4c-2.6,0-4.5-0.4-4.5-0.4c-4.9-0.9-9.7-1.3-14.2-1.3
			c-18.3,0-32.4,6.2-32.4,6.2s-11.3,3.4-23.5,3.4c-8.7,0-17.9-1.8-23.9-7.7c-14.4-14.4-3.9-37.1-6.9-92.4
			c-3-55.3-59.3-78.2-72.9-82.8c-16.7-5.5-49.5-9-46.9-29.7c1.4-11.7,11-14.2,19.1-14.2c6.3,0,11.7,1.5,11.7,1.5
			c20.4,23.3,73.7,26.2,73.7,26.2c10.8,26.9,35.5,32.9,55.6,32.9c16.5,0,29.9-4.1,29.9-4.1c19.7,21.8,43.8,27.9,64.7,27.9
			c27,0,48.7-10.3,48.7-10.3c11.6,6.2,22.2,8.3,31.2,8.3c18.6,0,30.4-9.1,30.4-9.1s4.7,7.2,19.9,7.2c0.9,0,1.9,0,2.9-0.1
			c17.4-1,21.4-15.9,21.4-15.9s3.5,1.7,8.1,1.7c5.9,0,13.8-2.8,19.1-15.7c9.5-23.1-12.5-44-12.5-44c9.7-20.2-9.8-30.3-11.3-31.1
			c-4.2-1.9-8-2.7-11.4-2.7c-16.2,0-24.1,17.7-24.1,17.7c-7.6-5.8-15.7-7.8-23.2-7.8c-15,0-27.4,7.8-27.4,7.8
			c-10.5-15.1-23.6-18.5-33.3-18.5c-8.3,0-14.2,2.5-14.2,2.5c-28-10.5-26.6-34.8-26.6-34.8l8.4-24.7
			c-21.4-46.7-73.7-48.5-110.7-54.7c-27.7-4.6-62.2-31.7-75.8-37.6c-19.9-8.6-37.4-11.6-52.1-11.6c-32.9,0-51.8,15-51.8,15
			l-46.1-17.1L174.9,260.1L174.9,260.1z"/>
	</g>
</g>
<path class="st9" d="M513.6,690.7c0,0,5.2-0.4,9.9-3.4l-4.1,10.3l-6.5,5.4h-6.2l-6-1.4l-3.8-2.1l3.3-4.3L513.6,690.7z"/>
<path class="st1" d="M689,530.4c0.1-6.9-1.9,0-4.4-4.7c4.5-31.9-36.1-33.7-55.6-18.6c2.9-7.3,9.6-13.4,17.5-16.2
	C673.1,480,704,501.7,689,530.4L689,530.4z"/>
<path class="st1" d="M633.6,478.7c16.8-28.9,62.4-28.8,77,2.2c-4.8-3.2-1.7,1.5-9.7-5.1c-5.7-4.7-14.8-10-25.6-10.8
	C661.3,463.9,648.5,470.1,633.6,478.7L633.6,478.7z"/>
<g>
	<path class="st1" d="M510.9,444.8c9.9,0.5,17,5.2,23.3,12.6c4,5.2,10.8,8,17.1,6.1c17.6-5.3,39.1,1.9,42.3,21.5
		c-10.1-12.8-24.6-15.6-39.6-11.1c-10.3,2.9-21.4-1.8-26.5-11.2c-1.2-2.3-4.2-7.2-6.9-10.1C517.9,449.4,514.3,447.3,510.9,444.8
		L510.9,444.8z"/>
</g>
<path class="st2" d="M719.9,514.2c-9.4,23-27.2,14-27.2,14s-4,14.9-21.4,15.9c-17.5,1-22.8-7.1-22.8-7.1s-25.7,19.9-61.5,0.8
	c0,0-68.2,32.3-113.3-17.6c0,0-65.8,20.1-85.5-28.8c0,0-53.2-2.9-73.7-26.2c0,0-28.3-8.1-30.8,12.7c-2.6,20.6,30.2,24.2,46.9,29.7
	c13.7,4.6,69.9,27.5,72.9,82.8c3,55.3-7.5,78,6.9,92.4c14.3,14.4,47.4,4.3,47.4,4.3s21.9-9.6,46.7-4.8c0,0,13.3,2.6,18.4-6
	c0,0,3.3,14.1-3.5,21.7l-4.4,12.8l-28.2,10.6l-50.7,7.5l-42.3-6l-21.3-38.6l2.3-79.5l-17.7-48.2l-44.7-25.3l-42.8-19.9L237,475.1
	c0,0-2.6-0.6-7.2-1.5c-10.1-2.2-30.1-5.6-55-6.8c0,0-99.4-92.8,0-206.7l32.9,12.2l46.1,17.1c0,0,39.5-31.3,103.9-3.3
	c13.7,5.9,48.1,33,75.8,37.6c37,6.2,89.3,8.1,110.7,54.7l-8.4,24.7c0,0-1.4,24.3,26.6,34.8c0,0,28.1-11.8,47.5,16
	c0,0,28-17.5,50.7,0c0,0,11.5-25.9,35.5-14.9c1.5,0.8,21,10.9,11.3,31.1C707.4,470.2,729.4,491,719.9,514.2z"/>
<g>
	<path class="st1" d="M492.2,406.5c-2.4-16.8-20.8-28.2-35.4-33.7c-16.5-5.7-36-4.2-52.2-12.5c-8.1-4.1-15.6-10-22.7-15.4
		c-7.1-5.4-13.9-10.8-21.1-15.7c-14.2-9.7-30.1-18.8-47.7-18.8c18-4.7,36.7,2.9,52.2,11.5c7.9,4.4,15.4,9.6,22.6,14.6
		c7.2,5,13.8,10.2,21.5,14.1c15.7,7.7,34.5,6.7,50.5,14.2C475.3,372.2,494.1,388,492.2,406.5L492.2,406.5z"/>
</g>
<circle class="st3" cx="485.6" cy="473.3" r="28.3"/>
<circle class="st6" cx="485.6" cy="473.3" r="15.1"/>
<path class="st0" d="M317.5,373c-2.5,0.6-5.5,1.1-8.8,1.1l-96.2-78C33,155.4,51.6,64.9,51.6,64.9s0,0.1,0.1,0.3
	c33.6,89.7,166.9,195.9,166.9,195.9c-12.9-51.7,4.9-79.8,6.7-82.3c0.1-0.1,0.1-0.2,0.1-0.2c1.5,109,103.6,171.3,103.6,171.3
	C331.3,362.3,327.7,370.3,317.5,373z"/>
<path class="st1" d="M329.6,356.9c0,0-23.4-8.3-58.3-50.2l3.8-4.4c0,0,36.8,41.9,57.8,49.3L329.6,356.9z"/>
<g>
	<path class="st1" d="M50.8,72.8c13.6,29.8,33.7,55.6,55.3,79.9c28.9,32,60.9,61.1,94.3,88.4c8.3,6.7,16.8,13.5,25.3,19.9
		c0,0-10.4,7.2-10.4,7.2c-1.9-6.8-3.6-13.6-4.8-20.7c-3.4-20.9-4.1-44.7,8-63.3c0.3-0.4,1.1-1.6,1.5-2c-1,1-1.7,2.5-1.7,3.9
		c0,0,0,0.3,0,0.3l12.8-0.1c0.1,16.7,2.6,33.5,7.4,49.5c14.9,49.2,49.2,91,89.8,121.9c-3.8-2.1-7.5-4.4-11.2-6.8
		c-43.7-29.4-79.8-72.8-93.2-124.5c-3.4-13-5.2-26.5-5.6-39.9c0,0,12.8-0.1,12.8-0.1l0,0.4l0,0.2c-0.1,1.5-0.9,3.2-2,4.2
		c0,0,0.7-0.9,0.7-0.9l-0.7,1c-12.3,20.4-6.9,51.1-0.9,73.1c1.8,6.1-5.4,11-10.4,7.2C156.9,224.8,74.2,146.9,50.8,72.8L50.8,72.8z"
		/>
</g>
<path class="st2" d="M317.5,373c-2.5,0.6-5.5,1.1-8.8,1.1l-96.2-78C33,155.4,51.6,64.9,51.6,64.9s0,0.1,0.1,0.3
	c33.6,89.7,166.9,195.9,166.9,195.9c-12.9-51.7,4.9-79.8,6.7-82.3c0.1-0.1,0.1-0.2,0.1-0.2c1.5,109,103.6,171.3,103.6,171.3
	C331.3,362.3,327.7,370.3,317.5,373z"/>
<path class="st10" d="M324.3,346.2c1.9,2.8-1.6,24-21.9,22.7c0,0-5.5,4.6-3.8,11.7c2,8.3,13,12.8,22.6,9.4
	c16.8-5.9,23.7-18.4,25.4-25.8C349.7,349.5,341.6,336.8,324.3,346.2z"/>
<path class="st8" d="M300.6,425.5l-3.8,15.9l-2.8,0.3l-24.4,3.2l-15.7-4.7c-83.5-26.5-87.4-107.4-87.4-107.4
	c18.3,25.7,48.1,24.5,48.1,24.5C281.1,357.7,300.6,425.5,300.6,425.5z"/>
<path class="st5" d="M300.6,425.5l-3.8,15.9l-2.8,0.3l-18.4-7.5c0,0-18.5-49.7-54.4-55.8c-49.2-8.3-54.7-45.6-54.7-45.6
	c18.3,25.7,48.1,24.5,48.1,24.5C289.1,355.6,300.6,425.5,300.6,425.5z"/>
<g>
	<path class="st1" d="M172.2,341.5c10.9,10.2,24.1,15.4,37.8,14.9c4.9-0.3,10.3-0.4,15.2,0.2c27.1,3,54,19.3,64.9,44.9
		c2.6,6.3,4.2,12.9,4.6,19.5c-2.5-5.9-5.5-11.7-9.1-17c-14.1-20.5-37.5-33.2-61.7-37.1c-5.6-1-11.1-0.8-16.7-1.4
		C192.1,363.8,178.2,354.4,172.2,341.5L172.2,341.5z"/>
</g>
<path class="st2" d="M300.6,425.5l-3.8,15.9l-2.8,0.3l-18.4-7.5c0,0-18.5-49.7-54.4-55.8c-49.2-8.3-54.7-45.6-54.7-45.6
	c18.3,25.7,48.1,24.5,48.1,24.5C289.1,355.6,300.6,425.5,300.6,425.5z"/>
<path class="st4" d="M373.6,489.6c-47.3-33.8-40.5-85.3-40.5-85.3c-9.8,3.4-13.3,23.4-15.3,37.5c-16.7-13.7-19.6-63.3-19.6-63.3
	c-15.4,25.8-12.7,49.3-12.7,49.3c-18.3-15.1-34.1-42.9-34.1-42.9c-1.5,22.2,5.8,49.8,5.8,49.8c-25.7-16-40.6-40.9-40.6-40.9
	c-5.5,23.8,16.9,51.1,16.9,51.1c-42.6-25.7-71.4-14.4-71.4-14.4c43.5,11.3,58.7,35.3,58.7,35.3c-73-19.3-93,28.9-93,28.9
	c46.9-24.6,90.8-5,90.8-5c-50,8.9-62.9,56-62.9,56c42-38.9,82.2-33.9,82.2-33.9c-47.4,33.6-42,69.8-42,69.8
	c25.8-37.8,73-55.8,73-55.8c-23.7,24.6-20.9,59.3-20.9,59.3c29.6-49.5,70.1-37.2,70.1-37.2c-13.4,7.9-31.5,19-36.8,46.5
	c17.9-15.6,41-25.1,57.5-24c-8.9,18.6-26.6,31.6-44.4,45.4c26.7,3,56.1-14,56.1-14c-5.1,22.7-50.5,43.5-50.5,43.5
	c34.8,6.3,58-8.8,58-8.8c-10.1,25.2-53.5,39.9-53.5,39.9c19.7,8.1,53-2.5,53-2.5c-8.1,22.7-54,44.4-54,44.4
	c30.3,4,62.1-11.1,62.1-11.1c-9.1,24.2-49,49-49,49c29.8,1.5,64.1-22.7,64.1-22.7c-2,25.7-36.8,49.5-36.8,49.5
	c42.9-3,62.6-38.4,62.6-38.4c1,28.3-19.7,57.5-19.7,57.5c34.8-14.6,48.4-55.5,48.4-55.5c4.5,26.7-2.4,69.1-2.4,69.1
	c31.4-25.7,32.7-74.2,32.7-74.2c16.1,20.7,13.6,72.2,13.6,72.2c19.7-18.2,14.6-78.2,14.6-78.2c17,12.9,28,57.5,28,57.5
	c6.1-31-1.3-64.3-1.3-64.3c12.6,5.3,27.8,22,27.8,22c-7.6-47.6-28.8-53-28.8-53c-5,8.6-18.7,4-18.7,4c-16.6-3.2-30.3,1.1-37.5,4.4
	c-6.4,2.9-13,4.9-20,5.7c-10.7,1.3-38.2,1-51.1-17.5c-11.6-16.7-6.7-31.1-7-85.7c-0.3-55.3-39.3-75.5-56-82.3
	c-13.7-5.5-39.9-8.8-56.5-24c-7.9-6.5-11-15.4-11.2-23.7c0.4-16.4,8.7-26.2,21.3-28c17.7-2.5,31.8,14.4,31.8,14.4
	C329.4,480.4,352.6,486.4,373.6,489.6z"/>
<path class="st2" d="M692.7,528.1c0,0,7.6-28.6-22.7-37.2c0,0-26-7.2-42.6,13.5"/>
<path class="st1" d="M650.3,533.8c-11.8-4.3-12.6-23.6,0.3-27.7c8.9-3.5,21.9,2.5,20.2,13.1c-0.9,3.5-3.9,5.2-6.4,5.3
	c2.4-3.9,1.4-6.4-2.1-7.9c-10.4-3.9-15.4,7.2-5.2,16.7C658.2,534.2,649.8,532.4,650.3,533.8L650.3,533.8z"/>
<path class="st2" d="M648.5,537c0,0-7.1-7.2-6.4-16.5c1.1-13.7,15.1-14.9,21.4-12c8.4,3.8,10.8,13.7,3.2,18.3"/>
<path class="st2" d="M631.6,475.8c0,0,37.6-40.8,75.8-5.6"/>
<g>
	<path class="st11" d="M633.6,478.7"/>
</g>
<path class="st4" d="M472.7,460.5c0,0-32.5,51.2-117.8-11.4c0,0,41.3,13.4,62.4,8.1c0,0-21.3-5.8-36.7-33.6c0,0,42.4,24.5,75.7,16.9
	c0,0-17.3-11.4-23.6-27.5c0,0,26.6,17.3,45.6,14.1c11.9-2,18-4.7,22.8-3.9c9.2,1.5,11.1,9.9,11.4,12.7
	C513.3,446,503.1,459.4,472.7,460.5z"/>
<path class="st2" d="M472.7,460.5c0,0-13.3,0.4-23.9-4.6"/>
<path class="st4" d="M545.4,398c0,0,44.3-7.3,0-66.3c0,0,7.7,25.1,1.7,35.5c0,0-3.1-12.7-24.5-26.7c0,0,16.6,28,7.8,44.5
	c0,0-5.6-14.3-20.5-18.4c0,0,12,17.9,7.9,27.6c-1.3,3-1.2,2.2-2.1,4.1c-5,9.8,2.2,14.7,6.6,16.3C530.3,417.5,542.1,414.3,545.4,398z
	"/>
<path class="st2" d="M545.4,398c0,0,1.3-7.2-1.9-13.9"/>
<path class="st5" d="M601,501.6c0,0-23.3,26.5-2,54.7c6.6,8.7,21,15.1,57.8,20.3c57.4,8.1,67.6,84.3,19.1,110.9
	c-17.5,9.6-37.6,9.5-51.7,12.5c-9.8,2.1-15.5,6.2-19.7,14.2c-4.4,8.5-2.2,17.9,1.5,25.5c1.2,2.6,11.2,18.4,12.8,31
	c3,23.6-11.4,61.2-86.6,52.2c100-5.2,57.8-69.2,57.8-69.2s-24.1-35.2,2.6-62.1c15.1-15.1,40-12.2,61.7-19.7
	c41.3-14.2,42.1-69.5-12.2-74.7c-68.3-6.6-66.4-38.3-83.4-64.6c-16.2-25.1-56.4-17.4-56.4-17.4"/>
<g>
	<path class="st1" d="M598.2,499.1c-14.3,17.8-17.3,40.7-1.2,58.3c7.1,7.9,17.2,11.7,27.3,14.2c6.4,1.6,13.2,2.5,19.8,3.4
		c0,0,4,0.4,4,0.4c14.4,1,29,5.4,40.3,15.3c29,24.9,25.7,72-5,94c-14.1,10.5-31.8,14.1-48.6,16.8c-4.6,0.7-11.6,1.7-16,2.6
		c-9,1.6-15.7,9.5-16.3,18.5c-0.4,4.9,0.6,10.2,2.6,14.7c1.1,1.9,2.4,4,3.4,5.9c4.3,7.6,8.2,15.7,9.2,24.6
		c1.2,11.6-0.7,23.9-6.9,33.9c-9.1,15.3-27.2,21.9-44.2,23c-11.1,0.8-22.2-0.1-33.1-2c16.2,0.9,33,0.6,48.3-5
		c21.8-8,31.2-26.6,28-49c-1.4-9.9-7.7-18.9-12.9-27.4c-5.9-11.7-5.9-26.9,3-37.2c6.6-8.2,15.2-10.2,25-11.6
		c7.7-1.3,16.5-2.6,23.9-4.4c14.9-3.3,29.5-9.9,38.8-22.4c23.3-31.4,6.1-74.3-32.5-81.3c-5-1-11.1-1.5-16.2-2.5
		c-11.1-2-22.2-4.8-32.3-10.3c-10.3-5.5-17.9-15.2-21.6-26.2C579.6,529.1,586.5,510.9,598.2,499.1L598.2,499.1z"/>
</g>
<path class="st2" d="M627.4,458.2"/>
<path class="st3" d="M426.5,650.4c8.6-7.5,25.2-27.4,34.2-52.6c0,0,7.8,23.7-6.6,58c-8.1,19.4-17.6,20-24.8,15.5
	C421,665.9,420.2,655.9,426.5,650.4z"/>
<path class="st3" d="M388.1,491.3c-1.3,3-5.7,10.4-8.5,14.1c-22.3,29.8-46.6,35.3-46.6,35.3c14.7-17.7,20.6-41.5,23.3-54.4
	C367.8,489.1,378.7,490.2,388.1,491.3z"/>
<path class="st2" d="M512.5,440.8c5.1,2.2,11.3,3.1,19.8,15.1c0,0,7.4,13,22.6,8.6c15.1-4.3,33.7,1.3,41.2,18.4"/>
<path class="st2" d="M396.5,505.4c11.7,13,23.8,38.1,23.8,75.7"/>
<path class="st2" d="M494.6,404.6c0.1-17.2-18.6-35.3-34.7-41.2s-35.4-4.9-50.5-13.2c-8.5-4.7-12.3-7.9-20.2-13.6
	c-16.6-12.1-48.2-33.3-74.9-29.5"/>
<path class="st2" d="M601,501.6c0,0-23.3,26.5-2,54.7c6.6,8.7,21,15.1,57.8,20.3c57.4,8.1,67.6,84.3,19.1,110.9
	c-17.5,9.6-37.6,9.5-51.7,12.5c-9.8,2.1-15.5,6.2-19.7,14.2c-4.4,8.5-2.2,17.9,1.5,25.5c1.2,2.6,11.2,18.4,12.8,31
	c3,23.6-11.4,61.2-86.6,52.2c100-5.2,57.8-69.2,57.8-69.2s-24.1-35.2,2.6-62.1c15.1-15.1,40-12.2,61.7-19.7
	c41.3-14.2,42.1-69.5-12.2-74.7c-68.3-6.6-66.4-38.3-83.4-64.6c-16.2-25.1-56.4-17.4-56.4-17.4"/>
</svg>
