<?xml version="1.0" encoding="utf-8"?>
<svg version="1.1" id="Capa_1" xmlns="http://www.w3.org/2000/svg" xmlns:xlink="http://www.w3.org/1999/xlink" x="0px" y="0px"
	 viewBox="0 0 123.9 35.2" style="enable-background:new 0 0 123.9 35.2;" xml:space="preserve">
<style type="text/css">
	.st3{fill-rule:evenodd;clip-rule:evenodd;fill:#E30613;}
</style>
<g id="marca">
	<polygon class="st3" points="15.6,29.8 10.4,15.2 10.4,27.1 12.2,27.1 12.2,34.6 0.6,34.6 0.6,27.1 2.5,27.1 2.5,8 0.6,8 0.6,0.6 
		11.7,0.6 15.8,12.1 19.9,0.6 30.7,0.6 30.7,8 28.9,8 28.9,27.1 30.7,27.1 30.7,34.6 19.1,34.6 19.1,27.1 21,27.1 21,15.2 	"/>
	<path class="st3" d="M49.7,0.6L54,27.1h1.4v7.4H44.6v-7.4H46l0-2.8h-5l0,2.8h1.4v7.4H31.7v-7.4h1.4l4.3-26.6H49.7z M45.2,19.8
		L43.5,9.3l-1.7,10.5H45.2z"/>
	<path class="st3" d="M91,8v6.6h7.7V4.2l-3.6-3.6l-11.3,0l-3.6,3.6V31l3.6,3.6l11.3,0l3.6-3.6l0-10.5c0,0-7.8,0-7.8,0l0,6.6h-2.5V8
		L91,8z"/>
	<path class="st3" d="M69,34.6V21.1l-2.5,0l0,6.1h1.4v7.4H56.3v-7.4h1.9V8h-1.9V0.6h17.5l3.6,3.6l0,10.7l-2.9,2.9l2.9,2.9v6.5h1.9
		l0,7.4L69,34.6z M66.5,8v7.8l2.5,0V8L66.5,8z"/>
	<path class="st3" d="M117.6,0.6l4.3,26.6h1.4v7.4h-10.7v-7.4h1.4l0-2.8h-5l0,2.8h1.4v7.4H99.7v-7.4h1.4l4.3-26.6H117.6z
		 M113.2,19.8l-1.7-10.5l-1.7,10.5H113.2z"/>
</g>
</svg>
