<?xml version="1.0" encoding="utf-8"?>
<!-- Generator: Adobe Illustrator 27.0.0, SVG Export Plug-In . SVG Version: 6.00 Build 0)  -->
<svg version="1.1" id="Layer_1" xmlns="http://www.w3.org/2000/svg" xmlns:xlink="http://www.w3.org/1999/xlink" x="0px" y="0px"
	 viewBox="0 0 893.3 893.3" style="enable-background:new 0 0 893.3 893.3;" xml:space="preserve">
<style type="text/css">
	.st0{fill:#067D54;stroke:#231F20;stroke-width:8.4393;stroke-linecap:round;stroke-linejoin:round;stroke-miterlimit:10;}
	.st1{fill:none;stroke:#231F20;stroke-width:8.4393;stroke-linecap:round;stroke-linejoin:round;stroke-miterlimit:10;}
	.st2{opacity:0.35;fill:#231F20;}
	.st3{fill:#FCE8C8;stroke:#231F20;stroke-width:8.4393;stroke-linecap:round;stroke-linejoin:round;stroke-miterlimit:10;}
	.st4{fill:#231F20;stroke:#231F20;stroke-width:8.4393;stroke-linecap:round;stroke-linejoin:round;stroke-miterlimit:10;}
	.st5{fill:#231F20;stroke:#231F20;stroke-width:6.3295;stroke-linecap:round;stroke-linejoin:round;stroke-miterlimit:10;}
	.st6{fill:#DF5026;stroke:#231F20;stroke-width:8.4393;stroke-linecap:round;stroke-linejoin:round;stroke-miterlimit:10;}
	.st7{fill:#FCB329;stroke:#231F20;stroke-width:8.4393;stroke-linecap:round;stroke-linejoin:round;stroke-miterlimit:10;}
	.st8{fill:#231F20;stroke:#231F20;stroke-width:2.1098;stroke-miterlimit:10;}
	.st9{fill:#231F20;}
	.st10{fill:#231F20;stroke:#231F20;stroke-width:2.1098;stroke-linecap:round;stroke-linejoin:round;stroke-miterlimit:10;}
</style>
<g>
	<path class="st0" d="M277.3,460.5C74.4,514.9,27.9,328.2,27.9,328.2S208.6,262,277.3,460.5z"/>
	<g>
		<line class="st1" x1="277.3" y1="460.5" x2="62.5" y2="346.6"/>
		<polyline class="st1" points="100.8,338.5 110.5,372 77.3,382.8 		"/>
		<polyline class="st1" points="152.3,347.3 168.3,402.7 113.4,420.6 		"/>
		<polyline class="st1" points="208.7,382.2 223,431.7 174,447.7 		"/>
	</g>
</g>
<path class="st2" d="M277.3,460.5C74.4,514.9,27.9,328.2,27.9,328.2l34.6,18.3l48,25.5l57.8,30.6l54.7,28.9v0.1L277.3,460.5z"/>
<g>
	<path class="st0" d="M591.5,835.4c0,0-184.3-54.3-121.6-254.4c0-0.1,0.1-0.3,0.1-0.3C665.4,657.8,591.5,835.4,591.5,835.4z"/>
	<g>
		<line class="st1" x1="470" y1="580.7" x2="574.7" y2="800.2"/>
		<polyline class="st1" points="539.1,783.8 551.3,751.1 584.4,762.2 		"/>
		<polyline class="st1" points="502.9,746.1 523.1,692 577.8,710.4 		"/>
		<polyline class="st1" points="478.4,684.4 496.4,636.1 545.3,652.5 		"/>
	</g>
</g>
<path class="st2" d="M591.5,835.4c0,0-184.3-54.3-121.6-254.4l26.4,55.3l26.8,55.9l28.2,59v0.1L591.5,835.4z"/>
<g>
	<path class="st0" d="M750.9,695.4c0,0-184.7,53.8-239.8-148.9C717.2,506,750.9,695.4,750.9,695.4z"/>
	<g>
		<line class="st1" x1="511" y1="546.5" x2="717.6" y2="674.7"/>
		<polyline class="st1" points="678.8,680.2 671.5,646.1 705.3,637.6 		"/>
		<polyline class="st1" points="628,668 615.8,611.6 671.8,597.5 		"/>
		<polyline class="st1" points="574.1,629.3 563.2,578.9 613.2,566.3 		"/>
	</g>
</g>
<path class="st2" d="M750.9,695.4c0,0-184.7,53.8-239.8-148.9l52.2,32.4l52.7,32.7l55.6,34.5l46.2,28.7L750.9,695.4z"/>
<path class="st3" d="M730.5,364c0,0,37.2,25.3,103-7.9c0,0-1.8,35-47.5,77.8c0,0,21.4,19,91.5,29.1c0,0-40,49.9-146.9,40.4
	l-59.6-21.1l-14.1-5.4L730.5,364z"/>
<path class="st3" d="M178.5,581.8c-12-5.5-46.2-15.9-98.2,10.5c0,0,1.8-35,47.5-77.8c0,0-21.4-19-91.5-29.1c0,0,40-49.9,146.9-40.4
	l59.6,21.1l14.1,5.4c0.2,60.8,21.3,143.9-60,117.9C190.6,587.3,184.6,584.6,178.5,581.8z"/>
<g>
	<path class="st0" d="M367.4,578.8c-0.1,0.3-0.3,0.7-0.3,0.9C298.1,777,118,711.1,118,711.1s46.2-185.7,247.6-132.8
		C366.2,578.5,366.8,578.6,367.4,578.8z"/>
	<g>
		<line class="st1" x1="367.4" y1="578.8" x2="152.6" y2="692.8"/>
		<polyline class="st1" points="167.4,656.5 200.6,667.3 190.9,700.8 		"/>
		<polyline class="st1" points="203.5,618.8 258.4,636.6 242.4,692.1 		"/>
		<polyline class="st1" points="264.1,591.6 313.1,607.6 298.9,657.1 		"/>
	</g>
</g>
<path class="st2" d="M367,579.7C298.1,777,118,711.1,118,711.1l82-44l57.5-30.8l54.3-29.2l53.8-28.8l0.9,0.8L367,579.7z"/>
<path class="st4" d="M742.5,442.2c0,0,4.4-41.2-36.2-40.2l-51.5,74.9h61.8l17.4-17.1L742.5,442.2z"/>
<path class="st4" d="M176.4,505.1c0,0-15.4,32.7,22.3,38.9c2.5,0.4,11,0.9,19.8,0.6c23.4-0.9,37.5,7.6,46.2,12.2l-7.7-85.4h-61.8
	l-17.4,17.1L176.4,505.1z"/>
<path class="st3" d="M498,373.3L389.5,497.1c-8.1,9.3-22.2,10.2-31.5,2.1L133.6,302.6c-9.3-8.1-10.2-22.2-2.1-31.5l108.4-123.8
	c8.1-9.3,22.2-10.2,31.5-2.1l224.4,196.6C505.2,349.9,506.1,364,498,373.3z"/>
<path class="st5" d="M340.7,337.3c10.9,6.6,33.7,8.1,33.7,8.1l-35,39.9c0,0-4.6-22.8-11.8-32.8c-1.1,3.7-1.7,7-2.9,10
	c-6.9,17.2-26.7,26-43.9,17.7c-11.5-5.5-18.4-18.4-16.7-31.2c1-7.5,4.1-14,9.5-19.3c0.7-0.7,1.3-1.5,2.5-2.8
	c-10.4-0.3-18.3-4.7-24.4-12.3c-4.4-5.5-6.2-12.1-6-19.1c0.3-14.9,11.6-28.6,26-31.5c5.6-1.1,11.2-1,16.6,0.9
	c5.2,1.9,9.6,4.9,13.3,9c3.9,4.3,5.5,9.6,7.4,15.6c2.1-2.4,3.7-4.4,5.4-6.2c10.1-10.3,27.1-12.2,39-4.4c12,7.9,17,23.4,11.7,37
	c-3.2,8.3-8.6,14.5-16.2,18.2C347.4,334.8,342.7,336.8,340.7,337.3z"/>
<path class="st3" d="M537,418.8l-159.5,44c-11.9,3.3-24.2-3.7-27.5-15.6l-79.4-287.5c-3.3-11.9,3.7-24.2,15.6-27.5l159.5-44
	c11.9-3.3,24.2,3.7,27.5,15.6l79.4,287.5C555.9,403.2,548.9,415.5,537,418.8z"/>
<polygon class="st6" points="391.6,206.2 467.3,260.1 430.1,345.2 354.4,291.4 "/>
<path class="st3" d="M533.8,479.6L383.3,411c-11.2-5.1-16.2-18.4-11.1-29.6L495.9,110c5.1-11.2,18.4-16.2,29.6-11.1l150.5,68.6
	c11.2,5.1,16.2,18.4,11.1,29.6L563.5,468.5C558.3,479.8,545.1,484.8,533.8,479.6z"/>
<path class="st5" d="M520.3,334.2c-1.8,11.7,3.2,32.6,3.2,32.6l-51.2-22.9c0,0,19.2-10.1,26.8-18.8c-1.5-0.3-2.4-0.4-3.3-0.6
	c-5.3-0.9-10.8-1.2-15.9-2.8c-13-4.2-19.3-13.9-21-26.7c-2.4-18.1,8.4-36.1,25.7-42.5c23.1-8.5,71.2-25.5,72.3-25.7
	c2.1,5.3,4.2,10.4,6.2,15.6c6.9,17.8,13.8,35.6,20.7,53.4c4.7,12.1,4.4,24-1.8,35.3c-5.3,9.7-13.5,16.2-24.3,19.2
	c-8,2.2-15.8,0.7-22.7-3.9c-4.2-2.8-7.9-6.2-11.8-9.4C522.4,336.3,521.7,335.6,520.3,334.2z"/>
<path class="st3" d="M542.7,589.1L420.9,486.4c-9.3-7.8-10.5-21.7-2.6-31L611,226.8c7.8-9.3,21.7-10.5,31-2.6l121.8,102.7
	c9.3,7.8,10.5,21.7,2.6,31L573.7,586.5C565.9,595.8,552,597,542.7,589.1z"/>
<g>
	<path class="st6" d="M341.8,601.6c0,0-46,2.8-70.5,17.3c-16.9,9.9-20.2,35.2,1.5,49.2c0,0-13.9,24,5.2,40
		c16.8,14.1,36.9,0.6,36.9,0.6c2.6,11.6,25.8,36.6,50.1,7.3c9.4-11.9,14.7-39.1,19.9-66.5L341.8,601.6z"/>
	<line class="st1" x1="344.2" y1="621.3" x2="295.8" y2="638.6"/>
	<line class="st1" x1="352.7" y1="633.7" x2="309.4" y2="672.1"/>
	<line class="st1" x1="363" y1="643.6" x2="345.9" y2="683"/>
	<path class="st6" d="M391.2,654c0,0-20.9,41-20.9,69.5c0,19.6,20.1,35.2,43.2,23.7c0,0,13.6,24.1,37.1,15.8
		c20.7-7.3,19.3-31.5,19.3-31.5c11.3,3.7,44.6-3.7,31.7-39.4c-5.5-14.1-26.2-32.5-47.2-50.9L391.2,654z"/>
	<line class="st1" x1="409.4" y1="661.9" x2="399.7" y2="712.4"/>
	<line class="st1" x1="424.4" y1="660.8" x2="435.5" y2="717.6"/>
	<line class="st1" x1="438.2" y1="657" x2="463.4" y2="691.7"/>
	<path class="st6" d="M462.4,636.7c0,0,24,39.3,48.2,54.3c16.7,10.3,40.5,1.4,42.8-24.3c0,0,27.7,1.1,33-23.3
		c4.6-21.4-16.7-32.9-16.7-32.9c9.1-7.7,20.3-39.9-16.9-47.7c-14.9-2.7-41.4,5.3-68.1,13.5L462.4,636.7z"/>
	<line class="st1" x1="478.7" y1="625.3" x2="516.6" y2="660.1"/>
	<line class="st1" x1="485.6" y1="612" x2="539.8" y2="632.3"/>
	<line class="st1" x1="489.6" y1="598.3" x2="532.4" y2="595"/>
	<path class="st6" d="M338.4,592.5c0,0-41.2,20.6-69.7,20.4c-19.6-0.1-35.1-20.3-23.3-43.3c0,0-24-13.8-15.6-37.2
		c7.5-20.6,31.7-19,31.7-19c-3.6-11.3,4-44.6,39.7-31.4c14.1,5.6,32.3,26.4,50.6,47.6L338.4,592.5z"/>
	<line class="st1" x1="330.6" y1="574.2" x2="280.1" y2="583.5"/>
	<line class="st1" x1="331.8" y1="559.2" x2="275.1" y2="547.7"/>
	<line class="st1" x1="335.7" y1="545.4" x2="301.2" y2="520"/>
</g>
<circle class="st4" cx="411.3" cy="578.4" r="80.7"/>
<circle class="st4" cx="411.3" cy="578.4" r="45.7"/>
<circle class="st7" cx="411.3" cy="578.4" r="57.3"/>
<path class="st6" d="M632.8,358.9c3.1-0.4,5.6-0.8,8.2-1c7.4-0.9,14.4,0.2,21,3.8c9.9,5.3,15.3,13.9,16.7,24.7
	c3.2,23.4-15.1,44.8-35.5,48c-17.9,2.8-84.4,12.7-84.4,12.7s-2.1-78.6-2.2-85.3c-0.3-21.3,16.9-41.1,38-43.7
	c19.7-2.5,36.5,11.5,37.7,31.4C632.6,352.4,632.7,355.5,632.8,358.9z"/>
<path class="st3" d="M172.8,362c0,0,8.3-44.6,133.7-4.8l311.8,102.4c10.6,3.5,21.4,6.1,32.4,7.6c27.5,3.7,73,4.7,91.9-25v140.2
	c0,0-22.6,41.5-118.5,27.9c-13.1-1.9-26.1-4.9-38.7-8.9l-306-95.8c0,0-79.8-27.2-106.5,13.2V362z"/>
<g>
	<path class="st8" d="M286.8,480.4c-0.3-0.1-0.7-0.4-1.1-0.7l-27-8.3c-1.3-0.4-2.3-2-2.3-3.5l-0.5-93c0-1.6,1-2.5,2.3-2.1l28,8.7
		c1.4,0.4,2.5,2,2.5,3.6l0.5,90.6l35.1,10.8l0-4.8c0-1.6,1-2.5,2.3-2.1c1.3,0.4,2.3,2,2.3,3.5l0,7.6c0,1.6-1,2.5-2.3,2.1
		L286.8,480.4z M283.9,386.5l-23.4-7.2l0.3,58.2l11.7-10.7l11.7,17.9L283.9,386.5z"/>
	<path class="st8" d="M333.4,444.8l-0.3-46c0-1.7,1-2.6,2.4-2.2l28.3,8.7c1.3,0.4,2.3,2,2.3,3.7l0.5,89.7c1.9,1,3.6,1.7,5.6,2.3
		c9.3,2.9,17.7,0.5,23.8-5.5c6.1-6,9.8-16,9.7-28.4l-0.3-46.8c0-1.6,1-2.5,2.4-2.1c1.3,0.4,2.3,2,2.3,3.5l0.3,46.8
		c0.1,13.9-4.2,25-11,31.9c-6.9,6.9-16.7,9.5-27.3,6.3c-2.9-0.9-5.8-2.2-8.5-3.9l-0.1,0l-0.5-0.3l-0.1,0l-0.4-0.2
		c-9-5.6-15.9-13.5-20.7-22.8c-2.7-5.2-4.7-10.8-6.1-16.6C334.3,457.1,333.4,450.9,333.4,444.8z M349,449.6l12.8,19.3l-0.3-58.6
		l-23.5-7.3l0.3,43.2c0.1,4.1,0.6,8.2,1.3,12.1L349,449.6z"/>
	<path class="st8" d="M491.1,511.6c0.5-1.4,1.8-1.7,3.1-0.7c1.2,1.1,1.8,2.9,1.3,4.2c-2.9,8.2-7.9,14.4-14.2,17.8
		c-6,3.4-13.3,4.2-21.2,1.8c-2.8-0.9-5.5-2.1-8-3.6l-0.7-0.2c-11.5-7-19.9-18.1-24.8-30.4c-3.3-8.2-5.1-17-5.5-25.4l0-5.1
		c0.3-8.2,2-15.9,5.2-22.1c4.9-9.4,13.2-15.4,24.8-15.1l0.5,0.1c2.6,0.1,5.2,0.5,8,1.3c7.8,2.4,15,7.6,21.2,14.7
		c6.2,7.1,11.2,16.3,14.4,26.2c0.5,1.7-0.1,3.1-1.4,3.4c-1.2,0.2-2.6-0.9-3-2.5c-2.7-8.8-7.2-16.9-12.8-23.3
		c-5.3-6.1-11.7-10.7-18.4-12.7c-2-0.6-3.8-1-5.6-1.2l0.5,87.7c1.7,1,3.6,1.7,5.6,2.3c6.9,2.1,13.3,1.4,18.6-1.5
		C484,524.2,488.4,518.8,491.1,511.6z M437.5,477.5l12,18.1l-0.3-56.7c-5.2,0.5-9.9,2.9-13.6,6.6c-5.8,5.8-9.4,14.9-9.8,26.2l0,4.5
		c0.1,3.7,0.6,7.3,1.5,10.9L437.5,477.5z"/>
	<path class="st8" d="M581.9,567c0.8,1.4,0.7,3-0.2,3.7s-2.3,0.1-3.1-1.3l-34.7-58.7l-3.9,4.3l0.2,38.6c0,1.6-0.9,2.4-2.2,2
		l-27.1-8.4c-1.2-0.4-2.2-1.8-2.2-3.4l-0.5-89.6c0-1.4,1-2.4,2.2-2l27.1,8.4c1.3,0.4,2.2,2,2.2,3.4l0.3,42.6l2.1-2.3l0.2-0.2
		l29.7-33.1c0.7-0.9,2.2-0.6,3.1,0.7c0.9,1.3,1.1,3,0.3,3.9l-28.5,31.7L581.9,567z M535.2,465.6l-22.6-7l0.3,56l11.2-10.2l11.4,17.2
		L535.2,465.6z"/>
	<path class="st8" d="M669,501.4c0.7-1.2,2.1-1.2,3.1,0c1.2,1.2,1.5,3,0.8,4.2l-23,38.2l0.3,46c0,1.6-1,2.5-2.3,2.1l-27.9-8.6
		c-1.3-0.4-2.3-2-2.3-3.5l-0.3-46L594,481.3c-0.4-0.5-0.5-1.1-0.5-1.8c0-1.6,1-2.5,2.3-2.1l27.9,8.6c0.7,0.2,1.5,1,2,2l21.8,49
		L669,501.4z M645.3,542.3l-22.7-51.1l-22.5-6.9l21.5,48.5c0.2,0.5,0.4,1.1,0.4,1.5l0.1,14.9l11.6-10.6l11.7,17.7L645.3,542.3z"/>
</g>
<polygon class="st9" points="220,441.1 231.1,426.2 220,411.2 208.9,426.2 "/>
<polygon class="st9" points="695.1,567 706.2,552.1 695.1,537.2 684,552.1 "/>
<g>
	<path class="st10" d="M207.6,297.3l-0.2,0.2l-0.1,0.1l-0.7,0.4c0.2-0.1,0.4-0.3,0.7-0.4c-2.1,2.3-4.2,4.5-6.2,6.8
		c-2,2.5-5.7-0.4-3.8-2.9l1.4-1.6c-4.7-2.8-9.5-5.6-14.2-8.4c-0.9,2.6-1,5.6,0.8,7.9c1,1,0.9,2.5,0.1,3.4c-0.5,0.6-1.4,0.9-2.4,0.7
		c-1.6-0.6-3.1-1.7-4.9-2.1c-1.2-0.3-2.5-0.3-3.7,0l2,2.7c2.8,3.9,5.5,7.8,8.3,11.6c0.4-0.5,0.9-0.9,1.3-1.4c2-2.4,5.7,0.4,3.8,2.9
		l-0.3,0.3c-0.5,0.5-1,1-1.5,1.6c-1.6,1.9-3.4,3.7-5.1,5.6c-0.9,1-2.5,0.8-3.3,0c-0.9-0.9-0.9-2.5,0-3.4c0.6-0.7,1.2-1.3,1.8-2
		c-0.1-0.1-0.1-0.1-0.1-0.2c-3.8-5.2-7.6-10.4-11.3-15.6c-1.5,1.1-2.9,2.6-3.8,4.4c-0.9,1-2.4,1-3.3,0.1c-1.8-1.7-0.1-3.8,1-5.3
		c0.9-1.2,2-2.3,3.2-3.2c-0.1-0.2-0.2-0.4-0.3-0.5l-10.6-14.6c-0.5,0.6-1.1,1.3-1.6,1.9l-0.1,0.1c-0.9,1-2.4,1-3.4,0.2
		s-1.1-2.3-0.3-3.4c3.9-4.4,7.6-8.9,11.4-13.3c0.9-1,2.4-1.1,3.4-0.2c1,0.9,1.1,2.3,0.2,3.4c-0.3,0.5-0.7,0.9-1.1,1.3
		c5.8,3.5,11.7,6.9,17.5,10.4c0.2-0.2,0.4-0.5,0.6-0.8c1.4-1.6,3.5-5.2,6-3.1c0.9,0.9,1,2.5,0.1,3.4c-0.9,0.9-1.8,1.9-2.5,3l2.4,1.5
		c4.2,2.5,8.3,4.9,12.4,7.4c0.2,0,0.2,0.1,0.4,0.2c0.9-0.9,1.9-1.9,2.9-2.7C207,292.6,209.1,295.6,207.6,297.3z M180.3,289
		c-1.3-0.7-2.6-1.5-3.9-2.3c-4.9-2.9-9.7-5.8-14.6-8.7c-0.8,0.9-1.5,1.8-2.2,2.7l11.9,16.5c2.5-0.8,5.1-1.1,7.7-0.5
		C179,294.1,179.4,291.5,180.3,289z"/>
</g>
<g>
	<path class="st10" d="M336.2,198.3l-0.3,0.1l-0.1,0l-0.8,0c0.3,0,0.5,0,0.8,0c-3.1,0.8-6,1.4-8.9,2.3c-3,1-4.6-3.5-1.6-4.5l2-0.6
		c-2.4-5-4.8-9.9-7.2-14.8c-2.2,1.7-3.9,4.1-3.7,7c0.3,1.4-0.6,2.6-1.8,2.9c-0.8,0.2-1.7,0-2.4-0.7c-1-1.4-1.6-3.2-2.9-4.5
		c-0.8-0.9-2-1.6-3.1-2.1l0.2,3.4c0.2,4.8,0.4,9.5,0.6,14.2c0.6-0.2,1.3-0.3,1.9-0.4c3-0.9,4.5,3.4,1.6,4.5l-0.4,0.1
		c-0.7,0.2-1.4,0.3-2.1,0.5c-2.4,0.7-4.8,1.3-7.4,1.9c-1.2,0.3-2.5-0.6-2.8-1.8c-0.3-1.3,0.6-2.6,1.9-2.9c0.9-0.2,1.7-0.4,2.6-0.6
		c0-0.1,0-0.2,0-0.3c-0.4-6.4-0.6-12.9-0.9-19.3c-1.9,0.1-3.8,0.6-5.6,1.6c-1.2,0.3-2.6-0.5-2.8-1.7c-0.6-2.4,2-3.2,3.7-3.9
		c1.5-0.5,3-0.8,4.4-0.9c0-0.2,0-0.4,0-0.6l-0.8-18c-0.8,0.2-1.6,0.5-2.4,0.7l-0.1,0c-1.2,0.3-2.6-0.5-2.9-1.7
		c-0.3-1.2,0.4-2.5,1.6-3c5.7-1.6,11.3-3.2,16.8-4.8c1.2-0.3,2.6,0.4,3,1.7s-0.4,2.5-1.7,2.9c-0.5,0.2-1.1,0.4-1.6,0.5
		c2.9,6.1,6,12.2,8.9,18.3c0.3-0.1,0.6-0.2,0.9-0.3c2.1-0.6,5.8-2.4,6.7,0.7c0.2,1.2-0.5,2.7-1.8,2.8c-1.3,0.3-2.5,0.6-3.7,1.1
		l1.2,2.6c2.1,4.4,4.2,8.6,6.3,13c0.1,0.1,0.1,0.2,0.2,0.4c1.3-0.3,2.6-0.6,3.9-0.7C338.3,194,338.4,197.7,336.2,198.3z M318,176.4
		c-0.7-1.3-1.3-2.6-2-4c-2.5-5.1-4.9-10.2-7.4-15.3c-1.2,0.3-2.2,0.7-3.3,1l0.8,20.4c2.5,0.6,4.9,1.9,6.8,3.8
		C314.1,179.9,315.9,178,318,176.4z"/>
</g>
<g>
	<path class="st10" d="M522,182.4l-0.3-0.1l-0.1,0l-0.6-0.6c0.2,0.2,0.4,0.3,0.6,0.6c-2.8-1.4-5.5-2.8-8.3-4
		c-2.9-1.2-1.2-5.6,1.7-4.5l1.9,0.9c1.4-5.3,2.6-10.7,4-16c-2.8-0.1-5.6,0.6-7.3,3c-0.7,1.3-2.1,1.6-3.2,1.1c-0.7-0.3-1.3-1-1.4-2
		c0.2-1.7,0.8-3.5,0.6-5.3c0-1.3-0.5-2.5-1-3.6l-2,2.7c-2.9,3.8-5.8,7.5-8.7,11.3c0.6,0.3,1.1,0.6,1.7,0.9c2.9,1.2,1.3,5.6-1.7,4.5
		l-0.4-0.2c-0.7-0.3-1.3-0.7-1.9-1c-2.3-1-4.5-2.1-6.8-3.3c-1.2-0.5-1.5-2.1-0.9-3.2c0.6-1.1,2.1-1.6,3.3-1c0.8,0.4,1.6,0.8,2.4,1.2
		c0-0.1,0.1-0.1,0.2-0.2c3.9-5.2,7.8-10.3,11.7-15.3c-1.5-1.1-3.4-2-5.3-2.3c-1.2-0.5-1.7-2-1.1-3.1c1.1-2.2,3.6-1.2,5.3-0.6
		c1.4,0.6,2.8,1.3,4,2.2c0.1-0.1,0.3-0.3,0.4-0.4l11-14.3c-0.7-0.3-1.6-0.6-2.3-1l-0.1,0c-1.2-0.5-1.7-2-1.1-3.2
		c0.5-1.2,1.9-1.7,3.1-1.2c5.4,2.4,10.7,4.8,16,7.1c1.2,0.5,1.7,2,1.2,3.2s-1.9,1.7-3.2,1.1c-0.5-0.2-1.1-0.4-1.6-0.6
		c-1.7,6.6-3.3,13.2-4.9,19.8c0.3,0.1,0.6,0.3,0.9,0.3c2,0.9,6,1.9,4.7,4.9c-0.6,1.1-2.1,1.7-3.2,1c-1.1-0.6-2.3-1.1-3.6-1.5
		l-0.7,2.8c-1.2,4.7-2.3,9.3-3.5,14c0,0.2,0,0.3-0.1,0.4c1.1,0.6,2.4,1.3,3.4,2C526.3,180.5,524,183.3,522,182.4z M522.1,153.9
		c0.3-1.5,0.7-2.9,1-4.4c1.4-5.5,2.8-11,4.1-16.5c-1.1-0.5-2.2-0.9-3.2-1.4l-12.4,16.2c1.5,2.1,2.5,4.6,2.7,7.3
		C516.8,154.1,519.4,153.8,522.1,153.9z"/>
</g>
<g>
	<path class="st10" d="M623.7,302.2l-0.2-0.2l-0.1-0.1l-0.5-0.7c0.1,0.2,0.3,0.4,0.5,0.7c-2.4-2.1-4.5-4.1-6.9-6.1
		c-2.5-1.9,0.3-5.8,2.8-3.8l1.6,1.4c2.7-4.8,5.4-9.6,8.2-14.3c-2.7-0.9-5.6-0.9-7.9,1c-1,1.1-2.5,1-3.4,0.2c-0.6-0.5-1-1.3-0.8-2.3
		c0.6-1.6,1.7-3.1,2-4.9c0.3-1.2,0.2-2.5,0-3.7l-2.7,2.1c-3.8,2.9-7.6,5.7-11.4,8.5c0.5,0.4,0.9,0.9,1.4,1.3c2.5,2-0.3,5.7-2.8,3.8
		l-0.3-0.3c-0.6-0.5-1.1-1-1.6-1.5c-1.9-1.6-3.8-3.3-5.7-5c-1-0.8-0.9-2.4-0.1-3.3c0.9-0.9,2.5-1,3.4-0.1c0.7,0.6,1.3,1.2,2,1.8
		c0.1-0.1,0.1-0.1,0.2-0.1c5.1-3.9,10.3-7.8,15.4-11.6c-1.2-1.5-2.7-2.8-4.5-3.7c-1-0.8-1.1-2.4-0.2-3.3c1.6-1.8,3.8-0.2,5.3,0.9
		c1.2,0.9,2.3,2,3.2,3.2c0.2-0.1,0.4-0.2,0.5-0.3l14.4-10.9c-0.6-0.5-1.3-1-2-1.6l-0.1-0.1c-1-0.8-1.1-2.4-0.2-3.4s2.3-1.1,3.3-0.3
		c4.5,3.8,9,7.5,13.5,11.2c1,0.8,1.1,2.4,0.3,3.4s-2.3,1.1-3.4,0.2c-0.5-0.3-0.9-0.7-1.3-1c-3.4,5.9-6.7,11.9-10.1,17.7
		c0.2,0.2,0.5,0.4,0.8,0.6c1.7,1.4,5.2,3.4,3.2,6c-0.8,0.9-2.5,1.1-3.4,0.1c-0.9-0.9-1.9-1.7-3-2.4l-1.4,2.5
		c-2.4,4.2-4.7,8.4-7.1,12.6c0,0.2-0.1,0.2-0.2,0.4c0.9,0.9,1.9,1.8,2.8,2.9C628.3,301.5,625.4,303.7,623.7,302.2z M631.5,274.8
		c0.7-1.3,1.4-2.6,2.2-4c2.8-4.9,5.6-9.8,8.4-14.8c-0.9-0.8-1.8-1.4-2.7-2.2L623,266.1c0.9,2.4,1.2,5.1,0.7,7.7
		C626.3,273.5,628.9,273.9,631.5,274.8z"/>
</g>
</svg>
