<?xml version="1.0" encoding="utf-8"?>
<!-- Generator: Adobe Illustrator 27.0.0, SVG Export Plug-In . SVG Version: 6.00 Build 0)  -->
<svg version="1.1" id="Layer_1" xmlns="http://www.w3.org/2000/svg" xmlns:xlink="http://www.w3.org/1999/xlink" x="0px" y="0px"
	 viewBox="0 0 514 513.3" style="enable-background:new 0 0 514 513.3;" xml:space="preserve">
<style type="text/css">
	.st0{fill:#2B7331;}
	.st1{opacity:0.3;fill:#DDAC33;}
	.st2{fill:#FAC635;}
	.st3{fill:#FFFCE8;}
	.st4{opacity:0.2;fill:#6B6D6B;}
	.st5{opacity:0.1;fill:#FFFFFF;}
	.st6{opacity:0.3;fill:#FFFFFF;}
	.st7{fill:#DB995C;}
	.st8{opacity:0.5;fill:#DB995C;}
	.st9{opacity:0.2;fill:#FFFFFF;}
	.st10{opacity:0.5;fill:#FFFFFF;}
	.st11{fill:#EFEC8F;}
	.st12{opacity:0.3;fill:#C6C15D;}
	.st13{opacity:0.6;fill:#FFFFFF;}
	.st14{fill:#F9E4AF;}
	.st15{fill:#353535;}
	.st16{opacity:0.2;fill:#AE45BA;}
	.st17{fill:#E8C638;}
</style>
<path class="st0" d="M589.3,170.3h-0.7v0C588.8,170.3,589.1,170.3,589.3,170.3z"/>
<g>
	<g>
		<path class="st1" d="M360.7,293.1c-0.5,0.7-1.1,1.4-1.7,2c-3.7,3.1-9.2,2.6-12.3-1.1c-1-1.2-1.6-2.6-1.9-4c0.5,0,0.9-0.1,1.3-0.3
			c3.2,3.1,8.2,3.3,11.6,0.4c0.7-0.6,1.3-1.2,1.7-2c2.3,0,4.7-0.9,6.6-2.5c2.5-2.1,3.8-5.1,3.8-8.1c2.2,4.3,1.2,9.8-2.7,13.1
			C365.3,292.2,363,293.1,360.7,293.1z"/>
		<path class="st0" d="M239.9,421.4l-68.6,57.2c-9,7.5-22.4,6.3-29.9-2.7l-41.2-49.5c-7.5-9-6.3-22.4,2.7-29.9l68.6-57.2
			c18.5-15.5,51.1-31.9,76.6-33.6c23.1-1.6,65.6-36.4,72.4-42.2c0.1,0.2,0.2,0.3,0.4,0.5l19.9,23.9c0.1,0.2,0.3,0.3,0.4,0.4
			c-6.9,5.7-48.8,41.2-54.6,63.7C280.4,376.9,258.4,406,239.9,421.4z"/>
		<path class="st0" d="M358.7,276.3l-23.1-27.7c-1.5-1.8-4.2-2-6-0.5l-9.7,8.1c-1.8,1.5-2,4.2-0.5,6l23.1,27.7c1.5,1.8,4.2,2,6,0.5
			l9.7-8.1C359.9,280.8,360.2,278.1,358.7,276.3z"/>
		
			<rect x="113.2" y="381.1" transform="matrix(0.6404 0.768 -0.768 0.6404 377.1551 20.5986)" class="st2" width="106.7" height="64"/>
		<ellipse transform="matrix(0.768 -0.6404 0.6404 0.768 -150.5427 246.4675)" class="st3" cx="264.9" cy="331" rx="21.9" ry="16"/>
		<path class="st4" d="M274.3,342.3c-9.3,7.7-21.4,8.5-27.1,1.7c-3.5-4.2-3.7-10.3-1.2-16.2c-0.1,3.4,0.8,6.5,2.9,9
			c5.7,6.8,17.8,6,27.1-1.7c3.5-3,6.2-6.5,7.7-10.1C283.5,330.8,280.2,337.3,274.3,342.3z"/>
		
			<rect x="326.3" y="255.3" transform="matrix(0.6404 0.768 -0.768 0.6404 324.3364 -162.1625)" class="st5" width="18.1" height="19.9"/>
		
			<rect x="330.4" y="254.9" transform="matrix(0.6404 0.768 -0.768 0.6404 323.8245 -162.0283)" class="st5" width="9" height="19.9"/>
		<path class="st2" d="M273.9,344.4c0.4-0.3,0.9-0.7,1.3-1c9.3-7.7,12.2-19.5,6.6-26.3c-5.7-6.8-17.8-6-27.1,1.7
			c-0.4,0.4-0.8,0.7-1.2,1.1l-11.2-13.4c2-0.3,3.9-0.5,5.8-0.6c23.1-1.6,65.6-36.4,72.4-42.2c0.1,0.2,0.2,0.3,0.4,0.5l19.9,23.9
			c0.1,0.2,0.3,0.3,0.4,0.5c-6.9,5.7-48.8,41.2-54.6,63.7c-0.5,1.9-1,3.7-1.7,5.6L273.9,344.4z"/>
		<path d="M157.7,486.1c-0.7,0-1.4,0-2.2-0.1c-6.3-0.6-12-3.6-16.1-8.4l-41.2-49.5c-8.4-10-7-25,3-33.4l68.6-57.2
			c18.7-15.6,51.6-32.4,78.1-34.2c18.6-1.3,53.4-26.8,71-41.6c0.6-0.5,1.3-0.7,2-0.6c0.7,0.1,1.4,0.5,1.7,1.2c0,0,0.1,0.1,0.1,0.2
			l19.9,23.9c0.1,0.1,0.1,0.1,0.2,0.2c0.6,0.5,0.9,1.2,0.8,1.9c0,0.7-0.4,1.4-0.9,1.9c-4.9,4-48.1,40.2-53.7,62.4
			c-6.5,25.7-28.9,55-47.7,70.6l-68.6,57.2C168.6,484.2,163.3,486.1,157.7,486.1z M320.2,267.1c-10.1,8.3-49.5,39.6-71.9,41.2
			c-25.2,1.7-57.5,18.3-75.2,33.1l-68.6,57.2c-7.9,6.6-9,18.4-2.4,26.3l41.2,49.5c3.2,3.8,7.7,6.2,12.7,6.6c5,0.4,9.8-1.1,13.7-4.3
			l68.6-57.2l0,0c17.7-14.7,39.8-43.6,46-68c5.5-21.7,42.1-53.8,53.4-63.4L320.2,267.1z"/>
		<path d="M345.7,293.8c-1.9,0-3.8-0.8-5.2-2.4l-23.1-27.7c-1.2-1.4-1.7-3.1-1.5-4.9c0.2-1.8,1-3.4,2.4-4.6l9.7-8.1
			c2.9-2.4,7.1-2,9.5,0.9l23.1,27.7c0,0,0,0,0,0c2.4,2.9,2,7.1-0.9,9.5l-9.7,8.1C348.8,293.3,347.2,293.8,345.7,293.8z M332.4,249.6
			c-0.4,0-0.8,0.1-1.1,0.4l-9.7,8.1c-0.4,0.3-0.6,0.7-0.6,1.2c0,0.5,0.1,0.9,0.4,1.3l23.1,27.7c0.6,0.7,1.7,0.8,2.4,0.2l9.7-8.1
			c0.7-0.6,0.8-1.7,0.2-2.4l-23.1-27.7C333.4,249.8,332.9,249.6,332.4,249.6z"/>
		<path class="st6" d="M354.9,280.4c-0.4,0-0.9-0.2-1.2-0.5L332.1,254l-8,6.6c-0.6,0.5-1.6,0.4-2.1-0.2c-0.5-0.6-0.4-1.6,0.2-2.1
			l9.1-7.6c0.3-0.3,0.7-0.4,1.1-0.3c0.4,0,0.8,0.2,1,0.5L356,278c0.5,0.6,0.4,1.6-0.2,2.1C355.6,280.3,355.2,280.4,354.9,280.4z"/>
		<path d="M176.2,477.1c-0.7,0-1.4-0.3-1.9-0.9l-68.3-81.9c-0.9-1.1-0.7-2.6,0.3-3.5l49.2-41c0.5-0.4,1.2-0.6,1.8-0.6
			c0.7,0.1,1.3,0.4,1.7,0.9l68.3,81.9c0.4,0.5,0.6,1.2,0.6,1.8c-0.1,0.7-0.4,1.3-0.9,1.7l-49.2,41
			C177.3,476.9,176.7,477.1,176.2,477.1z M111.3,393l65.1,78.1l45.4-37.8l-65.1-78.1L111.3,393z"/>
		<path d="M259,352.2c-5.3,0-9.8-1.9-12.8-5.5c-3.3-3.9-4.3-9.3-2.8-15c1.4-5.5,4.8-10.8,9.7-14.8c10.3-8.6,24.1-9.2,30.6-1.4
			c6.5,7.8,3.5,21.2-6.9,29.9c-4.9,4.1-10.7,6.5-16.3,6.9C260,352.2,259.5,352.2,259,352.2z M270.8,314.8c-4.6,0-10,2-14.5,5.8
			c-4.1,3.4-6.9,7.7-8.1,12.2c-1,4.2-0.4,7.9,1.8,10.6c2.2,2.7,5.8,4,10.1,3.7c4.6-0.3,9.4-2.3,13.5-5.7c8.2-6.8,11-17.1,6.2-22.8
			C277.7,316.1,274.5,314.8,270.8,314.8z"/>
		<path d="M285.1,360.2c-0.7,0-1.4-0.3-1.9-0.9L272,346c-0.4-0.5-0.6-1.2-0.6-1.9c0.1-0.7,0.4-1.3,1-1.7c0.4-0.3,0.8-0.6,1.2-0.9
			c4.1-3.4,7-7.7,8.1-12.2c1-4.2,0.4-7.9-1.8-10.6c-4.8-5.7-15.4-4.8-23.6,2c-0.4,0.3-0.8,0.7-1.1,1c-0.5,0.5-1.2,0.7-1.9,0.7
			c-0.7,0-1.3-0.4-1.8-0.9L240.4,308c-0.6-0.7-0.7-1.6-0.4-2.5c0.3-0.8,1.1-1.5,2-1.6c2.1-0.3,4.1-0.5,6-0.7
			c18.6-1.3,53.4-26.8,71-41.6c0.6-0.5,1.3-0.7,2-0.6c0.7,0.1,1.3,0.5,1.7,1.2c0,0.1,0.1,0.1,0.2,0.2l19.9,23.9
			c0.1,0.1,0.1,0.1,0.2,0.2c0.5,0.5,0.8,1.2,0.8,1.9c0,0.7-0.4,1.4-0.9,1.9c-17.8,14.7-49.1,44.3-53.7,62.4c-0.5,2-1.1,4-1.7,5.8
			c-0.3,0.9-1,1.5-1.9,1.7C285.4,360.2,285.2,360.2,285.1,360.2z M277.5,344.7l6.6,7.9c0.1-0.4,0.2-0.7,0.3-1.1
			c5.5-21.8,43.4-54.9,53.4-63.4l-17.5-21c-10.1,8.3-49.5,39.6-71.9,41.2c-0.4,0-0.8,0.1-1.1,0.1l6.6,7.9
			c10.2-8.1,23.5-8.5,29.9-0.8c3.3,3.9,4.3,9.2,2.8,15C285.2,335.7,282,340.7,277.5,344.7z"/>
		<path class="st7" d="M406.9,233.5l-20.5-24.6l-5.4,4.5c-2.9,2.4-3.2,6.6-0.9,9.5l11.9,14.3c2.4,2.9,6.6,3.2,9.5,0.9L406.9,233.5z"
			/>
		<path class="st7" d="M426.5,196.3L426.5,196.3c-7.9-9.4-21.9-10.7-31.3-2.8l-6.8,5.7c-3.4,2.8-3.8,7.8-1,11.1l18.4,22
			c2.8,3.4,7.8,3.8,11.1,1l6.8-5.7C433.1,219.7,434.4,205.7,426.5,196.3z"/>
		<path class="st8" d="M420.6,223.9l-6.8,5.7c-3,2.5-7.4,2.4-10.3-0.1l0.3,0.3l-5.8,4.8c-2.6,2.2-6.6,1.9-8.8-0.8l-6.3-7.6
			c2.2,2.6,6.1,3,8.8,0.8l5.8-4.8l-0.3-0.3c2.9,2.5,7.2,2.6,10.3,0.1l6.8-5.7c8.1-6.8,10.2-18.1,5.6-27.2c1.3,1,2.5,2.1,3.6,3.4
			C431.3,202,430,216,420.6,223.9z"/>
		<path class="st6" d="M105.8,401.7c-0.4,0-0.9-0.2-1.2-0.5c-0.5-0.6-0.4-1.6,0.2-2.1l68.6-57.2c17.6-14.7,49.8-31.2,74.8-32.9
			c22-1.5,59.6-31,70.7-40c0.6-0.5,1.6-0.4,2.1,0.2c0.5,0.6,0.4,1.6-0.2,2.1c-14.3,11.7-50.1,39.1-72.4,40.6
			c-24.4,1.7-55.9,17.8-73.1,32.2l-68.6,57.2C106.5,401.6,106.2,401.7,105.8,401.7z"/>
		<path class="st9" d="M323.3,277.6c1.1,1.3,0.9,3.3-0.4,4.4c-11,9-46.4,36.7-66.8,37.6c-24.8,1.1-50.6,22.8-68.2,37.5l-65.2,54.3
			c-4.9,4-9.1,8.2-7.8,15.9c0.3,2.1-2.3,3.3-3.7,1.7l0,0c-7.5-9-6.7-22.1,1.9-29.2l65.2-54.3c17.6-14.7,48.8-30,73.5-31.1
			c20.5-0.9,56-28.7,66.9-37.6c1.3-1.1,3.3-0.9,4.3,0.4C323.8,278.2,322.4,276.6,323.3,277.6z"/>
		<path class="st4" d="M330.1,285.7c-1.1-1.3-3.1-1.5-4.4-0.4c-10.8,9.2-44.4,39.1-49,59c-5.5,24.2-31.5,45.7-49.1,60.4L162.5,459
			c-4.8,4.1-9.7,7.5-17.1,4.9c-2-0.7-3.7,1.7-2.3,3.3l0,0c7.5,9,20.5,10.5,29,3.4l65.2-54.3c17.6-14.7,38.3-42.6,43.8-66.8
			c4.6-20,38.3-49.9,49-59c1.3-1.1,1.5-3,0.4-4.3C329.6,285.1,330.9,286.7,330.1,285.7z"/>
		
			<rect x="343.6" y="268.3" transform="matrix(0.6404 0.768 -0.768 0.6404 338.6109 -166.7284)" class="st4" width="7.5" height="19.9"/>
		<path d="M397.3,242c-2.6,0-5.3-1.1-7.1-3.3l-11.9-14.3c-1.6-1.9-2.3-4.3-2.1-6.7c0.2-2.5,1.4-4.7,3.3-6.3l5.4-4.5
			c0.5-0.4,1.2-0.6,1.8-0.6c0.7,0.1,1.3,0.4,1.7,0.9l20.5,24.6c0.4,0.5,0.6,1.2,0.6,1.8c-0.1,0.7-0.4,1.3-0.9,1.7l-5.4,4.5
			C401.4,241.3,399.4,242,397.3,242z M386.1,212.4l-3.5,2.9c-0.9,0.7-1.4,1.7-1.5,2.9c-0.1,1.1,0.2,2.2,1,3.1l11.9,14.3
			c1.5,1.8,4.2,2,6,0.5l3.5-2.9L386.1,212.4z"/>
		<path class="st10" d="M383.4,221c-0.4,0-0.9-0.2-1.2-0.5c-1.1-1.3-0.9-3.3,0.4-4.4l2.2-1.8c0.6-0.5,1.6-0.4,2.1,0.2
			c0.5,0.6,0.4,1.6-0.2,2.1l-2.2,1.8c0,0,0,0.1,0,0.1c0.5,0.6,0.4,1.6-0.2,2.1C384.1,220.8,383.7,221,383.4,221z"/>
		<path d="M411.9,237.6c-0.3,0-0.6,0-1,0c-2.8-0.3-5.3-1.6-7.1-3.7l-18.4-22c-1.8-2.1-2.6-4.8-2.4-7.6c0.3-2.8,1.6-5.3,3.7-7.1
			l6.8-5.7c5.1-4.2,11.5-6.2,18.1-5.6c6.6,0.6,12.5,3.7,16.8,8.8l0,0c8.7,10.5,7.3,26.1-3.2,34.8l-6.8,5.7
			C416.6,236.7,414.3,237.6,411.9,237.6z M409.4,190.8c-4.6,0-9,1.6-12.6,4.6L390,201c-1.1,0.9-1.8,2.2-1.9,3.7
			c-0.1,1.4,0.3,2.8,1.2,4l18.4,22c0.9,1.1,2.2,1.8,3.7,1.9c1.4,0.1,2.8-0.3,4-1.2l6.8-5.7c8.4-7,9.5-19.4,2.5-27.8
			c-3.4-4-8.1-6.5-13.4-7C410.6,190.8,410,190.8,409.4,190.8z"/>
		<path class="st10" d="M391.4,204.1c-0.4,0-0.9-0.2-1.2-0.5c-0.5-0.6-0.4-1.6,0.2-2.1l6.8-5.7c5.2-4.3,12.4-5.6,18.8-3.3
			c0.8,0.3,1.2,1.1,0.9,1.9c-0.3,0.8-1.1,1.2-1.9,0.9c-5.4-2-11.5-0.9-15.9,2.7l-6.8,5.7C392.1,204,391.7,204.1,391.4,204.1z"/>
		<path class="st11" d="M374.8,266.4c-1,0.9-2.2,1.5-3.4,1.9c-0.4,2.4-1.7,4.6-3.7,6.3c-0.1,0.1-0.2,0.2-0.3,0.2
			c0.8,0.5,1.5,1.2,2.1,1.9c3.8,4.5,3.2,11.2-1.4,15c-1.9,1.6-4.3,2.4-6.6,2.5c-0.5,0.7-1.1,1.4-1.7,2c-3.7,3.1-9.2,2.6-12.3-1.1
			c-1-1.2-1.6-2.6-1.9-4c0.2,0,0.4,0,0.5-0.1c-3-1.4-5-4.2-5-7.4c0-2,0.8-3.8,2-5.2c-3.4-2.1-5.7-5.8-5.7-10.1
			c0-4.4,2.4-8.2,5.9-10.2l-8.4-10c-0.2-0.3-0.5-0.5-0.8-0.7c-0.8-0.5-1.8-0.8-2.7-0.6c-0.7,0.1-1.4,0.4-2,0.9l-10.2,8.5
			c-0.3,0.3-0.6,0.6-0.8,1c-2-0.3-3.8-1.4-5.2-3c-3.1-3.7-2.6-9.2,1.1-12.2c0.1-0.1,0.2-0.2,0.3-0.3c-1.3-3.4-0.4-7.4,2.5-9.8
			c2.7-2.3,6.4-2.6,9.4-1.1c0.5-0.7,1.1-1.4,1.9-2c4.3-3.6,10.7-3.2,14.5,0.8c7.3-5,17.4-3.7,23.2,3.2c3.6,4.4,4.8,10,3.6,15.1
			c2.4,0.4,4.6,1.7,6.3,3.7C379.9,255.9,379.3,262.6,374.8,266.4z"/>
		<path class="st12" d="M374.3,266.4c-1,0.9-2.2,1.5-3.4,1.9c-0.4,2.4-1.7,4.6-3.7,6.3c-0.1,0.1-0.2,0.2-0.3,0.2
			c0.8,0.5,1.5,1.2,2.1,1.9c3.8,4.5,3.2,11.2-1.4,15c-1.9,1.6-4.3,2.4-6.6,2.5c-0.5,0.7-1.1,1.4-1.7,2c-3.7,3.1-9.2,2.6-12.3-1.1
			c-0.4-0.5-0.8-1-1-1.6c2.4,0.4,5-0.2,7.1-1.9c0.7-0.6,1.3-1.2,1.7-2c2.3,0,4.7-0.9,6.6-2.5c4.5-3.8,5.1-10.5,1.4-15
			c-0.6-0.7-1.3-1.4-2.1-1.9c0.1-0.1,0.2-0.1,0.3-0.2c2-1.7,3.2-3.9,3.7-6.3c1.2-0.4,2.3-1,3.4-1.9c4.2-3.5,5-9.5,2.2-13.9
			c2,0.6,3.9,1.7,5.4,3.5C379.4,255.9,378.8,262.6,374.3,266.4z"/>
		<path d="M354.3,300.7c-3.2,0-6.4-1.4-8.6-4c-1.1-1.3-1.8-2.8-2.3-4.4c-2.9-2-4.6-5.2-4.6-8.7c0-1.6,0.4-3.2,1.1-4.7
			c-3-2.7-4.8-6.5-4.8-10.7c0-4.1,1.8-8,4.8-10.6l-6.7-8c-0.1-0.1-0.2-0.2-0.3-0.3c-0.2-0.2-0.6-0.3-0.9-0.2c-0.3,0-0.6,0.1-0.8,0.3
			L321,258c-0.1,0.1-0.2,0.2-0.3,0.3c-0.5,0.9-1.6,1.4-2.6,1.2c-2.6-0.5-5-1.8-6.7-3.9c-3.7-4.4-3.4-10.9,0.5-14.9
			c-0.9-4,0.5-8.2,3.8-10.9c2.9-2.4,6.7-3.2,10.2-2.2c0.3-0.3,0.7-0.7,1.1-1c4.8-4,11.6-4,16.4-0.4c8.3-4.6,18.7-2.7,24.8,4.7
			c3.5,4.2,5.1,9.6,4.5,14.9c2.1,0.8,3.9,2.1,5.4,3.8c4.6,5.6,3.9,13.9-1.7,18.5l0,0c-0.9,0.7-1.8,1.3-2.8,1.8
			c-0.5,1.7-1.3,3.3-2.4,4.6c0.1,0.1,0.2,0.3,0.4,0.4c2.3,2.7,3.3,6.1,3,9.6c-0.3,3.5-2,6.7-4.7,8.9c-2,1.6-4.4,2.7-6.9,3
			c-0.4,0.5-0.9,1-1.5,1.5C359.4,299.9,356.8,300.7,354.3,300.7z M348.6,292c0.2,0.6,0.6,1.1,0.9,1.5c2.2,2.6,6.1,3,8.7,0.8
			c0.5-0.4,0.9-0.9,1.3-1.4c0.5-0.7,1.2-1.1,2-1.1c1.9,0,3.6-0.7,5.1-1.9c1.7-1.4,2.7-3.4,2.9-5.5c0.2-2.2-0.5-4.3-1.9-6
			c-0.5-0.6-1-1.1-1.6-1.5c-0.7-0.5-1.1-1.3-1.1-2.1c0-0.8,0.4-1.6,1.1-2c0,0,0.1-0.1,0.1-0.1c1.4-1.2,2.4-2.9,2.8-4.8
			c0.2-0.9,0.8-1.6,1.7-1.9c0.9-0.3,1.8-0.8,2.6-1.4c0,0,0,0,0,0c3.5-2.9,3.9-8,1-11.5c-1.2-1.5-2.9-2.5-4.8-2.8
			c-0.7-0.1-1.3-0.5-1.6-1.1c-0.4-0.6-0.5-1.3-0.3-1.9c1.1-4.6,0-9.3-3.1-12.9c-4.9-5.9-13.5-7.1-19.9-2.8c-1,0.7-2.4,0.5-3.2-0.3
			c-3-3.1-7.8-3.4-11.1-0.6c-0.6,0.5-1,1-1.4,1.5c-0.7,1-2,1.4-3.1,0.8c-2.2-1.1-4.8-0.7-6.7,0.8c-2,1.7-2.8,4.5-1.8,7
			c0.4,1,0.1,2.2-0.8,2.9c0,0-0.1,0.1-0.1,0.1c0,0-0.1,0.1-0.1,0.1c-2.6,2.2-3,6.1-0.8,8.7c0.7,0.8,1.5,1.4,2.4,1.8c0,0,0,0,0.1-0.1
			l10.2-8.5c1-0.8,2.1-1.3,3.3-1.4c1.5-0.2,3.1,0.1,4.4,1c0.5,0.4,0.9,0.7,1.3,1.2l8.4,10.1c0.5,0.6,0.7,1.3,0.5,2
			c-0.1,0.7-0.6,1.4-1.2,1.7c-2.9,1.7-4.6,4.7-4.6,8c0,3.3,1.7,6.3,4.5,8c0.6,0.4,1.1,1,1.2,1.8c0.1,0.7-0.1,1.5-0.6,2
			c-0.9,1-1.4,2.3-1.4,3.6c0,2.2,1.3,4.1,3.5,5.2c1,0.4,1.5,1.4,1.4,2.5C348.7,291.5,348.6,291.8,348.6,292z M366.1,272.7
			C366.1,272.7,366.1,272.7,366.1,272.7C366.1,272.7,366.1,272.7,366.1,272.7z M366.1,272.7C366.1,272.7,366.1,272.7,366.1,272.7
			C366.1,272.7,366.1,272.7,366.1,272.7z"/>
		<path class="st13" d="M373.3,256.8c-0.5,0-1.1-0.3-1.3-0.8c-0.1-0.3-0.3-0.5-0.5-0.8c-0.7-0.8-1.6-1.4-2.6-1.5
			c-1.4-0.3-2.7-1-3.6-2.1c-0.1-0.2-0.3-0.4-0.4-0.6c-0.9-1.4-1.2-3.1-0.8-4.8c0.8-3.5,0-7-2.3-9.8c-3.7-4.5-10.2-5.4-15-2.1
			c-2.5,1.7-5.8,1.4-7.9-0.8c-1.6-1.7-4.4-1.9-6.2-0.3c-0.3,0.3-0.6,0.5-0.8,0.8c-1.7,2.5-5,3.3-7.7,2c-0.9-0.4-2-0.3-2.8,0.3
			c-0.8,0.7-1.2,1.9-0.8,2.9c1,2.6,0.2,5.5-2.1,7.2l-0.1,0.1c-1.1,0.9-1.2,2.5-0.3,3.6c0.5,0.6,0.4,1.6-0.2,2.1
			c-0.6,0.5-1.6,0.4-2.1-0.2c-2-2.4-1.6-5.9,0.7-7.9l0.1-0.1c1.2-0.9,1.6-2.4,1.1-3.7c-0.9-2.2-0.2-4.7,1.6-6.3c1.7-1.4,4-1.7,6-0.7
			c1.4,0.7,3,0.2,3.9-1c0.4-0.5,0.8-1,1.3-1.4c3-2.5,7.5-2.3,10.3,0.6c1.1,1.1,2.8,1.3,4,0.4c6.1-4.2,14.3-3,19,2.6
			c2.9,3.5,4,8,2.9,12.4c-0.2,0.8,0,1.7,0.4,2.4c0.1,0.1,0.1,0.2,0.2,0.3c0.5,0.6,1.1,0.9,1.9,1.1c1.7,0.3,3.3,1.2,4.4,2.6
			c0.3,0.4,0.6,0.8,0.9,1.3c0.4,0.7,0.1,1.6-0.6,2C373.8,256.8,373.6,256.8,373.3,256.8z"/>
	</g>
	<g>
		<path class="st14" d="M240.9,262.4c-13.8,9-28.4,16.5-43.7,22.6l-47-8.3l-4.6-31.2L240.9,262.4z"/>
		<polygon class="st14" points="207.4,165.5 131.7,152.1 131.7,152.1 127.1,121 167.3,128.1 		"/>
		<path class="st14" d="M279,232.3c-0.7,0.7-1.4,1.3-2.1,2c-1.3,1.2-2.5,2.3-3.8,3.5l-132.1-23.3l-4.6-31.2l111.2,19.6L279,232.3z"
			/>
		<path class="st2" d="M273,237.8c-10.1,9.1-20.9,17.3-32.2,24.7l-95.3-16.8l-4.6-31.1L273,237.8z"/>
		<path class="st2" d="M197.2,285c-13.9,5.6-28.3,9.9-43.1,13l-0.7,0.1l-3.2-21.5L197.2,285z"/>
		<polygon class="st2" points="167.3,128.1 127.1,121 121.9,85.7 		"/>
		<polygon class="st2" points="247.5,202.9 136.3,183.3 131.7,152.1 207.4,165.5 		"/>
		<path d="M240.9,264.9c-0.1,0-0.3,0-0.4,0l-95.3-16.8c-1.1-0.2-1.9-1-2-2.1l-4.6-31.1c-0.1-0.8,0.2-1.6,0.7-2.2
			c0.6-0.6,1.4-0.8,2.2-0.7l132.1,23.3c0.9,0.2,1.7,0.9,2,1.8c0.3,0.9,0,1.9-0.7,2.5c-10.2,9.2-21.1,17.5-32.5,24.9
			C241.8,264.8,241.3,264.9,240.9,264.9z M147.8,243.4l92.6,16.3c9.4-6.2,18.5-13,27.2-20.5l-123.6-21.8L147.8,243.4z"/>
		<path d="M197.2,287.5c-0.1,0-0.3,0-0.4,0l-47-8.3c-1.1-0.2-1.9-1-2-2.1l-4.6-31.2c-0.1-0.8,0.2-1.6,0.7-2.2
			c0.6-0.6,1.4-0.8,2.2-0.7l95.3,16.8c1,0.2,1.8,1,2,2c0.2,1-0.2,2-1.1,2.6c-13.9,9-28.7,16.7-44.1,22.9
			C197.8,287.5,197.5,287.5,197.2,287.5z M152.4,274.6l44.5,7.9c12.9-5.2,25.3-11.5,37.1-18.7l-85.5-15.1L152.4,274.6z"/>
		<path d="M153.3,300.7c-0.5,0-1-0.2-1.4-0.4c-0.6-0.4-0.9-1-1-1.7l-3.2-21.5c-0.1-0.8,0.2-1.6,0.7-2.2c0.6-0.6,1.4-0.8,2.2-0.7
			l47,8.3c1.1,0.2,1.9,1.1,2.1,2.2c0.1,1.1-0.5,2.2-1.6,2.6c-14,5.6-28.6,10-43.5,13.2l-0.7,0.1
			C153.7,300.7,153.5,300.7,153.3,300.7z M153.1,279.8l2.3,15.4c11-2.4,21.9-5.5,32.4-9.3L153.1,279.8z"/>
		<path d="M167.3,130.6c-0.1,0-0.3,0-0.4,0l-40.2-7.1c-1.1-0.2-1.9-1-2-2.1l-5.2-35.3c-0.2-1.1,0.4-2.1,1.3-2.6
			c0.9-0.5,2.1-0.3,2.9,0.4l45.4,42.4c0.8,0.8,1,2,0.5,2.9C169.1,130.1,168.2,130.6,167.3,130.6z M129.3,118.8l30.1,5.3l-34-31.8
			L129.3,118.8z"/>
		<path d="M207.4,168c-0.1,0-0.3,0-0.4,0l-75.7-13.4c-0.7-0.1-1.4-0.6-1.8-1.3c-0.1-0.3-0.2-0.6-0.3-0.8l-4.6-31.2
			c-0.1-0.8,0.2-1.6,0.7-2.2c0.6-0.6,1.4-0.8,2.2-0.7l40.2,7.1c0.5,0.1,0.9,0.3,1.3,0.6l40.1,37.4c0.8,0.8,1,2,0.5,2.9
			C209.2,167.5,208.4,168,207.4,168z M133.9,150l65.6,11.6l-33.4-31.2l-36.1-6.4L133.9,150z"/>
		<path d="M247.5,205.4c-0.1,0-0.3,0-0.4,0l-111.2-19.6c-1.1-0.2-1.9-1-2-2.1l-4.6-31.1c-0.1-0.8,0.2-1.6,0.7-2.2
			c0.6-0.6,1.4-0.8,2.2-0.7l75.7,13.4c0.5,0.1,0.9,0.3,1.3,0.6l40.1,37.4c0.8,0.8,1,2,0.5,2.9C249.4,204.9,248.5,205.4,247.5,205.4z
			 M138.5,181.1L239.7,199l-33.4-31.2l-71.6-12.6L138.5,181.1z"/>
		<path d="M273,240.3c-0.1,0-0.3,0-0.4,0l-132.1-23.3c-1.1-0.2-1.9-1-2-2.1l-4.6-31.2c-0.1-0.8,0.2-1.6,0.7-2.2
			c0.6-0.6,1.4-0.8,2.2-0.7L248,200.5c0.5,0.1,0.9,0.3,1.3,0.6l31.5,29.3c0.5,0.5,0.8,1.1,0.8,1.8c0,0.7-0.3,1.4-0.8,1.8
			c-0.7,0.7-1.4,1.4-2.2,2c-1.3,1.2-2.5,2.3-3.8,3.5C274.3,240,273.7,240.3,273,240.3z M143.1,212.3l129.1,22.8
			c1-0.9,1.9-1.8,2.9-2.6c0.1-0.1,0.1-0.1,0.2-0.2l-29-27l-107.1-18.9L143.1,212.3z"/>
		
			<ellipse transform="matrix(3.261825e-03 -1 1 3.261825e-03 35.7947 207.3024)" class="st14" cx="121.9" cy="85.7" rx="16.9" ry="16.9"/>
		<path class="st14" d="M136.4,78.1c4.3,8.3,1.2,18.5-7.1,22.8c-4.8,2.5-10.4,2.5-15,0.4c2.7,0,5.3-0.6,7.9-1.9
			c8.3-4.3,11.5-14.5,7.1-22.8c-1.8-3.4-4.6-6-7.8-7.5C127.5,69,133.4,72.3,136.4,78.1z"/>
		<path d="M121.9,105.1c-7,0-13.7-3.8-17.2-10.4c-2.4-4.6-2.9-9.8-1.3-14.8c1.5-4.9,4.9-9,9.5-11.4c9.5-5,21.2-1.3,26.2,8.2l0,0
			c5,9.5,1.3,21.2-8.2,26.2C128,104.4,125,105.1,121.9,105.1z M121.9,71.3c-2.3,0-4.5,0.5-6.7,1.6c-3.4,1.8-5.9,4.8-7.1,8.5
			c-1.1,3.7-0.8,7.6,1,11c3.7,7,12.4,9.7,19.4,6.1c7-3.7,9.7-12.4,6.1-19.4l0,0C132.1,74.1,127,71.3,121.9,71.3z"/>
		<path class="st10" d="M119.6,99.1c-0.1,0-0.2,0-0.2,0c-4.2-0.7-8-3.4-9.9-7.1c-3.5-6.7-0.9-15,5.8-18.5c1.1-0.6,2.3-1,3.6-1.3
			c0.8-0.2,1.6,0.4,1.8,1.2c0.2,0.8-0.4,1.6-1.2,1.8c-1,0.2-1.9,0.5-2.8,1c-5.2,2.7-7.2,9.2-4.5,14.4c1.6,3,4.4,5,7.8,5.6
			c0.8,0.1,1.4,0.9,1.2,1.7C120.9,98.6,120.3,99.1,119.6,99.1z"/>
		<path class="st10" d="M157.1,292.5c-0.7,0-1.4-0.5-1.5-1.3l-27.1-185.5c-0.1-0.8,0.4-1.6,1.3-1.7c0.8-0.1,1.6,0.4,1.7,1.3
			l27.1,185.5c0.1,0.8-0.4,1.6-1.3,1.7C157.2,292.5,157.1,292.5,157.1,292.5z"/>
		<polygon class="st14" points="130.9,100 273,237.8 244,260.8 130.9,100.1 		"/>
	</g>
	<g>
		<path class="st2" d="M316.3,195.5c-11.4-2.7-22.6-6.5-33.3-11.4l-18.9-28.4L278,138L316.3,195.5z"/>
		<polygon class="st2" points="350,130.4 319.5,84.7 319.5,84.7 333.3,66.9 349.5,91.2 		"/>
		<path class="st2" d="M350.8,200.4c-0.7,0-1.4-0.1-2.1-0.1c-1.2-0.1-2.5-0.1-3.7-0.2l-53.2-79.8l13.8-17.8l44.8,67.2L350.8,200.4z"
			/>
		<path class="st15" d="M345,200c-9.7-0.7-19.3-2.2-28.6-4.5L278,138l13.8-17.8L345,200z"/>
		<path class="st15" d="M283.1,184.1c-9.7-4.4-19.1-9.7-28-15.9l-0.4-0.3l9.5-12.3L283.1,184.1z"/>
		<polygon class="st15" points="349.5,91.2 333.3,66.9 349,46.8 		"/>
		<polygon class="st15" points="350.4,169.6 305.7,102.4 319.5,84.7 350,130.4 		"/>
		<path d="M345,202.5c-0.1,0-0.1,0-0.2,0c-9.8-0.8-19.6-2.3-29-4.5c-0.6-0.1-1.2-0.5-1.5-1l-38.3-57.6c-0.6-0.9-0.6-2.1,0.1-2.9
			l13.8-17.8c0.5-0.6,1.3-1,2.1-1c0.8,0,1.5,0.4,2,1.1l53.2,79.8c0.5,0.8,0.6,1.8,0.1,2.6C346.7,202,345.9,202.5,345,202.5z
			 M317.9,193.3c7.2,1.7,14.6,2.9,22.1,3.7l-48.3-72.6l-10.6,13.6L317.9,193.3z"/>
		<path d="M316.3,198c-0.2,0-0.4,0-0.6-0.1c-11.5-2.7-22.9-6.6-33.7-11.6c-0.4-0.2-0.8-0.5-1-0.9l-18.9-28.4
			c-0.6-0.9-0.6-2.1,0.1-2.9l13.8-17.8c0.5-0.6,1.2-1,2.1-1c0.8,0,1.5,0.4,2,1.1l38.3,57.6c0.6,0.9,0.6,2,0,2.8
			C317.9,197.6,317.2,198,316.3,198z M284.8,182.1c8.4,3.8,17.1,6.9,25.9,9.4l-32.8-49.3l-10.6,13.6L284.8,182.1z"/>
		<path d="M283.1,186.6c-0.3,0-0.7-0.1-1-0.2c-9.8-4.5-19.4-9.9-28.4-16.1l-0.4-0.3c-0.6-0.4-0.9-1-1.1-1.7
			c-0.1-0.7,0.1-1.4,0.5-1.9l9.5-12.3c0.5-0.6,1.3-1,2.1-1c0.8,0,1.5,0.4,2,1.1l18.9,28.4c0.6,0.9,0.5,2.2-0.2,3
			C284.5,186.3,283.8,186.6,283.1,186.6z M258.2,167.4c5.7,3.8,11.6,7.3,17.7,10.4L264,160L258.2,167.4z"/>
		<path d="M349.5,93.7c-0.8,0-1.6-0.4-2.1-1.1l-16.2-24.3c-0.6-0.9-0.6-2.1,0.1-2.9L347,45.3c0.7-0.8,1.8-1.2,2.8-0.8
			c1,0.3,1.7,1.3,1.7,2.3l0.5,44.4c0,1.1-0.7,2.1-1.8,2.4C350,93.7,349.7,93.7,349.5,93.7z M336.4,67l10.5,15.8L346.6,54L336.4,67z"
			/>
		<path d="M350,132.9c-0.8,0-1.6-0.4-2.1-1.1l-30.5-45.7c-0.4-0.6-0.5-1.4-0.3-2.2c0.1-0.3,0.2-0.5,0.4-0.8l13.8-17.8
			c0.5-0.6,1.2-1,2.1-1c0.8,0,1.5,0.4,2,1.1l16.2,24.3c0.3,0.4,0.4,0.9,0.4,1.4l0.5,39.2c0,1.1-0.7,2.1-1.8,2.4
			C350.4,132.9,350.2,132.9,350,132.9z M322.6,84.8l24.8,37.2L347,92l-13.8-20.8L322.6,84.8z"/>
		<path d="M350.4,172.1c-0.8,0-1.6-0.4-2.1-1.1l-44.8-67.2c-0.6-0.9-0.6-2.1,0.1-2.9l13.8-17.8c0.5-0.6,1.3-1,2.1-1
			c0.8,0,1.5,0.4,2,1.1L352,129c0.3,0.4,0.4,0.9,0.4,1.4l0.5,39.2c0,1.1-0.7,2.1-1.8,2.4C350.9,172.1,350.7,172.1,350.4,172.1z
			 M308.7,102.5l39.1,58.7l-0.3-30l-28.1-42.2L308.7,102.5z"/>
		<path d="M350.8,202.9c0,0-0.1,0-0.1,0c-0.7,0-1.4-0.1-2.1-0.1c-1.2-0.1-2.5-0.2-3.7-0.2c-0.8-0.1-1.5-0.5-1.9-1.1l-53.2-79.8
			c-0.6-0.9-0.6-2.1,0.1-2.9l13.8-17.8c0.5-0.6,1.2-1,2.1-1c0.8,0,1.5,0.4,2,1.1l44.8,67.2c0.3,0.4,0.4,0.9,0.4,1.4l0.4,30.7
			c0,0.7-0.3,1.4-0.8,1.8C352,202.6,351.4,202.9,350.8,202.9z M346.4,197.6c0.6,0,1.2,0.1,1.8,0.1l-0.3-27.3l-42.4-63.7l-10.6,13.6
			L346.4,197.6z"/>
		
			<ellipse transform="matrix(0.3391 -0.9408 0.9408 0.3391 186.6361 359.2279)" class="st2" cx="349" cy="46.8" rx="12.1" ry="12.1"/>
		<path class="st16" d="M360.1,50.5c-2.1,6.3-9,9.7-15.3,7.6c-3.7-1.2-6.4-4.1-7.6-7.6c1.3,1.4,3,2.5,4.9,3.1
			c6.3,2.1,13.2-1.3,15.3-7.6c0.9-2.6,0.8-5.3,0-7.7C360.4,41.5,361.6,46.1,360.1,50.5z"/>
		<path d="M349,61.4c-1.6,0-3.1-0.3-4.7-0.8c-7.6-2.6-11.7-10.9-9.2-18.5c1.2-3.7,3.8-6.7,7.3-8.4c3.5-1.7,7.4-2,11.1-0.8
			c3.7,1.2,6.7,3.9,8.4,7.3c1.7,3.5,2,7.4,0.8,11.1v0c-1.2,3.7-3.8,6.7-7.3,8.4C353.4,60.9,351.2,61.4,349,61.4z M349,37.2
			c-1.5,0-2.9,0.3-4.2,1c-2.3,1.1-4,3.1-4.8,5.5c-1.7,5,1,10.5,6,12.1c2.4,0.8,5,0.6,7.3-0.5c2.3-1.1,4-3.1,4.8-5.5v0
			c0.8-2.4,0.6-5-0.5-7.3c-1.1-2.3-3.1-4-5.5-4.8C351,37.4,350,37.2,349,37.2z"/>
		<path class="st10" d="M341.9,53.6c-0.5,0-0.9-0.2-1.2-0.7c-1.7-2.5-2.2-5.8-1.2-8.7c1.7-5.1,7.3-7.9,12.5-6.2
			c0.9,0.3,1.7,0.7,2.4,1.2c0.7,0.5,0.9,1.4,0.4,2.1c-0.5,0.7-1.4,0.9-2.1,0.4c-0.5-0.4-1.1-0.6-1.7-0.9c-1.7-0.6-3.6-0.5-5.2,0.4
			c-1.6,0.8-2.9,2.2-3.4,3.9c-0.7,2.1-0.4,4.3,0.9,6.1c0.5,0.7,0.3,1.6-0.4,2.1C342.5,53.5,342.2,53.6,341.9,53.6z"/>
		<path class="st10" d="M260.2,168.7c-0.3,0-0.6-0.1-0.9-0.3c-0.7-0.5-0.8-1.5-0.3-2.1l82.5-105.6c0.5-0.7,1.5-0.8,2.1-0.3
			c0.7,0.5,0.8,1.5,0.3,2.1l-82.5,105.6C261.1,168.5,260.6,168.7,260.2,168.7z"/>
		<polygon class="st16" points="346,58.5 345,200 318.8,196.4 346,58.5 		"/>
	</g>
	<g>
		<path class="st15" d="M452.3,333.7c0,0-15.7,3.3-28-2.5l2.9-8.6c0,0,17.5,0.9,27.1-4.5L452.3,333.7z"/>
		<path class="st17" d="M450.8,300.5c0,0-13.5-8.6-18.3-21.4l8.1-4.1c0,0,11.9,12.9,22.6,15.7L450.8,300.5z"/>
		<path class="st17" d="M427.6,351.3c0,0-3.6,6.9-5.1,8.6c0,0-9.7-14.7-16.7-16.9l3-6.1C408.8,336.9,420.4,342.8,427.6,351.3z"/>
		<path class="st17" d="M455.1,368.5c0,0-5.7,5.3-7.7,6.4c0,0-4.2-17.1-10-21.6l4.9-4.7C442.3,348.6,451.2,358,455.1,368.5z"/>
		<path class="st2" d="M403.9,107.7c0,0,9.1,13.2,8.5,26.8l-9.1,0.7c0,0-6-16.5-14.7-23.3L403.9,107.7z"/>
		<path class="st17" d="M442.8,131.6c0,0,7.7,0.6,9.9,1.4c0,0-9.8,14.7-9.1,21.9l-6.8-0.4C436.8,154.5,437.7,141.5,442.8,131.6z"/>
		<path class="st15" d="M441.5,80.1c0,0,7.1,3.2,8.8,4.6c0,0-14.2,10.5-16,17.6l-6.2-2.7C428.1,99.6,433.4,87.7,441.5,80.1z"/>
		<path class="st15" d="M407.4,51.2c0,0,7.7,0.6,9.9,1.4c0,0-9.8,14.7-9.1,21.9l-6.8-0.4C401.4,74.1,402.3,61.1,407.4,51.2z"/>
		<path class="st17" d="M458.1,30.2c0,0,7.1,3.2,8.8,4.6c0,0-14.2,10.5-16,17.6l-6.2-2.7C444.7,49.7,450,37.8,458.1,30.2z"/>
		<path class="st2" d="M475.3,59.8c0,0,3.9,6.7,4.5,8.9c0,0-17.6,0.3-23.2,4.9l-3.5-5.8C453,67.8,464.3,61.2,475.3,59.8z"/>
		<path class="st17" d="M379.2,396.8c0,0-9.9-12.6-10-26.3l9-1.2c0,0,6.9,16.1,16,22.4L379.2,396.8z"/>
		<path class="st15" d="M339.1,375.2c0,0-7.7-0.2-9.9-0.8c0,0,8.9-15.2,7.9-22.4l6.8,0C343.8,352,343.6,365,339.1,375.2z"/>
		<path class="st17" d="M343.3,426.6c0,0-7.2-2.8-9.1-4.1c0,0,13.5-11.3,15-18.4l6.4,2.3C355.5,406.3,350.9,418.5,343.3,426.6z"/>
		<path class="st15" d="M379,453.5c0,0-7.7-0.2-9.9-0.8c0,0,8.9-15.2,7.9-22.4l6.8,0C383.7,430.3,383.5,443.3,379,453.5z"/>
		<path class="st17" d="M329.5,477.3c0,0-7.2-2.8-9.1-4.1c0,0,13.5-11.3,15-18.4l6.4,2.3C341.8,457.1,337.2,469.3,329.5,477.3z"/>
		<path class="st15" d="M310.7,448.8c0,0-4.2-6.5-5-8.6c0,0,17.6-1.3,22.9-6.3l3.8,5.6C332.5,439.5,321.6,446.7,310.7,448.8z"/>
		<path class="st17" d="M210.5,57.7c0,0-12.9,9.5-16.7,22.7l8.4,3.5c0,0,11-13.7,21.4-17.3L210.5,57.7z"/>
		<path class="st15" d="M234.4,80.8c0,0-2.5,15.8,3.9,27.9l8.5-3.3c0,0-1.7-17.5,3.2-27.3L234.4,80.8z"/>
		<path class="st15" d="M180.9,64.6c0,0-7.5-1.9-9.8-1.9c0,0,4.6,17,1.6,23.7l6.5,1.8C179.3,88.2,182.5,75.6,180.9,64.6z"/>
		<path class="st17" d="M186.3,32.6c0,0-7.7,0.8-9.9,1.5c0,0,10,14.5,9.5,21.8l6.8-0.5C192.7,55.4,191.5,42.4,186.3,32.6z"/>
		<path class="st15" d="M252.6,24.7c0,0,7.9,13.9,6,27.5l-9.1-0.2c0,0-4.4-17-12.5-24.5L252.6,24.7z"/>
		<path class="st17" d="M48.3,143.4c0,0,11.6,11,13.8,24.5l-8.8,2.5c0,0-9.2-14.9-19.1-19.8L48.3,143.4z"/>
		<path class="st15" d="M72.2,267.9c0,0-4.4,15.4,0.5,28.1l8.8-2.3c0,0,0.4-17.5,6.5-26.7L72.2,267.9z"/>
		<path class="st17" d="M105.2,271.7c0,0,7.6,14.1,20,19.8l4.7-7.8c0,0-12-12.8-14-23.7L105.2,271.7z"/>
		<path class="st15" d="M98.3,313.3c0,0,5.9,11.8,14.8,17l3-6.2c0,0-8.9-11-10.8-19.9L98.3,313.3z"/>
		<path class="st17" d="M93.5,163.3c0,0-7.1,3.1-8.9,4.5c0,0,14,10.8,15.7,17.9l6.3-2.5C106.5,183.1,101.5,171.1,93.5,163.3z"/>
		<path class="st15" d="M78.4,134.6c0,0-5.7,5.3-6.9,7.2c0,0,16.8,5.4,20.8,11.5l5.1-4.5C97.3,148.8,88.5,139.2,78.4,134.6z"/>
		<path class="st17" d="M85.7,216.1c0,0,14.7,6.3,21.4,18.2l-7.4,5.4c0,0-13.8-10.8-24.8-11.9L85.7,216.1z"/>
		<path d="M441.8,337.1c-5.6,0-12.5-0.8-18.7-3.7c-1.1-0.5-1.7-1.9-1.3-3.1l2.9-8.6c0.4-1.1,1.4-1.7,2.5-1.7
			c0.2,0,16.9,0.8,25.8-4.2c0.8-0.5,1.8-0.4,2.6,0.1c0.8,0.5,1.2,1.5,1.1,2.4l-2,15.7c-0.1,1.1-0.9,1.9-2,2.1
			C452.4,336.2,447.9,337.1,441.8,337.1z M452.3,333.7L452.3,333.7L452.3,333.7z M427.4,329.8c8.7,3.3,18.7,2.3,22.7,1.8l1.2-9.5
			c-8,2.8-18.1,3.1-22.3,3L427.4,329.8z"/>
		<path d="M450.8,303c-0.5,0-0.9-0.1-1.3-0.4c-0.6-0.4-14.3-9.2-19.3-22.6c-0.4-1.2,0.1-2.5,1.2-3.1l8.1-4.1c1-0.5,2.2-0.3,3,0.5
			c0.1,0.1,11.6,12.4,21.4,15c0.9,0.2,1.6,1,1.8,1.9c0.2,0.9-0.2,1.9-0.9,2.5l-12.4,9.8C451.9,302.8,451.4,303,450.8,303z
			 M435.8,280.3c3.9,8.4,11.8,14.8,15,17.1l7.5-5.9c-7.7-3.6-15.1-10.5-18.1-13.4L435.8,280.3z"/>
		<path d="M422.5,362.4c-0.1,0-0.1,0-0.2,0c-0.8-0.1-1.5-0.5-1.9-1.1c-3.6-5.4-10.9-14.5-15.4-15.9c-0.7-0.2-1.3-0.7-1.5-1.4
			c-0.3-0.7-0.3-1.4,0.1-2.1l3-6.1c0.3-0.6,0.8-1.1,1.5-1.3c0.6-0.2,1.3-0.2,1.9,0.1c0.5,0.2,12.1,6.2,19.6,15
			c0.7,0.8,0.8,1.9,0.3,2.8c-0.6,1.2-3.8,7.2-5.4,9.1C423.9,362,423.2,362.4,422.5,362.4z M409.1,341.8c5,3,10.4,9.7,13.3,13.7
			c0.7-1.2,1.5-2.5,2.1-3.8c-4.8-5.2-11.3-9.4-14.7-11.3L409.1,341.8z"/>
		<path d="M447.4,377.3c-0.3,0-0.7-0.1-1-0.2c-0.7-0.3-1.2-0.9-1.4-1.7c-1.5-6.3-5.4-17.3-9.1-20.2c-0.6-0.4-0.9-1.1-1-1.8
			c0-0.7,0.2-1.4,0.8-1.9l4.9-4.7c0.5-0.5,1.1-0.7,1.8-0.7c0.7,0,1.3,0.3,1.8,0.8c0.4,0.4,9.3,10,13.3,20.8c0.4,0.9,0.1,2-0.6,2.7
			c-1,0.9-6,5.5-8.2,6.7C448.2,377.2,447.8,377.3,447.4,377.3z M441,353.3c3.7,4.5,6.5,12.6,7.9,17.3c1-0.9,2.2-1.9,3.3-2.8
			c-2.8-6.6-7.5-12.6-10-15.6L441,353.3z"/>
		<path class="st17" d="M301.9,204.5c0,0,7.5,2.1,9.4,3.2c0,0-12.4,12.5-13.2,19.8l-6.6-1.7C291.6,225.9,295,213.3,301.9,204.5z"/>
		<path class="st17" d="M239.3,133c0,0,6.3,4.5,7.8,6.2c0,0-15.9,7.6-19.1,14.2l-5.6-3.8C222.4,149.6,229.9,139,239.3,133z"/>
		<path d="M298.2,230.1c-0.2,0-0.4,0-0.6-0.1l-6.6-1.7c-0.6-0.2-1.2-0.6-1.5-1.2c-0.3-0.6-0.4-1.3-0.3-1.9
			c0.1-0.5,3.6-13.2,10.7-22.2c0.6-0.8,1.7-1.1,2.6-0.9c1.3,0.4,7.9,2.2,10,3.5c0.7,0.4,1.1,1.1,1.2,1.8s-0.2,1.5-0.7,2.1
			c-4.6,4.6-12,13.6-12.4,18.3c-0.1,0.7-0.5,1.4-1.1,1.8C299.2,229.9,298.7,230.1,298.2,230.1z M294.8,224.1l1.6,0.4
			c1.9-5.5,7.3-12.1,10.7-15.8c-1.3-0.4-2.8-0.9-4.1-1.3C298.7,213.2,296,220.4,294.8,224.1z"/>
		<path d="M228,156c-0.5,0-1-0.1-1.4-0.4l-5.6-3.8c-0.6-0.4-0.9-1-1.1-1.6c-0.1-0.7,0-1.3,0.4-1.9c0.3-0.5,7.8-11.2,17.6-17.3
			c0.9-0.5,2-0.5,2.8,0.1c1.1,0.8,6.6,4.8,8.2,6.6c0.5,0.6,0.7,1.4,0.5,2.1c-0.2,0.8-0.7,1.4-1.4,1.7c-5.8,2.8-15.9,8.8-17.9,13
			c-0.3,0.7-0.9,1.1-1.6,1.3C228.5,155.9,228.3,156,228,156z M226,149.1l1.3,0.9c3.7-4.6,11-8.9,15.4-11.3c-1.1-0.8-2.3-1.8-3.5-2.6
			C233.4,140.2,228.4,146,226,149.1z"/>
		<path class="st15" d="M389,155.3c0,0,6.3,4.5,7.8,6.2c0,0-15.9,7.6-19.1,14.2l-5.6-3.8C372.1,171.9,379.5,161.2,389,155.3z"/>
		<path d="M377.7,178.2c-0.5,0-1-0.1-1.4-0.4l-5.6-3.8c-0.6-0.4-0.9-1-1.1-1.6c-0.1-0.7,0-1.3,0.4-1.9c0.3-0.5,7.8-11.2,17.6-17.3
			c0.9-0.5,2-0.5,2.8,0.1c1.1,0.8,6.6,4.8,8.2,6.6c0.5,0.6,0.7,1.4,0.5,2.1c-0.2,0.8-0.7,1.4-1.4,1.7c-5.8,2.8-15.9,8.8-17.9,13
			c-0.3,0.7-0.9,1.1-1.6,1.3C378.1,178.2,377.9,178.2,377.7,178.2z M375.7,171.3l1.3,0.9c3.7-4.6,11-8.9,15.4-11.3
			c-1.1-0.8-2.3-1.8-3.5-2.6C383,162.4,378.1,168.3,375.7,171.3z"/>
		<path d="M403.4,137.7c-1,0-2-0.7-2.3-1.6c-0.1-0.2-5.9-15.9-13.9-22.1c-0.7-0.6-1.1-1.5-0.9-2.5c0.2-0.9,0.9-1.7,1.8-1.9l15.3-4.2
			c1-0.3,2.1,0.1,2.7,1c0.4,0.6,9.6,14,9,28.3c-0.1,1.3-1.1,2.3-2.3,2.4l-9.1,0.7C403.5,137.7,403.4,137.7,403.4,137.7z
			 M393.6,113.2c5.7,6.3,9.8,15.6,11.4,19.4l4.9-0.4c-0.3-9.3-5.1-18.2-7.2-21.6L393.6,113.2z"/>
		<path d="M443.5,157.4c0,0-0.1,0-0.1,0l-6.8-0.4c-0.7,0-1.3-0.3-1.7-0.8c-0.4-0.5-0.7-1.2-0.6-1.8c0-0.6,1-13.6,6.3-23.9
			c0.5-0.9,1.4-1.4,2.4-1.4c1.3,0.1,8.1,0.7,10.5,1.5c0.7,0.2,1.3,0.8,1.6,1.6c0.3,0.7,0.1,1.5-0.3,2.2c-3.6,5.4-9.1,15.7-8.7,20.3
			c0.1,0.7-0.2,1.4-0.7,2C444.9,157.1,444.2,157.4,443.5,157.4z M439.5,152.2l1.6,0.1c0.8-5.8,4.9-13.3,7.4-17.5
			c-1.4-0.2-2.9-0.4-4.3-0.5C441.3,140.8,440,148.3,439.5,152.2z"/>
		<path d="M434.4,104.8c-0.3,0-0.7-0.1-1-0.2l-6.2-2.7c-0.6-0.3-1.1-0.8-1.3-1.4c-0.2-0.6-0.2-1.3,0-1.9c0.2-0.5,5.6-12.5,14-20.3
			c0.7-0.7,1.8-0.9,2.7-0.5c1.2,0.6,7.4,3.4,9.4,4.9c0.6,0.5,1,1.2,0.9,2c0,0.8-0.4,1.5-1,2c-5.2,3.9-13.9,11.7-15.1,16.2
			c-0.2,0.7-0.7,1.3-1.3,1.6C435.1,104.7,434.8,104.8,434.4,104.8z M431.5,98.4L433,99c2.7-5.2,9.1-10.9,12.9-14
			c-1.2-0.6-2.6-1.3-3.9-1.9C437.1,88.2,433.3,94.9,431.5,98.4z"/>
		<path d="M408.1,77c0,0-0.1,0-0.1,0l-6.8-0.4c-0.7,0-1.3-0.3-1.7-0.8c-0.4-0.5-0.7-1.2-0.6-1.8c0-0.6,1-13.6,6.3-23.9
			c0.5-0.9,1.4-1.4,2.4-1.4c1.3,0.1,8.1,0.7,10.5,1.5c0.7,0.2,1.3,0.8,1.6,1.6c0.3,0.7,0.1,1.5-0.3,2.2c-3.6,5.4-9.1,15.7-8.7,20.3
			c0.1,0.7-0.2,1.4-0.7,2C409.5,76.7,408.8,77,408.1,77z M404.1,71.7l1.6,0.1c0.8-5.8,4.9-13.3,7.4-17.5c-1.4-0.2-2.9-0.4-4.3-0.5
			C405.9,60.3,404.6,67.9,404.1,71.7z"/>
		<path d="M451,54.9c-0.3,0-0.7-0.1-1-0.2l-6.2-2.7c-0.6-0.3-1.1-0.8-1.3-1.4c-0.2-0.6-0.2-1.3,0-1.9c0.2-0.5,5.6-12.5,14-20.3
			c0.7-0.7,1.8-0.9,2.7-0.5c1.2,0.6,7.4,3.4,9.4,4.9c0.6,0.5,1,1.2,0.9,2c0,0.8-0.4,1.5-1,2c-5.2,3.9-13.9,11.7-15.1,16.2
			c-0.2,0.7-0.7,1.3-1.3,1.6C451.7,54.8,451.3,54.9,451,54.9z M448.1,48.5l1.5,0.6c2.7-5.2,9.1-10.9,12.9-14
			c-1.2-0.6-2.6-1.3-3.9-1.9C453.6,38.3,449.9,45,448.1,48.5z"/>
		<path d="M456.6,76.1c-0.1,0-0.3,0-0.4,0c-0.7-0.1-1.3-0.5-1.7-1.2l-3.5-5.8c-0.3-0.6-0.4-1.3-0.3-1.9c0.2-0.6,0.6-1.2,1.2-1.5
			c0.5-0.3,11.8-6.9,23.2-8.4c1-0.1,2,0.4,2.5,1.2c0.7,1.2,4,7.1,4.7,9.5c0.2,0.7,0.1,1.6-0.4,2.2c-0.5,0.6-1.2,1-2,1
			c-6.5,0.1-18.1,1.4-21.7,4.4C457.7,75.9,457.1,76.1,456.6,76.1z M456.5,68.8l0.8,1.4c5.3-2.6,13.7-3.5,18.6-3.8
			c-0.6-1.2-1.4-2.6-2-3.8C466.9,63.8,460,67,456.5,68.8z"/>
		<path d="M379.2,399.3c-0.8,0-1.5-0.3-2-1c-0.4-0.5-10.4-13.5-10.6-27.8c0-1.3,0.9-2.3,2.2-2.5l9-1.2c1.1-0.1,2.2,0.5,2.6,1.5
			c0.1,0.2,6.7,15.5,15.1,21.3c0.8,0.5,1.2,1.5,1.1,2.4c-0.1,0.9-0.8,1.7-1.7,2l-15,5.1C379.7,399.3,379.5,399.3,379.2,399.3z
			 M371.8,372.7c0.9,9.3,6.1,17.8,8.4,21.1l9-3.1c-6.1-6-10.7-15-12.5-18.7L371.8,372.7z"/>
		<path d="M339.1,377.7C339,377.7,339,377.7,339.1,377.7c-1.4,0-8.2-0.2-10.6-0.9c-0.7-0.2-1.4-0.8-1.7-1.5
			c-0.3-0.7-0.2-1.5,0.2-2.2c3.3-5.6,8.2-16.2,7.6-20.8c-0.1-0.7,0.1-1.5,0.6-2c0.5-0.5,1.2-0.9,1.9-0.9c0,0,0,0,0,0l6.8,0
			c0.7,0,1.3,0.3,1.8,0.7c0.5,0.5,0.7,1.1,0.7,1.8c0,0.6-0.3,13.6-4.9,24.2C341,377.1,340.1,377.7,339.1,377.7z M333.1,372.4
			c1.4,0.1,2.9,0.2,4.3,0.2c2.6-6.7,3.4-14.3,3.7-18.2l-1.6,0C339,360.4,335.4,368.1,333.1,372.4z"/>
		<path d="M343.3,429.1c-0.3,0-0.6-0.1-0.9-0.2c-1.3-0.5-7.6-3-9.6-4.4c-0.6-0.4-1-1.2-1.1-1.9c0-0.8,0.3-1.5,0.9-2
			c5-4.2,13.2-12.4,14.1-17c0.1-0.7,0.6-1.3,1.2-1.7c0.6-0.4,1.4-0.4,2.1-0.2l6.4,2.3c0.6,0.2,1.1,0.7,1.4,1.3
			c0.3,0.6,0.3,1.3,0.1,1.9c-0.2,0.5-4.9,12.8-12.8,21.1C344.6,428.8,343.9,429.1,343.3,429.1z M338.6,421.9c1.2,0.6,2.7,1.2,4,1.7
			c4.7-5.4,8.1-12.3,9.6-15.8l-1.5-0.6C348.2,412.6,342.2,418.6,338.6,421.9z"/>
		<path d="M379,456C379,456,378.9,456,379,456c-1.4,0-8.2-0.2-10.6-0.9c-0.7-0.2-1.4-0.8-1.7-1.5c-0.3-0.7-0.2-1.5,0.2-2.2
			c3.3-5.6,8.2-16.2,7.6-20.8c-0.1-0.7,0.1-1.5,0.6-2c0.5-0.5,1.2-0.9,1.9-0.9c0,0,0,0,0,0l6.8,0c0.7,0,1.3,0.3,1.8,0.7
			c0.5,0.5,0.7,1.1,0.7,1.8c0,0.6-0.3,13.6-4.9,24.2C380.9,455.4,380,456,379,456z M373,450.7c1.4,0.1,2.9,0.2,4.3,0.2
			c2.6-6.7,3.4-14.3,3.7-18.2l-1.6,0C378.9,438.6,375.3,446.3,373,450.7z"/>
		<path d="M329.5,479.8c-0.3,0-0.6-0.1-0.9-0.2c-1.3-0.5-7.6-3-9.6-4.4c-0.6-0.4-1-1.2-1.1-1.9c0-0.8,0.3-1.5,0.9-2
			c5-4.1,13.2-12.4,14.1-17c0.1-0.7,0.6-1.3,1.2-1.7c0.6-0.4,1.4-0.4,2.1-0.2l6.4,2.3c0.6,0.2,1.1,0.7,1.4,1.3
			c0.3,0.6,0.3,1.3,0.1,1.9c-0.2,0.5-4.9,12.8-12.8,21.1C330.9,479.6,330.2,479.8,329.5,479.8z M324.8,472.7c1.2,0.6,2.7,1.2,4,1.7
			c4.7-5.4,8.1-12.3,9.6-15.8L337,458C334.5,463.3,328.5,469.3,324.8,472.7z"/>
		<path d="M310.7,451.3c-0.8,0-1.6-0.4-2.1-1.1c-0.7-1.1-4.4-6.9-5.3-9.2c-0.3-0.7-0.2-1.5,0.3-2.2c0.4-0.6,1.1-1.1,1.9-1.1
			c6.5-0.5,18-2.4,21.4-5.6c0.5-0.5,1.2-0.7,2-0.7c0.7,0.1,1.4,0.5,1.8,1.1l3.8,5.6c0.4,0.6,0.5,1.2,0.4,1.9
			c-0.1,0.7-0.5,1.2-1.1,1.6c-0.5,0.3-11.4,7.5-22.7,9.7C311,451.3,310.8,451.3,310.7,451.3z M309.6,442.3c0.7,1.2,1.5,2.5,2.3,3.7
			c7-1.7,13.7-5.3,17.1-7.3l-0.9-1.3C322.9,440.3,314.5,441.7,309.6,442.3z"/>
		<path d="M202.2,86.4c-0.3,0-0.7-0.1-1-0.2l-8.4-3.5c-1.2-0.5-1.8-1.8-1.4-3c4-13.8,17-23.6,17.6-24c0.9-0.6,2-0.7,2.9-0.1
			l13.1,8.9c0.8,0.5,1.2,1.5,1.1,2.4c-0.1,0.9-0.8,1.7-1.7,2c-9.6,3.3-20.1,16.4-20.2,16.5C203.7,86.1,203,86.4,202.2,86.4z
			 M196.9,79l4.6,1.9c2.7-3.2,9.6-10.6,17-14.7l-7.9-5.3C207.5,63.4,200.2,70.3,196.9,79z"/>
		<path d="M238.3,111.2c-0.9,0-1.8-0.5-2.2-1.3c-6.8-12.6-4.3-28.8-4.2-29.4c0.2-1,1-1.9,2-2.1l15.6-2.8c0.9-0.2,1.9,0.2,2.4,1
			c0.6,0.8,0.7,1.8,0.2,2.6c-4.5,9.1-2.9,25.8-2.9,26c0.1,1.1-0.5,2.2-1.6,2.6l-8.5,3.3C238.9,111.1,238.6,111.2,238.3,111.2z
			 M236.7,82.9c-0.4,4-0.8,14,2.9,22.6l4.6-1.8c-0.3-4.2-0.6-14.3,1.9-22.4L236.7,82.9z"/>
		<path d="M179.3,90.7c-0.2,0-0.4,0-0.7-0.1l-6.5-1.8c-0.7-0.2-1.3-0.7-1.6-1.3c-0.3-0.7-0.3-1.4,0-2.1c1.9-4.3-0.1-15.8-1.8-22
			c-0.2-0.8,0-1.6,0.4-2.2c0.5-0.6,1.2-1,2-1c2.5,0,9.1,1.6,10.4,1.9c1,0.2,1.7,1.1,1.9,2.1c1.7,11.4-1.5,24.1-1.7,24.6
			c-0.2,0.6-0.6,1.2-1.2,1.5C180.1,90.6,179.7,90.7,179.3,90.7z M175.8,84.7l1.6,0.4c0.8-3.8,2-11.4,1.2-18.5
			c-1.4-0.3-2.9-0.7-4.2-0.9C175.5,70.6,176.9,78.9,175.8,84.7z"/>
		<path d="M185.9,58.4c-0.7,0-1.3-0.3-1.8-0.7c-0.5-0.5-0.8-1.2-0.7-2c0.3-4.7-5.4-14.8-9.1-20.2c-0.4-0.6-0.6-1.4-0.3-2.2
			c0.2-0.7,0.8-1.3,1.5-1.6c2.3-0.8,9.1-1.5,10.5-1.7c1-0.1,2,0.4,2.5,1.3c5.4,10.2,6.7,23.2,6.7,23.7c0.1,0.7-0.1,1.3-0.6,1.8
			c-0.4,0.5-1,0.8-1.7,0.9l-6.8,0.5C186.1,58.4,186,58.4,185.9,58.4z M180.5,35.8c2.6,4.2,6.8,11.6,7.8,17.4l1.6-0.1
			c-0.6-3.8-2-11.4-5.1-17.8C183.4,35.4,181.8,35.6,180.5,35.8z"/>
		<path d="M258.7,54.7C258.6,54.7,258.6,54.7,258.7,54.7l-9.2-0.2c-1.1,0-2.1-0.8-2.4-1.9c0-0.2-4.4-16.4-11.8-23.3
			c-0.7-0.6-1-1.6-0.7-2.5c0.3-0.9,1-1.6,2-1.7l15.6-2.8c1-0.2,2.1,0.3,2.6,1.2c0.3,0.6,8.3,14.8,6.3,29.1
			C261,53.8,259.9,54.7,258.7,54.7z M251.4,49.5l5,0.1c0.5-9.3-3.4-18.6-5.1-22.2l-9.4,1.7C247,36,250.2,45.6,251.4,49.5z"/>
		<path d="M53.3,172.9c-0.9,0-1.7-0.4-2.1-1.2c-0.1-0.1-8.9-14.4-18.1-18.9c-0.8-0.4-1.4-1.3-1.4-2.2c0-0.9,0.5-1.8,1.4-2.2
			l14.1-7.2c0.9-0.5,2.1-0.3,2.9,0.4c0.5,0.5,12.2,11.8,14.5,25.9c0.2,1.3-0.6,2.5-1.8,2.8l-8.8,2.5
			C53.7,172.9,53.5,172.9,53.3,172.9z M39.3,150.8c6.9,5,12.8,13.2,15.1,16.7l4.8-1.3c-2.2-9-8.7-16.8-11.4-19.7L39.3,150.8z"/>
		<path d="M72.7,298.5c-1,0-2-0.6-2.3-1.6c-5.2-13.4-0.8-29.1-0.6-29.7c0.3-1,1.2-1.7,2.3-1.8l15.8-0.9c0.9-0.1,1.8,0.4,2.3,1.3
			c0.5,0.8,0.4,1.8-0.1,2.6c-5.6,8.5-6.1,25.2-6.1,25.4c0,1.1-0.8,2.1-1.9,2.4l-8.8,2.3C73.1,298.5,72.9,298.5,72.7,298.5z
			 M74.2,270.3c-0.9,3.9-2.5,13.8,0.1,22.7l4.8-1.2c0.2-4.2,1.2-14.2,4.6-22L74.2,270.3z"/>
		<path d="M125.2,294c-0.3,0-0.7-0.1-1-0.2c-13-5.9-20.8-20.3-21.2-20.9c-0.5-0.9-0.4-2.1,0.4-2.9l10.7-11.7c0.6-0.7,1.6-1,2.5-0.7
			c0.9,0.3,1.6,1,1.8,1.9c1.9,10,13.3,22.3,13.4,22.4c0.8,0.8,0.9,2,0.3,3l-4.7,7.8C126.9,293.6,126.1,294,125.2,294z M108.3,272
			c2.1,3.4,7.8,11.7,16,16.2l2.6-4.2c-2.7-3.1-9.1-11-12.1-19L108.3,272z M105.2,271.7L105.2,271.7L105.2,271.7z"/>
		<path d="M113.1,332.8c-0.4,0-0.9-0.1-1.2-0.3c-9.5-5.5-15.6-17.5-15.8-18c-0.4-0.9-0.3-1.9,0.3-2.6l7-9.1c0.6-0.8,1.6-1.1,2.5-0.9
			c1,0.2,1.7,1,1.9,1.9c1.8,8.3,10.2,18.7,10.3,18.9c0.6,0.8,0.7,1.8,0.3,2.7l-3,6.2c-0.3,0.6-0.9,1.1-1.5,1.3
			C113.6,332.8,113.3,332.8,113.1,332.8z M101.2,313.5c1.6,2.8,5.5,9.1,10.9,13.1l1.1-2.2c-2-2.6-6.3-8.7-8.8-14.9L101.2,313.5z"/>
		<path d="M100.3,188.1c-0.4,0-0.8-0.1-1.1-0.3c-0.6-0.3-1.1-0.9-1.3-1.6c-1.1-4.5-9.6-12.5-14.8-16.5c-0.6-0.5-1-1.2-1-2
			c0-0.8,0.4-1.5,1-2c2-1.5,8.2-4.2,9.5-4.8c0.9-0.4,2-0.2,2.7,0.5c8.2,8,13.4,20.1,13.6,20.6c0.3,0.6,0.3,1.3,0,1.9
			c-0.3,0.6-0.8,1.1-1.4,1.4l-6.3,2.5C100.9,188.1,100.6,188.1,100.3,188.1z M89,168.1c3.8,3.2,10,9,12.7,14.2l1.5-0.6
			c-1.7-3.5-5.3-10.2-10.2-15.5C91.7,166.9,90.2,167.5,89,168.1z"/>
		<path d="M92.2,155.8c-0.1,0-0.2,0-0.3,0c-0.7-0.1-1.4-0.5-1.8-1.1c-2.6-3.9-13.3-8.5-19.5-10.5c-0.7-0.2-1.3-0.8-1.6-1.5
			c-0.3-0.7-0.2-1.5,0.3-2.2c1.3-2.1,6.3-6.8,7.3-7.7c0.7-0.7,1.8-0.9,2.7-0.4c10.5,4.8,19.4,14.4,19.7,14.8
			c0.5,0.5,0.7,1.1,0.7,1.8c0,0.7-0.3,1.3-0.8,1.7l-5.1,4.5C93.4,155.6,92.8,155.8,92.2,155.8z M75.7,140.6
			c4.6,1.7,12.5,5.1,16.7,9.1l1.2-1.1c-2.8-2.7-8.5-7.8-14.8-11.1C77.8,138.6,76.7,139.7,75.7,140.6z"/>
		<path d="M99.8,242.1c-0.5,0-1.1-0.2-1.5-0.5c-0.1-0.1-13.4-10.4-23.5-11.4c-0.9-0.1-1.7-0.7-2.1-1.6c-0.3-0.9-0.1-1.9,0.5-2.6
			l10.7-11.7c0.7-0.8,1.9-1,2.8-0.6c0.6,0.3,15.6,6.8,22.6,19.3c0.6,1.1,0.3,2.5-0.7,3.2l-7.4,5.4C100.8,242,100.3,242.1,99.8,242.1
			z M79.9,226.1c8.2,2.3,16.6,8,20,10.4l4-2.9c-5.2-7.7-14-12.7-17.5-14.5L79.9,226.1z"/>
	</g>
</g>
<path class="st6" d="M126.7,114.8l36.4,166.9c1,4.6,5.7,7.5,10.2,6.3c8.5-2.2,21.8-6.2,30.8-11.9c3.6-2.3,4.9-7,3-10.8l-76.4-151.9
	C129.5,111.2,126.2,112.4,126.7,114.8z"/>
<path class="st9" d="M344.6,64.1l-72.2,96.1c-2,2.7-1.4,6.5,1.3,8.4c5.1,3.5,13.3,8.7,20.5,10.9c2.9,0.9,6-0.6,7.1-3.4l45.8-110.6
	C347.8,64,345.6,62.8,344.6,64.1z"/>
</svg>
