<?xml version="1.0" encoding="utf-8"?>
<!-- Generator: Adobe Illustrator 27.0.0, SVG Export Plug-In . SVG Version: 6.00 Build 0)  -->
<svg version="1.1" id="Layer_1" xmlns="http://www.w3.org/2000/svg" xmlns:xlink="http://www.w3.org/1999/xlink" x="0px" y="0px"
	 viewBox="0 0 422.3 288.9" style="enable-background:new 0 0 422.3 288.9;" xml:space="preserve">
<style type="text/css">
	.st0{fill:#FFFFFF;}
	.st1{fill:#E85F28;}
	.st2{fill:#A34524;}
	.st3{fill:#B53609;}
	.st4{fill:#7C270D;}
	.st5{fill:#CCC1BE;}
</style>
<g>
	<path class="st0" d="M272.3,285.6c-16.2,0-36.7-6.5-48.7-15.5c-2.8-2.1-5-3.6-6.9-4.9c-2-1.4-3.8-2.6-5.5-3.9
		c-1.6,1.3-3.4,2.6-5.5,3.9c-1.9,1.3-4.1,2.8-6.9,4.9c-12.1,9-32.6,15.5-48.7,15.5c-2.9,0-5.6-0.2-8.2-0.6
		c-16.3-2.7-23.3-6.1-35.9-17.6l-0.3-0.3c-0.6-0.6-1.5-1.4-2-1.7c-0.6,0-1.7,0.2-2.6,0.3c-0.4,0.1-0.8,0.1-1.2,0.2
		c-1.6,0.2-3.2,0.3-4.8,0.3c-12.2,0-23.6-6.2-33.3-12c-0.6-0.4-1.2-0.7-1.8-1.1c-1.5-0.9-2.8-1.8-3.8-2c-0.8-0.2-2.1-0.3-3.5-0.4
		c-1-0.1-1.9-0.1-2.9-0.2c-23.6-2.3-35.3-33.4-36.6-39.4c-4.5-20.6,2.9-37.2,10.7-50.9c3-5.1,5.2-10.1,7.7-15.4
		c1.5-3.2,3-6.6,4.8-10.1c1.9-3.9,2-6,1.9-6.5c-0.1-0.1-0.5-0.5-1.5-1c-1.6-0.8-3.4-1.2-5.4-1.2c-4.3,0-8.4,1.9-10.8,5
		c-1.9,2.5-4.9,3.9-7.9,3.9c-0.4,0-0.8,0-1.2-0.1c-3.5-0.4-6.5-2.7-8-5.9c-9.3-21.3-2-53.2,21.7-64c8.2-3.7,17-4.9,24.5-5.5
		c1.5-0.1,3-0.2,4.5-0.2c3.8,0,7.5,0.4,11.1,1c-1.6-3.1-3.6-5.9-6-8.4c-6.2-6.3-15.2-10-24-10c0,0-0.5,0-0.5,0c-4.2,0-8-2.6-9.4-6.6
		c-1.5-4-0.2-8.5,3.1-11.2C39.3,15.2,56.1,3.3,75.8,3.3c0.9,0,1.9,0,2.8,0.1c19.6,1.1,32.5,6.9,47.4,21.3c2.5,2.4,8.9,9.6,13.6,18.1
		c18.6-18.1,42.8-31.8,67.8-38c1.1-0.4,2.3-0.6,3.5-0.6c0.2,0,0.3,0,0.5,0c1.1,0,2.2,0.2,3.2,0.6c25,6.2,49.4,19.9,68,38
		c4.8-8.5,11.1-15.7,13.6-18.1c14.9-14.4,27.8-20.1,47.4-21.3c0.9-0.1,1.9-0.1,2.8-0.1c19.7,0,36.4,11.9,47.4,20.8
		c3.3,2.7,4.5,7.2,3.1,11.2c-1.4,4-5.2,6.6-9.4,6.6c0,0-0.5,0-0.5,0c-8.9,0-17.8,3.8-24,10c-2.4,2.4-4.4,5.3-6,8.4
		c3.6-0.7,7.3-1,11.1-1c1.5,0,3.1,0.1,4.5,0.2c7.8,0.6,15,2.7,23.5,6.5c10.8,4.9,19.4,14.8,23.7,27.1c4.1,12,3.8,25-0.9,35.8
		c-1.4,3.2-4.4,5.5-8,5.9c-0.4,0-0.8,0.1-1.2,0.1c-3.1,0-6-1.4-7.9-3.9c-2.3-3.1-6.5-5-10.8-5c-1.9,0-3.8,0.4-5.4,1.2
		c-1,0.5-1.4,0.9-1.5,1c-0.1,0.5,0,2.6,1.9,6.5c1.7,3.5,3.3,6.8,4.7,10c2.4,5.3,4.7,10.3,7.7,15.5c7.8,13.6,15.2,30.3,10.7,50.9
		c-1.3,6-13,37.1-36.6,39.4c-1,0.1-1.9,0.2-2.9,0.2c-1.4,0.1-2.8,0.2-3.6,0.4c-0.9,0.3-2.3,1.1-3.7,2c-0.6,0.4-1.2,0.8-1.8,1.1
		c-9.7,5.8-21.1,12-33.2,12c-1.6,0-3.3-0.1-4.8-0.3c-0.4-0.1-0.8-0.1-1.2-0.2c-1-0.2-2-0.3-2.6-0.3c-0.5,0.3-1.4,1.2-2,1.7l-0.3,0.3
		c-12.5,11.5-19.6,14.9-35.9,17.6C277.9,285.4,275.2,285.6,272.3,285.6z"/>
	<g>
		<path d="M409.7,124.9c-6.4-8.4-19-11.4-28.5-6.7c-2.2,1.1-4.3,2.6-5.6,4.7c-3,4.8-1,11.1,1.5,16.2c4.5,9.1,7.7,17.2,12.7,26
			c8.1,14.1,13.1,27.8,9.6,43.7c-1.3,6.1-11.6,30-27.8,31.6c-2.8,0.3-5.6,0.2-8.3,1c-2.9,0.8-5.3,2.6-7.9,4.2
			c-9.4,5.6-20.7,11.9-31.5,10.3c-2.8-0.4-5.6-1-8.3-0.2c-2.4,0.7-4.2,2.5-6.1,4.2c-10.9,10-16.2,12.7-30.7,15.1
			c-14.6,2.4-37.5-4.2-49.3-13c-11.1-8.2-13.7-8-18-16.4c-0.2-0.3-0.3-0.6-0.3-0.9c-0.1,0.3-0.2,0.6-0.3,0.9
			c-4.4,8.4-6.9,8.2-18,16.4c-11.8,8.8-34.8,15.4-49.3,13c-14.6-2.4-19.8-5.1-30.7-15.1c-1.8-1.7-3.7-3.5-6.1-4.2
			c-2.7-0.8-5.5-0.2-8.3,0.2c-10.8,1.6-22.2-4.7-31.6-10.3c-2.6-1.5-5-3.3-7.9-4.2c-2.7-0.8-5.5-0.7-8.3-1
			C34.5,239,24.2,215,22.9,208.9c-3.5-15.9,1.5-29.6,9.6-43.7c5.1-8.8,8.2-17,12.7-26c2.5-5.1,4.5-11.4,1.5-16.2
			c-1.3-2.1-3.4-3.6-5.6-4.7c-9.5-4.7-22.1-1.7-28.5,6.7C4.9,107.2,11.7,82,29.3,74c6.6-3,13.9-4,21.2-4.6
			c9.2-0.8,21.4,1.4,28.5,7.4c0.3-11.7-4.3-23.5-12.5-31.9c-8.2-8.4-20-13.2-31.7-13C47.2,21.7,62,12.4,78.1,13.4
			c17.8,1,28.2,6.1,41.1,18.5c6.4,6.1,17.3,21.6,16.5,30.4c18.3-23.3,46.6-41.2,75.4-48c0,0,0-0.1,0-0.1c0.1,0,0.1,0,0.2,0
			c0.1,0,0.1,0,0.1,0c0,0,0,0.1,0,0.1c28.8,6.8,57.2,24.7,75.4,48c-0.8-8.8,10.1-24.2,16.5-30.4c12.8-12.4,23.3-17.5,41.1-18.5
			c16-0.9,30.9,8.3,43.3,18.5c-11.7-0.2-23.5,4.7-31.7,13c-8.2,8.4-12.9,20.2-12.5,31.9c7.1-6,19.3-8.2,28.5-7.4
			C379.1,70,385.4,72,392,75C409.6,83,417.5,107.2,409.7,124.9z"/>
		<path class="st1" d="M345.7,211.5c-1,14.5-14.3,25.8-28.5,25.9c5.4-15.5,3.9-32.4-0.8-47.9c-2.9-9.6-7.5-18.5-10.6-28
			c-3-9.3-2.7-21.7,7.7-26c1.6-0.7,1.4-3.1-0.2-3.5c-3.6-1-7.5-1.7-11.3-1.8c0-17.1,15.5-24.7,30.5-25.6c-8,1.8-13.9,11.3-15.5,18.7
			c-3,14.2,5,28.3,11.1,40.7c3.8,7.8,7.8,15.5,11.4,23.4C343.1,194.8,346.3,203,345.7,211.5z"/>
		<path class="st2" d="M322.2,107.6c-9.3,8.7-12.3,22.7-10.5,35.4s7.8,24.3,14,35.5c-2.9-2-5.8-4-8.7-6c7.7,12.5,11.1,27.4,9.7,42
			c-0.9-3.1-2-6.1-3.3-9c0.3,3.1-0.6,6.2-2.5,8.7c-0.4,0.6-0.9,1.1-1.2,1.8c-0.3,0.8-0.4,1.6-0.5,2.5c-0.5,6.6-1.8,13.2-3.9,19.5
			c4.9-1.3,10.2-1.3,14.9-3.4c6.3-2.9,10.4-9.2,13.1-15.6c1.6-3.9,2.8-8.1,2.9-12.3c0.2-8.2-3.5-15.9-7.1-23.4
			c-5.9-12.4-11.5-25-16.6-37.7c-2.8-6.8-5.5-14.2-3.8-21.3c0.5-1.9,1.2-3.8,2.1-5.6c2.5-5.2,6.1-10.5,11.6-12.3
			c3.3-1,4.8-4.8,0.2-4.5C329,102.2,324.7,105.3,322.2,107.6z"/>
		<path class="st3" d="M333.8,89.2c-2.9,3.3-5,7.3-5.9,11.8c-5.6,0.7-11,2.5-15.7,5.6c0.4-2.7-0.4-5.9-0.5-8.5
			c-0.3-4.8-0.3-9.7-0.1-14.5c0.4-9.9,2-19.7,6.1-28.8c8.4-18.9,26.5-32,47.6-27.7C338.3,33,323.7,63.4,333.8,89.2z"/>
		<path class="st3" d="M386.7,189.1c2.6,16.1-1.4,36.7-18.7,42.1c2.6-3.3,4.8-7,6.4-11c4.7-11.8,4.6-25.8-1-37.2
			c-1.3-2.7-3-5.2-4.8-7.5c0.2-0.4,0.3-0.9,0.1-1.4c-8.7-20.3-26.9-42.4-17.3-65.7c4.6-11.3,16.1-17.5,28.2-15.8
			c10.2,1.4,16.7,7.6,22.5,15.1c-10.7-5.6-23.5-8.6-34.2-1.2c-12.2,8.5-9.7,24.4-3.2,35.7c4.1,7.1,9.3,13.5,13.2,20.8
			C382.2,171,385.2,179.9,386.7,189.1z"/>
		<path class="st3" d="M372.9,205.9c-1,15.4-10.2,28.6-24.1,35.2c-7.7,3.7-16.7,5.1-25.2,4.1c-2.5-0.3-6.2-1.4-9.3-1.1
			c0.5-1.1,1-2.1,1.5-3.2c11.4,0.2,22.3-6,28.3-15.7c7-11.3,4.9-23.8,0-35.4c-6.7-15.7-16.3-30.3-21.9-46.5
			c-2.6-7.5-3.9-15.6-1.2-23.2c2.8-7.9,8.3-12.1,16-14.8c-7.3,7-11.1,17.4-9.1,27.6c2.7,14.2,14.6,24.1,24.8,33.2
			C364.8,176.8,374.1,188.9,372.9,205.9z"/>
		<path class="st3" d="M300.1,256.3c-13,11.1-31.7,12.1-47.4,6.7c-15.1-5.2-26.9-16.2-38.9-26.3c-0.3-0.2-0.6-0.4-0.9-0.5
			c-0.7-1.1-2.5-1.6-3.8-0.4c-12,10.3-23.9,21.5-39,26.9c-15.2,5.5-33.3,4.9-46.5-5.1c-12.2-9.2-18.1-24.8-18.5-39.7
			c-0.5-17.6,6-33.6,12.5-49.6c4.2-10.5,6.8-26.1-3.1-33.7c0.3-0.1,0.6-0.1,0.9-0.2c17.4,5.5,18,28.1,16.4,43.2
			c-1.7,15.2-5.4,31.1,0.3,46c5,13,15.4,20.2,29.3,20.7c13.4,0.5,26.9-4.7,36.6-13.9c6.3-6,10.8-13.6,13-21.8
			c4.9,19,22.8,33.7,43.2,35.5c13.6,1.2,26.1-3,33.1-15.2c7.4-13,6-28.2,4.1-42.5c-2.2-16.7-5.7-45.4,15-51.9
			c0.5,0.1,0.9,0.2,1.4,0.2c-8.2,6.5-8.4,19.2-5.2,28.7c2.8,8.3,6.8,16.1,9.5,24.5c2.8,8.6,4.7,17.5,5,26.5
			C317.2,229.7,312.1,246.1,300.1,256.3z"/>
		<path class="st3" d="M53.6,230.9c-16.5-5.6-20.9-25.1-18.7-40.9c1.3-9.5,4.5-18.9,8.9-27.5c3.8-7.3,9.1-13.7,13.2-20.8
			c6.5-11.1,9.4-27.1-2.8-35.6c-10.9-7.6-24.1-4.1-34.9,1.8c6-8,13.1-14.7,23.9-15.7c11.6-1.1,22.4,5,27,15.8
			c10.1,23.3-8.3,46-17.2,66.3c-0.2,0.6-0.1,1,0.2,1.3c-0.5,0.6-1,1.3-1.4,1.9C40.4,194.1,42.2,215.8,53.6,230.9z"/>
		<path class="st3" d="M107.3,244.1c-2-0.1-4.2,0.4-5.9,0.7c-7.3,1.3-14.8,0.8-21.9-1.3c-14.6-4.4-26-16-29.5-30.8
			c-3.9-16.4,2.2-30.9,14-42.2c10.2-9.8,22.5-18.3,28.1-31.8c3.3-7.9,2.9-16.6-0.5-24c-1.5-3.3-3.6-6.4-6.3-9.1
			c7,2.6,12.1,6.4,15,13.6c3.2,7.8,2,16.4-0.7,24.2C94.1,159,85,173.4,78.2,188.6c-5.3,11.9-8,25-0.7,36.7
			c6,9.7,16.8,15.8,28.2,15.6h0.1c0.4,1,0.9,2.1,1.4,3.1C107.2,244,107.2,244,107.3,244.1z"/>
		<path class="st3" d="M110.1,97.5c-0.1,2.5-1.1,6.1-0.8,8.9c-4.6-3-10-4.7-15.5-5.4c-0.9-4.6-3-8.6-6-12
			c10.1-25.9-4.4-56.2-31.4-61.9C77.2,23,94.9,35.7,103.5,54c4.3,9.1,6.1,19,6.6,28.9C110.4,87.8,110.4,92.6,110.1,97.5z"/>
		<path class="st1" d="M403,104.3c-10.9-16.4-37.7-20.3-50.5-3.9c-7.5,9.5-8.2,22.7-5.4,34.1c1.7,7,4.7,13.6,7.9,20.1
			c2.1,4.3,4.2,8.7,6.5,13c-5.8-5.6-12.3-10.6-17.8-16.3c-6.2-6.4-11.8-14.4-12.1-23.6c-0.3-9.3,4.6-17.9,12.2-23
			c1.2-0.8,1.8-3.4-0.3-3.6c-4.1-0.5-8.4-0.7-12.6-0.4c6-15.5,24.6-22.2,40.5-21.6c9.1,0.4,17.7,4.4,24.3,10.6
			C400,93.7,401.9,98.9,403,104.3z"/>
		<path class="st1" d="M361.5,24.2c-18.1-3-36,9-44.8,24.4c-5.1,9-7.8,19-8.8,29.3c-0.6,6-0.7,11.9-0.5,17.9
			c0.1,3.6-0.6,10.2,1.8,13.2c-6.3,5.4-10.1,12.9-9.7,21.2c-3.9,0.1-7.7,0.7-11.3,2.1c1.8-3.5,3-7.3,4.5-11c2.5-6,3.6-12.2,3.1-18.8
			c-0.3-4.8-1.5-9.4-3.1-13.9c1.7-4,0.8-9.5,1.3-13.7c0.7-5.8,1.7-11.7,3.7-17.2c3.5-9.7,10.1-17.8,18-24.4
			c7.7-6.4,16.4-11.5,26.5-12.5C349.1,20.1,355.7,21.2,361.5,24.2z"/>
		<path class="st1" d="M122.2,130.2c0.5-8.5-3.3-16-9.7-21.5c2.2-3.2,1.6-8.5,1.7-12.2c0.2-5.6,0.2-11.2-0.2-16.7
			c-0.8-10.9-3.4-21.7-8.8-31.3c-8.9-15.8-27.3-27.7-45.7-24.1c6.2-3.2,13.3-4.4,20.4-3.5c10.1,1.3,18.7,6.6,26.4,13
			c7.8,6.6,14.4,14.9,17.8,24.6c1.9,5.5,2.9,11.4,3.6,17.1c0.5,3.9-0.4,9.5,1.3,13.3c-1.4,3.7-2.4,7.6-2.9,11.6
			c-0.8,6.6-0.1,13.3,2.3,19.5c1.5,3.9,2.9,8.1,4.9,12C129.7,130.8,126,130.2,122.2,130.2z"/>
		<path class="st1" d="M83.1,145.9c-6.6,8.8-15.7,15.1-23.5,22.8c2.5-4.7,4.8-9.4,7.1-14.1c3.2-6.4,6.2-13.1,7.9-20.1
			c2.8-11.4,2.3-24.5-5.2-34.1c-13-16.6-40-12.2-50.8,4.4c1.1-5.8,3.1-11.3,7.8-15.5c6.8-6.1,15.3-9.9,24.5-10
			c15.6-0.2,33.8,6.3,39.9,21.6c-3.9-0.3-7.9-0.1-11.7,0.4c-1.9,0.2-3.2,2.5-1.3,3.8C92.5,114.4,93.1,132.5,83.1,145.9z"/>
		<path class="st1" d="M108.1,181.7c-5.6,15.3-9,32.1-5.6,48.4c0.5,2.5,1.2,4.9,2,7.3c-13.7-0.3-26.7-11.1-28.3-25
			c-1-8.3,2-16.5,5.4-24c3.4-7.5,7.3-14.9,10.9-22.3c6.2-12.7,14.7-26.8,12.6-41.6c-1.2-8.4-7.8-19.2-17-20.2
			c6.5,0,12.9,1.3,18.8,4.7c7.5,4.3,12.9,12.4,13,21.2c-3.7,0.2-7.5,0.8-11,1.8c-1.4,0.4-2.5,2.8-0.7,3.5
			C127.3,143.6,112.7,168.9,108.1,181.7z"/>
		<path class="st4" d="M369.3,26.5c-11.8-0.3-23.7,4.7-31.8,13.2c-8.2,8.5-12.7,20.5-12.4,32.3c-2-3-3.1-6.6-3-10.1
			c-4,9.4-2.7,20.1-1.2,30.2c-1.6-2.1-3-4.3-4.1-6.6c-0.1,6.4,0.1,12.9,0.6,19.3c3.5-0.6,7.1-1.3,10.6-1.9c0.5-0.1,1.1-0.2,1.5-0.5
			c0.6-0.5,0.7-1.4,0.8-2.2c0.5-3.1,1.8-6,3.7-8.4c0.4-0.4,0.7-0.9,1-1.4c0.3-0.8,0.2-1.8,0.1-2.7c-0.7-5.8-1.2-11.7-1.5-17.6
			c-0.2-3.2-0.3-6.4,0.4-9.5c0.8-3.6,2.5-6.9,4.5-10c6.5-10,15.6-18.2,26.2-23.6"/>
		<path class="st1" d="M211,178.3c-3.5,11.5-5.5,23.8-12.2,33.8c-8.8,13.2-24.9,20.5-40.8,21.3c3.7-1.6,7.4-3.2,11.1-4.9
			c-9-0.7-18.6-1.7-25.4-7.6c-1.8-1.5-3.3-3.4-4.1-5.5c-1.3-3.1-1.1-6.6-0.9-9.9c0.3-5.8,0.6-11.7,0.9-17.5
			c0.5-10.3,1.1-20.7-1.6-30.6c-2.2-8.4-7.1-16.4-14.3-21c7.3,5.4,10.8,16.5,11.6,25c1.4,14.8-3,29.3-2.9,44.1
			c0.1,14.8,6.3,31.3,22.4,34.6c14,2.8,29.3-2.1,39.6-11.8c8.7-8.2,13.5-19.6,15.2-31.2c0.1-2,0.3-4,0.6-6c0.1-0.8,0.1-1.6,0.1-2.5
			c0-0.3,0.4-0.4,0.6-0.3c0,0,0,0,0,0C210.9,184.8,210.9,181.6,211,178.3z"/>
		<path class="st4" d="M211,222.5c-3.3,9.7-12.2,16.4-21.4,21c-7.4,3.7-15.3,6.5-23.6,7.2s-16.8-1-23.7-5.5c0.4,3.6,1.7,7,3.7,9.9
			c-13.9-2-25.4-15.1-25.5-29.2c-1.2,1.9-2.3,3.8-3.5,5.7c-4.1-10.9-5.4-22.8-3.7-34.4c2.3-14.9,9.5-29.1,9.1-44.2
			c-0.2-6.4-2-13.3-7.2-17c4.6,4.4,5.9,11.4,5,17.7c-0.8,6.3-3.5,12.2-6,18c-5.7,13.7-10.2,28.1-10.6,42.9
			c-0.5,14.8,3.4,30.2,13,41.5c3,3.6,6.6,6.7,10.7,8.7c3.9,1.9,8.1,2.7,12.4,3.3c7.6,1.1,15.5,1.7,23.1,0.3
			c9.5-1.6,18.2-6.1,26.1-11.6c4-2.9,7.9-6,11.6-9.3c2.9-2.5,7.9-5.7,9.8-9C212.9,234.4,209.4,227.4,211,222.5z"/>
		<path class="st2" d="M31.2,89.1c9.1-5.1,20.4-6.3,30.1-2.4c9.7,3.9,17.2,13,18.6,23.3c0.8,5.8-0.3,11.7-1.5,17.4
			c2.6-1.9,4.6-4.6,5.6-7.7c1.8,9.4-3.1,18.7-7.9,27c4.3-2.5,8-6.2,10.4-10.5c0.8,2.8,0,5.8-1.5,8.3c-1.4,2.5-3.5,4.6-5.6,6.6
			c-7.6,7.6-15.2,15.2-22.9,22.7c4-12.5,12.3-23.3,15.4-36c1.2-4.7,1.6-9.5,1.6-14.3c0.1-7.4-0.7-15.1-4.7-21.3
			c-5.1-8-14.9-12.2-24.4-12.3c-2.9,0-5.7,0.3-8.5,1.1c-8.3,2.5-11.7,8.6-17.4,14.2C17.9,98.7,26.3,91.9,31.2,89.1z"/>
		<path class="st4" d="M44.4,97.9c3.3,0,6.7,0.1,9.8,1.2c8,3,12.5,11.9,12.6,20.4c0.1,8.5-3.3,16.6-7,24.2
			c-4,8.1-8.5,15.9-13.5,23.5c2.6-2.1,5.2-4.2,7.8-6.3c-4.4,7.7-8.5,15.6-10.8,24.1c-2.3,8.5-2.5,17.8,0.6,26c1.2,3,2.8,5.9,4.5,8.7
			c2.6,4.3,5.3,8.4,8.3,12.5c-5.6,0.5-11.2-1.9-15.2-5.8c-4-3.9-6.6-9.1-8.1-14.5c-3.2-11.6-1.9-24,1.8-35.5
			c3.6-11.4,12.5-22,18.4-32.5c3.3-5.8,5.6-11.7,6.5-18.3c0.9-6.6-3.2-14-8.8-17.5c-2.6-1.6-5.7-2.3-8.8-2.6
			c-3.7-0.4-7.5-0.2-11.1,0.3c-1.8,0.3-13.4,7.5-12.5,4C19.7,105.3,33.7,97.9,44.4,97.9z"/>
		<path class="st4" d="M52.2,26.5c11.8-0.3,23.7,4.7,31.8,13.2c8.2,8.5,12.7,20.5,12.4,32.3c2-3,3.1-6.6,3-10.1
			c4,9.4,2.7,20.1,1.2,30.2c1.6-2.1,3-4.3,4.1-6.6c0.1,6.4-0.1,12.9-0.6,19.3c-3.5-0.6-7.1-1.3-10.6-1.9c-0.5-0.1-1.1-0.2-1.5-0.5
			c-0.6-0.5-0.7-1.4-0.8-2.2c-0.5-3.1-1.8-6-3.7-8.4c-0.4-0.4-0.7-0.9-1-1.4c-0.3-0.8-0.2-1.8-0.1-2.7c0.7-5.8,1.2-11.7,1.5-17.6
			c0.2-3.2,0.3-6.4-0.4-9.5c-0.8-3.6-2.5-6.9-4.5-10c-6.5-10-15.6-18.2-26.2-23.6"/>
		<path class="st4" d="M210.5,222.5c3.3,9.7,12.2,16.4,21.4,21c7.4,3.7,15.3,6.5,23.6,7.2c8.2,0.6,16.8-1,23.7-5.5
			c-0.4,3.6-1.7,7-3.7,9.9c13.9-2,25.4-15.1,25.5-29.2c1.2,1.9,2.3,3.8,3.5,5.7c4.1-10.9,5.4-22.8,3.7-34.4
			c-2.3-14.9-9.5-29.1-9.1-44.2c0.2-6.4,2-13.3,7.2-17c-4.6,4.4-5.9,11.4-5,17.7c0.8,6.3,3.5,12.2,6,18
			c5.7,13.7,10.2,28.1,10.6,42.9c0.5,14.8-3.4,30.2-13,41.5c-3,3.6-6.6,6.7-10.7,8.7c-3.9,1.9-8.1,2.7-12.4,3.3
			c-7.6,1.1-15.5,1.7-23.1,0.3c-9.5-1.6-18.2-6.1-26.1-11.6c-4-2.9-7.9-6-11.6-9.3c-2.9-2.5-7.9-5.7-9.8-9
			C208.7,234.4,212.1,227.4,210.5,222.5z"/>
		<path class="st4" d="M107.3,244.1c-2-0.1-4.2,0.4-5.9,0.7c-7.3,1.3-14.8,0.8-21.9-1.3c-14.6-4.4-26-16-29.5-30.8
			c-3.9-16.4,2.2-30.9,14-42.2c10.2-9.8,22.5-18.3,28.1-31.8c3.3-7.9,2.9-16.6-0.5-24c5.1,7.9,6.6,18.1,3.6,27
			c-2.9,8.7-9.4,15.6-15.6,22.3c-3.3,3.4-6.5,6.9-9.8,10.3c2.6-1.4,5.5-2.3,8.5-2.5c-4.9,5.7-9.8,11.4-13.5,17.9
			c-3.8,6.5-6.3,13.8-6.2,21.3c0.1,3.5,0.9,7.1,3.2,9.6c1.1-2.2,1.9-4.5,2.3-6.9c2.4,9.3,8.3,17.7,16.2,23.2
			c7.8,5.4,17.6,8,27.1,7.1C107.2,244,107.2,244,107.3,244.1z"/>
		<path class="st2" d="M99.4,107.6c9.3,8.7,12.3,22.7,10.5,35.4c-1.8,12.7-7.8,24.3-14,35.5c2.9-2,5.8-4,8.7-6
			c-7.7,12.5-11.1,27.4-9.7,42c0.9-3.1,2-6.1,3.3-9c-0.3,3.1,0.6,6.2,2.5,8.7c0.4,0.6,0.9,1.1,1.2,1.8c0.3,0.8,0.4,1.6,0.5,2.5
			c0.5,6.6,1.8,13.2,3.9,19.5c-4.9-1.3-10.2-1.3-14.9-3.4c-6.3-2.9-10.4-9.2-13.1-15.6c-1.6-3.9-2.8-8.1-2.9-12.3
			c-0.2-8.2,3.5-15.9,7.1-23.4c5.9-12.4,11.5-25,16.6-37.7c2.8-6.8,5.5-14.2,3.8-21.3c-0.5-1.9-1.2-3.8-2.1-5.6
			c-2.5-5.2-6.1-10.5-11.6-12.3c-3.3-1-4.8-4.8-0.2-4.5C92.5,102.2,96.9,105.3,99.4,107.6z"/>
		<path class="st2" d="M286.8,133.7c4.7-0.7,9.4-1.4,14.1-2.2c-0.2-6.3,2.3-12.7,6.6-17.3c0.8-0.8,1.6-1.6,2-2.6
			c0.4-0.8,0.4-1.8,0.4-2.7c0.3-14.5-0.7-29.2,2.2-43.4c2.9-14.2,10.5-28.4,23.5-34.8c5.6-2.8,12-4.1,17.6-6.8
			c-3.5,0.2-7.1,0.7-10.5,1.5C329,29,317.3,38.7,310.3,51c-7,12.2-9.5,26.8-8.5,40.8c-1.6-2.1-2.7-4.6-3.2-7.2
			c-1.5,5,0.4,10.5-0.1,15.7c-0.2,2.2-0.9,4.4-1.5,6.5c-1,3.3-2,6.6-3,9.9C292.3,122.7,290.4,128.7,286.8,133.7z"/>
		<path class="st1" d="M302.4,134c-6-0.4-12,0.6-17.1,4c-7.9,5.3-10.4,15-11,24c-0.6,8.7,0,17.7,1.4,26.3c1.1,7.1,3.8,14.5,2.8,21.8
			c-1.8,13.4-17.1,15-27.3,10c-13.1-6.4-19-20.5-21.9-34c-3.6-16.5-5.2-34-4-50.9c-0.8-0.4-1.5-1.1-2.2-2.1
			c-3.5-4.9-3.1-12.8-1.6-18.3c1.9-6.7,6-11.2,12.1-14.4c0.5-0.2,0.9,0.3,0.5,0.7c-4.8,4.8-7.9,12.3-8.1,19.1c0,1.6,0,8.6,1.9,9.7
			c2.3,1.3,8.6-6.6,9.8-7.8c5.1-5.1,19.3-21.1,26-9c0.3,0.5-0.4,0.9-0.8,0.6c-3.9-3.1-8-1.7-12.1,1.6c4.3,5.6,3.5,15.2-0.7,20.6
			c-4.3,5.6-12.6,5.9-17,1c0.8,10.2,1.6,20.1,5.5,29.9c4.2,10.5,10.4,21.7,18.3,29.8c0.2,0.2-0.1,0.5-0.3,0.3
			c-10.3-8.1-17.8-17-22.5-29.4c-1.2-3-2.2-6.3-3-9.6c0,0.9,0.1,1.9,0.1,2.8c0.3,6.2,0.5,12.4,0.6,18.5c0.7,3.9,1.6,7.7,2.7,11.5
			c2.1,7.7,5.5,15.2,11.3,20.8c5.6,5.3,14.4,9.5,22.2,6.6c9.1-3.3,6.6-14,5.1-21.3c-0.7-3.3-1.2-6.6-1.7-9.8
			c-3.3,0.3-6.8-1.7-9.3-3.7c-4.3-3.4-7.1-7.6-8.2-12.9c0-0.2,0.3-0.4,0.5-0.3c3.1,2.8,5.9,5.9,8.9,8.9c1.6,1.5,3.3,2.9,5.3,3.9
			c0.8,0.4,1.6,0.6,2.3,0.8c-0.4-3.3-0.7-6.6-0.8-9.9c-0.2-5.2-0.2-10.9,0.5-16.3c-2.5,1.8-5.5,3.2-7.3,3.9
			c-5.8,2.3-15,3.1-18.3-3.6c-0.1-0.2,0.1-0.4,0.3-0.4c4.7,0.9,9.3,2.2,14.1,1.1c3.9-0.8,9.4-3.3,12.3-6.8c1.4-5.1,3.7-9.8,7.5-13.6
			c0.7-0.7,1.3-1.3,2-1.8c0-0.4,0.1-0.8,0.4-1.2c3.6-4.6,5.7-10.6,7.9-16c2.7-6.4,3-13.6,1.8-20.4c-2.4-13.3-10.6-25-19.5-34.9
			c-8.4-9.4-18.2-17.5-29-24.1c-10.3-6.3-21.3-10-32.4-14.7c-11.1,4.5-22,8.3-32.3,14.6c-10.5,6.4-20.1,14.3-28.4,23.4
			c-9,9.9-17.4,21.6-19.8,35c-1.3,7.1-0.8,14.5,2.1,21.2c2.2,5.1,4,10.9,7.4,15.3c0.4,0.5,0.5,1,0.5,1.5c1.8,1.4,3.5,3.1,5,5.2
			c2.3,3.2,3.8,6.8,4.9,10.6c3,3.5,8.6,5.9,12.5,6.8c4.7,1.1,9.2-0.2,13.8-1.1c0.2,0,0.4,0.2,0.3,0.4c-3.4,6.2-11.9,6-17.8,4
			c-1.9-0.7-4.9-2-7.5-3.8c1,7.5,0.5,15.4-0.1,22.5c-0.1,1.2-0.2,2.3-0.4,3.5c1.1-0.3,2.1-0.6,3.1-1.1c1.8-0.9,3.3-2.2,4.7-3.6
			c3-2.9,5.8-6.1,8.8-8.9c0.1-0.1,0.5-0.1,0.5,0.2c-1.1,5.2-3.8,9.2-7.9,12.5c-2.4,2-6.3,4.6-9.7,4.2c-0.9,5.5-2.2,11-2.8,16.5
			c-1,9,3.3,15.9,13,15.4c17.7-0.8,25.6-20.3,28.6-35.1c0.3-1.7,0.7-3.3,0.9-5c0-5.7,0.3-11.4,0.5-17.1c0.1-1.4,0.1-2.8,0.2-4.1
			c-1,3.7-2.2,7.3-3.5,10.7c-4.7,11.9-12.2,20.7-22.1,28.5c-0.2,0.2-0.5-0.1-0.3-0.3c8-8.2,14.3-19.3,18.4-29.9
			c3.9-10,4.5-20,5.4-30.4c-4.4,5-12.4,5.7-17.1-0.2c-4.4-5.5-5-15.2-0.6-20.9c-4.1-3.4-8.2-4.9-12.2-1.7c-0.4,0.3-1,0-0.7-0.5
			c6.9-12.1,20.9,3.5,26.2,8.8c1.3,1.3,7.4,9.2,9.9,7.8c2-1.1,1.7-9.2,1.5-10.9c-0.6-6.2-3.6-13.3-8-17.8c-0.4-0.4,0.2-0.9,0.6-0.7
			c6.2,3.2,10.1,7.5,12.1,14.3c1.6,5.4,1.8,13.5-1.8,18.2c-0.7,0.9-1.3,1.5-2,2c1.3,18.5-0.4,38.1-5.2,56
			c-3.5,13.1-11.1,26.4-24.8,30.8c-5.6,1.8-12.5,1.9-17.6-1.6c-4.9-3.4-6.1-9.2-5.7-14.9c0.6-8.3,3.2-16.4,3.9-24.8
			c0.8-8.3,1.1-17-0.6-25.2c-1.6-7.9-5.6-15.2-13.2-18.8c-4.4-2.1-9.1-2.7-13.9-2.4c1.5,0.6,2.8,1.3,4,2.2c0,0,0,0,0,0
			c7.2,4.6,12.1,12.6,14.3,21c2.6,9.9,2.1,20.4,1.6,30.6c-0.3,5.8-0.6,11.7-0.9,17.5c-0.2,3.4-0.3,6.8,0.9,9.9
			c0.9,2.1,2.4,4,4.1,5.5c6.8,5.9,16.4,6.9,25.4,7.6c-3.7,1.6-7.4,3.2-11.1,4.9c15.9-0.8,32-8,40.8-21.3c6.7-10,8.7-22.2,12.2-33.8
			c-0.1,3.3-0.1,6.5,0,9.8c0.2-0.1,0.5,0,0.5,0.3c0,0.8,0.1,1.5,0.1,2.3c0,0.1,0,0.1,0,0.2c0.4,1.9,0.6,3.9,0.6,5.8
			c0.9,6,2.7,12,5.4,17.4c3.3,6.8,8,12.8,14.2,17.4c11.1,8.3,29.2,13,42.1,6.3c14.5-7.4,16.4-25.8,15.2-40.2
			c-1.2-14-4.6-28.2-1.5-42.2C289.3,147,294.2,137.3,302.4,134z M243.6,94.4c3.2-5.3,9.9-6.7,15.7-4.8c6,2,10.2,7.4,12.2,13.3
			c5.5,16.8-5.3,34.6-17.7,44.9c-0.2,0.2-0.5,0-0.4-0.3c5.6-11.1,14.5-21,15.3-34c0.8-12.9-10.7-28.7-24.3-18.5
			C243.9,95.2,243.3,94.9,243.6,94.4z M177.4,94.9c-14.1-10.1-25.4,5.7-24.2,19c0.6,6.7,3.3,12.9,6.7,18.6c3.1,5,6,9.6,8.5,14.9
			c0.1,0.3-0.2,0.5-0.4,0.3c-7.3-5.8-12.7-12.6-16.2-21.5c-2.9-7.3-4-15.7-1.4-23.3c2-6.1,6.7-11.8,13-13.6c5.6-1.6,11.8-0.1,14.8,5
			C178.5,94.9,177.8,95.2,177.4,94.9z"/>
		<path class="st2" d="M390.3,89.1c-9.1-5.1-20.4-6.3-30.1-2.4c-9.7,3.9-17.2,13-18.6,23.3c-0.8,5.8,0.3,11.7,1.5,17.4
			c-2.6-1.9-4.6-4.6-5.6-7.7c-1.8,9.4,3.1,18.7,7.9,27c-4.3-2.5-8-6.2-10.4-10.5c-0.8,2.8,0,5.8,1.5,8.3c1.4,2.5,3.5,4.6,5.6,6.6
			c7.6,7.6,15.2,15.2,22.9,22.7c-4-12.5-12.3-23.3-15.4-36c-1.2-4.7-1.6-9.5-1.6-14.3c-0.1-7.4,0.7-15.1,4.7-21.3
			c5.1-8,14.9-12.2,24.4-12.3c2.9,0,5.7,0.3,8.5,1.1c8.3,2.5,11.7,8.6,17.4,14.2C403.6,98.7,395.2,91.9,390.3,89.1z"/>
		<path class="st2" d="M208.9,24.2c-1.6-0.3-5.4,2.2-6.9,2.9c-2.3,1-4.6,2-6.8,3.1c-4.3,2-8.6,4.1-12.9,6.3
			c-17.3,8.8-34.7,19.8-43.9,36.9c-0.2,0.3-0.3,0.7-0.5,1c-1.4,2-2.6,4.1-3.7,5.8c-2.5,3.9-4.5,8.1-5.8,12.5
			c-4.5,15.5,1.1,32.5,10.7,45.4c2.6,3.5,5.6,6.8,7.6,10.7c0.8,1.5,1.4,3.2,2.4,4.6c3.9,5.9,21.9,8.8,27.1,3.9
			c-2.5,0.1-12.4-0.5-14.2-2.3c4.5,0.2,6.7-4.3,9.6-4.5c-4.5-6.1-9.4-11.4-13.9-20.6c0.3,1.2,0.7,2.3,1.2,3.5
			c-0.7-1.3-1.4-2.5-2.1-3.8c-2.1-4.1-4.1-8.5-3.7-13c0.2-2.2,1-4.5,2.7-6c1.7-1.5,4.4-1.9,6.2-0.6c-3.6,2.5-5.8,6.9-5.7,11.3
			c1-3.4,5.7-5.1,8.7-3.1c-1.6,9.6,2.4,19.9,10,25.8c-0.4,2.5,0.5,4.9-1.2,6.8c3.8-1.5,5.4-3.6,8.6-6.1c-2,21.7-11.1,42.7-25.7,58.9
			c7.8-2.7,15.5-6.1,21.9-11.4s11.3-12.7,12-21c5.8,11.3,7.6,24.6,5,37c2.5-5.9,5.1-11.9,5.7-18.2c0.6-5.7-0.4-11.4-1.1-17.1
			c-1.1-9-1.6-18-1.4-27.1c0.1-2.5,0.2-5.1,0.7-7.5c0,0,0-0.1,0-0.1c1.1,0,2.2,0.3,3.1,0.9c1.9,1.3,2.9,3.9,2.2,6.1
			c2.7-8.4,3-17.5,0.8-26c-1.3-5.2-3.5-10.2-7.3-14c-3.2-3.2-9.3-6.7-14-5.2c0.1,0.1,0.1,0.1,0.2,0.2c-0.5,0-1.1,0-1.6,0
			c4.7,7.1,9.5,14.6,10.1,23.1c0.2,2.3-0.3,5.2-2.4,6.2c-4.3-3.8-6.3-9.5-8.9-14.6c-2.7-5.1-6.9-10.2-12.7-10.6
			c-2.9-0.2-6.8,0.3-7.8-2.5c-0.6-1.7,0.7-3.6,2.2-4.6c2.9-1.9,6.5-1.9,9.9-1.4c3.4,0.6,6.6,1.7,10.1,1.9c-0.9-3.9-4.4-7-8.3-8
			c-3.9-1.1-8.1-0.4-11.9,0.9c-3.6,1.3-7,3.2-9.5,6.1c-1.9,2.2-3.1,5-3.8,7.7c-2.2,7.8-1.1,16.3,1.5,24c2.6,7.7,6.7,14.8,10.8,21.8
			c-8.3-1.6-14.1-8.9-18.1-16.3c-3.3-6-5.8-12.4-7.5-19c-0.4-3.2-0.6-6.4-0.7-9.7c-0.1-4.5,0.1-9.2,1.9-13.3
			c1.8-4.1,5.4-7.7,9.9-8.4c2.6-0.4,5.3,0.2,7.9,0c4-0.3,7.6-2.3,10.5-5c2.9-2.7,5.2-6,7.4-9.3c-2.9,1.6-6.7,2.1-9.4,0.2
			c-2.9-2-3.6-6.3-2.3-9.7c1.3-3.3,4-5.9,6.9-8.1c7.2-5.4,15.6-9.2,24.4-10.9c3.4-0.7,6.9-1,10.2,0c4.4,1.4,5.8,5.4,6.6,9.9
			C210.1,46.8,213.5,25,208.9,24.2z"/>
		<path class="st4" d="M377.2,97.9c-3.3,0-6.7,0.1-9.8,1.2c-8,3-12.5,11.9-12.6,20.4c-0.1,8.5,3.3,16.6,7,24.2
			c4,8.1,8.5,15.9,13.5,23.5c-2.6-2.1-5.2-4.2-7.8-6.3c4.4,7.7,8.5,15.6,10.8,24.1c2.3,8.5,2.5,17.8-0.6,26c-1.2,3-2.8,5.9-4.5,8.7
			c-2.6,4.3-5.3,8.4-8.3,12.5c5.6,0.5,11.2-1.9,15.2-5.8c4-3.9,6.6-9.1,8.1-14.5c3.2-11.6,1.9-24-1.8-35.5s-12.5-22-18.4-32.5
			c-3.3-5.8-5.6-11.7-6.5-18.3c-0.9-6.6,3.2-14,8.8-17.5c2.6-1.6,5.7-2.3,8.8-2.6c3.7-0.4,7.5-0.2,11.1,0.3c1.8,0.3,13.4,7.5,12.5,4
			C401.9,105.3,387.9,97.9,377.2,97.9z"/>
		<path class="st2" d="M134.8,133.7c-4.7-0.7-9.4-1.4-14.1-2.2c0.2-6.3-2.3-12.7-6.6-17.3c-0.8-0.8-1.6-1.6-2-2.6
			c-0.4-0.8-0.4-1.8-0.4-2.7c-0.3-14.5,0.7-29.2-2.2-43.4C106.6,51.4,99,37.2,86,30.8c-5.6-2.8-12-4.1-17.6-6.8
			c3.5,0.2,7.1,0.7,10.5,1.5C92.5,29,104.2,38.7,111.2,51c7,12.2,9.5,26.8,8.5,40.8c1.6-2.1,2.7-4.6,3.2-7.2
			c1.5,5-0.4,10.5,0.1,15.7c0.2,2.2,0.9,4.4,1.5,6.5c1,3.3,2,6.6,3,9.9C129.3,122.7,131.1,128.7,134.8,133.7z"/>
		<path class="st2" d="M209.6,23.2c1.6-0.3,8.4,3.2,9.9,3.9c2.3,1,4.6,2,6.8,3.1c4.3,2,8.6,4.1,12.9,6.3
			c17.3,8.8,34.7,19.8,43.9,36.9c0.2,0.3,0.3,0.7,0.5,1c1.4,2,2.6,4.1,3.7,5.8c2.5,3.9,4.5,8.1,5.8,12.5
			c4.5,15.5-1.1,32.5-10.7,45.4c-2.6,3.5-5.6,6.8-7.6,10.7c-0.8,1.5-1.4,3.2-2.4,4.6c-3.9,5.9-21.9,8.8-27.1,3.9
			c2.5,0.1,12.4-0.5,14.2-2.3c-4.5,0.2-6.7-4.3-9.6-4.5c4.5-6.1,9.4-11.4,13.9-20.6c-0.3,1.2-0.7,2.3-1.2,3.5
			c0.7-1.3,1.4-2.5,2.1-3.8c2.1-4.1,4.1-8.5,3.7-13c-0.2-2.2-1-4.5-2.7-6c-1.7-1.5-4.4-1.9-6.2-0.6c3.6,2.5,5.8,6.9,5.7,11.3
			c-1-3.4-5.7-5.1-8.7-3.1c1.6,9.6-2.4,19.9-10,25.8c0.4,2.5-0.5,4.9,1.2,6.8c-3.8-1.5-5.4-3.6-8.6-6.1c2,21.7,11.1,42.7,25.7,58.9
			c-7.8-2.7-15.5-6.1-21.9-11.4c-6.4-5.3-11.3-12.7-12-21c-5.8,11.3-7.6,24.6-5,37c-2.5-5.9-5.1-11.9-5.7-18.2
			c-0.6-5.7,0.4-11.4,1.1-17.1c1.1-9,1.6-18,1.4-27.1c-0.1-2.5-0.2-5.1-0.7-7.5c0,0,0-0.1,0-0.1c-1.1,0-2.2,0.3-3.1,0.9
			c-1.9,1.3-2.9,3.9-2.2,6.1c-2.7-8.4-3-17.5-0.8-26c1.3-5.2,3.5-10.2,7.3-14c3.2-3.2,9.3-6.7,14-5.2c-0.1,0.1-0.1,0.1-0.2,0.2
			c0.5,0,1.1,0,1.6,0c-4.7,7.1-9.5,14.6-10.1,23.1c-0.2,2.3,0.3,5.2,2.4,6.2c4.3-3.8,6.3-9.5,8.9-14.6c2.7-5.1,6.9-10.2,12.7-10.6
			c2.9-0.2,6.8,0.3,7.8-2.5c0.6-1.7-0.7-3.6-2.2-4.6c-2.9-1.9-6.5-1.9-9.9-1.4c-3.4,0.6-6.6,1.7-10.1,1.9c0.9-3.9,4.4-7,8.3-8
			c3.9-1.1,8.1-0.4,11.9,0.9c3.6,1.3,7,3.2,9.5,6.1c1.9,2.2,3.1,5,3.8,7.7c2.2,7.8,1.1,16.3-1.5,24c-2.6,7.7-6.7,14.8-10.8,21.8
			c8.3-1.6,14.1-8.9,18.1-16.3c3.3-6,5.8-12.4,7.5-19c0.4-3.2,0.6-6.4,0.7-9.7c0.1-4.5-0.1-9.2-1.9-13.3c-1.8-4.1-5.4-7.7-9.9-8.4
			c-2.6-0.4-5.3,0.2-7.9,0c-4-0.3-7.6-2.3-10.5-5c-2.9-2.7-5.2-6-7.4-9.3c2.9,1.6,6.7,2.1,9.4,0.2c2.9-2,3.6-6.3,2.3-9.7
			c-1.3-3.3-4-5.9-6.9-8.1c-7.2-5.4-15.6-9.2-24.4-10.9c-3.4-0.7-6.9-1-10.2,0c-4.4,1.4-6.8,5.4-7.6,9.9
			C210.5,46.8,205,24,209.6,23.2z"/>
		<path d="M177.4,94.9c-14.1-10.1-25.4,5.7-24.2,19c0.6,6.7,3.3,12.9,6.7,18.6c3.1,5,6,9.6,8.5,14.9c0.1,0.3-0.2,0.5-0.4,0.3
			c-7.3-5.8-12.7-12.6-16.2-21.5c-2.9-7.3-4-15.7-1.4-23.3c2-6.1,6.7-11.8,13-13.6c5.6-1.6,11.8-0.1,14.8,5
			C178.5,94.9,177.8,95.2,177.4,94.9z"/>
		<path class="st0" d="M249.3,129.5c-2.3,6.9-10,8.3-13.6,1.6c0,0,0,0-0.1-0.1c4.2-4.1,8.7-9.9,13.2-14.1
			C250.7,120.9,250.7,125.3,249.3,129.5z"/>
		<path d="M253.7,147.7c-0.2,0.2-0.5,0-0.4-0.3c5.6-11.1,14.5-21,15.3-34c0.8-12.9-10.7-28.7-24.3-18.5c-0.4,0.3-1,0-0.7-0.5
			c3.2-5.3,9.9-6.7,15.7-4.8c6,2,10.2,7.4,12.2,13.3C276.9,119.6,266.1,137.4,253.7,147.7z"/>
		<path class="st0" d="M186,131.6c-3.6,6.1-11,4.7-13.4-1.8c-1.6-4.2-1.7-8.8,0.2-12.8C177.3,121.3,181.8,127.5,186,131.6z"/>
		<path class="st5" d="M184.2,136.2c1.2-1.1,2.1-2.5,2.9-3.9c0.2-0.3,0.3-0.6,0.2-1c-0.1-0.3-0.3-0.5-0.5-0.8c-2.7-3-5.4-6-8.1-9.1
			c-1.6-1.7-4-5.8-6.2-6.5c-0.4,2.8,2.3,6.5,3.6,8.8C176.7,124.8,183.5,136.9,184.2,136.2z"/>
		<path class="st5" d="M236.8,136.2c-1.2-1.1-2.1-2.5-2.9-3.9c-0.2-0.3-0.3-0.6-0.2-1c0.1-0.3,0.3-0.5,0.5-0.8c2.7-3,5.4-6,8.1-9.1
			c1.6-1.7,4-5.8,6.2-6.5c0.4,2.8-2.3,6.5-3.6,8.8C244.3,124.8,237.5,136.9,236.8,136.2z"/>
		<path d="M408.8,112.2c-1-9.9-2.8-19.8-10.7-26.5c-7.7-6.6-17-10.6-27.2-10.8c-11.6-0.2-25.9,3.7-34.9,12.2
			c-3-12.8-2.4-26.3,4.6-37.8c6.5-10.6,18-17.8,30.4-18.7c1.7-0.1,3.3-2.2,1.8-3.7c-7.3-7.2-17.2-10.6-27.4-10.4
			c-11.3,0.2-20.9,4.8-29.8,11.4c-9.1,6.8-16.9,15.4-21.4,26c-2.5,5.9-3.8,12.2-4.7,18.5c-0.3,1.9-0.8,4.4-1.1,6.9
			c-2.8-5-6.2-9.6-9.8-14c-8.5-10.4-18.7-19.4-30-26.8c-11-7.2-24-14.1-37.1-16.2c-0.1,0-0.2,0-0.3,0c0,0-0.1,0-0.2,0
			c-0.2,0-0.5,0-0.7,0.1c-12.8,2.1-25.6,8.8-36.3,15.7c-11.3,7.2-21.4,16.1-30,26.4c-3.9,4.7-7.6,9.7-10.6,15c-0.3-2.6-0.7-5-1-7
			c-0.9-6.4-2.2-12.7-4.6-18.7c-4.5-10.9-12.6-19.7-22-26.5C89.1,15.1,65,11.1,49.1,27c-1.4,1.4-0.6,3.4,1.3,3.6
			c12.5,0.9,24,8.2,30.6,18.8c7,11.3,7.8,24.8,4.9,37.5c-9.3-8.8-24.6-12.6-36.5-12c-9.7,0.5-18.9,4.8-26.1,11.3
			C15.6,93.1,14,103,13,112.8c-0.2,1.7,1.9,2.6,3.3,1.8c7-4.6,14.8-8.8,23.4-8.5c8.2,0.3,15.9,5,17.8,13.4
			c3.6,16.2-12.7,30.6-19.2,43.9c-11.1,22.8-16.3,64.9,16.3,72.8c1.1,0.3,2.1-0.3,2.7-1.1c3.1,3.3,6.8,6.1,10.9,8.4
			c6.1,3.4,13,5.4,19.9,6.1c3.6,0.4,7.2,0.3,10.8-0.1c2.6-0.3,8.4-2.5,10.6-0.4c0.3,0.3,0.8,0.5,1.2,0.5c3.7,5.6,8.4,10.4,14.3,13.9
			c12.8,7.8,28.9,8.7,43.1,4.5c16.7-4.9,29.8-16.4,42.8-27.5c10.1,8.6,20.2,17.7,32.3,23.4c14.1,6.7,30.5,8.9,45.4,3.5
			c9.5-3.5,17.2-9.8,22.7-17.9c0.4,0,0.9-0.2,1.2-0.6c1.6-1.6,5.8-0.2,7.7,0.1c3.3,0.6,6.7,0.8,10,0.7c6.1-0.2,12.2-1.5,17.9-3.8
			c6.2-2.5,11.9-6.2,16.5-10.9c0.4,0.8,1.3,1.3,2.6,1c32.2-7.8,27.9-48.9,17.3-71.9c-3.4-7.4-8.1-13.8-12.5-20.6
			c-4.4-6.7-8.5-14.4-7.6-22.7c1-9,8.4-14.4,17.1-14.9c8.9-0.6,17,3.8,24.1,8.5C407,115.7,408.9,113.8,408.8,112.2z M333.8,89.2
			c-2.9,3.3-5,7.3-5.9,11.8c-5.6,0.7-11,2.5-15.7,5.6c0.4-2.7-0.4-5.9-0.5-8.5c-0.3-4.8-0.3-9.7-0.1-14.5c0.4-9.9,2-19.7,6.1-28.8
			c8.4-18.9,26.5-32,47.6-27.7C338.3,33,323.7,63.4,333.8,89.2z M328.1,164c3.8,7.8,7.8,15.5,11.4,23.4c3.5,7.5,6.8,15.7,6.2,24.1
			c-1,14.5-14.3,25.8-28.5,25.9c5.4-15.5,3.9-32.4-0.8-47.9c-2.9-9.6-7.5-18.5-10.6-28c-3-9.3-2.7-21.7,7.7-26
			c1.6-0.7,1.4-3.1-0.2-3.5c-3.6-1-7.5-1.7-11.3-1.8c0-17.1,15.5-24.7,30.5-25.6c-8,1.8-13.9,11.3-15.5,18.7
			C314,137.6,322.1,151.7,328.1,164z M296,102.5c-0.3-4.8-1.5-9.4-3.1-13.9c1.7-4,0.8-9.5,1.3-13.7c0.7-5.8,1.7-11.7,3.7-17.2
			c3.5-9.7,10.1-17.8,18-24.4c7.7-6.4,16.4-11.5,26.5-12.5c6.7-0.7,13.4,0.4,19.2,3.4c-18.1-3-36,9-44.8,24.4
			c-5.1,9-7.8,19-8.8,29.3c-0.6,6-0.7,11.9-0.5,17.9c0.1,3.6-0.6,10.2,1.8,13.2c-6.3,5.4-10.1,12.9-9.7,21.2
			c-3.9,0.1-7.7,0.7-11.3,2.1c1.8-3.5,3-7.3,4.5-11C295.3,115.3,296.4,109,296,102.5z M130.2,98c2.4-13.4,10.9-25.2,19.8-35
			c8.3-9.1,17.9-17,28.4-23.4c10.3-6.3,21.3-10.1,32.3-14.6c11,4.6,22.1,8.4,32.4,14.7c10.8,6.6,20.6,14.7,29,24.1
			c8.9,9.9,17.1,21.6,19.5,34.9c1.2,6.8,0.8,14-1.8,20.4c-2.2,5.4-4.3,11.4-7.9,16c-0.4,0.5-0.5,0.9-0.4,1.2c-0.7,0.6-1.4,1.2-2,1.8
			c-3.8,3.8-6.1,8.5-7.5,13.6c-2.9,3.5-8.5,6-12.3,6.8c-4.8,1-9.4-0.3-14.1-1.1c-0.2,0-0.4,0.2-0.3,0.4c3.2,6.7,12.5,5.9,18.3,3.6
			c1.8-0.7,4.7-2.1,7.3-3.9c-0.8,5.4-0.8,11.1-0.5,16.3c0.2,3.3,0.4,6.7,0.8,9.9c-0.8-0.2-1.6-0.5-2.3-0.8c-2-0.9-3.7-2.4-5.3-3.9
			c-3-2.9-5.8-6-8.9-8.9c-0.2-0.2-0.5,0-0.5,0.3c1,5.3,3.9,9.6,8.2,12.9c2.5,2,6,4,9.3,3.7c0.5,3.3,1,6.6,1.7,9.8
			c1.5,7.3,3.9,18-5.1,21.3c-7.8,2.8-16.6-1.3-22.2-6.6c-5.8-5.6-9.2-13.2-11.3-20.8c-1.1-3.8-1.9-7.6-2.7-11.5
			c0-6.2-0.3-12.3-0.6-18.5c0-0.9-0.1-1.8-0.1-2.8c0.8,3.3,1.9,6.5,3,9.6c4.7,12.4,12.3,21.2,22.5,29.4c0.2,0.2,0.5-0.1,0.3-0.3
			c-7.9-8.2-14.1-19.3-18.3-29.8c-3.9-9.8-4.6-19.7-5.5-29.9c4.4,4.9,12.7,4.6,17-1c4.2-5.4,5-15,0.7-20.6c4.1-3.2,8.2-4.6,12.1-1.6
			c0.4,0.3,1.1-0.1,0.8-0.6c-6.7-12.1-20.9,3.9-26,9c-1.2,1.2-7.5,9.1-9.8,7.8c-1.9-1.1-1.9-8.1-1.9-9.7c0.1-6.7,3.2-14.3,8.1-19.1
			c0.4-0.4-0.1-0.9-0.5-0.7c-6,3.2-10.1,7.7-12.1,14.4c-1.6,5.5-2,13.3,1.6,18.3c0.7,1,1.4,1.7,2.2,2.1c-1.2,16.9,0.4,34.4,4,50.9
			c2.9,13.5,8.8,27.6,21.9,34c10.2,5,25.4,3.4,27.3-10c1-7.3-1.7-14.7-2.8-21.8c-1.4-8.6-2-17.6-1.4-26.3c0.7-9,3.2-18.7,11-24
			c5.1-3.4,11.1-4.4,17.1-4c-8.2,3.2-13,13-14.8,21.2c-3,14,0.4,28.2,1.5,42.2c1.2,14.4-0.7,32.8-15.2,40.2c-13,6.7-31,2-42.1-6.3
			c-11.1-8.3-17.4-21.3-19.5-34.8c-0.1-1.9-0.3-3.9-0.6-5.8c-0.1-0.8-0.1-1.6-0.1-2.4c0-0.3-0.3-0.4-0.5-0.2c-0.2-0.1-0.5,0-0.6,0.3
			c0,0.8-0.1,1.6-0.1,2.5c-0.4,2-0.6,4-0.6,6c-1.8,11.7-6.6,23.1-15.2,31.2c-10.3,9.7-25.6,14.6-39.6,11.8
			c-16.1-3.3-22.3-19.8-22.4-34.6c-0.1-14.8,4.3-29.3,2.9-44.1c-0.9-9.9-5.6-23.4-15.7-27.2c4.8-0.2,9.5,0.4,13.9,2.4
			c7.5,3.6,11.5,10.9,13.2,18.8c1.7,8.2,1.4,16.9,0.6,25.2c-0.8,8.3-3.3,16.5-3.9,24.8c-0.4,5.6,0.8,11.5,5.7,14.9
			c5,3.5,11.9,3.4,17.6,1.6c13.7-4.4,21.3-17.7,24.8-30.8c4.8-17.9,6.5-37.5,5.2-56c0.7-0.5,1.4-1.1,2-2c3.6-4.8,3.4-12.8,1.8-18.2
			c-2-6.8-5.9-11.1-12.1-14.3c-0.4-0.2-1,0.3-0.6,0.7c4.4,4.5,7.5,11.5,8,17.8c0.1,1.7,0.5,9.8-1.5,10.9c-2.5,1.4-8.6-6.5-9.9-7.8
			c-5.3-5.2-19.3-20.9-26.2-8.8c-0.3,0.5,0.3,0.8,0.7,0.5c4-3.3,8.1-1.8,12.2,1.7c-4.4,5.7-3.8,15.4,0.6,20.9
			c4.6,5.8,12.7,5.2,17.1,0.2c-0.8,10.4-1.5,20.4-5.4,30.4c-4.1,10.6-10.4,21.8-18.4,29.9c-0.2,0.2,0.1,0.5,0.3,0.3
			c9.9-7.9,17.4-16.7,22.1-28.5c1.3-3.3,2.5-6.9,3.5-10.7c0,1.4-0.1,2.8-0.2,4.1c-0.2,5.7-0.5,11.4-0.5,17.1c-0.3,1.7-0.6,3.3-0.9,5
			c-3,14.7-10.8,34.2-28.6,35.1c-9.8,0.5-14.1-6.4-13-15.4c0.6-5.6,1.9-11,2.8-16.5c3.4,0.3,7.3-2.2,9.7-4.2
			c4.1-3.4,6.8-7.4,7.9-12.5c0.1-0.3-0.3-0.3-0.5-0.2c-3,2.9-5.8,6.1-8.8,8.9c-1.4,1.4-3,2.6-4.7,3.6c-1,0.5-2.1,0.8-3.1,1.1
			c0.2-1.2,0.3-2.3,0.4-3.5c0.7-7.1,1.1-15,0.1-22.5c2.6,1.8,5.6,3.2,7.5,3.8c5.8,2,14.4,2.3,17.8-4c0.1-0.2,0-0.4-0.3-0.4
			c-4.6,0.9-9.1,2.2-13.8,1.1c-3.8-0.9-9.4-3.3-12.5-6.8c-1-3.8-2.6-7.4-4.9-10.6c-1.5-2-3.1-3.7-5-5.2c0-0.5-0.1-1-0.5-1.5
			c-3.5-4.4-5.3-10.2-7.4-15.3C129.4,112.4,128.9,105.1,130.2,98z M235.7,131.1c4.2-4.1,8.7-9.9,13.2-14.1c1.8,3.9,1.9,8.3,0.5,12.6
			C247.1,136.5,239.3,137.8,235.7,131.1C235.7,131.1,235.7,131.1,235.7,131.1z M108,135.5c19.4,8.1,4.7,33.4,0.1,46.2
			c-5.6,15.3-9,32.1-5.6,48.4c0.5,2.5,1.2,4.9,2,7.3c-13.7-0.3-26.7-11.1-28.3-25c-1-8.3,2-16.5,5.4-24c3.4-7.5,7.3-14.9,10.9-22.3
			c6.2-12.7,14.7-26.8,12.6-41.6c-1.2-8.4-7.8-19.2-17-20.2c6.5,0,12.9,1.3,18.8,4.7c7.5,4.3,12.9,12.4,13,21.2
			c-3.7,0.2-7.5,0.8-11,1.8C107.3,132.4,106.2,134.8,108,135.5z M186,131.6c-3.6,6.1-11,4.7-13.4-1.8c-1.6-4.2-1.7-8.8,0.2-12.8
			C177.3,121.3,181.8,127.5,186,131.6z M79.9,20.9c10.1,1.3,18.7,6.6,26.4,13c7.8,6.6,14.4,14.9,17.8,24.6
			c1.9,5.5,2.9,11.4,3.6,17.1c0.5,3.9-0.4,9.5,1.3,13.3c-1.4,3.7-2.4,7.6-2.9,11.6c-0.8,6.6-0.1,13.3,2.3,19.5
			c1.5,3.9,2.9,8.1,4.9,12c-3.5-1.2-7.2-1.8-11-1.9c0.5-8.5-3.3-16-9.7-21.5c2.2-3.2,1.6-8.5,1.7-12.2c0.2-5.6,0.2-11.2-0.2-16.7
			c-0.8-10.9-3.4-21.7-8.8-31.3c-8.9-15.8-27.3-27.7-45.7-24.1C65.7,21.1,72.8,20,79.9,20.9z M56.6,27.1C77.2,23,94.9,35.7,103.5,54
			c4.3,9.1,6.1,19,6.6,28.9c0.2,4.8,0.2,9.7,0,14.6c-0.1,2.5-1.1,6.1-0.8,8.9c-4.6-3-10-4.7-15.5-5.4c-0.9-4.6-3-8.6-6-12
			C98.1,63.1,83.6,32.8,56.6,27.1z M26.4,89.2c6.8-6.1,15.3-9.9,24.5-10c15.6-0.2,33.8,6.3,39.9,21.6c-3.9-0.3-7.9-0.1-11.7,0.4
			c-1.9,0.2-3.2,2.5-1.3,3.8c14.7,9.6,15.3,27.7,5.3,41c-6.6,8.8-15.7,15.1-23.5,22.8c2.5-4.7,4.8-9.4,7.1-14.1
			c3.2-6.4,6.2-13.1,7.9-20.1c2.8-11.4,2.3-24.5-5.2-34.1c-13-16.6-40-12.2-50.8,4.4C19.7,98.9,21.7,93.4,26.4,89.2z M84.6,104.5
			c-0.1,0-0.2,0.1-0.2,0.2c-0.1-0.1-0.1-0.1-0.2-0.2C84.4,104.5,84.5,104.5,84.6,104.5z M34.9,190.1c1.3-9.5,4.5-18.9,8.9-27.5
			c3.8-7.3,9.1-13.7,13.2-20.8c6.5-11.1,9.4-27.1-2.8-35.6c-10.9-7.6-24.1-4.1-34.9,1.8c6-8,13.1-14.7,23.9-15.7
			c11.6-1.1,22.4,5,27,15.8c10.1,23.3-8.3,46-17.2,66.3c-0.2,0.6-0.1,1,0.2,1.3c-0.5,0.6-1,1.3-1.4,1.9
			c-11.4,16.5-9.6,38.1,1.8,53.3C37.1,225.4,32.7,205.8,34.9,190.1z M101.3,244.8c-7.3,1.3-14.8,0.8-21.9-1.3
			c-14.6-4.4-26-16-29.5-30.8c-3.9-16.4,2.2-30.9,14-42.2c10.2-9.8,22.5-18.3,28.1-31.8c4.8-11.5,1.8-24.6-6.7-33.1
			c7,2.6,12.1,6.4,15,13.6c3.2,7.8,2,16.4-0.7,24.2C94.1,159,85,173.4,78.2,188.6c-5.3,11.9-8,25-0.7,36.7
			c6,9.7,16.8,15.8,28.2,15.6h0.1c0.4,1.1,0.9,2.1,1.5,3.2C105.2,244,103.1,244.5,101.3,244.8z M300.1,256.3
			c-13,11.1-31.7,12.1-47.4,6.7c-15.1-5.2-26.9-16.2-38.9-26.3c-0.3-0.2-0.6-0.4-0.9-0.5c-0.7-1.1-2.5-1.6-3.8-0.4
			c-12,10.3-23.9,21.5-39,26.9c-15.2,5.5-33.3,4.9-46.5-5.1c-12.2-9.2-18.1-24.8-18.5-39.7c-0.5-17.6,6-33.6,12.5-49.6
			c4.2-10.5,6.8-26.1-3.1-33.7c0.3-0.1,0.6-0.1,0.9-0.2c17.4,5.5,18,28.1,16.4,43.2c-1.7,15.2-5.4,31.1,0.3,46
			c5,13,15.4,20.2,29.3,20.7c13.4,0.5,26.9-4.7,36.6-13.9c6.3-6,10.8-13.6,13-21.8c4.9,19,22.8,33.7,43.2,35.5
			c13.6,1.2,26.1-3,33.1-15.2c7.4-13,6-28.2,4.1-42.5c-2.2-16.7-5.7-45.4,15-51.9c0.5,0.1,0.9,0.2,1.4,0.2
			c-8.2,6.5-8.4,19.2-5.2,28.7c2.8,8.3,6.8,16.1,9.5,24.5c2.8,8.6,4.7,17.5,5,26.5C317.2,229.7,312.1,246.1,300.1,256.3z
			 M348.8,241.1c-7.7,3.7-16.7,5.1-25.2,4.1c-2.5-0.3-6.2-1.4-9.3-1.1c0.5-1.1,1-2.1,1.5-3.2c11.4,0.2,22.3-6,28.3-15.7
			c7-11.3,4.9-23.8,0-35.4c-6.7-15.7-16.3-30.3-21.9-46.5c-2.6-7.5-3.9-15.6-1.2-23.2c2.8-7.9,8.3-12.1,16-14.8
			c-7.3,7-11.1,17.4-9.1,27.6c2.7,14.2,14.6,24.1,24.8,33.2c12.1,10.7,21.3,22.9,20.2,39.9C371.9,221.3,362.7,234.5,348.8,241.1z
			 M367.9,106.3c-12.2,8.5-9.7,24.4-3.2,35.7c4.1,7.1,9.3,13.5,13.2,20.8c4.3,8.2,7.3,17.1,8.8,26.3c2.6,16.1-1.4,36.7-18.7,42.1
			c2.6-3.3,4.8-7,6.4-11c4.7-11.8,4.6-25.8-1-37.2c-1.3-2.7-3-5.2-4.8-7.5c0.2-0.4,0.3-0.9,0.1-1.4c-8.7-20.3-26.9-42.4-17.3-65.7
			c4.6-11.3,16.1-17.5,28.2-15.8c10.2,1.4,16.7,7.6,22.5,15.1C391.3,101.9,378.6,98.9,367.9,106.3z M352.5,100.4
			c-7.5,9.5-8.2,22.7-5.4,34.1c1.7,7,4.7,13.6,7.9,20.1c2.1,4.3,4.2,8.7,6.5,13c-5.8-5.6-12.3-10.6-17.8-16.3
			c-6.2-6.4-11.8-14.4-12.1-23.6c-0.3-9.3,4.6-17.9,12.2-23c1.2-0.8,1.8-3.4-0.3-3.6c-4.1-0.5-8.4-0.7-12.6-0.4
			c6-15.5,24.6-22.2,40.5-21.6c9.1,0.4,17.7,4.4,24.3,10.6c4.2,4,6.2,9.1,7.3,14.5C392.2,87.9,365.4,84,352.5,100.4z M337.4,104.6
			c0.1,0,0.2,0,0.4,0c-0.1,0.1-0.2,0.2-0.4,0.3C337.5,104.8,337.5,104.7,337.4,104.6z"/>
		<path class="st2" d="M210.9,188.1C210.9,188.1,210.9,188.1,210.9,188.1c-0.2-0.1-0.6,0-0.6,0.3c0,0.8-0.1,1.6-0.1,2.5
			c-0.4,2-0.6,4-0.6,6c-1.8,11.7-6.6,23.1-15.2,31.2c-10.3,9.7-25.6,14.6-39.6,11.8c-16.1-3.3-22.3-19.8-22.4-34.6
			c-0.1-14.8,4.3-29.3,2.9-44.1c-0.8-8.5-4.3-19.5-11.6-25c7.2,4.6,12.1,12.6,14.3,21c2.6,9.9,2.1,20.4,1.6,30.6
			c-0.3,5.8-0.6,11.7-0.9,17.5c-0.2,3.4-0.3,6.8,0.9,9.9c0.9,2.1,3.7,7.7,5.1,9.5c6.1,7.9,13.8,5.4,24.4,1.6
			c-1.7,4.5-5.4,7.2-9.1,8.9c15.9-0.8,30-10,38.8-23.3c6.7-10,8.7-22.2,12.2-33.8C210.9,181.6,210.9,184.8,210.9,188.1z"/>
		<path class="st4" d="M314.3,244.1c2-0.1,4.2,0.4,5.9,0.7c7.3,1.3,14.8,0.8,21.9-1.3c14.6-4.4,26-16,29.5-30.8
			c3.9-16.4-2.2-30.9-14-42.2c-10.2-9.8-22.5-18.3-28-31.8c-3.3-7.9-2.9-16.6,0.5-24c-5.1,7.9-6.6,18.1-3.6,27
			c2.9,8.7,9.4,15.6,15.6,22.3c3.3,3.4,6.5,6.9,9.8,10.3c-2.6-1.4-5.5-2.3-8.5-2.5c4.9,5.7,9.8,11.4,13.5,17.9
			c3.8,6.5,6.4,13.8,6.2,21.3c-0.1,3.5-0.8,7.1-3.2,9.6c-1.1-2.2-1.9-4.5-2.3-6.9c-2.4,9.3-8.3,17.7-16.1,23.2
			c-7.8,5.4-17.6,8-27.1,7.1C314.4,244,314.3,244,314.3,244.1z"/>
		<path class="st2" d="M210.6,188.1C210.6,188.1,210.6,188.1,210.6,188.1c0.2-0.1,0.6,0,0.6,0.3c0,0.8,0.1,1.6,0.1,2.5
			c0.4,2,0.6,4,0.6,6c1.8,11.7,6.6,23.1,15.2,31.2c10.3,9.7,25.6,14.6,39.6,11.8c16.1-3.3,22.3-19.8,22.4-34.6
			c0.1-14.8-4.3-29.3-2.9-44.1c0.8-8.5,4.3-19.5,11.6-25c-7.2,4.6-12.1,12.6-14.3,21c-2.6,9.9-2.1,20.4-1.6,30.6
			c0.3,5.8,0.6,11.7,0.9,17.5c0.2,3.4,0.3,6.8-0.9,9.9c-0.9,2.1-3.7,7.7-5.1,9.5c-6.1,7.9-13.8,5.4-24.4,1.6c1.7,4.5,5.4,7.2,9,8.9
			c-15.9-0.8-30-10-38.8-23.3c-6.7-10-8.7-22.2-12.2-33.8C210.6,181.6,210.7,184.8,210.6,188.1z"/>
		<path class="st2" d="M180.8,49.8c-3.7,1.5-7.1,3.9-9.2,7.4c-0.8,1.4-1.4,3.1-0.6,4.5c0.7,1.2,2.2,1.8,3.6,1.7
			c1.4-0.1,2.7-0.7,4-1.2c3.2-1.3,6.5-2.2,9.9-2.6c2.3-0.3,4.6-0.4,6.7-1.1c4.3-1.3,9.2-8.7,2.9-10.9
			C193.8,45.9,185,48.2,180.8,49.8z"/>
		<path class="st2" d="M201.3,65.8c-1.2-1-3-1-4.4-0.4c-1.4,0.6-2.6,1.8-3.4,3.1c-0.3,0.4-0.5,0.9-0.5,1.3c0,0.8,0.5,1.5,1.1,2.1
			c0.6,0.7,1.3,1.4,2.2,1.7c2,0.6,3.9-1,5.3-2.6c0.6-0.7,1.3-1.4,1.5-2.3c0.2-0.9-0.2-2-1.1-2.2c-0.3-0.1-0.6,0-0.8-0.2
			c-0.2-0.1-0.4-0.5-0.2-0.7"/>
		<path class="st2" d="M192.9,90.4c-2.7,1.1-5.8-0.6-8-2.5c-2.3-1.9-4.6-4.1-7.5-4.4c-1.4-0.1-3.3,0-3.8-1.4
			c-0.3-0.8,0.2-1.7,0.7-2.4c1.8-2.7,3.9-5.3,6.2-7.6c0.7-0.8,1.6-1.6,2.7-1.7c1.1-0.1,2.1,0.4,2.9,1.2c0.7,0.8,1.1,1.8,1.6,2.8
			l0-0.2c0.1,0.2,0.1,0.5,0.3,0.7c0.4,0.6,1.1,1,1.7,1.3c2.6,1.5,5.2,3.6,6.2,6.4C196.8,85.5,195.8,89.3,192.9,90.4z"/>
		<path class="st2" d="M240.4,49.8c3.7,1.5,7.1,3.9,9.2,7.4c0.8,1.4,1.4,3.1,0.6,4.5c-0.7,1.2-2.2,1.8-3.6,1.7
			c-1.4-0.1-2.7-0.7-4-1.2c-3.2-1.3-6.5-2.2-9.9-2.6c-2.3-0.3-4.6-0.4-6.7-1.1c-4.3-1.3-9.2-8.7-2.9-10.9
			C227.4,45.9,236.2,48.2,240.4,49.8z"/>
		<path class="st2" d="M219.9,65.8c1.2-1,3-1,4.4-0.4c1.4,0.6,2.6,1.8,3.4,3.1c0.3,0.4,0.5,0.9,0.5,1.3c0,0.8-0.5,1.5-1.1,2.1
			c-0.6,0.7-1.3,1.4-2.2,1.7c-2,0.6-3.9-1-5.3-2.6c-0.6-0.7-1.3-1.4-1.5-2.3c-0.2-0.9,0.2-2,1.1-2.2c0.3-0.1,0.6,0,0.8-0.2
			c0.2-0.1,0.4-0.5,0.2-0.7"/>
		<path class="st2" d="M228.3,90.4c2.7,1.1,5.8-0.6,8-2.5c2.3-1.9,4.6-4.1,7.5-4.4c1.4-0.1,3.3,0,3.8-1.4c0.3-0.8-0.2-1.7-0.7-2.4
			c-1.8-2.7-3.9-5.3-6.2-7.6c-0.8-0.8-1.6-1.6-2.7-1.7c-1.1-0.1-2.1,0.4-2.9,1.2c-0.7,0.8-1.1,1.8-1.6,2.8l0-0.2
			c-0.1,0.2-0.1,0.5-0.3,0.7c-0.4,0.6-1.1,1-1.7,1.3c-2.6,1.5-5.2,3.6-6.2,6.4C224.4,85.5,225.5,89.3,228.3,90.4z"/>
	</g>
</g>
</svg>
