<?xml version="1.0" encoding="utf-8"?>
<!-- Generator: Adobe Illustrator 27.0.0, SVG Export Plug-In . SVG Version: 6.00 Build 0)  -->
<svg version="1.1" id="Layer_1" xmlns="http://www.w3.org/2000/svg" xmlns:xlink="http://www.w3.org/1999/xlink" x="0px" y="0px"
	 viewBox="0 0 389 410" style="enable-background:new 0 0 389 410;" xml:space="preserve">
<style type="text/css">
	.st0{fill:#FFFFFF;}
	.st1{fill:#990008;}
	.st2{fill:#F20001;}
	.st3{fill:#3A231B;}
	.st4{fill:#FF739E;}
	.st5{fill:none;}
	.st6{fill:#FFC94E;}
	.st7{opacity:0.6;fill:#FFFFFF;}
	.st8{opacity:0.3;fill:#F20001;}
	.st9{fill:#4D2B99;}
	.st10{fill:#EB483E;}
	.st11{fill:#F8B230;}
	.st12{fill:#599ED8;}
	.st13{fill:#7747C9;}
	.st14{fill:#F893F7;}
	.st15{opacity:0.3;fill:#FFFFFF;}
	.st16{opacity:0.3;fill:#7747C9;}
</style>
<g>
	<g>
		<path class="st0" d="M354.5,233.9c-0.2-3.2-1.8-6.1-4.3-8.1c-1-0.8-9.8-7.6-23.5-12.4c3.9-2.2,6.3-6.5,5.8-11.2l-0.6-5.9
			c1.7,0.4,3.8,0.9,6.3,1.6c3.5,1.1,7.1,2.4,10.8,4.1c0.4,0.2,0.8,0.3,1.3,0.5c5.3,1.6,11.1-0.8,13.6-5.8l7.3-14.6
			c1.4-2.9,1.6-6.2,0.5-9.1c-1.1-3-3.4-5.4-6.4-6.6c-0.3-0.1-1.6-0.7-3.9-1.3c-6.7-2.1-20.1-5-35.3-2c-1.2,0.2-2.3,0.7-3.4,1.3
			c-0.2-1.7-0.8-3.4-1.8-4.9c-1.5-2.2-3.7-3.8-6.2-4.6c-0.5-0.2-1-0.3-1.5-0.4c-1.2-0.2-11.6-1.7-22.6,3.1l-3.5-4.4
			c3.2,0.7,6.6,0.1,9.3-1.9c0.1-0.1,9.3-6.3,28.5-10.7c6-1.4,9.8-7.2,8.8-13.2l-3.5-19.8c-0.6-3.1-2.4-5.9-5.1-7.6
			c-0.9-0.6-1.9-1-2.9-1.3c-2-0.6-4.1-0.7-6.2-0.2c-0.6,0.1-8.7,2.2-18.8,7.9c0.1-5.9,1.1-17.5,5.9-33.6c1.7-5.9-1.4-12.1-7.2-14.1
			l-23.4-8.2c-0.1,0-0.3-0.1-0.4-0.1c-2.9-0.9-6-0.6-8.7,0.8c-2.6,1.4-4.6,3.7-5.5,6.5c-1.5-2.3-3.7-4.1-6.3-4.9
			c-1.3-0.4-2.7-0.6-4.1-0.5l-5.9,0.4c1-3.9,2.9-9.6,6.5-16.8c2.7-5.5,0.7-12.1-4.7-15.1l-14.2-7.9c-0.7-0.4-1.4-0.7-2.2-0.9
			c-2.2-0.7-4.6-0.7-6.9,0c-3,1-5.5,3.2-6.9,6.1c-0.3,0.7-8.3,18.1-5.2,38.9c0.2,1.2,0.6,2.4,1.1,3.4c-1.7,0.1-3.5,0.7-5,1.6
			c-2.2,1.3-3.8,3.3-4.7,5.6c0-0.1,0-0.1-0.1-0.2c0,0-1.5-3.4-2.2-9.5c-0.5-4.7-3.8-8.4-8-9.7c-1.3-0.4-2.7-0.6-4.1-0.5l-8.3,0.5
			c-3.2,0.2-6.1,1.7-8.2,4.2c-2,2.5-2.9,5.6-2.5,8.8c0.1,0.7,0.7,4.6,2.7,9.6l-4.5,0.3c-3.2,0.2-6.1,1.7-8.2,4.2
			c-2,2.5-2.9,5.6-2.5,8.8c0.2,1.4,1.8,12.3,9.4,22.9c-2,0.5-3.9,1.5-5.5,3.1l-8.2,8.2c-1.4,1.4-2.3,3.1-2.9,4.9
			c-0.4-0.2-0.8-0.3-1.2-0.5c0,0-8-2.6-8-2.6c-3-0.9-6.2-0.6-9,0.9c-2.8,1.6-4.8,4.2-5.6,7.3c-0.2,0.7-1,4.5-0.9,9.9
			c-2.4-0.8-4.4-1.4-4.4-1.4c-3-0.9-6.2-0.6-9,0.9c-2.8,1.6-4.8,4.2-5.6,7.3c-0.3,1.3-2.8,12.1,0.4,24.8c-2-0.3-4.2,0-6.2,0.9
			l-10.6,4.7c-2.9,1.3-5.2,3.7-6.2,6.7c-1,3-0.8,6.3,0.7,9.1c0.7,1.4,7.5,13.5,21.3,21c0.7,0.4,1.4,0.6,2.1,0.9
			c3.6,1.1,7.5,0.4,10.5-2l5.6-4.4c0.6-0.5,1.2-1.1,1.8-1.7c3.2,4.4,5,7.9,6,9.9c-1.6,0.5-3,1.2-4,2c-0.6,0.4-1.2,0.9-1.7,1.4
			l-37.7,38.9l-21.9,22.6l-42.6,44c-0.9,0.9-1.6,1.9-2.1,2.9c-2.1,4.1-1.7,8.3-0.6,11.7c-0.2,0.8-0.2,1.6-0.2,2.4
			c0.1,3,1.3,5.9,3.5,8.1l8.5,8.2c0.4,0.4,0.8,0.7,1.2,1c3.4,4,7.4,8.2,11.5,12.4c0.8,0.8,1.6,1.6,2.4,2.3c0.6,0.6,1.3,1.2,1.9,1.8
			c6.4,6.1,22.5,20.6,33.1,23.8c5.5,1.7,9.5,0.4,11.8-0.9c1.1-0.6,2-1.3,2.9-2.2l4.2-4.4l97.9-101.2c0.1-0.1,0.2-0.2,0.3-0.3
			c2.5-2.7,3.6-5.9,3.3-9.7c0.2-0.2,0.4-0.3,0.6-0.5l5.9,58.6c0.1,1.2,0.4,2.4,0.9,3.5c1.5,3.6,4.3,6.3,8.5,8
			c1.4,1.8,3.4,3.1,5.6,3.8c1.4,0.4,3,0.6,4.5,0.4l11.7-1.2c0.5-0.1,1.1-0.1,1.6-0.3l0.7,0c2.5,0,5.2-0.1,8-0.3
			c3.8-0.2,7.6-0.5,11.6-0.9c1.1-0.1,2.2-0.2,3.3-0.4l0.5-0.1c1-0.1,2.1-0.3,3.1-0.4l0.5-0.1c1.1-0.1,2.1-0.3,3.2-0.4
			c1.1-0.2,2.1-0.3,3.1-0.5l0.3,0c1-0.2,2-0.3,3.1-0.5l0.2,0c1-0.2,1.9-0.4,2.9-0.5c0,0,0.1,0,0.1,0c1.9-0.4,3.8-0.8,5.7-1.2l0.1,0
			c0.9-0.2,1.7-0.4,2.6-0.7c0,0,0.1,0,0.1,0c1.7-0.4,3.2-0.9,4.5-1.3c0,0,0.4-0.1,0.4-0.1c0.7-0.2,1.4-0.5,2.1-0.7
			c0,0,0.2-0.1,0.2-0.1c0.7-0.3,1.3-0.5,1.8-0.7c0.1,0,0.2-0.1,0.3-0.1c0.6-0.3,1.1-0.5,1.6-0.8c0.2-0.1,0.3-0.2,0.4-0.2
			c0.6-0.3,1.2-0.6,1.7-0.9c0.2-0.1,0.3-0.2,0.5-0.3c0.5-0.4,1-0.7,1.4-1c0.2-0.1,0.3-0.3,0.5-0.4c0.2-0.2,0.4-0.4,0.6-0.6
			c0.2-0.2,0.5-0.4,0.7-0.7c0.2-0.3,0.5-0.5,0.7-0.8c0.3-0.4,0.6-0.8,0.9-1.2c0.2-0.3,0.4-0.7,0.6-1c0,0,0-0.1,0.1-0.1
			c0.3-0.6,0.5-1.2,0.8-1.8c0,0,0,0,0,0c0.1-0.4,0.3-0.8,0.3-1.2c0-0.1,0-0.2,0.1-0.2c0.3-1.3,0.4-2.7,0.2-3.9l-8.4-83.2
			c4.5,2.2,12.1,6.5,21.4,14.3c1.2,1,2.6,1.7,4,2.2c4.1,1.3,8.7,0.2,11.8-3.2l13.7-14.8C353.6,240.2,354.7,237.1,354.5,233.9z"/>
		<path class="st1" d="M283,182.3c0.4,3.8-17.1,8.7-39.1,10.9c-22,2.2-40.1,0.9-40.5-2.9c-0.4-3.8,17.1-8.7,39.1-10.9
			C264.5,177.2,282.7,178.5,283,182.3z"/>
		<path class="st2" d="M286,211.2l3,29.8c-24.7-6.4-45.4-23.7-56.1-46.9c3.5-0.2,7.3-0.5,11.1-0.8c6.5-0.7,12.6-1.5,18-2.6
			C267.9,199.6,276.2,206.7,286,211.2z"/>
		<path class="st2" d="M214.7,301.7c24,16,52.1,26.1,82.1,28.5c-4,3.4-19.4,7.2-38.1,9.1c-22,2.2-40.1,0.9-40.5-2.9L214.7,301.7z"/>
		<path class="st2" d="M291.8,269.7l3.1,30.5c-32.4-3.5-61.9-18-84.4-40l-6.4-63.6C217.9,235,251.7,263,291.8,269.7z"/>
		<path class="st3" d="M223.3,195.7c-10.4,0-20.9-1.1-21.4-5.3c-0.8-8.3,38.8-12.4,40.4-12.5c1.7-0.2,41.3-4.1,42.1,4.2l0,0
			c0.8,8.3-38.7,12.4-40.4,12.5C243.3,194.8,233.3,195.7,223.3,195.7z M205,190.2c1.3,1.9,15.1,3.9,38.8,1.5
			c23.7-2.4,36.8-7.2,37.7-9.2c-1.3-1.9-15.1-3.9-38.8-1.5C219,183.3,205.9,188.1,205,190.2z M281.6,182.5L281.6,182.5L281.6,182.5z
			"/>
		<g>
			<path class="st4" d="M222,192.7l-12.9,8c0,0-5.5-14.8-25-35.2l17.1-18C201.3,147.6,217.9,165.9,222,192.7z"/>
			<path class="st3" d="M209.1,202.3c-0.2,0-0.3,0-0.5-0.1c-0.4-0.1-0.8-0.5-0.9-0.9c-0.1-0.1-5.7-14.8-24.6-34.7
				c-0.6-0.6-0.6-1.5,0-2.1l17.1-18c0.3-0.3,0.7-0.5,1.1-0.5c0.4,0,0.8,0.2,1.1,0.5c0.7,0.8,17,19,21.1,45.9
				c0.1,0.6-0.2,1.2-0.7,1.5l-12.9,8C209.7,202.2,209.4,202.3,209.1,202.3z M186.2,165.6c15.2,16.2,21.6,28.6,23.6,33l10.5-6.6
				c-3.6-21.7-15.5-37.7-19.1-42.1L186.2,165.6z"/>
		</g>
		<path class="st5" d="M261.9,190.6c-5.4,1-11.5,1.9-18,2.6c-3.8,0.4-7.6,0.7-11.1,0.8c10.7,23.2,31.4,40.5,56.1,46.9l-3-29.8
			C276.2,206.7,267.9,199.6,261.9,190.6z"/>
		<path class="st5" d="M261.9,190.6c-5.4,1-11.5,1.9-18,2.6c-3.8,0.4-7.6,0.7-11.1,0.8c10.7,23.2,31.4,40.5,56.1,46.9l-3-29.8
			C276.2,206.7,267.9,199.6,261.9,190.6z"/>
		<path class="st5" d="M204.1,196.6l6.4,63.6c22.5,22,52,36.5,84.4,40l-3.1-30.5C251.7,263,217.9,235,204.1,196.6z M261.9,190.6
			c-5.4,1-11.5,1.9-18,2.6c-3.8,0.4-7.6,0.7-11.1,0.8c10.7,23.2,31.4,40.5,56.1,46.9l-3-29.8C276.2,206.7,267.9,199.6,261.9,190.6z"
			/>
		<path class="st6" d="M283,182.3l2.9,28.9c-9.7-4.5-18.1-11.6-24-20.5C274.7,188.2,283.3,185,283,182.3z"/>
		<path class="st5" d="M204.1,196.6l6.4,63.6c22.5,22,52,36.5,84.4,40l-3.1-30.5C251.7,263,217.9,235,204.1,196.6z M261.9,190.6
			c-5.4,1-11.5,1.9-18,2.6c-3.8,0.4-7.6,0.7-11.1,0.8c10.7,23.2,31.4,40.5,56.1,46.9l-3-29.8C276.2,206.7,267.9,199.6,261.9,190.6z"
			/>
		<path class="st6" d="M294.9,300.2l2.8,28.3c0.1,0.6-0.3,1.2-1,1.8c-30-2.4-58.1-12.5-82.1-28.5l-4.2-41.6
			C233,282.2,262.5,296.7,294.9,300.2z"/>
		<path class="st6" d="M288.9,241l2.9,28.8c-40.1-6.7-73.9-34.8-87.7-73.1l-0.6-6.3c0.3,3.1,12.7,4.6,29.4,3.7
			C243.5,217.3,264.3,234.5,288.9,241z"/>
		
			<rect x="217.7" y="193.2" transform="matrix(0.995 -0.1002 0.1002 0.995 -25.6736 23.744)" class="st7" width="11.8" height="148.5"/>
		<path class="st3" d="M238.6,341.9c-3,0-5.8-0.1-8.3-0.3c-11.8-0.8-13.4-3.3-13.5-5L202,190.5c0,0,0,0,0,0l0,0
			c-0.1-0.8,0.5-1.6,1.3-1.6c0.8-0.1,1.6,0.5,1.6,1.3c1,1.8,14.8,4,38.8,1.5c24-2.4,37.2-7.3,37.8-9.3c-0.1-0.8,0.5-1.5,1.3-1.6
			c0.8-0.1,1.6,0.6,1.6,1.4l14.7,146.2c0.2,1.8-0.9,4.5-12.3,7.6c-7.5,2.1-17.5,3.8-28.2,4.9C251.6,341.6,244.7,341.9,238.6,341.9z
			 M205.3,193.7l14.4,142.6c1,1.8,14.8,3.9,38.8,1.5c24-2.4,37.2-7.3,37.8-9.3L281.9,186c-8.8,5.7-36.4,8.6-37.8,8.7
			C242.7,194.8,215,197.5,205.3,193.7z"/>
		<path class="st8" d="M283,182.3l14.7,146.2c0.4,3.8-17.1,8.7-39.1,10.9c-22,2.2-40.1,0.9-40.5-2.9l-1.3-12.8
			c0.4,3.7,17,5,37.1,2.9l0.6-0.1c19.8-2,34.1-20.5,32-41.3l-9.9-98.5C280.8,185.3,283.2,183.7,283,182.3z"/>
		<g>
			<path class="st9" d="M188.4,281.5c-2.7,2.7-17.7-7.5-33.6-22.8c-15.9-15.4-26.6-30-23.9-32.8c2.6-2.7,17.7,7.5,33.5,22.8
				C180.3,264.1,191,278.7,188.4,281.5z"/>
			<path class="st3" d="M187.2,283.4c-8.8,0-32.3-22.6-33.4-23.6c-7.7-7.5-14.5-15-19.1-21.3c-7-9.5-6.1-12.3-4.9-13.6
				c1.2-1.3,4-2.2,13.7,4.4c6.4,4.4,14.2,10.9,21.9,18.4c1.2,1.2,29.8,28.9,24,34.9l0,0C188.9,283.1,188.1,283.4,187.2,283.4z
				 M188.4,281.5L188.4,281.5L188.4,281.5z M132,226.9c-0.6,2.2,6.7,14,23.9,30.6c17.2,16.6,29.2,23.5,31.4,22.8
				c0.6-2.2-6.7-14-23.9-30.6C146.3,233.2,134.2,226.3,132,226.9z"/>
		</g>
		<g>
			<path class="st10" d="M257.9,147.6l8.2,1.6c0,0,0-8.7,6-23.1l-12.4-5.9C259.7,120.3,254.7,133,257.9,147.6z"/>
			<path class="st3" d="M266.1,150.8c-0.1,0-0.2,0-0.3,0l-8.2-1.6c-0.6-0.1-1-0.6-1.2-1.2c-3.2-14.9,1.7-27.7,2-28.2
				c0.2-0.4,0.5-0.7,0.8-0.8c0.4-0.2,0.8-0.1,1.2,0l12.4,5.9c0.7,0.3,1,1.2,0.7,1.9c-5.8,13.8-5.9,22.4-5.9,22.5
				c0,0.4-0.2,0.9-0.5,1.2C266.8,150.7,266.4,150.8,266.1,150.8z M259.1,146.4l5.6,1.1c0.3-3.2,1.4-10.4,5.5-20.5l-9.6-4.6
				C259.5,126,257.1,135.6,259.1,146.4z"/>
		</g>
		<g>
			<path class="st10" d="M284.8,130.7l5.1,11.2c0,0,10.4-7.5,32.7-12.6l-3.5-19.8C319.1,109.5,299.6,114.4,284.8,130.7z"/>
			<path class="st3" d="M289.9,143.4c-0.1,0-0.3,0-0.4,0c-0.4-0.1-0.8-0.4-1-0.8l-5.1-11.2c-0.2-0.5-0.1-1.2,0.3-1.6
				c14.9-16.4,34.2-21.4,35-21.6c0.4-0.1,0.8,0,1.2,0.2c0.3,0.2,0.6,0.6,0.7,1l3.5,19.8c0.1,0.8-0.4,1.5-1.1,1.7
				c-21.7,4.9-32,12.2-32.1,12.3C290.5,143.3,290.2,143.4,289.9,143.4z M286.6,131l4,8.7c3.6-2.2,13.4-7.5,30.3-11.5l-3-16.8
				C313.1,112.9,298.4,118.4,286.6,131z"/>
		</g>
		<g>
			<path class="st4" d="M219.6,55l9.6,2.5c0,0,0.6-10.4,8.8-26.9l-14.2-7.9C223.8,22.6,216.9,37.3,219.6,55z"/>
			<path class="st3" d="M229.2,59c-0.1,0-0.3,0-0.4,0l-9.6-2.5c-0.6-0.2-1-0.6-1.1-1.2c-2.7-17.9,4.1-32.6,4.4-33.2
				c0.2-0.4,0.5-0.7,0.9-0.8c0.4-0.1,0.8-0.1,1.2,0.1l14.2,7.9c0.7,0.4,1,1.3,0.6,2c-8,16.1-8.7,26.3-8.7,26.4
				c0,0.4-0.3,0.9-0.6,1.1C229.9,58.9,229.6,59,229.2,59z M220.9,53.8l7,1.8c0.5-3.6,2.3-12.2,8.1-24.4l-11.5-6.4
				C223,28.8,219.2,40.4,220.9,53.8z"/>
		</g>
		<g>
			<path class="st11" d="M244.3,123l-7.1,4.5c0,0-3.1-8.2-13.9-19.4l9.4-10C232.7,98.1,242,108.2,244.3,123z"/>
			<path class="st3" d="M237.2,128.9c-0.2,0-0.3,0-0.5-0.1c-0.4-0.1-0.8-0.5-0.9-0.9c0-0.1-3.2-8.1-13.6-18.9
				c-0.6-0.6-0.6-1.5,0-2.1l9.4-10c0.3-0.3,0.7-0.5,1.1-0.5c0,0,0,0,0,0c0.4,0,0.8,0.2,1.1,0.5c0.4,0.4,9.6,10.6,12,25.6
				c0.1,0.6-0.2,1.2-0.7,1.5l-7.1,4.5C237.8,128.9,237.5,128.9,237.2,128.9z M225.4,108.1c7.5,8,11.1,14.3,12.5,17.2l4.8-3
				c-1.9-10.8-7.6-18.9-10-21.9L225.4,108.1z"/>
		</g>
		<g>
			<path class="st4" d="M271.1,110.8l15.1,1.3c0,0-1.8-15.7,6.2-42.7L269,61.2C269,61.2,262.5,85,271.1,110.8z"/>
			<path class="st3" d="M286.2,113.6c0,0-0.1,0-0.1,0l-15.1-1.3c-0.6-0.1-1.1-0.5-1.3-1c-8.6-25.8-2.4-49.5-2.1-50.5
				c0.1-0.4,0.4-0.7,0.8-0.9c0.4-0.2,0.8-0.2,1.2-0.1l23.4,8.2c0.8,0.3,1.2,1.1,0.9,1.8c-7.9,26.4-6.2,41.9-6.2,42.1
				c0.1,0.4-0.1,0.9-0.4,1.2C287,113.4,286.6,113.6,286.2,113.6z M272.2,109.3l12.4,1.1c-0.2-4.8-0.2-18.8,6-40.1l-20.5-7.2
				C268.9,68.7,265.5,88.4,272.2,109.3z"/>
		</g>
		<g>
			<path class="st10" d="M218.8,127.6l-5.5,6.4c0,0-5.4-6.9-19-14.4l6-12.3C200.4,107.2,212.2,114.1,218.8,127.6z"/>
			<path class="st3" d="M213.4,135.5C213.4,135.5,213.4,135.5,213.4,135.5c-0.5,0-0.9-0.2-1.2-0.6c-0.1-0.1-5.4-6.8-18.5-14
				c-0.7-0.4-1-1.3-0.6-2l6-12.3c0.2-0.4,0.5-0.7,0.9-0.8c0.4-0.1,0.8-0.1,1.2,0.1c0.5,0.3,12.3,7.3,19,21c0.3,0.5,0.2,1.2-0.2,1.6
				l-5.5,6.4C214.2,135.3,213.8,135.5,213.4,135.5z M196.4,118.9c9.5,5.4,14.8,10.4,17,12.7l3.7-4.3c-5-9.7-12.9-15.8-16-17.9
				L196.4,118.9z"/>
		</g>
		<g>
			<path class="st4" d="M241.7,171.1l4.8,1.7c0,0,0.8-5.2,5.7-13.2l-6.8-4.7C245.4,155,241.2,162.1,241.7,171.1z"/>
			<path class="st3" d="M246.5,174.4c-0.2,0-0.3,0-0.5-0.1l-4.8-1.7c-0.6-0.2-0.9-0.7-1-1.3c-0.5-9.4,3.7-16.7,3.9-17
				c0.2-0.4,0.6-0.6,1-0.7c0.4-0.1,0.8,0,1.2,0.2l6.8,4.7c0.7,0.5,0.8,1.3,0.4,2c-4.7,7.6-5.5,12.6-5.5,12.6
				c-0.1,0.4-0.3,0.8-0.7,1.1C247,174.3,246.7,174.4,246.5,174.4z M243.2,170.1l2.2,0.8c0.6-2.1,1.9-5.9,4.8-10.8l-4.2-2.9
				C244.9,159.5,243.1,164.4,243.2,170.1z"/>
		</g>
		<g>
			<path class="st11" d="M263.6,179.4l6.2,4.7c0,0,3.5-7.3,14.2-16.7l-7.9-9.9C276.2,157.4,266.9,166,263.6,179.4z"/>
			<path class="st3" d="M269.8,185.6c-0.3,0-0.6-0.1-0.9-0.3l-6.2-4.7c-0.5-0.4-0.7-1-0.6-1.6c3.3-13.7,12.6-22.4,13-22.7
				c0.3-0.3,0.7-0.4,1.1-0.4c0.4,0,0.8,0.2,1.1,0.6l7.9,9.9c0.5,0.6,0.4,1.5-0.2,2.1c-10.4,9.1-13.8,16.2-13.9,16.3
				c-0.2,0.4-0.6,0.7-1,0.8C270,185.6,269.9,185.6,269.8,185.6z M265.3,178.8l4,3c1.5-2.6,5.3-8,12.7-14.7l-5.9-7.4
				C273.6,162.3,267.9,169.3,265.3,178.8z"/>
		</g>
		<g>
			<path class="st12" d="M172.6,152.3l2.8,4.2c0,0-4.9,2-11.5,8.6l-6.1-5.5C157.7,159.7,163.7,153.9,172.6,152.3z"/>
			<path class="st3" d="M163.9,166.7c-0.4,0-0.7-0.1-1-0.4l-6.1-5.5c-0.3-0.3-0.5-0.7-0.5-1.1c0-0.4,0.2-0.8,0.5-1.1
				c0.3-0.2,6.4-6.1,15.6-7.7c0.6-0.1,1.2,0.1,1.5,0.6l2.8,4.2c0.2,0.4,0.3,0.8,0.2,1.3c-0.1,0.4-0.5,0.8-0.9,0.9c0,0-4.7,2-11,8.3
				C164.7,166.5,164.3,166.7,163.9,166.7z M160,159.7l3.8,3.4c4.1-4,7.5-6.1,9.3-7.2l-1.3-2C166.3,155.2,162,158.1,160,159.7z"/>
		</g>
		<g>
			<path class="st12" d="M212,88l5.1,0.1c0,0-0.9-5.2,1.2-14.3l-8-2.3C210.3,71.5,208.6,79.6,212,88z"/>
			<path class="st3" d="M217,89.6C217,89.6,217,89.6,217,89.6l-5.1-0.1c-0.6,0-1.1-0.4-1.4-0.9c-3.5-8.7-1.8-17-1.7-17.3
				c0.1-0.4,0.3-0.8,0.7-1c0.4-0.2,0.8-0.3,1.2-0.2l8,2.3c0.8,0.2,1.2,1,1,1.8c-2,8.7-1.2,13.7-1.2,13.7c0.1,0.4-0.1,0.9-0.3,1.2
				C217.9,89.4,217.4,89.6,217,89.6z M213,86.5l2.4,0.1c-0.1-2.1-0.1-6.2,1.1-11.7l-4.9-1.4C211.3,76,211.1,81.1,213,86.5z"/>
		</g>
		<g>
			<path class="st12" d="M227.5,160.6l-5-0.6c0,0,1.6-5,0.8-14.4l8.2-1.1C231.5,144.6,232.1,152.8,227.5,160.6z"/>
			<path class="st3" d="M227.5,162.1c-0.1,0-0.1,0-0.2,0l-5-0.6c-0.4-0.1-0.8-0.3-1.1-0.7c-0.2-0.4-0.3-0.8-0.2-1.3
				c0,0,1.5-4.9,0.7-13.8c-0.1-0.8,0.5-1.5,1.3-1.6l8.2-1.1c0.4-0.1,0.8,0.1,1.2,0.3c0.3,0.3,0.5,0.6,0.5,1.1
				c0,0.4,0.5,8.8-4.2,16.9C228.6,161.8,228.1,162.1,227.5,162.1z M224.4,158.7l2.3,0.3c2.7-5.1,3.2-10.2,3.3-12.7l-5.1,0.7
				C225.3,152.7,224.8,156.6,224.4,158.7z"/>
		</g>
		<g>
			<path class="st11" d="M247.2,79l4.8-1.6c0,0-2.6-4.6-3.6-13.9l-8.3,0.5C240.2,64.1,241.3,72.2,247.2,79z"/>
			<path class="st3" d="M247.2,80.5c-0.4,0-0.8-0.2-1.1-0.5c-6.2-7.1-7.4-15.4-7.4-15.8c-0.1-0.4,0.1-0.8,0.3-1.2
				c0.3-0.3,0.7-0.5,1.1-0.5l8.3-0.5c0.8,0,1.5,0.5,1.6,1.3c1,8.9,3.4,13.3,3.4,13.4c0.2,0.4,0.2,0.9,0.1,1.3
				c-0.2,0.4-0.5,0.7-0.9,0.9l-4.8,1.6C247.5,80.5,247.4,80.5,247.2,80.5z M242,65.5c0.6,2.5,2.1,7.4,5.7,11.8l2.2-0.7
				c-0.8-2-2.1-5.8-2.8-11.4L242,65.5z"/>
		</g>
		<g>
			<path class="st11" d="M184.8,74.3l4.8-1.6c0,0-2.6-4.6-3.6-13.9l-8.3,0.5C177.7,59.3,178.8,67.5,184.8,74.3z"/>
			<path class="st3" d="M184.8,75.8c-0.4,0-0.8-0.2-1.1-0.5c-6.2-7.1-7.4-15.4-7.4-15.8c-0.1-0.4,0.1-0.8,0.3-1.2
				c0.3-0.3,0.7-0.5,1.1-0.5l8.3-0.5c0.8,0,1.5,0.5,1.6,1.3c1,8.9,3.4,13.3,3.4,13.3c0.2,0.4,0.3,0.9,0.1,1.3
				c-0.2,0.4-0.5,0.7-0.9,0.9l-4.8,1.6C185.1,75.8,184.9,75.8,184.8,75.8z M179.5,60.7c0.6,2.5,2.1,7.4,5.7,11.8l2.2-0.7
				c-0.8-2-2.1-5.8-2.9-11.4L179.5,60.7z"/>
		</g>
		<g>
			<path class="st4" d="M179.2,135l3.6-6.1c0,0-7-2.4-16.8-11.2l-8.2,8.2C157.8,126,166.6,133.5,179.2,135z"/>
			<path class="st3" d="M179.2,136.5c-0.1,0-0.1,0-0.2,0c-12.9-1.6-21.8-9.1-22.2-9.4c-0.3-0.3-0.5-0.7-0.5-1.1
				c0-0.4,0.1-0.8,0.4-1.1l8.2-8.2c0.6-0.6,1.5-0.6,2.1-0.1c9.4,8.5,16.2,10.9,16.3,10.9c0.4,0.1,0.8,0.5,0.9,0.9
				c0.2,0.4,0.1,0.9-0.1,1.3l-3.6,6.1C180.2,136.2,179.7,136.5,179.2,136.5z M160.1,125.8c2.7,2,9.5,6.3,18.3,7.6l2.2-3.8
				c-2.6-1.2-7.9-4-14.5-9.8L160.1,125.8z"/>
		</g>
		<g>
			<path class="st12" d="M175.1,103.1l6.8-2.2c0,0-3.6-6.4-5.1-19.5l-11.6,0.7C165.3,82.1,166.8,93.6,175.1,103.1z"/>
			<path class="st3" d="M175.1,104.6c-0.4,0-0.8-0.2-1.1-0.5c-8.6-9.8-10.2-21.3-10.2-21.8c-0.1-0.4,0.1-0.8,0.3-1.2
				c0.3-0.3,0.7-0.5,1.1-0.5l11.6-0.7c0.8-0.1,1.5,0.5,1.6,1.3c1.4,12.6,4.8,18.9,4.9,18.9c0.2,0.4,0.3,0.9,0.1,1.3
				c-0.2,0.4-0.5,0.7-0.9,0.9l-6.8,2.2C175.5,104.6,175.3,104.6,175.1,104.6z M167.1,83.5c0.7,3.3,2.9,11,8.6,17.9l4.2-1.3
				c-1.1-2.6-3.2-8.2-4.3-17L167.1,83.5z"/>
		</g>
		<g>
			<g>
				<path class="st10" d="M176.6,242.1l7.1,4.5c0,0,3.1-8.1,14-19.3l-9.3-10C188.3,217.4,179,227.4,176.6,242.1z"/>
				<path class="st3" d="M183.6,248.2c-0.3,0-0.6-0.1-0.8-0.2l-7.1-4.5c-0.5-0.3-0.8-0.9-0.7-1.5c2.5-15.1,11.7-25.1,12.1-25.6
					c0.3-0.3,0.7-0.5,1.1-0.5h0c0.4,0,0.8,0.2,1.1,0.5l9.3,10c0.5,0.6,0.5,1.5,0,2.1c-10.5,10.7-13.7,18.7-13.7,18.8
					c-0.2,0.4-0.5,0.7-0.9,0.9C184,248.1,183.8,248.2,183.6,248.2z M178.2,241.4l4.8,3.1c1.4-2.9,5-9.2,12.6-17.1l-7.2-7.8
					C186,222.6,180.2,230.7,178.2,241.4z"/>
			</g>
			<g>
				<path class="st10" d="M305.6,220.4l-5.8,10.8c0,0,12.3,3.7,29.8,18.4l13.7-14.8C343.2,234.8,327.5,222.3,305.6,220.4z"/>
				<path class="st3" d="M329.6,251.1c-0.3,0-0.7-0.1-1-0.3c-17-14.3-29.1-18-29.3-18.1c-0.4-0.1-0.8-0.4-1-0.9
					c-0.2-0.4-0.1-0.9,0.1-1.3l5.8-10.8c0.3-0.5,0.8-0.8,1.4-0.8c22.1,1.9,37.8,14.2,38.4,14.7c0.3,0.3,0.5,0.6,0.6,1.1
					c0,0.4-0.1,0.8-0.4,1.1l-13.7,14.8C330.4,251,330,251.1,329.6,251.1z M301.9,230.4c3.9,1.5,14.1,6.1,27.5,17.1L341,235
					c-4.1-2.9-17.3-11.3-34.5-13L301.9,230.4z"/>
			</g>
			<g>
				<path class="st4" d="M328.6,174.2l-2.1,9.8c0,0,10.4,0.1,27.3,7.6l7.3-14.6C361.1,177,346.1,170.7,328.6,174.2z"/>
				<path class="st3" d="M353.8,193c-0.2,0-0.4,0-0.6-0.1c-16.4-7.2-26.6-7.4-26.7-7.4c-0.4,0-0.9-0.2-1.2-0.6
					c-0.3-0.4-0.4-0.8-0.3-1.2l2.1-9.8c0.1-0.6,0.6-1,1.2-1.2c17.7-3.5,32.7,2.6,33.4,2.8c0.4,0.2,0.7,0.5,0.8,0.9
					c0.1,0.4,0.1,0.8-0.1,1.2l-7.3,14.6C354.9,192.7,354.4,193,353.8,193z M328.3,182.6c3.6,0.3,12.3,1.7,24.8,7l5.9-11.8
					c-4.1-1.4-15.9-4.7-29.2-2.3L328.3,182.6z"/>
			</g>
			<g>
				<path class="st11" d="M173,214.2l-8.2,1.6c0,0,0.1-8.7-5.9-23.1l12.4-5.9C171.3,186.8,176.2,199.6,173,214.2z"/>
				<path class="st3" d="M164.7,217.3c-0.3,0-0.7-0.1-1-0.3c-0.3-0.3-0.5-0.7-0.5-1.2c0-0.1,0-8.6-5.7-22.5c-0.3-0.7,0-1.6,0.7-1.9
					l12.4-5.9c0.4-0.2,0.8-0.2,1.2,0c0.4,0.2,0.7,0.5,0.8,0.9c0.2,0.5,5.1,13.3,1.8,28.2c-0.1,0.6-0.6,1-1.2,1.1l-8.2,1.6
					C164.9,217.3,164.8,217.3,164.7,217.3z M173,214.2L173,214.2L173,214.2z M160.8,193.4c4.1,10.2,5.1,17.4,5.4,20.6l5.6-1.1
					c2.1-10.7-0.2-20.4-1.3-24L160.8,193.4z"/>
			</g>
			<g>
				<path class="st10" d="M147.6,209.2l-7.4,3.9c0,0-2.5-8.4-12.4-20.3l10.1-9.3C137.9,183.6,146.3,194.3,147.6,209.2z"/>
				<path class="st3" d="M140.2,214.7c-0.2,0-0.4,0-0.6-0.1c-0.4-0.2-0.7-0.5-0.9-1c0-0.1-2.5-8.3-12.1-19.8
					c-0.5-0.6-0.4-1.5,0.1-2.1l10.1-9.3c0.3-0.3,0.7-0.4,1.1-0.4c0.4,0,0.8,0.2,1.1,0.6c0.4,0.5,8.8,11.3,10,26.5
					c0,0.6-0.3,1.2-0.8,1.4l-7.4,3.9C140.6,214.6,140.4,214.7,140.2,214.7z M129.8,193c6.9,8.5,10,15.1,11.2,18.1l5-2.7
					c-1.1-10.9-6.2-19.4-8.4-22.5L129.8,193z"/>
			</g>
			<g>
				<path class="st11" d="M170.3,273.8l4,6.6c0,0,5.9-5.5,19.4-10.4l-3.7-12.1C190,257.9,178.3,262.5,170.3,273.8z"/>
				<path class="st3" d="M174.4,281.9c-0.1,0-0.1,0-0.2,0c-0.4-0.1-0.8-0.3-1.1-0.7l-4-6.6c-0.3-0.5-0.3-1.2,0-1.6
					c8.1-11.5,19.9-16.2,20.4-16.4c0.4-0.2,0.8-0.1,1.2,0c0.4,0.2,0.7,0.5,0.8,0.9l3.7,12.1c0.2,0.8-0.2,1.6-0.9,1.9
					c-13,4.7-18.8,10-18.9,10.1C175.1,281.8,174.8,281.9,174.4,281.9z M172.1,273.9l2.6,4.3c2.4-1.8,7.9-5.5,17.1-9l-2.8-9.1
					C185.9,261.6,178,265.9,172.1,273.9z"/>
			</g>
			<g>
				<path class="st12" d="M295.2,168.1l0.1,5.1c0,0,5.1-1.2,14.4,0.6l1.9-8.1C311.6,165.7,303.5,164.4,295.2,168.1z"/>
				<path class="st3" d="M309.7,175.2c-0.1,0-0.2,0-0.3,0c-8.8-1.6-13.7-0.6-13.8-0.6c-0.4,0.1-0.9,0-1.3-0.3
					c-0.4-0.3-0.6-0.7-0.6-1.1l-0.1-5.1c0-0.6,0.3-1.1,0.9-1.4c8.5-3.9,16.9-2.6,17.2-2.5c0.4,0.1,0.8,0.3,1,0.6
					c0.2,0.3,0.3,0.8,0.2,1.2l-1.9,8.1C311,174.8,310.4,175.2,309.7,175.2z M300.2,171.3c2.2,0,5,0.2,8.4,0.7l1.2-5
					c-2.5-0.1-7.7-0.1-13,2.1l0,2.4C297.7,171.4,298.8,171.3,300.2,171.3z"/>
			</g>
			<g>
				<path class="st12" d="M143.6,243.2l-4.5-2.4c0,0,3.4-4.1,6-13.1l8,1.9C153.2,229.7,150.7,237.5,143.6,243.2z"/>
				<path class="st3" d="M143.6,244.7c-0.2,0-0.5-0.1-0.7-0.2l-4.5-2.4c-0.4-0.2-0.7-0.6-0.8-1c-0.1-0.4,0-0.9,0.3-1.2
					c0,0,3.2-4,5.7-12.5c0.2-0.8,1-1.2,1.8-1l8,1.9c0.4,0.1,0.8,0.4,1,0.7c0.2,0.4,0.2,0.8,0.1,1.2c-0.1,0.3-2.7,8.4-10.1,14.2
					C144.3,244.5,144,244.7,143.6,244.7z M141.3,240.3l2.1,1.1c4.3-3.7,6.7-8.3,7.7-10.7l-5-1.2
					C144.4,234.9,142.5,238.4,141.3,240.3z"/>
			</g>
			<g>
				<path class="st11" d="M305.8,202.9l1.8,4.7c0,0,4.5-2.8,13.7-4.2l-0.9-8.2C320.4,195.2,312.3,196.7,305.8,202.9z"/>
				<path class="st3" d="M307.6,209.2c-0.2,0-0.3,0-0.5-0.1c-0.4-0.1-0.8-0.5-0.9-0.9l-1.8-4.7c-0.2-0.6-0.1-1.2,0.4-1.6
					c6.8-6.5,15.1-8.1,15.4-8.1c0.4-0.1,0.8,0,1.2,0.3c0.3,0.2,0.5,0.6,0.6,1l0.9,8.2c0.1,0.8-0.5,1.5-1.3,1.6
					c-8.8,1.4-13.1,4-13.2,4C308.1,209.1,307.9,209.2,307.6,209.2z M307.6,203.3l0.8,2.2c1.9-0.9,5.7-2.4,11.3-3.4l-0.5-5.1
					C316.7,197.8,311.8,199.5,307.6,203.3z"/>
			</g>
			<g>
				<path class="st11" d="M135.3,147.2l5.1,0.3c0,0-0.7-5.2,1.7-14.3l-7.9-2.5C134.2,130.7,132.2,138.7,135.3,147.2z"/>
				<path class="st3" d="M140.3,149C140.3,149,140.3,149,140.3,149l-5.1-0.3c-0.6,0-1.1-0.4-1.3-1c-3.2-8.8-1.2-17-1.1-17.4
					c0.1-0.4,0.4-0.7,0.7-1c0.4-0.2,0.8-0.2,1.2-0.1l7.9,2.5c0.8,0.2,1.2,1,1,1.8c-2.3,8.6-1.7,13.6-1.7,13.7
					c0.1,0.4-0.1,0.9-0.4,1.2C141.2,148.8,140.8,149,140.3,149z M136.4,145.7l2.4,0.1c0-2.2,0.1-6.2,1.5-11.7l-4.9-1.6
					C135,135.1,134.7,140.3,136.4,145.7z"/>
			</g>
			<g>
				<path class="st4" d="M107.9,201.7l5.6-4.4c0,0-5.6-4.8-11.5-16.5l-10.6,4.7C91.3,185.4,96.8,195.7,107.9,201.7z"/>
				<path class="st3" d="M107.9,203.2c-0.2,0-0.5-0.1-0.7-0.2c-11.4-6.2-17-16.4-17.2-16.9c-0.2-0.4-0.2-0.8-0.1-1.2
					c0.1-0.4,0.4-0.7,0.8-0.9l10.6-4.7c0.7-0.3,1.6,0,1.9,0.7c5.7,11.3,11.1,16,11.2,16.1c0.3,0.3,0.5,0.7,0.5,1.2
					c0,0.4-0.2,0.9-0.6,1.2l-5.6,4.4C108.6,203.1,108.2,203.2,107.9,203.2z M93.5,186.1c1.8,2.8,6.6,9.3,14.3,13.8l3.4-2.7
					c-2-2-5.8-6.6-10-14.5L93.5,186.1z"/>
			</g>
			<g>
				<path class="st12" d="M115.8,170.5l7.1,0.4c0,0-1-7.3,2.4-20l-11-3.6C114.3,147.3,111.5,158.6,115.8,170.5z"/>
				<path class="st3" d="M122.9,172.4C122.9,172.4,122.8,172.4,122.9,172.4l-7.2-0.4c-0.6,0-1.1-0.4-1.3-1
					c-4.4-12.2-1.7-23.5-1.6-24c0.1-0.4,0.4-0.7,0.7-1c0.4-0.2,0.8-0.2,1.2-0.1l11,3.6c0.8,0.2,1.2,1,1,1.8
					c-3.3,12.2-2.4,19.3-2.4,19.4c0.1,0.4-0.1,0.9-0.4,1.2C123.7,172.3,123.3,172.4,122.9,172.4z M116.9,169.1l4.4,0.3
					c-0.1-2.8,0-8.8,2.2-17.4l-8.1-2.6C114.9,152.6,114.1,160.6,116.9,169.1z"/>
			</g>
		</g>
		<g>
			<path class="st13" d="M188.4,281.5l-80.7,83.5l-17.2,17.8l-4.2,4.4c-2.7,2.7-17.7-7.5-33.5-22.8c-15.9-15.4-26.6-30-23.9-32.8
				l42.6-44l14.6-15.1l45-46.5c-2.6,2.8,8.1,17.4,23.9,32.8C170.7,274,185.7,284.2,188.4,281.5z"/>
			<g>
				<polygon class="st14" points="137.6,294.5 125.6,291.2 135.5,283.7 135.1,271.4 145.2,278.5 156.8,274.2 153.1,286 160.8,295.8 
					148.4,295.9 141.6,306.2 				"/>
				<polygon class="st14" points="86.2,290 79.6,299.9 75.8,288.7 71.4,287.5 85.9,272.4 94.1,269.4 90.6,280.6 98,289.9 				"/>
				<polygon class="st14" points="103.7,325.7 95.1,323.3 102.2,317.9 101.9,309 109.2,314.2 117.5,311.1 114.9,319.6 120.4,326.6 
					111.5,326.7 106.6,334.2 				"/>
				<polygon class="st14" points="125.6,256.7 119.9,255.2 124.6,251.6 124.4,245.7 129.2,249.1 134.7,247.1 133,252.7 136.7,257.3 
					130.8,257.4 127.5,262.3 				"/>
				<polygon class="st14" points="54.8,335.5 46.2,333.1 53.3,327.7 53,318.8 60.3,323.9 68.7,320.8 66,329.4 71.6,336.4 
					62.6,336.5 57.7,343.9 				"/>
				<polygon class="st14" points="107.7,364.9 90.5,382.7 87.7,374.5 73,370.4 85.2,361.2 84.6,345.9 97.1,354.7 111.5,349.4 
					107,364 				"/>
			</g>
			
				<rect x="79.1" y="216.8" transform="matrix(0.7188 0.6952 -0.6952 0.7188 226.2074 22.7814)" class="st15" width="11.8" height="148.5"/>
			<path class="st3" d="M85.1,389c-8.8,0-32.3-22.6-33.4-23.6c-7.7-7.5-14.5-15.1-19.1-21.3c-7-9.5-6.1-12.3-4.9-13.6l102.1-105.6
				c0.6-0.6,1.5-0.6,2.1,0c0.6,0.6,0.6,1.5,0,2.1c-0.8,1.9,6.5,13.9,23.9,30.7c17.4,16.8,29.6,23.7,31.5,22.8c0.6-0.6,1.5-0.6,2.1,0
				c0.6,0.6,0.6,1.5,0,2.1L87.3,388.1C86.8,388.7,86,389,85.1,389z M129.5,229.5l-99.6,103c-0.8,1.9,6.5,13.8,23.9,30.6
				C71.1,380,83.3,386.9,85.3,386l99.6-103c-10-3-30-22.3-31.1-23.2c-7.7-7.5-14.5-15-19.1-21.3
				C131.7,234.4,130.2,231.5,129.5,229.5z"/>
			<path class="st16" d="M188.4,281.5L86.3,387.1c-2.7,2.7-17.7-7.5-33.5-22.8c-15.9-15.4-26.6-30-23.9-32.8l8.9-9.2
				c-2.6,2.6,7.2,16.2,21.7,30.2l0.4,0.4c14.3,13.8,37.7,12.8,52.2-2.2l68.8-71.2C184.7,281.7,187.4,282.5,188.4,281.5z"/>
		</g>
		<path class="st3" d="M87.1,399.2c-0.2,0-0.5-0.2-0.5-0.4c0-0.3,0.1-0.5,0.4-0.6c1.5-0.2,2.9-0.7,4.1-1.5c0.1-0.1,0.2-0.1,0.4-0.2
			c0.2-0.1,0.5-0.1,0.7,0.2c0.1,0.2,0.1,0.5-0.2,0.7c-0.1,0.1-0.3,0.2-0.4,0.2C90.3,398.4,88.8,399,87.1,399.2
			C87.2,399.2,87.2,399.2,87.1,399.2z M82.2,399.2C82.1,399.2,82.1,399.2,82.2,399.2c-0.9-0.1-1.8-0.4-2.7-0.6
			c-0.7-0.2-1.5-0.5-2.3-0.8c-0.3-0.1-0.4-0.4-0.3-0.7c0.1-0.3,0.4-0.4,0.7-0.3c0.8,0.3,1.5,0.6,2.2,0.8c0.8,0.3,1.7,0.5,2.5,0.6
			c0.3,0,0.5,0.3,0.4,0.6C82.6,399,82.4,399.2,82.2,399.2z M72.9,395.6c-0.1,0-0.2,0-0.2-0.1c-1.4-0.8-2.8-1.7-4.3-2.6
			c-0.2-0.2-0.3-0.5-0.1-0.7c0.2-0.2,0.5-0.3,0.7-0.1c1.5,1,2.9,1.9,4.2,2.6c0.2,0.1,0.3,0.4,0.2,0.7
			C73.2,395.5,73.1,395.6,72.9,395.6z M95.5,394.2c-0.1,0-0.3,0-0.3-0.1c-0.2-0.2-0.2-0.5,0-0.7l3.5-3.6c0.2-0.2,0.5-0.2,0.7,0
			c0.2,0.2,0.2,0.5,0,0.7l-3.5,3.6C95.8,394.2,95.7,394.2,95.5,394.2z M64.5,390.1c-0.1,0-0.2,0-0.3-0.1c-1.3-0.9-2.6-2-4-3
			c-0.2-0.2-0.3-0.5-0.1-0.7c0.2-0.2,0.5-0.3,0.7-0.1c1.4,1.1,2.7,2.1,4,3c0.2,0.2,0.3,0.5,0.1,0.7C64.8,390,64.7,390.1,64.5,390.1z
			 M102.5,387c-0.1,0-0.3,0-0.3-0.1c-0.2-0.2-0.2-0.5,0-0.7l3.5-3.6c0.2-0.2,0.5-0.2,0.7,0c0.2,0.2,0.2,0.5,0,0.7l-3.5,3.6
			C102.8,387,102.6,387,102.5,387z M56.7,383.9c-0.1,0-0.2,0-0.3-0.1c-1.3-1.1-2.6-2.2-3.8-3.3c-0.2-0.2-0.2-0.5,0-0.7
			c0.2-0.2,0.5-0.2,0.7,0c1.2,1,2.5,2.1,3.8,3.3c0.2,0.2,0.2,0.5,0.1,0.7C57,383.8,56.8,383.9,56.7,383.9z M109.4,379.8
			c-0.1,0-0.3,0-0.3-0.1c-0.2-0.2-0.2-0.5,0-0.7l3.5-3.6c0.2-0.2,0.5-0.2,0.7,0c0.2,0.2,0.2,0.5,0,0.7l-3.5,3.6
			C109.7,379.8,109.6,379.8,109.4,379.8z M49.2,377.3c-0.1,0-0.2,0-0.3-0.1c-1-0.9-1.9-1.8-2.7-2.5l-1-0.9c-0.2-0.2-0.2-0.5,0-0.7
			c0.2-0.2,0.5-0.2,0.7,0l0.9,0.9c0.8,0.7,1.7,1.6,2.7,2.5c0.2,0.2,0.2,0.5,0,0.7C49.4,377.2,49.3,377.3,49.2,377.3z M116.4,372.6
			c-0.1,0-0.3,0-0.3-0.1c-0.2-0.2-0.2-0.5,0-0.7l3.5-3.6c0.2-0.2,0.5-0.2,0.7,0c0.2,0.2,0.2,0.5,0,0.7l-3.5,3.6
			C116.7,372.6,116.5,372.6,116.4,372.6z M41.9,370.4c-0.1,0-0.3,0-0.4-0.1c-1.2-1.2-2.4-2.4-3.5-3.6c-0.2-0.2-0.2-0.5,0-0.7
			c0.2-0.2,0.5-0.2,0.7,0c1.1,1.2,2.3,2.4,3.5,3.6c0.2,0.2,0.2,0.5,0,0.7C42.2,370.3,42,370.4,41.9,370.4z M123.4,365.5
			c-0.1,0-0.3,0-0.3-0.1c-0.2-0.2-0.2-0.5,0-0.7l3.5-3.6c0.2-0.2,0.5-0.2,0.7,0c0.2,0.2,0.2,0.5,0,0.7l-3.5,3.6
			C123.6,365.4,123.5,365.5,123.4,365.5z M35,363.2c-0.1,0-0.3-0.1-0.4-0.2c-1.2-1.3-2.3-2.5-3.3-3.7c-0.2-0.2-0.2-0.5,0-0.7
			c0.2-0.2,0.5-0.2,0.7,0c1.1,1.2,2.2,2.5,3.3,3.7c0.2,0.2,0.2,0.5,0,0.7C35.2,363.1,35.1,363.2,35,363.2z M130.3,358.3
			c-0.1,0-0.3,0-0.3-0.1c-0.2-0.2-0.2-0.5,0-0.7l3.5-3.6c0.2-0.2,0.5-0.2,0.7,0c0.2,0.2,0.2,0.5,0,0.7l-3.5,3.6
			C130.6,358.2,130.4,358.3,130.3,358.3z M28.1,356c-0.1,0-0.3,0-0.3-0.1l-3.6-3.5c-0.2-0.2-0.2-0.5,0-0.7c0.2-0.2,0.5-0.2,0.7,0
			l3.6,3.5c0.2,0.2,0.2,0.5,0,0.7C28.4,355.9,28.2,356,28.1,356z M224.9,353.8c-0.6,0-1.1,0-1.7-0.1c-0.3,0-0.5-0.3-0.4-0.6
			c0-0.3,0.3-0.5,0.6-0.4c0.9,0.1,1.8,0.1,2.7,0.1l2.2-0.2c0.3,0,0.5,0.2,0.5,0.4c0,0.3-0.2,0.5-0.4,0.5l-2.2,0.2
			C225.7,353.8,225.3,353.8,224.9,353.8z M233.2,353.1c-0.3,0-0.5-0.2-0.5-0.5c0-0.3,0.2-0.5,0.4-0.5l4.5-0.5c0.1,0,0.3,0,0.4-0.1
			c0.3,0,0.5,0.2,0.6,0.4c0,0.3-0.2,0.5-0.4,0.6c-0.2,0-0.3,0-0.5,0.1L233.2,353.1C233.3,353.1,233.3,353.1,233.2,353.1z
			 M243.2,352.3c-0.3,0-0.5-0.2-0.5-0.5c0-0.3,0.2-0.5,0.5-0.5c1.6,0,3.2-0.1,4.9-0.2l0.1,0c0.3,0,0.5,0.2,0.5,0.5
			c0,0.3-0.2,0.5-0.5,0.5l-0.1,0C246.4,352.2,244.8,352.2,243.2,352.3C243.2,352.3,243.2,352.3,243.2,352.3z M218.6,352
			c-0.1,0-0.2,0-0.3-0.1c-1-0.7-1.9-1.5-2.7-2.4c-0.4-0.2-0.8-0.3-1.1-0.5c-0.2-0.1-0.4-0.4-0.2-0.7c0.1-0.2,0.4-0.4,0.7-0.2
			c0.4,0.2,0.8,0.4,1.2,0.5c0.1,0,0.1,0.1,0.2,0.2c0.7,0.9,1.6,1.7,2.6,2.3c0.2,0.2,0.3,0.5,0.1,0.7C219,351.9,218.8,352,218.6,352z
			 M253.2,351.8c-0.3,0-0.5-0.2-0.5-0.5c0-0.3,0.2-0.5,0.5-0.5c1.6-0.1,3.3-0.3,5-0.4c0.3,0,0.5,0.2,0.5,0.5c0,0.3-0.2,0.5-0.5,0.5
			C256.5,351.5,254.9,351.6,253.2,351.8C253.2,351.8,253.2,351.8,253.2,351.8z M137.3,351.1c-0.1,0-0.3,0-0.3-0.1
			c-0.2-0.2-0.2-0.5,0-0.7l3.5-3.6c0.2-0.2,0.5-0.2,0.7,0c0.2,0.2,0.2,0.5,0,0.7l-3.5,3.6C137.5,351,137.4,351.1,137.3,351.1z
			 M263.1,350.8c-0.3,0-0.5-0.2-0.5-0.4c0-0.3,0.2-0.5,0.4-0.6l0.3,0c1-0.1,2.1-0.2,3.1-0.4l1.5-0.2c0.3,0,0.5,0.2,0.6,0.4
			c0,0.3-0.2,0.5-0.4,0.6l-1.5,0.2c-1.1,0.1-2.1,0.3-3.2,0.4L263.1,350.8C263.2,350.8,263.1,350.8,263.1,350.8z M273,349.5
			c-0.2,0-0.5-0.2-0.5-0.4c0-0.3,0.1-0.5,0.4-0.6l0.6-0.1c1-0.2,2-0.3,3.1-0.5l1.2-0.2c0.3,0,0.5,0.1,0.6,0.4
			c0.1,0.3-0.1,0.5-0.4,0.6l-1.3,0.2c-1.1,0.2-2.1,0.4-3.1,0.5L273,349.5C273.1,349.4,273.1,349.5,273,349.5z M20.9,349
			c-0.1,0-0.3,0-0.3-0.1c-1.3-1.2-2.2-2.7-2.9-4.3c-0.1-0.3,0-0.5,0.3-0.6c0.3-0.1,0.5,0,0.6,0.3c0.6,1.5,1.5,2.8,2.6,4
			c0.2,0.2,0.2,0.5,0,0.7C21.2,349,21,349,20.9,349z M282.9,347.6c-0.2,0-0.4-0.2-0.5-0.4c-0.1-0.3,0.1-0.5,0.4-0.6
			c0.9-0.2,1.8-0.4,2.7-0.6l0.1,0c0.7-0.2,1.3-0.3,2-0.5c0.3-0.1,0.5,0.1,0.6,0.4c0.1,0.3-0.1,0.5-0.4,0.6c-0.7,0.2-1.3,0.3-2,0.5
			l-0.1,0c-0.9,0.2-1.8,0.4-2.8,0.6C282.9,347.6,282.9,347.6,282.9,347.6z M210.6,346.2c-0.1,0-0.2,0-0.3-0.1
			c-1.3-1.2-2.3-2.6-3-4.2c-0.1-0.3,0-0.5,0.2-0.7c0.3-0.1,0.5,0,0.7,0.2c0.7,1.5,1.6,2.8,2.8,3.9c0.2,0.2,0.2,0.5,0,0.7
			C210.9,346.1,210.7,346.2,210.6,346.2z M292.5,345.1c-0.2,0-0.4-0.1-0.5-0.3c-0.1-0.3,0.1-0.5,0.3-0.6l0.9-0.3
			c0.7-0.2,1.3-0.5,2.1-0.7c0,0,0,0,0,0l0.2-0.1c0.5-0.2,1-0.4,1.5-0.6c0.3-0.1,0.5,0,0.7,0.3c0.1,0.3,0,0.5-0.3,0.7
			c-0.4,0.2-1,0.4-1.5,0.6c-0.1,0.1-0.2,0.1-0.3,0.1c-0.7,0.3-1.4,0.5-2.1,0.7l-0.9,0.3C292.6,345.1,292.6,345.1,292.5,345.1z
			 M144.2,343.9c-0.1,0-0.3,0-0.3-0.1c-0.2-0.2-0.2-0.5,0-0.7l3.5-3.6c0.2-0.2,0.5-0.2,0.7,0c0.2,0.2,0.2,0.5,0,0.7l-3.5,3.6
			C144.5,343.8,144.3,343.9,144.2,343.9z M301.7,341.1c-0.2,0-0.3-0.1-0.4-0.2c-0.1-0.2-0.1-0.5,0.2-0.7l0.4-0.3
			c0.5-0.3,1-0.7,1.4-1c0.2-0.1,0.3-0.3,0.5-0.4c0.2-0.2,0.4-0.4,0.6-0.6c0.2-0.2,0.4-0.4,0.7-0.7l0.1-0.2c0.2-0.2,0.5-0.2,0.7,0
			c0.2,0.2,0.2,0.5,0,0.7l-0.2,0.2c-0.3,0.3-0.5,0.5-0.7,0.7c-0.2,0.2-0.4,0.4-0.7,0.6c-0.2,0.1-0.3,0.3-0.5,0.4
			c-0.4,0.3-0.9,0.7-1.5,1.1l-0.4,0.3C301.9,341.1,301.8,341.1,301.7,341.1z M17.4,340C17.4,340,17.4,340,17.4,340
			c-0.3,0-0.5-0.3-0.5-0.5c0-0.5,0.1-0.9,0.2-1.3c-0.4-1.2-0.6-2.3-0.8-3.4c0-0.3,0.2-0.5,0.4-0.6c0.3,0,0.5,0.2,0.6,0.4
			c0.1,1.1,0.4,2.2,0.8,3.4c0,0.1,0,0.2,0,0.3c-0.1,0.4-0.1,0.9-0.2,1.4C17.9,339.8,17.7,340,17.4,340z M206.5,337.3
			c-0.3,0-0.5-0.2-0.5-0.5l-0.5-5c0-0.3,0.2-0.5,0.4-0.5c0.3,0,0.5,0.2,0.5,0.4l0.5,5C207,337.1,206.8,337.3,206.5,337.3
			C206.5,337.3,206.5,337.3,206.5,337.3z M151.2,336.7c-0.1,0-0.3,0-0.3-0.1c-0.2-0.2-0.2-0.5,0-0.7l3.5-3.6c0.2-0.2,0.5-0.2,0.7,0
			c0.2,0.2,0.2,0.5,0,0.7l-3.5,3.6C151.4,336.7,151.3,336.7,151.2,336.7z M308.1,333.7c-0.1,0-0.1,0-0.2,0c-0.3-0.1-0.4-0.4-0.3-0.6
			c0.1-0.2,0.1-0.4,0.2-0.6c0.1-0.4,0.2-0.8,0.3-1.1l0-0.2c0.2-0.9,0.3-1.7,0.3-2.6l0-0.2c0-0.3,0.2-0.5,0.5-0.5
			c0.3,0,0.5,0.2,0.5,0.5l0,0.2c0,0.9-0.1,1.9-0.3,2.8l0,0.2c-0.1,0.4-0.2,0.9-0.4,1.3c-0.1,0.2-0.1,0.4-0.2,0.6
			C308.5,333.6,308.3,333.7,308.1,333.7z M17,330.1c0,0-0.1,0-0.1,0c-0.3-0.1-0.4-0.3-0.4-0.6c0.3-1.2,0.7-2.3,1.2-3.4
			c0.2-0.5,0.5-0.9,0.8-1.4c0.2-0.2,0.5-0.3,0.7-0.1c0.2,0.2,0.3,0.5,0.1,0.7c-0.3,0.4-0.5,0.8-0.8,1.3c-0.5,1-0.9,2-1.2,3.1
			C17.4,329.9,17.2,330.1,17,330.1z M158.1,329.5c-0.1,0-0.3,0-0.3-0.1c-0.2-0.2-0.2-0.5,0-0.7l3.5-3.6c0.2-0.2,0.5-0.2,0.7,0
			c0.2,0.2,0.2,0.5,0,0.7l-3.5,3.6C158.4,329.5,158.2,329.5,158.1,329.5z M205.5,327.4c-0.3,0-0.5-0.2-0.5-0.5l-0.5-5
			c0-0.3,0.2-0.5,0.4-0.5c0.3,0,0.5,0.2,0.5,0.4l0.5,5C206,327.1,205.8,327.4,205.5,327.4C205.5,327.4,205.5,327.4,205.5,327.4z
			 M308.6,323.8c-0.3,0-0.5-0.2-0.5-0.5l-0.5-5c0-0.3,0.2-0.5,0.4-0.5c0.3,0,0.5,0.2,0.5,0.4l0.5,5
			C309.1,323.5,308.9,323.8,308.6,323.8C308.6,323.8,308.6,323.8,308.6,323.8z M165.1,322.3c-0.1,0-0.3,0-0.3-0.1
			c-0.2-0.2-0.2-0.5,0-0.7l3.5-3.6c0.2-0.2,0.5-0.2,0.7,0c0.2,0.2,0.2,0.5,0,0.7l-3.5,3.6C165.3,322.3,165.2,322.3,165.1,322.3z
			 M22.3,321.8c-0.1,0-0.3,0-0.3-0.1c-0.2-0.2-0.2-0.5,0-0.7l3.5-3.6c0.2-0.2,0.5-0.2,0.7,0c0.2,0.2,0.2,0.5,0,0.7l-3.5,3.6
			C22.6,321.8,22.5,321.8,22.3,321.8z M204.5,317.4c-0.3,0-0.5-0.2-0.5-0.5l-0.5-5c0-0.3,0.2-0.5,0.4-0.5c0.3,0,0.5,0.2,0.5,0.4
			l0.5,5C205,317.2,204.8,317.4,204.5,317.4C204.5,317.4,204.5,317.4,204.5,317.4z M172,315.1c-0.1,0-0.3,0-0.3-0.1
			c-0.2-0.2-0.2-0.5,0-0.7l3.5-3.6c0.2-0.2,0.5-0.2,0.7,0c0.2,0.2,0.2,0.5,0,0.7l-3.5,3.6C172.3,315.1,172.1,315.1,172,315.1z
			 M29.3,314.6c-0.1,0-0.3,0-0.3-0.1c-0.2-0.2-0.2-0.5,0-0.7l3.5-3.6c0.2-0.2,0.5-0.2,0.7,0c0.2,0.2,0.2,0.5,0,0.7l-3.5,3.6
			C29.6,314.6,29.4,314.6,29.3,314.6z M307.6,313.9c-0.3,0-0.5-0.2-0.5-0.5l-0.5-5c0-0.3,0.2-0.5,0.4-0.5c0.3,0,0.5,0.2,0.5,0.4
			l0.5,5C308.1,313.6,307.9,313.8,307.6,313.9C307.6,313.9,307.6,313.9,307.6,313.9z M179,308c-0.1,0-0.3,0-0.3-0.1
			c-0.2-0.2-0.2-0.5,0-0.7l3.5-3.6c0.2-0.2,0.5-0.2,0.7,0c0.2,0.2,0.2,0.5,0,0.7l-3.5,3.6C179.2,307.9,179.1,308,179,308z
			 M203.5,307.5c-0.3,0-0.5-0.2-0.5-0.5l-0.5-5c0-0.3,0.2-0.5,0.4-0.5c0.3,0,0.5,0.2,0.5,0.4l0.5,5
			C204,307.2,203.8,307.5,203.5,307.5C203.5,307.5,203.5,307.5,203.5,307.5z M36.2,307.5c-0.1,0-0.3,0-0.3-0.1
			c-0.2-0.2-0.2-0.5,0-0.7l3.5-3.6c0.2-0.2,0.5-0.2,0.7,0c0.2,0.2,0.2,0.5,0,0.7l-3.5,3.6C36.5,307.4,36.4,307.5,36.2,307.5z
			 M306.6,303.9c-0.3,0-0.5-0.2-0.5-0.5l-0.5-5c0-0.3,0.2-0.5,0.4-0.5c0.3,0,0.5,0.2,0.5,0.4l0.5,5
			C307.1,303.6,306.9,303.9,306.6,303.9C306.6,303.9,306.6,303.9,306.6,303.9z M185.9,300.8c-0.1,0-0.3,0-0.3-0.1
			c-0.2-0.2-0.2-0.5,0-0.7l3.5-3.6c0.2-0.2,0.5-0.2,0.7,0c0.2,0.2,0.2,0.5,0,0.7l-3.5,3.6C186.2,300.7,186,300.8,185.9,300.8z
			 M43.2,300.3c-0.1,0-0.3,0-0.3-0.1c-0.2-0.2-0.2-0.5,0-0.7l3.5-3.6c0.2-0.2,0.5-0.2,0.7,0c0.2,0.2,0.2,0.5,0,0.7l-3.5,3.6
			C43.5,300.2,43.3,300.3,43.2,300.3z M202.5,297.5c-0.3,0-0.5-0.2-0.5-0.5l-0.5-5c0-0.3,0.2-0.5,0.4-0.5c0.3,0,0.5,0.2,0.5,0.4
			l0.5,5C203,297.3,202.8,297.5,202.5,297.5C202.5,297.5,202.5,297.5,202.5,297.5z M305.6,294c-0.3,0-0.5-0.2-0.5-0.5l-0.5-5
			c0-0.3,0.2-0.5,0.4-0.5c0.3,0,0.5,0.2,0.5,0.4l0.5,5C306.1,293.7,305.9,293.9,305.6,294C305.6,294,305.6,294,305.6,294z
			 M192.9,293.6c-0.1,0-0.3,0-0.3-0.1c-0.2-0.2-0.2-0.5,0-0.7l3.5-3.6c0.2-0.2,0.5-0.2,0.7,0c0.2,0.2,0.2,0.5,0,0.7l-3.5,3.6
			C193.1,293.5,193,293.6,192.9,293.6z M50.1,293.1c-0.1,0-0.3,0-0.3-0.1c-0.2-0.2-0.2-0.5,0-0.7l3.5-3.6c0.2-0.2,0.5-0.2,0.7,0
			c0.2,0.2,0.2,0.5,0,0.7l-3.5,3.6C50.4,293,50.3,293.1,50.1,293.1z M201.5,287.6c-0.3,0-0.5-0.2-0.5-0.5l-0.5-5
			c0-0.3,0.2-0.5,0.4-0.5c0.3,0,0.5,0.2,0.5,0.4l0.5,5C202,287.3,201.8,287.6,201.5,287.6C201.5,287.6,201.5,287.6,201.5,287.6z
			 M57.1,285.9c-0.1,0-0.3,0-0.3-0.1c-0.2-0.2-0.2-0.5,0-0.7l3.5-3.6c0.2-0.2,0.5-0.2,0.7,0c0.2,0.2,0.2,0.5,0,0.7l-3.5,3.6
			C57.4,285.8,57.2,285.9,57.1,285.9z M199.1,285.9c-0.1,0-0.1,0-0.2,0c-0.3-0.1-0.4-0.4-0.3-0.7c0.6-1.4,0.9-3,0.9-4.6
			c0-0.3,0.2-0.5,0.5-0.5l0,0c0.3,0,0.5,0.2,0.5,0.5c0,1.8-0.3,3.5-1,5.1C199.5,285.7,199.3,285.9,199.1,285.9z M304.6,284
			c-0.3,0-0.5-0.2-0.5-0.5l-0.5-5c0-0.3,0.2-0.5,0.4-0.5c0.3,0,0.5,0.2,0.5,0.4l0.5,5C305.1,283.7,304.9,284,304.6,284
			C304.6,284,304.6,284,304.6,284z M64,278.7c-0.1,0-0.3,0-0.3-0.1c-0.2-0.2-0.2-0.5,0-0.7l3.5-3.6c0.2-0.2,0.5-0.2,0.7,0
			c0.2,0.2,0.2,0.5,0,0.7l-3.5,3.6C64.3,278.7,64.2,278.7,64,278.7z M303.6,274.1c-0.3,0-0.5-0.2-0.5-0.5l-0.5-5
			c0-0.3,0.2-0.5,0.4-0.5c0.3,0,0.5,0.2,0.5,0.4l0.5,5C304.1,273.8,303.9,274,303.6,274.1C303.6,274.1,303.6,274.1,303.6,274.1z
			 M71,271.5c-0.1,0-0.3,0-0.3-0.1c-0.2-0.2-0.2-0.5,0-0.7l3.5-3.6c0.2-0.2,0.5-0.2,0.7,0c0.2,0.2,0.2,0.5,0,0.7l-3.5,3.6
			C71.3,271.5,71.1,271.5,71,271.5z M78,264.3c-0.1,0-0.3,0-0.3-0.1c-0.2-0.2-0.2-0.5,0-0.7l3.5-3.6c0.2-0.2,0.5-0.2,0.7,0
			c0.2,0.2,0.2,0.5,0,0.7l-3.5,3.6C78.2,264.3,78.1,264.3,78,264.3z M302.6,264.1c-0.3,0-0.5-0.2-0.5-0.5l-0.5-5
			c0-0.3,0.2-0.5,0.4-0.5c0.3,0,0.5,0.2,0.5,0.4l0.5,5C303.1,263.8,302.9,264.1,302.6,264.1C302.6,264.1,302.6,264.1,302.6,264.1z
			 M329.4,261.5c-1.2,0-2.4-0.2-3.5-0.5l0.1-0.5l0.2-0.5l-0.2,0.5l0.2-0.5c1.6,0.5,3.1,0.6,4.7,0.4c0.3,0,0.5,0.2,0.6,0.4
			c0,0.3-0.2,0.5-0.4,0.6C330.4,261.5,329.9,261.5,329.4,261.5z M335.5,259.7c-0.2,0-0.3-0.1-0.4-0.2c-0.1-0.2-0.1-0.5,0.2-0.7
			c0.8-0.5,1.5-1.1,2.2-1.8l1.4-1.5c0.2-0.2,0.5-0.2,0.7,0c0.2,0.2,0.2,0.5,0,0.7l-1.4,1.5c-0.7,0.8-1.5,1.4-2.4,2
			C335.7,259.7,335.6,259.7,335.5,259.7z M321.6,258.6c-0.1,0-0.2,0-0.3-0.1c-1.3-1.1-2.6-2.1-3.9-3.1c-0.2-0.2-0.3-0.5-0.1-0.7
			c0.2-0.2,0.5-0.3,0.7-0.1c1.3,1,2.6,2.1,3.9,3.1c0.2,0.2,0.2,0.5,0.1,0.7C321.9,258.5,321.8,258.6,321.6,258.6z M84.9,257.1
			c-0.1,0-0.3,0-0.3-0.1c-0.2-0.2-0.2-0.5,0-0.7l3.5-3.6c0.2-0.2,0.5-0.2,0.7,0c0.2,0.2,0.2,0.5,0,0.7l-3.5,3.6
			C85.2,257.1,85,257.1,84.9,257.1z M301.6,254.2c-0.3,0-0.5-0.2-0.5-0.5l-0.5-5c0-0.3,0.2-0.5,0.4-0.5c0.3,0,0.5,0.2,0.5,0.4l0.5,5
			C302.1,253.9,301.9,254.1,301.6,254.2C301.6,254.2,301.6,254.2,301.6,254.2z M342.6,252.7c-0.1,0-0.2,0-0.3-0.1
			c-0.2-0.2-0.2-0.5,0-0.7l3.4-3.7c0.2-0.2,0.5-0.2,0.7,0c0.2,0.2,0.2,0.5,0,0.7l-3.4,3.7C342.8,252.6,342.7,252.7,342.6,252.7z
			 M313.7,252.5c-0.1,0-0.2,0-0.3-0.1c-1.4-1-2.8-1.9-4.1-2.8c-0.2-0.1-0.3-0.5-0.2-0.7c0.2-0.2,0.5-0.3,0.7-0.2
			c1.4,0.9,2.8,1.8,4.2,2.8c0.2,0.2,0.3,0.5,0.1,0.7C314,252.4,313.9,252.5,313.7,252.5z M91.9,250c-0.1,0-0.3,0-0.3-0.1
			c-0.2-0.2-0.2-0.5,0-0.7l3.5-3.6c0.2-0.2,0.5-0.2,0.7,0c0.2,0.2,0.2,0.5,0,0.7l-3.5,3.6C92.1,249.9,92,250,91.9,250z M305.3,247.1
			c-0.1,0-0.2,0-0.2-0.1c-1.5-0.9-3-1.6-4.4-2.3c-0.2-0.1-0.3-0.4-0.2-0.7c0.1-0.2,0.4-0.3,0.7-0.2c1.4,0.7,2.9,1.5,4.4,2.4
			c0.2,0.1,0.3,0.4,0.2,0.7C305.6,247,305.5,247.1,305.3,247.1z M349.4,245.3c-0.1,0-0.2,0-0.3-0.1c-0.2-0.2-0.2-0.5,0-0.7l2.1-2.3
			c0.4-0.4,0.8-0.9,1.1-1.4c0.2-0.2,0.5-0.3,0.7-0.1c0.2,0.2,0.3,0.5,0.1,0.7c-0.4,0.5-0.8,1.1-1.2,1.6l-2.1,2.3
			C349.6,245.3,349.5,245.3,349.4,245.3z M98.8,242.8c-0.1,0-0.3,0-0.3-0.1c-0.2-0.2-0.2-0.5,0-0.7l3.5-3.6c0.2-0.2,0.5-0.2,0.7,0
			c0.2,0.2,0.2,0.5,0,0.7l-3.5,3.6C99.1,242.7,98.9,242.8,98.8,242.8z M354.4,236.9C354.4,236.9,354.3,236.9,354.4,236.9
			c-0.3,0-0.5-0.3-0.5-0.6c0.1-0.5,0.1-1,0.1-1.6c0-0.3,0-0.6,0-0.8c-0.1-1.6-0.6-3.2-1.4-4.5c-0.1-0.2,0-0.5,0.2-0.7
			c0.2-0.1,0.5,0,0.7,0.2c0.8,1.5,1.4,3.2,1.5,5c0,0.3,0,0.6,0,0.9c0,0.6,0,1.2-0.1,1.7C354.8,236.7,354.6,236.9,354.4,236.9z
			 M105.8,235.6c-0.1,0-0.3,0-0.3-0.1c-0.2-0.2-0.2-0.5,0-0.7l3.5-3.6c0.2-0.2,0.5-0.2,0.7,0c0.2,0.2,0.2,0.5,0,0.7l-3.5,3.6
			C106,235.5,105.9,235.6,105.8,235.6z M112.7,228.4c-0.1,0-0.3,0-0.3-0.1c-0.2-0.2-0.2-0.5,0-0.7l3.5-3.6c0.2-0.2,0.5-0.2,0.7,0
			c0.2,0.2,0.2,0.5,0,0.7l-3.5,3.6C113,228.3,112.8,228.4,112.7,228.4z M349.7,225.9c-0.1,0-0.2,0-0.3-0.1c-0.7-0.5-2.1-1.5-4.1-2.8
			c-0.2-0.1-0.3-0.5-0.2-0.7c0.1-0.2,0.5-0.3,0.7-0.2c2,1.3,3.5,2.4,4.1,2.9c0.2,0.2,0.3,0.5,0.1,0.7
			C350,225.9,349.9,225.9,349.7,225.9z M119.7,221.2c-0.1,0-0.3,0-0.3-0.1c-0.2-0.2-0.2-0.5,0-0.7l2.8-2.9c0.3-0.3,0.5-0.5,0.8-0.7
			c0.2-0.2,0.5-0.2,0.7,0c0.2,0.2,0.2,0.5,0,0.7c-0.2,0.2-0.5,0.4-0.7,0.7L120,221C119.9,221.2,119.8,221.2,119.7,221.2z
			 M341.3,220.5c-0.1,0-0.2,0-0.2-0.1c-1.4-0.8-2.9-1.6-4.4-2.3c-0.2-0.1-0.3-0.4-0.2-0.7c0.1-0.2,0.4-0.3,0.7-0.2
			c1.5,0.7,3,1.5,4.4,2.3c0.2,0.1,0.3,0.4,0.2,0.7C341.7,220.4,341.5,220.5,341.3,220.5z M332.4,216.1c-0.1,0-0.1,0-0.2,0
			c-1.5-0.7-3.1-1.3-4.6-1.8c-0.3-0.1-0.4-0.4-0.3-0.6c0.1-0.3,0.4-0.4,0.6-0.3c1.6,0.6,3.1,1.2,4.7,1.9c0.3,0.1,0.4,0.4,0.3,0.7
			C332.8,216,332.6,216.1,332.4,216.1z M127.5,215.2c-0.2,0-0.4-0.1-0.5-0.3c-0.1-0.3,0-0.5,0.3-0.6c0,0,0.1,0,0.1,0
			c-0.5-1-1.1-2.1-1.7-3.3c-0.1-0.2-0.1-0.5,0.2-0.7c0.2-0.1,0.5-0.1,0.7,0.2c0.8,1.4,1.5,2.7,2,3.9c0.1,0.1,0.1,0.3,0,0.4
			c-0.1,0.1-0.2,0.2-0.3,0.3c-0.2,0.1-0.4,0.1-0.6,0.2C127.6,215.1,127.5,215.2,127.5,215.2z M107.2,213.6
			C107.2,213.6,107.2,213.6,107.2,213.6c-1,0-2-0.2-3-0.5c-0.7-0.2-1.4-0.5-2-0.8c-0.2-0.1-0.3-0.4-0.2-0.7c0.1-0.2,0.4-0.3,0.7-0.2
			c0.6,0.3,1.2,0.6,1.8,0.8c0.9,0.3,1.8,0.4,2.7,0.5c0.3,0,0.5,0.2,0.5,0.5C107.7,213.4,107.5,213.6,107.2,213.6z M112.1,212.7
			c-0.2,0-0.4-0.1-0.5-0.3c-0.1-0.3,0-0.5,0.3-0.7c0.9-0.4,1.8-0.9,2.6-1.5l1.4-1.1c0.2-0.2,0.5-0.1,0.7,0.1
			c0.2,0.2,0.1,0.5-0.1,0.7l-1.4,1.1c-0.9,0.7-1.8,1.2-2.8,1.7C112.2,212.7,112.1,212.7,112.1,212.7z M329.7,211.4
			c-0.1,0-0.2,0-0.3-0.1c-0.2-0.2-0.2-0.5,0-0.7c1-1.2,1.8-2.6,2.3-4.2c0.1-0.3,0.4-0.4,0.6-0.3c0.3,0.1,0.4,0.4,0.3,0.6
			c-0.5,1.7-1.3,3.2-2.5,4.5C330,211.3,329.9,211.4,329.7,211.4z M98.1,209.7c-0.1,0-0.2,0-0.3-0.1c-1.4-0.9-2.7-1.9-4.1-3
			c-0.2-0.2-0.2-0.5-0.1-0.7c0.2-0.2,0.5-0.2,0.7-0.1c1.3,1,2.6,2,4,3c0.2,0.2,0.3,0.5,0.1,0.7C98.4,209.6,98.3,209.7,98.1,209.7z
			 M123.5,206.9c-0.2,0-0.3-0.1-0.4-0.2c-0.3-0.4-0.6-0.9-0.9-1.4c-0.4,0.5-0.9,0.9-1.4,1.3l-0.2,0.2c-0.2,0.2-0.5,0.1-0.7-0.1
			c-0.2-0.2-0.1-0.5,0.1-0.7l0.2-0.2c0.6-0.5,1.2-1,1.7-1.6c0.1-0.1,0.2-0.2,0.4-0.2c0.2,0,0.3,0.1,0.4,0.2c0.5,0.6,0.9,1.3,1.3,1.9
			c0.2,0.2,0.1,0.5-0.1,0.7C123.7,206.9,123.6,206.9,123.5,206.9z M90.4,203.4c-0.1,0-0.3,0-0.4-0.1c-1.2-1.2-2.4-2.4-3.4-3.7
			c-0.2-0.2-0.2-0.5,0.1-0.7c0.2-0.2,0.5-0.2,0.7,0.1c1.1,1.3,2.2,2.5,3.4,3.6c0.2,0.2,0.2,0.5,0,0.7
			C90.6,203.3,90.5,203.4,90.4,203.4z M355.4,203.3c-0.2,0-0.5-0.2-0.5-0.4c0-0.3,0.1-0.5,0.4-0.6c1.6-0.3,3.1-0.9,4.4-1.7
			c0.2-0.2,0.5-0.1,0.7,0.1c0.2,0.2,0.1,0.5-0.1,0.7C358.9,202.4,357.2,203,355.4,203.3C355.5,203.3,355.4,203.3,355.4,203.3z
			 M350.5,203c0,0-0.1,0-0.1,0l-0.3-0.1c-0.4-0.1-0.9-0.3-1.3-0.5c-1-0.5-2.1-0.9-3.1-1.3c-0.3-0.1-0.4-0.4-0.3-0.7
			c0.1-0.3,0.4-0.4,0.7-0.3c1,0.4,2.1,0.9,3.1,1.3c0.4,0.2,0.8,0.3,1.2,0.4l0.2,0.1c0.3,0.1,0.4,0.4,0.3,0.6
			C350.9,202.9,350.7,203,350.5,203z M332.5,202.1c-0.3,0-0.5-0.2-0.5-0.4l-0.5-5c0-0.3,0.2-0.5,0.4-0.6c0.3,0,0.5,0.2,0.6,0.4
			l0.5,5C333,201.8,332.8,202.1,332.5,202.1C332.5,202.1,332.5,202.1,332.5,202.1z M341.1,199.4c-0.1,0-0.1,0-0.2,0
			c-1-0.3-2-0.7-3-1c-0.6-0.2-1.2-0.4-1.8-0.5c-0.3-0.1-0.4-0.4-0.3-0.6c0.1-0.3,0.3-0.4,0.6-0.3c0.6,0.2,1.2,0.3,1.8,0.5
			c1,0.3,2,0.6,3,1c0.3,0.1,0.4,0.4,0.3,0.6C341.5,199.3,341.4,199.4,341.1,199.4z M363.4,197.9c-0.1,0-0.2,0-0.3-0.1
			c-0.2-0.1-0.3-0.4-0.2-0.7c0.1-0.2,0.3-0.5,0.4-0.7l1.8-3.7c0.1-0.2,0.4-0.3,0.7-0.2c0.2,0.1,0.3,0.4,0.2,0.7l-1.8,3.7
			c-0.1,0.3-0.3,0.5-0.4,0.8C363.8,197.8,363.6,197.9,363.4,197.9z M83.9,195.8c-0.2,0-0.3-0.1-0.4-0.2c-1.4-2-2.3-3.5-2.7-4.3
			c-0.1-0.2,0-0.5,0.2-0.7c0.2-0.1,0.5,0,0.7,0.2c0.4,0.7,1.3,2.2,2.7,4.2c0.2,0.2,0.1,0.5-0.1,0.7C84.1,195.8,84,195.8,83.9,195.8z
			 M367.9,188.9c-0.1,0-0.2,0-0.2-0.1c-0.2-0.1-0.3-0.4-0.2-0.7l2.2-4.5c0.1-0.2,0.4-0.3,0.7-0.2c0.2,0.1,0.3,0.4,0.2,0.7l-2.2,4.5
			C368.3,188.8,368.1,188.9,367.9,188.9z M79.7,186.9c-0.3,0-0.5-0.2-0.5-0.5c0-0.3,0-0.7,0-1c0-1.3,0.2-2.7,0.7-3.9l0.1-0.2
			c0.1-0.3,0.4-0.4,0.6-0.3c0.3,0.1,0.4,0.4,0.3,0.6l-0.1,0.2c-0.4,1.2-0.6,2.4-0.6,3.6c0,0.3,0,0.6,0,0.9
			C80.2,186.6,80,186.8,79.7,186.9C79.7,186.9,79.7,186.9,79.7,186.9z M372.1,179.9c0,0-0.1,0-0.1,0c-0.3-0.1-0.4-0.3-0.4-0.6
			c0.2-0.8,0.3-1.6,0.3-2.4c0-0.8-0.1-1.6-0.3-2.4c-0.1-0.3,0.1-0.5,0.4-0.6c0.3-0.1,0.5,0.1,0.6,0.4c0.2,0.8,0.3,1.7,0.3,2.6
			c0,0.9-0.1,1.7-0.3,2.6C372.5,179.7,372.3,179.9,372.1,179.9z M83,177.8c-0.1,0-0.3,0-0.4-0.1c-0.2-0.2-0.2-0.5,0-0.7
			c1-1.1,2.3-1.9,3.6-2.5l0.7-0.3c0.3-0.1,0.5,0,0.7,0.3c0.1,0.3,0,0.5-0.3,0.7l-0.7,0.3c-1.2,0.6-2.4,1.3-3.3,2.3
			C83.3,177.7,83.1,177.8,83,177.8z M91.8,173c-0.2,0-0.4-0.1-0.5-0.3c-0.1-0.3,0-0.5,0.3-0.7l4.6-2c0.3-0.1,0.5,0,0.7,0.3
			c0.1,0.3,0,0.5-0.3,0.7l-4.6,2C91.9,173,91.8,173,91.8,173z M370,170.4c-0.2,0-0.3-0.1-0.4-0.2c-1-1.3-2.2-2.3-3.6-3.1
			c-0.2-0.1-0.3-0.4-0.2-0.7c0.1-0.2,0.4-0.3,0.7-0.2c1.5,0.8,2.9,2,4,3.3c0.2,0.2,0.1,0.5-0.1,0.7
			C370.2,170.4,370.1,170.4,370,170.4z M103.3,169.8C103.3,169.8,103.2,169.8,103.3,169.8c-0.8-0.1-1.5-0.1-2.2-0.1
			c-0.3,0-0.5-0.2-0.5-0.5c0-0.3,0.2-0.5,0.5-0.5c0.5,0,1,0,1.6,0c-0.2-0.7-0.3-1.4-0.4-2.1c-0.1-0.3,0.1-0.5,0.4-0.6
			c0.3-0.1,0.5,0.1,0.6,0.4c0.2,0.9,0.4,1.8,0.6,2.7c0,0.2,0,0.3-0.1,0.5C103.6,169.7,103.4,169.8,103.3,169.8z M361.4,165.4
			l0.1-0.5L361.4,165.4c-1.6-0.5-3.2-0.9-4.8-1.3c-0.3-0.1-0.4-0.3-0.4-0.6c0.1-0.3,0.3-0.4,0.6-0.4c1.6,0.4,3.2,0.8,4.7,1.3l0,0.5
			L361.4,165.4z M322.7,164.1c-0.2,0-0.4-0.2-0.5-0.4c-0.3-1.5-0.8-2.9-1.7-4.1l-0.2-0.2c-0.2-0.2-0.1-0.5,0.1-0.7
			c0.2-0.2,0.5-0.1,0.7,0.1l0.2,0.3c0.9,1.4,1.5,2.9,1.8,4.5C323.2,163.8,323,164,322.7,164.1C322.7,164.1,322.7,164.1,322.7,164.1z
			 M326.9,163.2c-0.2,0-0.4-0.2-0.5-0.4c-0.1-0.3,0.1-0.5,0.4-0.6c1.6-0.3,3.3-0.6,5-0.7c0.3,0,0.5,0.2,0.6,0.4
			c0,0.3-0.2,0.5-0.4,0.6C330.3,162.7,328.6,162.9,326.9,163.2C327,163.2,327,163.2,326.9,163.2z M351.8,163.2
			C351.8,163.2,351.7,163.2,351.8,163.2c-1.7-0.3-3.4-0.5-5-0.7c-0.3,0-0.5-0.3-0.4-0.5c0-0.3,0.3-0.5,0.5-0.4
			c1.7,0.2,3.3,0.4,5,0.7c0.3,0,0.5,0.3,0.4,0.6C352.2,163,352,163.2,351.8,163.2z M336.9,162.2c-0.3,0-0.5-0.2-0.5-0.5
			c0-0.3,0.2-0.5,0.5-0.5c0.9,0,1.8-0.1,2.6,0c0.8,0,1.7,0,2.5,0c0.3,0,0.5,0.2,0.5,0.5c0,0.3-0.2,0.5-0.5,0.5c-0.8,0-1.7-0.1-2.5,0
			C338.6,162.1,337.7,162.1,336.9,162.2C336.9,162.2,336.9,162.2,336.9,162.2z M102,162.1c-0.3,0-0.5-0.2-0.5-0.5
			c-0.2-1.7-0.3-3.3-0.3-5c0-0.3,0.2-0.5,0.5-0.5c0.3,0,0.5,0.2,0.5,0.5c0,1.7,0.1,3.3,0.3,4.9C102.5,161.8,102.3,162.1,102,162.1
			C102,162.1,102,162.1,102,162.1z M292.7,157.1c-0.2,0-0.4-0.1-0.5-0.3c-0.1-0.3,0-0.5,0.3-0.6c1.6-0.6,3.2-1.1,4.8-1.5
			c0.3-0.1,0.5,0.1,0.6,0.4c0.1,0.3-0.1,0.5-0.4,0.6c-1.6,0.4-3.2,0.9-4.7,1.4C292.8,157.1,292.7,157.1,292.7,157.1z M317.1,156.2
			c-0.1,0-0.2,0-0.2-0.1c-0.7-0.4-1.4-0.7-2.2-1c-0.5-0.1-1-0.3-1.5-0.3c-0.1,0-0.4-0.1-0.9-0.1c-0.3,0-0.5-0.3-0.4-0.6
			c0-0.3,0.3-0.5,0.6-0.4c0.4,0.1,0.7,0.1,0.9,0.1c0.5,0.1,1.1,0.2,1.6,0.4c0.8,0.3,1.7,0.6,2.4,1c0.2,0.1,0.3,0.4,0.2,0.7
			C317.4,156.1,317.3,156.2,317.1,156.2z M288.9,155.7c-0.1,0-0.3-0.1-0.4-0.2l-1.8-2.2c-0.1-0.2-0.1-0.4,0-0.6
			c0.1-0.2,0.3-0.3,0.5-0.2c0.7,0.2,1.4,0.2,2,0.3c0.3,0,0.5,0.2,0.5,0.5c0,0.3-0.2,0.5-0.5,0.5c-0.3,0-0.6,0-0.9-0.1l1,1.2
			c0.2,0.2,0.1,0.5-0.1,0.7C289.1,155.7,289,155.7,288.9,155.7z M302.4,154.8c-0.2,0-0.5-0.2-0.5-0.4c0-0.3,0.2-0.5,0.4-0.6
			c1.7-0.2,3.4-0.3,5-0.3c0,0,0,0,0,0c0.3,0,0.5,0.2,0.5,0.5c0,0.3-0.2,0.5-0.5,0.5C305.7,154.4,304.1,154.6,302.4,154.8
			C302.4,154.8,302.4,154.8,302.4,154.8z M294.1,152.9c-0.2,0-0.4-0.1-0.5-0.3c-0.1-0.3,0-0.5,0.3-0.7c0.8-0.3,1.5-0.7,2.2-1.2
			c0,0,0.7-0.5,2.1-1.3c0.2-0.1,0.5,0,0.7,0.2c0.1,0.2,0,0.5-0.2,0.7c-1.3,0.7-2,1.2-2,1.2c-0.7,0.5-1.5,1-2.4,1.3
			C294.3,152.9,294.2,152.9,294.1,152.9z M101.9,152.1C101.9,152.1,101.9,152.1,101.9,152.1c-0.3,0-0.5-0.3-0.5-0.5
			c0.1-1.7,0.3-3.4,0.6-5c0-0.3,0.3-0.5,0.6-0.4c0.3,0,0.5,0.3,0.4,0.6c-0.3,1.6-0.5,3.2-0.6,4.9
			C102.4,151.9,102.1,152.1,101.9,152.1z M302.9,148.2c-0.2,0-0.4-0.1-0.5-0.3c-0.1-0.3,0-0.5,0.2-0.7c1.5-0.7,3-1.3,4.6-2
			c0.3-0.1,0.5,0,0.6,0.3c0.1,0.3,0,0.5-0.3,0.6c-1.6,0.6-3.1,1.3-4.6,1.9C303.1,148.1,303,148.2,302.9,148.2z M312.2,144.5
			c-0.2,0-0.4-0.1-0.5-0.3c-0.1-0.3,0.1-0.5,0.3-0.6c1.5-0.5,3.2-1,4.8-1.5c0.3-0.1,0.5,0.1,0.6,0.3c0.1,0.3-0.1,0.5-0.3,0.6
			c-1.6,0.5-3.2,1-4.7,1.5C312.3,144.5,312.3,144.5,312.2,144.5z M103.9,142.4c-0.1,0-0.2,0-0.2-0.1c-0.2-0.1-0.3-0.4-0.2-0.7
			c0.8-1.5,2-2.9,3.4-3.9c0.2-0.2,0.5-0.1,0.7,0.1c0.2,0.2,0.1,0.5-0.1,0.7c-1.3,1-2.3,2.2-3.1,3.6
			C104.3,142.3,104.1,142.4,103.9,142.4z M321.8,141.7c-0.2,0-0.4-0.2-0.5-0.4c-0.1-0.3,0.1-0.5,0.4-0.6c1-0.2,2-0.5,3.1-0.7
			c0.6-0.1,1.1-0.3,1.7-0.5c0.3-0.1,0.5,0,0.7,0.3c0.1,0.3,0,0.5-0.3,0.7c-0.6,0.2-1.2,0.4-1.8,0.6c-1,0.2-2.1,0.5-3,0.7
			C321.9,141.7,321.9,141.7,321.8,141.7z M121.9,138.2c-0.1,0-0.1,0-0.2,0l-0.5-0.2c-0.3-0.1-0.4-0.4-0.3-0.6
			c0.1-0.2,0.3-0.3,0.5-0.3c0-0.1,0-0.1,0-0.2c0-1.2,0-2.4,0.1-3.6c0-0.3,0.3-0.5,0.5-0.5c0.3,0,0.5,0.3,0.5,0.5
			c-0.1,1.2-0.1,2.4-0.1,3.6c0,0.3,0,0.6,0,0.9c0,0.2-0.1,0.3-0.2,0.4C122.1,138.2,122,138.2,121.9,138.2z M330.7,137.6
			c-0.1,0-0.2,0-0.3-0.1c-0.2-0.2-0.2-0.5,0-0.7c1.1-1.2,1.9-2.6,2.4-4.1c0.1-0.3,0.4-0.4,0.6-0.3c0.3,0.1,0.4,0.4,0.3,0.6
			c-0.5,1.6-1.4,3.2-2.6,4.5C331,137.5,330.9,137.6,330.7,137.6z M116.6,136.6c0,0-0.1,0-0.1,0c-1.5-0.4-3.2-0.4-4.7,0
			c-0.3,0.1-0.5-0.1-0.6-0.4c-0.1-0.3,0.1-0.5,0.4-0.6c1.7-0.4,3.5-0.4,5.2,0c0.3,0.1,0.4,0.3,0.4,0.6
			C117.1,136.4,116.9,136.6,116.6,136.6z M122.7,128.8c0,0-0.1,0-0.1,0c-0.3-0.1-0.4-0.3-0.4-0.6c0-0.2,0.1-0.4,0.1-0.5
			c0.4-1.5,1.1-3,2-4.3c0.2-0.2,0.5-0.3,0.7-0.1c0.2,0.2,0.3,0.5,0.1,0.7c-0.9,1.2-1.5,2.5-1.8,3.9c0,0.1-0.1,0.2-0.1,0.4
			C123.2,128.7,123,128.8,122.7,128.8z M333.7,128.4c-0.2,0-0.5-0.2-0.5-0.4c0-0.2-0.1-0.4-0.1-0.6l-0.8-4.3c0-0.3,0.1-0.5,0.4-0.6
			c0.3,0,0.5,0.1,0.6,0.4l0.8,4.3c0,0.2,0.1,0.4,0.1,0.7C334.3,128.1,334.1,128.4,333.7,128.4C333.8,128.4,333.8,128.4,333.7,128.4z
			 M146.9,122.1c-0.1,0-0.1,0-0.2,0c-0.3-0.1-0.4-0.4-0.3-0.6c0.6-1.5,1.5-2.8,2.6-4l0.3-0.3c0.2-0.2,0.5-0.2,0.7,0
			c0.2,0.2,0.2,0.5,0,0.7l-0.3,0.3c-1,1-1.8,2.3-2.4,3.6C147.3,122,147.1,122.1,146.9,122.1z M142.9,121.9c-0.1,0-0.1,0-0.2,0
			l-4.8-1.5c-0.3-0.1-0.4-0.4-0.3-0.6c0.1-0.3,0.4-0.4,0.6-0.3l4.8,1.5c0.3,0.1,0.4,0.4,0.3,0.6
			C143.3,121.8,143.1,121.9,142.9,121.9z M128.5,121c-0.2,0-0.3-0.1-0.4-0.3c-0.1-0.2,0-0.5,0.2-0.7c1.5-0.8,3.2-1.3,5-1.4
			c0.3,0,0.5,0.2,0.5,0.5c0,0.3-0.2,0.5-0.5,0.5c-1.6,0.1-3.2,0.6-4.6,1.3C128.6,121,128.6,121,128.5,121z M332,118.5
			c-0.2,0-0.4-0.2-0.5-0.4l-0.9-4.9c0-0.3,0.1-0.5,0.4-0.6c0.3-0.1,0.5,0.1,0.6,0.4l0.9,4.9C332.6,118.2,332.4,118.5,332,118.5
			C332.1,118.5,332.1,118.5,332,118.5z M153.3,114.4c-0.1,0-0.3,0-0.4-0.1c-0.2-0.2-0.2-0.5,0-0.7l3.5-3.6c0.2-0.2,0.5-0.2,0.7,0
			c0.2,0.2,0.2,0.5,0,0.7l-3.5,3.6C153.5,114.4,153.4,114.4,153.3,114.4z M330.3,108.7c-0.2,0-0.4-0.2-0.5-0.4l-0.1-0.8
			c-0.2-1.3-0.7-2.6-1.4-3.8c-0.1-0.2-0.1-0.5,0.2-0.7c0.2-0.1,0.5-0.1,0.7,0.2c0.8,1.3,1.3,2.6,1.5,4.1l0.1,0.8
			C330.8,108.4,330.6,108.6,330.3,108.7C330.3,108.7,330.3,108.7,330.3,108.7z M160.7,107.8c-0.2,0-0.4-0.1-0.4-0.3
			c-0.1-0.2,0-0.5,0.2-0.7c0.6-0.3,1.2-0.5,1.8-0.7c-0.3-0.5-0.7-1-1-1.5c-0.1-0.2-0.1-0.5,0.2-0.7c0.2-0.1,0.5-0.1,0.7,0.2
			c0.4,0.7,0.9,1.4,1.4,2c0.1,0.1,0.1,0.3,0.1,0.5c-0.1,0.2-0.2,0.3-0.4,0.3c-0.8,0.2-1.5,0.5-2.3,0.8
			C160.8,107.8,160.8,107.8,160.7,107.8z M297.3,106.7c-0.1,0-0.2,0-0.2-0.1c-0.2-0.1-0.3-0.3-0.3-0.4c0-1.6,0.1-3.3,0.3-5
			c0-0.3,0.3-0.5,0.5-0.5c0.3,0,0.5,0.3,0.5,0.5c-0.1,1.7-0.2,3.4-0.3,5l0,0c0,0.2-0.1,0.3-0.2,0.4
			C297.5,106.7,297.4,106.7,297.3,106.7z M301.7,104.4c-0.2,0-0.4-0.1-0.4-0.3c-0.1-0.2,0-0.5,0.2-0.7c1.5-0.7,3-1.4,4.6-2.1
			c0.3-0.1,0.5,0,0.7,0.3c0.1,0.3,0,0.5-0.3,0.7c-1.5,0.6-3,1.3-4.5,2.1C301.9,104.3,301.8,104.4,301.7,104.4z M159.2,100.6
			c-0.2,0-0.4-0.1-0.4-0.3c-0.8-1.5-1.5-3-2.1-4.6c-0.1-0.3,0-0.5,0.3-0.7c0.3-0.1,0.5,0,0.7,0.3c0.6,1.5,1.3,3,2.1,4.5
			c0.1,0.2,0,0.5-0.2,0.7C159.3,100.6,159.3,100.6,159.2,100.6z M310.9,100.4c-0.2,0-0.4-0.1-0.5-0.3c-0.1-0.3,0-0.5,0.3-0.6
			c2.3-0.8,4-1.3,4.8-1.5c0.3-0.1,0.5,0.1,0.6,0.4c0.1,0.3-0.1,0.5-0.4,0.6c-0.8,0.2-2.4,0.7-4.7,1.5
			C311,100.4,311,100.4,310.9,100.4z M325.3,100.4c-0.1,0-0.2,0-0.3-0.1l-0.2-0.1c-0.8-0.5-1.8-1-2.7-1.3c-0.5-0.2-1-0.3-1.5-0.4
			c-0.3,0-0.5-0.3-0.4-0.6c0-0.3,0.3-0.5,0.6-0.4c0.6,0.1,1.1,0.2,1.7,0.4c1.1,0.3,2.1,0.8,3,1.4l0.2,0.1c0.2,0.2,0.3,0.5,0.1,0.7
			C325.6,100.3,325.4,100.4,325.3,100.4z M298.1,96.7C298,96.7,298,96.7,298.1,96.7c-0.3,0-0.5-0.3-0.5-0.6c0.2-1.6,0.5-3.3,0.7-5
			c0-0.3,0.3-0.5,0.6-0.4c0.3,0,0.5,0.3,0.4,0.6c-0.3,1.7-0.5,3.3-0.7,4.9C298.5,96.6,298.3,96.7,298.1,96.7z M155.4,91.3
			c-0.2,0-0.4-0.1-0.5-0.4c-0.5-1.7-1-3.3-1.3-4.9c-0.1-0.3,0.1-0.5,0.4-0.6c0.3-0.1,0.5,0.1,0.6,0.4c0.3,1.6,0.8,3.2,1.3,4.8
			c0.1,0.3-0.1,0.5-0.3,0.6C155.5,91.3,155.4,91.3,155.4,91.3z M299.7,86.9c0,0-0.1,0-0.1,0c-0.3-0.1-0.4-0.3-0.4-0.6
			c0.3-1.6,0.7-3.3,1.1-4.9c0.1-0.3,0.3-0.4,0.6-0.4c0.3,0.1,0.4,0.3,0.4,0.6c-0.4,1.6-0.8,3.3-1.1,4.9
			C300.2,86.7,300,86.9,299.7,86.9z M153.6,81.5C153.6,81.5,153.6,81.5,153.6,81.5c-0.3,0-0.5-0.3-0.5-0.5c0.2-1.7,0.7-3.4,1.6-4.9
			c0.1-0.2,0.4-0.3,0.7-0.2c0.2,0.1,0.3,0.4,0.2,0.7c-0.8,1.4-1.3,2.9-1.4,4.5C154.1,81.4,153.9,81.5,153.6,81.5z M302,77.2
			c0,0-0.1,0-0.1,0c-0.3-0.1-0.4-0.3-0.4-0.6c0.4-1.3,0.7-2.7,1.2-4.1c0.1-0.2,0.1-0.5,0.2-0.7c0.1-0.3,0.3-0.4,0.6-0.4
			c0.3,0.1,0.4,0.3,0.4,0.6c-0.1,0.3-0.1,0.5-0.2,0.8c-0.4,1.4-0.8,2.7-1.2,4.1C302.5,77,302.3,77.2,302,77.2z M158.5,73.2
			c-0.2,0-0.3-0.1-0.4-0.2c-0.2-0.2-0.1-0.5,0.1-0.7c1.4-1,3.1-1.7,4.8-2c0.3,0,0.5,0.1,0.6,0.4c0,0.3-0.1,0.5-0.4,0.6
			c-1.6,0.3-3.1,0.9-4.4,1.8C158.7,73.1,158.6,73.2,158.5,73.2z M168,70.9c-0.3,0-0.5-0.2-0.5-0.5c0-0.3,0.2-0.5,0.5-0.5l0.1,0
			c-0.4-1.1-0.8-2.2-1.2-3.3c-0.1-0.3,0.1-0.5,0.3-0.6c0.3-0.1,0.5,0.1,0.6,0.3c0.4,1.3,0.9,2.6,1.4,3.9c0.1,0.1,0,0.3,0,0.5
			c-0.1,0.1-0.2,0.2-0.4,0.2L168,70.9C168,70.9,168,70.9,168,70.9z M303.4,67.4c-0.2,0-0.4-0.2-0.5-0.4c-0.3-1.6-1-3-2-4.3
			c-0.2-0.2-0.1-0.5,0.1-0.7c0.2-0.2,0.5-0.1,0.7,0.1c1,1.4,1.8,3,2.2,4.7c0.1,0.3-0.1,0.5-0.4,0.6
			C303.5,67.4,303.5,67.4,303.4,67.4z M199.3,67.4c-0.2,0-0.4-0.1-0.5-0.3c-0.2-0.5-0.8-2.1-1.4-4.9c-0.1-0.3,0.1-0.5,0.4-0.6
			c0.3-0.1,0.5,0.1,0.6,0.4c0.6,2.7,1.2,4.3,1.4,4.7c0.1,0.3,0,0.5-0.3,0.7C199.4,67.3,199.3,67.4,199.3,67.4z M201.9,63.9
			c-0.1,0-0.3,0-0.4-0.1c-0.2-0.2-0.2-0.5,0-0.7c0.7-0.7,1.5-1.3,2.3-1.8c0.6-0.4,1.3-0.7,2.1-1c0.3-0.1,0.5,0,0.6,0.3
			c0.1,0.3,0,0.5-0.3,0.6c-0.7,0.2-1.3,0.5-1.9,0.9c-0.8,0.5-1.5,1-2.1,1.7C202.2,63.8,202.1,63.9,201.9,63.9z M166.2,62.1
			c-0.2,0-0.4-0.2-0.5-0.4c-0.1-0.4-0.1-0.7-0.1-0.8c-0.1-0.5-0.1-1.1-0.1-1.6c0-0.9,0.1-1.9,0.3-2.8c0.1-0.3,0.3-0.4,0.6-0.4
			c0.3,0.1,0.4,0.3,0.4,0.6c-0.2,0.8-0.3,1.7-0.3,2.6c0,0.5,0,1,0.1,1.4c0,0.1,0.1,0.4,0.1,0.8C166.8,61.7,166.6,62,166.2,62.1
			C166.3,62,166.3,62.1,166.2,62.1z M297.6,59.7c-0.1,0-0.2,0-0.2-0.1c-0.5-0.3-1-0.5-1.5-0.7l-3.1-1.1c-0.3-0.1-0.4-0.4-0.3-0.6
			c0.1-0.3,0.4-0.4,0.6-0.3l3.1,1.1c0.6,0.2,1.1,0.4,1.7,0.7c0.2,0.1,0.3,0.4,0.2,0.7C297.9,59.6,297.8,59.7,297.6,59.7z
			 M208.4,58.8c-0.2,0-0.4-0.1-0.5-0.3c-0.2-0.6-0.3-1.2-0.4-1.7c-0.2-1.1-0.3-2.2-0.4-3.3c0-0.3,0.2-0.5,0.4-0.5
			c0.3,0,0.5,0.2,0.5,0.4c0.1,1.1,0.2,2.2,0.4,3.2c0.1,0.5,0.2,1.1,0.4,1.6c0.1,0.3-0.1,0.5-0.3,0.6
			C208.5,58.8,208.5,58.8,208.4,58.8z M257.9,57.9c-0.2,0-0.3-0.1-0.4-0.2c-0.1-0.1-0.1-0.2-0.2-0.3c-0.2-0.2-0.1-0.5,0.1-0.7
			c0.1,0,0.1-0.1,0.2-0.1c0.5-1.3,1.3-2.5,2.2-3.6c0.2-0.2,0.5-0.2,0.7,0c0.2,0.2,0.2,0.5,0,0.7c-1,1.1-1.8,2.4-2.2,3.8
			C258.3,57.7,258.2,57.9,257.9,57.9C258,57.9,258,57.9,257.9,57.9z M197.1,57.6c-0.2,0-0.5-0.2-0.5-0.4c-0.2-1.6-0.8-3.1-1.7-4.4
			c-0.2-0.2-0.1-0.5,0.1-0.7c0.2-0.2,0.5-0.1,0.7,0.1c1,1.5,1.6,3.1,1.8,4.8C197.6,57.3,197.5,57.6,197.1,57.6
			C197.2,57.6,197.1,57.6,197.1,57.6z M288.2,56.2c-0.1,0-0.1,0-0.2,0l-4.7-1.7c-0.3-0.1-0.4-0.4-0.3-0.6c0.1-0.3,0.4-0.4,0.6-0.3
			l4.7,1.7c0.3,0.1,0.4,0.4,0.3,0.6C288.6,56.1,288.4,56.2,288.2,56.2z M254.2,54.2c-0.1,0-0.2,0-0.3-0.1c-0.8-0.5-1.6-0.8-2.5-1.1
			c-0.7-0.2-1.3-0.3-2-0.4c-0.3,0-0.5-0.3-0.4-0.6c0-0.3,0.3-0.5,0.6-0.4c0.7,0.1,1.5,0.2,2.2,0.5c0.9,0.3,1.8,0.7,2.7,1.2
			c0.2,0.1,0.3,0.5,0.2,0.7C254.5,54.1,254.3,54.2,254.2,54.2z M278.8,52.9c-0.1,0-0.1,0-0.2,0l-4.7-1.7c-0.3-0.1-0.4-0.4-0.3-0.6
			c0.1-0.3,0.4-0.4,0.6-0.3l4.7,1.7c0.3,0.1,0.4,0.4,0.3,0.6C279.2,52.8,279,52.9,278.8,52.9z M241.6,52.9c-0.1,0-0.3-0.1-0.4-0.2
			c-0.1-0.1-0.1-0.3-0.1-0.4c0.2-0.6,0.4-1.3,0.6-2.1c0.1-0.3,0.4-0.4,0.6-0.3c0.3,0.1,0.4,0.4,0.3,0.6c-0.1,0.5-0.3,0.9-0.4,1.4
			l2.2-0.1c0.3,0,0.5,0.2,0.5,0.5c0,0.3-0.2,0.5-0.5,0.5L241.6,52.9C241.6,52.9,241.6,52.9,241.6,52.9z M168.5,52.6
			c-0.1,0-0.2,0-0.3-0.1c-0.2-0.2-0.3-0.5-0.1-0.7l0.1-0.2c1.1-1.3,2.4-2.3,3.9-3.1c0.2-0.1,0.5,0,0.7,0.2c0.1,0.2,0,0.5-0.2,0.7
			c-1.4,0.7-2.6,1.6-3.6,2.8l-0.1,0.2C168.8,52.6,168.6,52.6,168.5,52.6z M264.3,51c-0.2,0-0.4-0.1-0.5-0.3c-0.1-0.3,0-0.5,0.3-0.7
			c1.6-0.7,3.3-1,5.1-0.9c0.3,0,0.5,0.2,0.5,0.5c0,0.3-0.2,0.5-0.5,0.5c-1.6-0.1-3.2,0.2-4.7,0.9C264.5,51,264.4,51,264.3,51z
			 M191.8,49.5c-0.1,0-0.2,0-0.3-0.1c-0.8-0.5-1.7-0.9-2.6-1.2c-0.6-0.2-1.3-0.3-1.9-0.4c-0.3,0-0.5-0.3-0.4-0.6
			c0-0.3,0.3-0.5,0.6-0.4c0.7,0.1,1.4,0.2,2.1,0.4c1,0.3,1.9,0.7,2.8,1.3c0.2,0.1,0.3,0.5,0.2,0.7C192.1,49.4,192,49.5,191.8,49.5z
			 M207.3,48.9c-0.3,0-0.5-0.2-0.5-0.5c0-0.6,0-1.1,0-1.7c0-1.1,0-2.3,0.1-3.4c0-0.3,0.3-0.5,0.5-0.5c0.3,0,0.5,0.2,0.5,0.5
			c-0.1,1.1-0.1,2.2-0.1,3.3c0,0.5,0,1.1,0,1.6C207.8,48.6,207.6,48.8,207.3,48.9C207.3,48.9,207.3,48.9,207.3,48.9z M177.2,48.3
			c-0.3,0-0.5-0.2-0.5-0.5c0-0.3,0.2-0.5,0.5-0.5l5-0.3c0.3,0,0.5,0.2,0.5,0.5c0,0.3-0.2,0.5-0.5,0.5L177.2,48.3
			C177.2,48.3,177.2,48.3,177.2,48.3z M243.8,46.1c-0.1,0-0.1,0-0.2,0c-0.3-0.1-0.4-0.4-0.3-0.6c0.6-1.5,1.2-3.1,1.9-4.7
			c0.1-0.3,0.4-0.4,0.7-0.3c0.3,0.1,0.4,0.4,0.3,0.7c-0.7,1.6-1.3,3.1-1.8,4.6C244.2,46,244,46.1,243.8,46.1z M207.8,38.9
			C207.8,38.9,207.7,38.9,207.8,38.9c-0.3,0-0.5-0.3-0.5-0.6c0.2-1.6,0.4-3.3,0.7-5c0-0.3,0.3-0.5,0.6-0.4c0.3,0,0.5,0.3,0.4,0.6
			c-0.3,1.6-0.5,3.3-0.7,4.9C208.3,38.7,208,38.9,207.8,38.9z M247.7,36.9c-0.1,0-0.1,0-0.2-0.1c-0.2-0.1-0.4-0.4-0.2-0.7l0.4-0.8
			c0.6-1.2,1-2.4,1.1-3.7c0-0.3,0.3-0.5,0.5-0.4c0.3,0,0.5,0.3,0.4,0.5c-0.1,1.4-0.5,2.8-1.2,4.1l-0.4,0.8
			C248.1,36.8,247.9,36.9,247.7,36.9z M209.6,29c0,0-0.1,0-0.1,0c-0.3-0.1-0.4-0.3-0.4-0.6c0.4-1.6,0.9-3.3,1.4-4.8
			c0.1-0.3,0.4-0.4,0.6-0.3c0.3,0.1,0.4,0.4,0.3,0.6c-0.5,1.6-1,3.2-1.4,4.8C210,28.9,209.8,29,209.6,29z M248.7,27.3
			c-0.2,0-0.4-0.1-0.5-0.3c-0.5-1.5-1.4-2.9-2.5-4c-0.2-0.2-0.2-0.5,0-0.7c0.2-0.2,0.5-0.2,0.7,0c1.2,1.2,2.1,2.8,2.7,4.4
			c0.1,0.3,0,0.5-0.3,0.6C248.8,27.3,248.8,27.3,248.7,27.3z M242,20.2c-0.1,0-0.2,0-0.2-0.1l-4.4-2.4c-0.2-0.1-0.3-0.4-0.2-0.7
			c0.1-0.2,0.4-0.3,0.7-0.2l4.4,2.4c0.2,0.1,0.3,0.4,0.2,0.7C242.4,20.1,242.2,20.2,242,20.2z M212.6,19.5c-0.1,0-0.1,0-0.2,0
			c-0.3-0.1-0.4-0.4-0.3-0.7c0.3-0.8,0.5-1.2,0.6-1.4c0.5-1.1,1.2-2.2,2.1-3.1c0.2-0.2,0.5-0.2,0.7,0c0.2,0.2,0.2,0.5,0,0.7
			c-0.8,0.8-1.4,1.8-1.9,2.8c0,0.1-0.3,0.6-0.6,1.3C213,19.4,212.8,19.5,212.6,19.5z M233.3,15.3c-0.1,0-0.2,0-0.2-0.1l-4.4-2.4
			c-0.2-0.1-0.3-0.4-0.2-0.7c0.1-0.2,0.4-0.3,0.7-0.2l0.3,0.1l4.1,2.3c0.2,0.1,0.3,0.4,0.2,0.7C233.7,15.2,233.5,15.3,233.3,15.3z
			 M219.3,12.4c-0.2,0-0.4-0.1-0.5-0.3c-0.1-0.3,0-0.5,0.3-0.7c0.3-0.1,0.6-0.2,0.9-0.3c1.2-0.4,2.4-0.6,3.7-0.6c0.2,0,0.4,0,0.5,0
			c0.3,0,0.5,0.2,0.5,0.5c0,0.3-0.2,0.5-0.5,0.5c-0.2,0-0.3,0-0.5,0c-1.1,0-2.3,0.2-3.4,0.5c-0.3,0.1-0.5,0.2-0.8,0.3
			C219.4,12.4,219.3,12.4,219.3,12.4z"/>
	</g>
</g>
</svg>
