<?xml version="1.0" encoding="utf-8"?>
<!-- Generator: Adobe Illustrator 27.0.0, SVG Export Plug-In . SVG Version: 6.00 Build 0)  -->
<svg version="1.1" id="Layer_1" xmlns="http://www.w3.org/2000/svg" xmlns:xlink="http://www.w3.org/1999/xlink" x="0px" y="0px"
	 viewBox="0 0 375.1 399.6" style="enable-background:new 0 0 375.1 399.6;" xml:space="preserve">
<style type="text/css">
	.st0{fill:#FFFFFF;}
	.st1{fill:#FF591B;}
	.st2{fill:#F8C90A;}
	.st3{fill:#3A231B;}
	.st4{opacity:0.3;fill:#FF591B;}
	.st5{fill:#FFC5DD;}
	.st6{fill:#F02880;}
	.st7{opacity:0.3;fill:#F02880;}
	.st8{fill:#0086C3;}
	.st9{fill:#47D0F2;}
	.st10{opacity:0.3;fill:#0086C3;}
</style>
<g>
	<g>
		<path class="st0" d="M359.7,268.6l-1.2-3.9c-0.3-0.9-0.7-1.8-1.2-2.5l-4.6-14.7c0-0.9-0.2-1.9-0.5-2.8l-6.4-20.4
			c-0.3-0.9-0.7-1.8-1.2-2.5l-4.8-15.4c0-0.9-0.2-1.9-0.5-2.8l-6.6-21.1c-0.3-0.9-0.7-1.8-1.2-2.5l-5.1-16.2c0-0.9-0.2-1.9-0.5-2.8
			l-6.9-22c-0.3-0.9-0.7-1.8-1.2-2.6l-5.3-17.1c0-0.9-0.2-1.9-0.5-2.8l-7.2-23c-0.3-0.9-0.7-1.8-1.2-2.5L299,75.6l34.4-19.2
			c5-2.8,7-9,4.4-14.2l-12.7-25.9c-1.7-3.6-5.3-5.9-9.3-6c-0.1,0-0.3,0-0.4,0c-3.8,0-7.3,2-9.3,5.3l-18.6,31.1l-7.4-17.2
			c-1.6-3.8-5.3-6.3-9.4-6.5c-0.2,0-0.4,0-0.6,0c-3.9,0-7.5,2.1-9.4,5.5L252,44.2c-2.6,4.5-1.5,10.2,2.4,13.6l18.7,15.8l-51.2,124.1
			l-26.5-73.4c1.6-0.3,3.1-0.9,4.4-1.9c3.3-2.4,5-6.5,4.3-10.6L202,99.5l8.9-8.7c2.9-2.9,4-7.2,2.7-11.1c-1.3-3.9-4.7-6.8-8.7-7.4
			l-12.3-1.8l-5.5-11.2c-1.8-3.7-5.6-6-9.7-6c-4.1,0-7.9,2.3-9.7,6l-5.5,11.2l-12.3,1.8c-4.1,0.6-7.5,3.4-8.7,7.4
			c-1.3,3.9-0.2,8.2,2.7,11.1l8.9,8.7l-2.1,12.3c-0.7,4.1,1,8.2,4.3,10.6c1.3,1,2.8,1.6,4.4,1.9L138,183.3L63.9,80.1
			c1.4-6.8,13.3-17.6,24.6-24c4.7-2.6,6.7-8.3,4.8-13.3l-3.7-9.6c-1.6-4.3-5.7-6.9-10.1-6.9c-1,0-2,0.1-3,0.4
			c-6.8,1.9-13,5.5-18.3,10.5c-2.2-3.9-4.9-7.4-8.1-10.5c-2.1-2-4.8-3-7.5-3c-2.4,0-4.9,0.8-6.9,2.5l-5.8,4.9
			c-3.7,3.1-4.8,8.1-3.1,12.4c-0.1,0-0.1,0-0.2,0c-5,0-9.4,3.5-10.5,8.4l-1.5,6.7C13.2,63.9,16,69.2,21,71.1
			c8.5,3.3,16.3,9.2,16.8,11.6c0,0.5,0,1,0.1,1.5L25.4,261.4c-0.3,3.6,0.2,7.4,1.5,10.8l-0.2,0.1c3.3,10.2,12.2,17.4,22.8,18.5
			c4.8,0.5,9.6,0.7,14.1,0.8c0.2,0,0.4,0,0.7,0c1.3,0.5,2.6,0.8,4,0.8c0.1,0,0.1,0,0.2,0c5.2-0.1,10.6-0.4,15.9-1.1
			c1.5-0.2,2.9-0.7,4.2-1.4c1.8-0.3,3.5-0.6,5.3-0.9c0.7,0.1,1.4,0.2,2.2,0.2c0.7,0,1.5-0.1,2.2-0.2c0.6-0.1,1.2-0.3,1.8-0.4
			L83.5,334c-1.4,3.9-2,7.9-1.9,12l-1.1,0c0.4,12.8,8.4,24.1,20.3,28.8c5.9,2.3,11.8,4.4,17.5,6c3.5,1.1,7.2,2,10.9,2.9
			c13.9,3.3,28.3,5.1,42.6,5.5l2.3,0l1.4,0l2,0c0.9,0,1.8,0,2.7,0c0.9,0,1.8,0,2.7-0.1c0,0,0.9,0,1.2,0l0.9,0c1.2,0,2.4-0.1,3.6-0.2
			c0.6,0,1.1-0.1,1.7-0.1l0.2,0c1.1-0.1,2.3-0.2,3.4-0.2c0.5,0,1-0.1,1.5-0.1l0.5,0c1.1-0.1,2.2-0.2,3.3-0.3c0.5,0,0.9-0.1,1.4-0.2
			l1-0.1c0.9-0.1,1.9-0.2,2.8-0.3c0.3,0,1.6-0.2,1.6-0.2c2.6-0.4,5-0.8,7.3-1.2l0.7-0.1c0.8-0.1,1.5-0.3,2.2-0.4l1.1-0.2
			c0.5-0.1,1-0.2,1.4-0.3c0.7-0.1,1.4-0.3,2.1-0.5l0.8-0.2c0.6-0.1,1.1-0.2,1.7-0.4c0.8-0.2,1.6-0.4,2.4-0.6l0.2-0.1
			c0.6-0.2,1.2-0.3,1.9-0.5c0.7-0.2,1.5-0.4,2.2-0.6c0.7-0.2,1.4-0.4,2.1-0.6c0.7-0.2,1.4-0.4,2-0.6c0.7-0.2,1.5-0.4,2.2-0.7
			c0,0,1.2-0.4,1.8-0.5c0.8-0.3,1.6-0.5,2.4-0.8c0,0,1.1-0.3,1.5-0.5c1-0.3,1.9-0.6,2.9-1l0.8-0.3c2.5-0.9,4.9-1.8,7.2-2.7
			c6.4-2.5,11.6-6.9,15.3-12.8c5.3-8.5,6.5-18.8,3.1-28.2l-7-19.5c2.3,0.2,4.6,0.4,6.9,0.6l2,0.1c2.8,0.1,5.3,0.2,7.7,0.2
			c0.7,0,1.3,0,2,0c0,0,0,0,0,0c19.6,0,39.1-3.3,57.9-9.8c4.7-1.6,8.9-4.5,12.3-8.2C360.3,289.8,362.8,278.8,359.7,268.6z"/>
	</g>
	<g>
		<polygon class="st1" points="286.1,70.4 315.5,21.1 328.2,47 		"/>
		<polygon class="st1" points="286.1,70.4 270.3,33.8 261.4,49.5 		"/>
		<path class="st2" d="M205.7,265.5l80.4-195.1l62.9,201.4c3,9.5-2.1,19.6-11.5,22.8c-15.4,5.3-37.3,10.4-63.4,8.9
			c-24.6-1.3-44.7-7.9-59-14.4C206,285.1,201.9,274.6,205.7,265.5z"/>
		<g>
			<g>
				<path class="st1" d="M337.9,294.7c-15.4,5.3-37.3,10.4-63.4,8.9c-24.6-1.4-44.7-7.9-59-14.4c-2.8-1.3-5.2-3.2-7-5.5
					c16.9-1.7,37.8-1.9,63.8,0.3c27.5,2.4,53.2-4.8,75.9-16.1l1.2,3.9C352.3,281.3,347.2,291.4,337.9,294.7z"/>
				<path class="st1" d="M341.9,247.9c-20.9,9.3-44.1,14.8-68.6,12.7c-26.6-2.3-48-2-65.1-0.2l10-24.2c15.4-1.1,34-1,56.1,1
					c21.7,1.9,42.3-2.2,61.2-9.6L341.9,247.9z"/>
				<path class="st1" d="M329.1,206.8c-16.8,5.6-34.9,8.5-53.7,6.8c-18.1-1.6-33.8-1.9-47.3-1.4l9.8-23.7
					c11.4-0.1,24.3,0.4,38.6,1.6c16,1.4,31.5-0.5,46.1-4.5L329.1,206.8z"/>
				<path class="st1" d="M315.7,164.1c-12.3,2.7-25.1,3.8-38.3,2.6c-10.8-0.9-20.8-1.5-30-1.6l9.6-23.2c6.7,0.3,13.9,0.7,21.4,1.4
					c10.4,0.9,20.6,0.4,30.4-1.1L315.7,164.1z"/>
				<path class="st1" d="M301.9,119.7c-7.3,0.7-14.8,0.8-22.4,0.1c-4.5-0.4-8.8-0.7-13-1L276,96c1.5,0.1,3,0.2,4.6,0.4
					c4.8,0.4,9.5,0.5,14.2,0.4L301.9,119.7z"/>
			</g>
		</g>
		<path class="st3" d="M286.1,71.9c-0.4,0-0.8-0.2-1.1-0.5c-0.5-0.5-0.6-1.2-0.2-1.8l29.4-49.3c0.3-0.5,0.8-0.8,1.3-0.7
			c0.5,0,1,0.3,1.3,0.8l12.7,25.9c0.4,0.7,0.1,1.6-0.6,2l-42.1,23.5C286.6,71.8,286.3,71.9,286.1,71.9z M315.4,24.2l-25.1,42.2
			l36-20L315.4,24.2z"/>
		<path class="st3" d="M286.1,71.9c-0.3,0-0.7-0.1-1-0.4l-24.7-20.9c-0.5-0.5-0.7-1.3-0.3-1.9l8.9-15.7c0.3-0.5,0.8-0.8,1.4-0.8
			c0.6,0,1.1,0.4,1.3,0.9l15.8,36.6c0.3,0.6,0.1,1.4-0.5,1.8C286.7,71.8,286.4,71.9,286.1,71.9z M263.3,49.2l18.9,15.9l-12.1-28
			L263.3,49.2z"/>
		<path class="st4" d="M337.1,295.5c-14,4.8-33.3,9.4-56.2,9.2c-2.4,0-4.8-0.1-7.2-0.2c-0.7,0-1.3-0.1-2-0.1
			c-12.7-0.8-24.2-3.1-34.3-5.9c-3-0.9-6-1.8-8.7-2.7c-5.2-1.8-9.8-3.7-14-5.5c-6.8-3.1-10.8-9.8-10.8-16.9c0,3.4,24.8,7.4,27.7,7.7
			c31.4,2.8,58-12.8,73.8-36.5c11.7-17.5,17.5-39.5,15-61.7l2.5,7.9l2.7,8.8l10.4,33.4l2.7,8.8l9.7,31.2
			C351.5,282.1,346.5,292.3,337.1,295.5z"/>
		<polygon class="st0" points="286.3,72.9 215.3,289.2 229.3,294.8 		"/>
		<path class="st3" d="M283.1,305.3c-3.1,0-6.1-0.1-9.2-0.2c-20.6-1.1-40.6-6-59.6-14.5c-9.8-4.4-14.3-15.7-10.1-25.7l80.4-195.1
			c0.2-0.6,0.8-1,1.5-0.9c0.6,0,1.2,0.4,1.4,1.1l62.9,201.4c3.2,10.3-2.2,21.2-12.4,24.7C320.2,302.2,301.8,305.3,283.1,305.3z
			 M285.9,74.8L207,266l0,0c-3.5,8.5,0.3,18.1,8.6,21.8c18.6,8.3,38.3,13.1,58.5,14.2c21.3,1.2,42.5-1.8,62.9-8.8
			c8.6-3,13.3-12.2,10.5-21L285.9,74.8z M205.7,265.5L205.7,265.5L205.7,265.5z"/>
	</g>
	<g>
		<path class="st5" d="M52.6,76.5c0,0,7-25.5-10.1-41.9l-5.8,4.9c0,0,19.2,27.6,11.3,39L52.6,76.5z"/>
		<path class="st3" d="M48,79.9c-0.4,0-0.9-0.2-1.2-0.6c-0.4-0.5-0.4-1.2-0.1-1.8c6-8.6-6.1-29.8-11.3-37.3c-0.4-0.6-0.3-1.5,0.3-2
			l5.8-4.9c0.6-0.5,1.4-0.5,2,0.1c17.6,16.9,10.8,42.3,10.5,43.4c-0.1,0.4-0.4,0.8-0.9,1l-4.6,1.9C48.4,79.8,48.2,79.9,48,79.9z
			 M52.6,76.5L52.6,76.5L52.6,76.5z M38.7,39.7c3.3,4.9,15.3,24.2,12.2,35.9l0.5-0.2c0.9-4,4.7-24.7-8.9-38.8L38.7,39.7z"/>
		<path class="st6" d="M50.7,78.8c0,0-6.6-22.2-24.3-24.5L24.9,61c0,0,23.7,9.1,23.8,21.7L50.7,78.8z"/>
		<path class="st3" d="M48.7,84.2c-0.1,0-0.2,0-0.4,0c-0.7-0.2-1.1-0.8-1.1-1.5c0-11.4-22.6-20.2-22.8-20.3c-0.7-0.3-1.1-1-0.9-1.7
			l1.5-6.7c0.2-0.8,0.9-1.3,1.7-1.2C45,55.2,51.9,77.4,52.1,78.3c0.1,0.4,0.1,0.8-0.1,1.1l-2,4C49.7,83.9,49.2,84.2,48.7,84.2z
			 M26.7,60.1c3.9,1.6,16,7.2,21.1,15.2c-2.6-6-9-17.1-20.2-19.4L26.7,60.1z"/>
		<path class="st6" d="M49.2,78.3c0,0,4.9-34,30.2-41.2l3.7,9.6c0,0-32.8,18.5-30.1,37L49.2,78.3z"/>
		<path class="st3" d="M53.1,85.1c-0.5,0-0.9-0.2-1.2-0.6L48,79.1c-0.2-0.3-0.3-0.7-0.3-1.1c0.2-1.4,5.3-35,31.3-42.4
			c0.7-0.2,1.5,0.2,1.8,0.9l3.7,9.6c0.3,0.7,0,1.5-0.7,1.8C83.6,48.2,52,66.2,54.6,83.4c0.1,0.7-0.3,1.3-0.9,1.6
			C53.5,85.1,53.3,85.1,53.1,85.1z M50.8,77.9l0.8,1.1c2.2-15.6,24.3-29.7,29.7-33L78.6,39C57.3,46,51.6,73.5,50.8,77.9z"/>
		<path class="st6" d="M36.2,262.2l13-183.9L156.8,228c5.1,7,3.6,16.8-3.2,22.1c-11.3,8.7-28.1,18.8-50.2,24.9
			c-20.8,5.7-39.3,5.7-52.9,4.3C41.9,278.4,35.6,270.8,36.2,262.2z"/>
		<g>
			<g>
				<g>
					<polygon class="st5" points="46.6,126.3 46.4,126.1 49.7,79.8 76.5,117.2 76.3,117.8 55.8,102 					"/>
				</g>
				<g>
					<polygon class="st5" points="59.7,172.4 44,160.3 45.2,143.2 53.1,149.4 62.3,125.1 82.9,140.9 86.6,131.2 96.6,145.1 
						89.4,164 68.9,148.2 					"/>
				</g>
				<g>
					<polygon class="st5" points="43,227 39.4,224.3 41.9,189.7 41.9,189.7 45.7,179.7 66.2,195.5 75.4,171.3 95.9,187.1 
						105.1,162.9 114.5,170.1 114.6,170.1 133.9,197.1 132.2,201.8 111.7,185.9 102.5,210.2 81.9,194.4 72.7,218.6 52.2,202.8 					
						"/>
				</g>
				<g>
					<path class="st5" d="M71.8,272l11.1,8.6c-5.2,0.6-10.1,0.9-14.8,1L71.8,272z"/>
				</g>
				<g>
					<path class="st5" d="M101.6,263.6l12.6,9.7c-3.3,1.2-6.7,2.2-10.3,3.2c-2.7,0.7-5.3,1.4-7.9,1.9L101.6,263.6z"/>
				</g>
				<g>
					<path class="st5" d="M131.3,255.2l8.2,6.3c-4,2.4-8.4,4.7-13.2,6.9L131.3,255.2z"/>
				</g>
				<g>
					<polygon class="st5" points="154,225 145.3,247.9 124.7,232.1 115.5,256.3 95,240.5 85.8,264.8 65.3,249 56.1,273.2 37,258.5 
						37,258.5 38.2,241.4 49.6,250.1 58.8,225.9 79.3,241.7 88.5,217.4 109,233.3 118.2,209 138.7,224.8 144,211.1 					"/>
				</g>
			</g>
		</g>
		<path class="st7" d="M153.6,250.9c-10.3,7.9-25,17-44.1,23.1c-2,0.6-4,1.2-6,1.8c-0.6,0.1-1.1,0.3-1.7,0.4
			c-10.8,2.8-21,4.1-30.1,4.5c-2.8,0.1-5.4,0.2-8,0.1c-4.8,0-9.2-0.3-13.2-0.7C44,279.4,38.8,274.9,37,269
			c0.9,2.8,22.6-0.6,25.1-1.2c26.8-6.3,44.6-26.6,51.2-50.6c4.9-17.8,3.6-37.6-4.5-55.3l4.2,5.9l4.7,6.5l17.9,24.9l4.7,6.5
			l16.7,23.2C161.9,235.9,160.5,245.6,153.6,250.9z"/>
		<polygon class="st0" points="49.2,80.5 49.9,279.5 63.1,280.2 		"/>
		<path class="st3" d="M65.4,281.6c-5,0-10-0.3-15.1-0.8c-9.4-1-16.3-9.2-15.6-18.7l13-183.9c0-0.6,0.5-1.2,1.1-1.3
			c0.6-0.2,1.3,0.1,1.6,0.6L158,227.2c5.6,7.8,4,18.4-3.5,24.2c-15.2,11.7-32.3,20.1-50.7,25.1C91.3,279.9,78.4,281.6,65.4,281.6z
			 M36.2,262.2l1.5,0.1c-0.6,7.9,5.1,14.7,13,15.5c17.7,1.8,35.3,0.4,52.4-4.3c18-4.9,34.7-13.2,49.6-24.6c6.3-4.8,7.6-13.6,2.9-20
			L50.4,82.5L37.7,262.3L36.2,262.2z"/>
	</g>
	<g>
		<polygon class="st8" points="177.4,105.1 161.3,113.6 164.4,95.7 151.4,83 169.3,80.4 177.4,64.2 185.4,80.4 203.4,83 190.4,95.7 
			193.4,113.6 		"/>
		<path class="st8" d="M248.8,364.9c-16.1,6.3-38.3,12.7-65,13.6c-2.8,0.1-5.6,0.1-8.4,0.1c-0.8,0-1.5,0-2.3,0
			c-14.9-0.3-28.4-2.3-40.3-5.2c-3.6-0.8-7-1.8-10.3-2.8c-6.1-1.8-11.7-3.8-16.6-5.7c-10.7-4.3-16.1-16.3-12.1-27.2l10.1-27.9
			l11.7-32.3l36.9-102l11.2-31.1l13.8-38.1l49.5,137l3.6,10.1l13.9,38.4l3.6,10.1l13,35.9C265,348.5,259.6,360.6,248.8,364.9z"/>
		<path class="st9" d="M146.8,298.7c0,12.6-10.2,22.9-22.9,22.9c-8.7,0-16.2-4.8-20.1-11.9l11.7-32.3c2.6-1,5.4-1.6,8.4-1.6
			C136.5,275.8,146.8,286.1,146.8,298.7z"/>
		<circle class="st9" cx="222.4" cy="344.4" r="11.4"/>
		
			<ellipse transform="matrix(0.9999 -1.051820e-02 1.051820e-02 0.9999 -2.5625 1.7479)" class="st9" cx="164.9" cy="244.5" rx="11.4" ry="11.4"/>
		<circle class="st9" cx="180.7" cy="316.1" r="5.7"/>
		<circle class="st9" cx="193.4" cy="202" r="5.7"/>
		<path class="st9" d="M183,162.4c0,10-8.1,18.1-18.1,18.1c-4.9,0-9.3-1.9-12.5-5l11.2-31.1c0.4,0,0.9-0.1,1.3-0.1
			C174.9,144.3,183,152.4,183,162.4z"/>
		<path class="st9" d="M244.4,291.7c-2.5,1.1-5.3,1.7-8.2,1.7c-11.3,0-20.5-9.2-20.5-20.5c0-9.3,6.2-17.2,14.8-19.7l-3.6-10.1
			c-12.6,4-21.8,15.8-21.8,29.7c0,17.2,13.9,31.2,31.2,31.2c4.2,0,8.2-0.8,11.8-2.3L244.4,291.7z"/>
		<path class="st9" d="M152.6,347.4c-14.5,0-26.6,9.8-30.1,23.2c3.3,1,6.7,1.9,10.3,2.8c2.3-8.8,10.3-15.3,19.8-15.3
			c11.3,0,20.4,9.2,20.5,20.4c0.8,0,1.5,0,2.3,0c2.9,0,5.7,0,8.4-0.1C183.7,361.3,169.8,347.4,152.6,347.4z"/>
		<path class="st3" d="M161.3,115.1c-0.3,0-0.6-0.1-0.9-0.3c-0.5-0.3-0.7-0.9-0.6-1.5l2.9-17.1l-12.4-12.1c-0.4-0.4-0.6-1-0.4-1.5
			c0.2-0.5,0.6-0.9,1.2-1l17.2-2.5l7.7-15.6c0.3-0.5,0.8-0.8,1.3-0.8s1.1,0.3,1.3,0.8l7.7,15.6l17.2,2.5c0.6,0.1,1,0.5,1.2,1
			c0.2,0.5,0,1.1-0.4,1.5L192,96.2l2.9,17.1c0.1,0.6-0.1,1.1-0.6,1.5c-0.5,0.3-1.1,0.4-1.6,0.1l-15.4-8.1l-15.4,8.1
			C161.8,115,161.5,115.1,161.3,115.1z M177.4,103.6c0.2,0,0.5,0.1,0.7,0.2l13.4,7L188.9,96c-0.1-0.5,0.1-1,0.4-1.3l10.8-10.5
			l-15-2.2c-0.5-0.1-0.9-0.4-1.1-0.8l-6.7-13.5l-6.7,13.5c-0.2,0.4-0.6,0.7-1.1,0.8l-15,2.2l10.8,10.5c0.4,0.3,0.5,0.8,0.4,1.3
			l-2.6,14.9l13.4-7C176.9,103.7,177.1,103.6,177.4,103.6z"/>
		<path class="st10" d="M247.8,364.9c-16.1,6.3-38.3,12.7-65,13.6c-2.8,0.1-5.6,0.1-8.4,0.1c-0.8,0-1.5,0-2.3,0
			c-14.9-0.3-28.4-2.3-40.3-5.2c-3.6-0.8-7-1.8-10.3-2.8c-6.1-1.8-11.7-3.8-16.6-5.7c-8.1-3.2-13.1-10.9-13.4-19.1
			c0.1,4,29.3,7.4,32.7,7.5c36.7,1.7,66.9-17.9,84.1-46.4c12.7-21,18.4-46.9,14.3-72.7l3.3,9.1l3.6,10.1l13.9,38.4l3.6,10.1l13,35.9
			C263.9,348.5,258.5,360.6,247.8,364.9z"/>
		<polygon class="st0" points="176.3,109.1 104.8,364.8 121.5,370.6 		"/>
		<path class="st3" d="M177.4,380c-0.7,0-1.3,0-2,0c-24-0.2-47.6-4.9-70.1-13.8c-11.5-4.6-17.2-17.3-13-29.1l0,0L176,105.7
			c0.2-0.6,0.8-1,1.4-1c0.6,0,1.2,0.4,1.4,1l83.7,231.5c4.2,11.7-1.5,24.5-13,29.1C226.3,375.4,202.1,380,177.4,380z M95.1,338.2
			c-3.7,10.2,1.3,21.3,11.3,25.3c22.1,8.8,45.3,13.3,69,13.6c25,0.3,49.5-4.3,72.9-13.6c10-4,15-15.1,11.3-25.3l-82.2-227.6
			L95.1,338.2z"/>
	</g>
	<g>
		<path class="st3" d="M176.7,389.9c-0.3,0-0.5-0.2-0.5-0.5c0-0.3,0.2-0.5,0.5-0.5l0.9,0c0.9,0,1.8,0,2.7,0c0.5,0,0.9,0,1.4,0
			c0.3,0,0.5,0.2,0.5,0.5c0,0.3-0.2,0.5-0.5,0.5c-0.5,0-0.9,0-1.4,0c-0.9,0-1.8,0-2.7,0L176.7,389.9
			C176.7,389.9,176.7,389.9,176.7,389.9z M171.7,389.8C171.7,389.8,171.7,389.8,171.7,389.8c-1.7,0-3.4-0.1-5-0.2
			c-0.3,0-0.5-0.2-0.5-0.5c0-0.3,0.3-0.5,0.5-0.5c1.7,0.1,3.3,0.1,5,0.2c0.3,0,0.5,0.2,0.5,0.5C172.2,389.6,172,389.8,171.7,389.8z
			 M186.7,389.6c-0.3,0-0.5-0.2-0.5-0.5c0-0.3,0.2-0.5,0.5-0.5c0.6,0,1.3-0.1,1.9-0.1c0.6,0,1.1-0.1,1.7-0.1l1.3-0.1l0.1,0.5l0,0.5
			l-1.3,0.1c-0.6,0-1.1,0.1-1.7,0.1C188.1,389.6,187.4,389.6,186.7,389.6C186.7,389.6,186.7,389.6,186.7,389.6z M161.7,389.3
			C161.7,389.3,161.7,389.3,161.7,389.3c-1.7-0.1-3.4-0.3-5-0.4c-0.3,0-0.5-0.3-0.4-0.5c0-0.3,0.3-0.5,0.5-0.5
			c1.7,0.2,3.3,0.3,5,0.4c0.3,0,0.5,0.3,0.5,0.5C162.2,389.1,162,389.3,161.7,389.3z M196.7,388.9c-0.3,0-0.5-0.2-0.5-0.5
			c0-0.3,0.2-0.5,0.5-0.5c0.8-0.1,1.7-0.2,2.5-0.2c0.5,0,0.9-0.1,1.4-0.2l1.1-0.1c0.3,0,0.5,0.2,0.5,0.4c0,0.3-0.2,0.5-0.4,0.5
			l-1.1,0.1c-0.5,0.1-0.9,0.1-1.4,0.2C198.4,388.8,197.6,388.8,196.7,388.9C196.7,388.9,196.7,388.9,196.7,388.9z M151.8,388.4
			C151.8,388.4,151.8,388.4,151.8,388.4c-1.7-0.2-3.4-0.4-5-0.7c-0.3,0-0.5-0.3-0.4-0.6c0-0.3,0.3-0.5,0.6-0.4
			c1.6,0.2,3.3,0.5,4.9,0.7c0.3,0,0.5,0.3,0.4,0.6C152.3,388.2,152,388.4,151.8,388.4z M206.6,387.7c-0.2,0-0.5-0.2-0.5-0.4
			c0-0.3,0.2-0.5,0.4-0.6c1.7-0.2,3.3-0.5,4.9-0.8c0.3,0,0.5,0.1,0.6,0.4c0,0.3-0.1,0.5-0.4,0.6
			C210.1,387.2,208.4,387.5,206.6,387.7C206.7,387.7,206.7,387.7,206.6,387.7z M141.9,386.9C141.9,386.9,141.8,386.9,141.9,386.9
			c-1.7-0.3-3.4-0.6-5-0.9c-0.3-0.1-0.4-0.3-0.4-0.6c0.1-0.3,0.3-0.5,0.6-0.4c1.6,0.3,3.3,0.6,4.9,0.9c0.3,0,0.5,0.3,0.4,0.6
			C142.3,386.8,142.1,386.9,141.9,386.9z M216.5,386.1c-0.2,0-0.4-0.2-0.5-0.4c-0.1-0.3,0.1-0.5,0.4-0.6l0.7-0.1
			c0.5-0.1,1-0.2,1.4-0.3c0.7-0.1,1.4-0.3,2.1-0.5l0.7-0.1c0.3-0.1,0.5,0.1,0.6,0.4c0.1,0.3-0.1,0.5-0.4,0.6l-0.7,0.1
			c-0.7,0.2-1.4,0.3-2.1,0.5c-0.5,0.1-0.9,0.2-1.4,0.3L216.5,386.1C216.6,386.1,216.5,386.1,216.5,386.1z M132.1,385
			c0,0-0.1,0-0.1,0c-0.9-0.2-1.9-0.4-2.8-0.6c-0.7-0.2-1.4-0.3-2.1-0.5c-0.3-0.1-0.4-0.3-0.4-0.6c0.1-0.3,0.3-0.4,0.6-0.4
			c0.7,0.2,1.4,0.3,2.1,0.5c0.9,0.2,1.9,0.4,2.8,0.6c0.3,0.1,0.4,0.3,0.4,0.6C132.5,384.8,132.3,385,132.1,385z M226.3,383.9
			c-0.2,0-0.4-0.2-0.5-0.4c-0.1-0.3,0.1-0.5,0.4-0.6c0.5-0.1,1-0.2,1.4-0.4c0.7-0.2,1.5-0.4,2.2-0.6l1.2-0.3
			c0.3-0.1,0.5,0.1,0.6,0.4c0.1,0.3-0.1,0.5-0.4,0.6l-1.2,0.3c-0.7,0.2-1.5,0.4-2.2,0.6c-0.5,0.1-1,0.2-1.5,0.4
			C226.3,383.9,226.3,383.9,226.3,383.9z M122.4,382.6c0,0-0.1,0-0.1,0c-1.4-0.4-2.7-0.8-4-1.2l-0.8-0.2c-0.3-0.1-0.4-0.4-0.3-0.6
			c0.1-0.3,0.4-0.4,0.6-0.3l0.8,0.2c1.3,0.4,2.7,0.8,4,1.2c0.3,0.1,0.4,0.3,0.4,0.6C122.8,382.5,122.6,382.6,122.4,382.6z
			 M235.9,381.3c-0.2,0-0.4-0.1-0.5-0.4c-0.1-0.3,0.1-0.5,0.3-0.6l0.4-0.1l0,0c0,0,1.2-0.4,1.8-0.5c0.8-0.2,1.6-0.5,2.4-0.8l0.2-0.1
			c0.3-0.1,0.5,0.1,0.6,0.3c0.1,0.3-0.1,0.5-0.3,0.6l-0.2,0.1c-0.8,0.3-1.6,0.5-2.4,0.8c-0.5,0.2-1.8,0.5-1.8,0.5l-0.4,0.1
			C236,381.3,236,381.3,235.9,381.3z M112.8,379.7c-0.1,0-0.1,0-0.2,0c-1.6-0.5-3.2-1.1-4.7-1.6c-0.3-0.1-0.4-0.4-0.3-0.6
			c0.1-0.3,0.4-0.4,0.6-0.3c1.6,0.6,3.2,1.1,4.7,1.6c0.3,0.1,0.4,0.4,0.3,0.6C113.2,379.6,113,379.7,112.8,379.7z M245.4,378.2
			c-0.2,0-0.4-0.1-0.5-0.3c-0.1-0.3,0-0.5,0.3-0.6l0.2-0.1c1.5-0.5,3-1.1,4.5-1.6c0.3-0.1,0.5,0,0.6,0.3c0.1,0.3,0,0.5-0.3,0.6
			c-1.5,0.6-3,1.1-4.5,1.6l-0.2,0.1C245.5,378.2,245.5,378.2,245.4,378.2z M103.4,376.4c-0.1,0-0.1,0-0.2,0c-0.8-0.3-1.7-0.7-2.5-1
			c-0.7-0.3-1.4-0.6-2.1-0.9c-0.2-0.1-0.4-0.4-0.2-0.7c0.1-0.2,0.4-0.4,0.7-0.2c0.7,0.3,1.4,0.6,2.1,0.9c0.8,0.3,1.7,0.7,2.5,1
			c0.3,0.1,0.4,0.4,0.3,0.6C103.8,376.3,103.6,376.4,103.4,376.4z M254.8,374.6c-0.2,0-0.4-0.1-0.5-0.3c-0.1-0.2,0-0.5,0.2-0.7
			c1.5-0.7,2.9-1.5,4.3-2.4c0.2-0.2,0.5-0.1,0.7,0.1c0.2,0.2,0.1,0.5-0.1,0.7c-1.4,0.9-2.9,1.8-4.4,2.5
			C254.9,374.6,254.8,374.6,254.8,374.6z M94.4,372c-0.1,0-0.2,0-0.3-0.1c-1.4-1-2.7-2-3.9-3.2c-0.2-0.2-0.2-0.5,0-0.7
			c0.2-0.2,0.5-0.2,0.7,0c1.2,1.1,2.5,2.2,3.8,3.1c0.2,0.2,0.3,0.5,0.1,0.7C94.8,371.9,94.6,372,94.4,372z M263,369
			c-0.1,0-0.3-0.1-0.4-0.2c-0.2-0.2-0.2-0.5,0-0.7c1.2-1.1,2.3-2.3,3.3-3.6c0.2-0.2,0.5-0.3,0.7-0.1c0.2,0.2,0.3,0.5,0.1,0.7
			c-1,1.3-2.2,2.6-3.4,3.8C263.2,368.9,263.1,369,263,369z M87.2,365.1c-0.2,0-0.3-0.1-0.4-0.2c-1-1.3-2-2.8-2.8-4.3
			c-0.1-0.2,0-0.5,0.2-0.7c0.2-0.1,0.5,0,0.7,0.2c0.8,1.4,1.7,2.8,2.7,4.1c0.2,0.2,0.1,0.5-0.1,0.7
			C87.4,365.1,87.3,365.1,87.2,365.1z M269.1,361.1c-0.1,0-0.2,0-0.2-0.1c-0.2-0.1-0.3-0.4-0.2-0.7c0.8-1.4,1.5-2.9,2.1-4.5
			c0.1-0.3,0.4-0.4,0.6-0.3c0.3,0.1,0.4,0.4,0.3,0.6c-0.6,1.6-1.3,3.1-2.1,4.6C269.4,361,269.3,361.1,269.1,361.1z M82.5,356.4
			c-0.2,0-0.4-0.1-0.5-0.3c-0.6-1.6-1-3.2-1.3-4.9c-0.1-0.3,0.1-0.5,0.4-0.6c0.3-0.1,0.5,0.1,0.6,0.4c0.3,1.6,0.7,3.2,1.3,4.7
			c0.1,0.3,0,0.5-0.3,0.6C82.6,356.4,82.5,356.4,82.5,356.4z M272.5,351.7C272.5,351.7,272.5,351.7,272.5,351.7
			c-0.4-0.1-0.5-0.3-0.5-0.6c0.3-1.6,0.5-3.2,0.6-4.9c0-0.3,0.2-0.5,0.5-0.5c0.3,0,0.5,0.2,0.5,0.5c-0.1,1.7-0.3,3.4-0.6,5
			C273,351.6,272.8,351.7,272.5,351.7z M80.6,346.6l0-0.5h-0.5c0-0.3,0.2-0.5,0.5-0.5l0.6,0c0-0.2,0-0.4,0-0.7c0-0.9,0-1.9,0.1-2.8
			c0-0.3,0.3-0.5,0.5-0.5c0.3,0,0.5,0.3,0.5,0.5c-0.1,0.9-0.1,1.8-0.1,2.7c0,0.4,0,0.7,0,1.1c0,0.3-0.2,0.5-0.5,0.5L80.6,346.6z
			 M272.9,341.8c-0.2,0-0.5-0.2-0.5-0.4c-0.2-1.6-0.5-3.2-0.9-4.8c-0.1-0.3,0.1-0.5,0.3-0.6c0.3-0.1,0.5,0.1,0.6,0.3
			c0.5,1.6,0.8,3.3,1,5C273.5,341.5,273.3,341.8,272.9,341.8C273,341.8,272.9,341.8,272.9,341.8z M82.6,337.7c0,0-0.1,0-0.1,0
			c-0.3-0.1-0.4-0.3-0.4-0.6c0.3-1.1,0.6-2.2,1-3.2l0.6-1.6c0.1-0.3,0.4-0.4,0.6-0.3c0.3,0.1,0.4,0.4,0.3,0.6l-0.6,1.6
			c-0.4,1-0.7,2.1-1,3.1C83,337.5,82.8,337.7,82.6,337.7z M270.4,332.2c-0.2,0-0.4-0.1-0.5-0.3l-1.7-4.7c-0.1-0.3,0-0.5,0.3-0.6
			c0.3-0.1,0.5,0,0.6,0.3l1.7,4.7c0.1,0.3,0,0.5-0.3,0.6C270.5,332.2,270.4,332.2,270.4,332.2z M85.8,328.2c-0.1,0-0.1,0-0.2,0
			c-0.3-0.1-0.4-0.4-0.3-0.6l1.7-4.7c0.1-0.3,0.4-0.4,0.6-0.3c0.3,0.1,0.4,0.4,0.3,0.6l-1.7,4.7C86.2,328.1,86,328.2,85.8,328.2z
			 M267,322.8c-0.2,0-0.4-0.1-0.5-0.3l-1.7-4.7c-0.1-0.3,0-0.5,0.3-0.6c0.3-0.1,0.5,0,0.6,0.3l1.7,4.7c0.1,0.3,0,0.5-0.3,0.6
			C267.1,322.7,267,322.8,267,322.8z M89.2,318.8c-0.1,0-0.1,0-0.2,0c-0.3-0.1-0.4-0.4-0.3-0.6l1.7-4.7c0.1-0.3,0.4-0.4,0.6-0.3
			c0.3,0.1,0.4,0.4,0.3,0.6l-1.7,4.7C89.6,318.7,89.4,318.8,89.2,318.8z M280.9,316C280.9,316,280.9,316,280.9,316l-0.1,0
			c-1.6,0-3.2-0.1-4.9-0.1c-0.3,0-0.5-0.2-0.5-0.5c0-0.3,0.2-0.5,0.5-0.5c1.7,0.1,3.3,0.1,4.9,0.1l0.1,0c0.3,0,0.5,0.2,0.5,0.5
			C281.4,315.8,281.2,316,280.9,316z M285.9,316c-0.3,0-0.5-0.2-0.5-0.5c0-0.3,0.2-0.5,0.5-0.5c1.6,0,3.3-0.1,5-0.2
			c0.3,0,0.5,0.2,0.5,0.5c0,0.3-0.2,0.5-0.5,0.5C289.2,315.9,287.5,315.9,285.9,316C285.9,316,285.9,316,285.9,316z M270.9,315.6
			C270.9,315.6,270.9,315.6,270.9,315.6c-1.7-0.1-3.4-0.2-5-0.4c-0.3,0-0.5-0.3-0.5-0.5c0-0.3,0.3-0.5,0.5-0.5
			c1.6,0.2,3.3,0.3,5,0.4c0.3,0,0.5,0.3,0.5,0.5C271.4,315.4,271.2,315.6,270.9,315.6z M295.9,315.5c-0.3,0-0.5-0.2-0.5-0.5
			c0-0.3,0.2-0.5,0.5-0.5c1.7-0.1,3.3-0.3,5-0.4c0.3,0,0.5,0.2,0.5,0.4c0,0.3-0.2,0.5-0.4,0.5C299.3,315.2,297.6,315.4,295.9,315.5
			C295.9,315.5,295.9,315.5,295.9,315.5z M305.8,314.5c-0.2,0-0.5-0.2-0.5-0.4c0-0.3,0.2-0.5,0.4-0.6c1.6-0.2,3.3-0.5,4.9-0.7
			c0.3,0,0.5,0.1,0.6,0.4c0,0.3-0.1,0.5-0.4,0.6C309.2,314,307.5,314.2,305.8,314.5C305.9,314.5,305.8,314.5,305.8,314.5z
			 M315.7,312.9c-0.2,0-0.4-0.2-0.5-0.4c-0.1-0.3,0.1-0.5,0.4-0.6c1.6-0.3,3.2-0.6,4.9-1c0.3-0.1,0.5,0.1,0.6,0.4
			c0.1,0.3-0.1,0.5-0.4,0.6C319,312.2,317.4,312.6,315.7,312.9C315.7,312.9,315.7,312.9,315.7,312.9z M325.5,310.7
			c-0.2,0-0.4-0.2-0.5-0.4c-0.1-0.3,0.1-0.5,0.4-0.6c1.6-0.4,3.2-0.8,4.8-1.3c0.3-0.1,0.5,0.1,0.6,0.3c0.1,0.3-0.1,0.5-0.3,0.6
			c-1.6,0.5-3.2,0.9-4.8,1.3C325.5,310.7,325.5,310.7,325.5,310.7z M92.6,309.4c-0.1,0-0.1,0-0.2,0c-0.3-0.1-0.4-0.4-0.3-0.6
			l1.7-4.7c0.1-0.3,0.4-0.4,0.6-0.3c0.3,0.1,0.4,0.4,0.3,0.6l-1.7,4.7C93,309.3,92.8,309.4,92.6,309.4z M335.1,308
			c-0.2,0-0.4-0.1-0.5-0.4c-0.1-0.3,0.1-0.5,0.3-0.6c1.6-0.5,3.2-1,4.7-1.5c0.3-0.1,0.5,0.1,0.6,0.3c0.1,0.3-0.1,0.5-0.3,0.6
			c-1.6,0.5-3.2,1.1-4.8,1.5C335.2,308,335.1,308,335.1,308z M344.4,304.6c-0.2,0-0.4-0.1-0.4-0.3c-0.1-0.2,0-0.5,0.2-0.7
			c1.4-0.7,2.8-1.6,4.1-2.6c0.2-0.2,0.5-0.1,0.7,0.1c0.2,0.2,0.1,0.5-0.1,0.7c-1.4,1-2.8,1.9-4.3,2.7
			C344.6,304.6,344.5,304.6,344.4,304.6z M96,300c-0.1,0-0.1,0-0.2,0c-0.3-0.1-0.4-0.4-0.3-0.6l1.7-4.7c0.1-0.3,0.4-0.4,0.6-0.3
			c0.3,0.1,0.4,0.4,0.3,0.6l-1.7,4.7C96.4,299.9,96.2,300,96,300z M352.4,298.6c-0.1,0-0.2,0-0.3-0.1c-0.2-0.2-0.2-0.5,0-0.7
			c0.2-0.2,0.4-0.4,0.5-0.6c1-1,1.9-2.1,2.6-3.2c0.2-0.2,0.5-0.3,0.7-0.1c0.2,0.2,0.3,0.5,0.1,0.7c-0.8,1.2-1.7,2.3-2.7,3.3
			c-0.2,0.2-0.3,0.4-0.5,0.6C352.6,298.5,352.5,298.6,352.4,298.6z M68.2,292.9c-0.5,0-0.9,0-1.4-0.1c-0.3,0-0.5-0.3-0.4-0.6
			c0-0.3,0.3-0.5,0.6-0.4c0.4,0,0.8,0.1,1.2,0.1l0.2,0c1.2,0,2.3-0.1,3.5-0.1c0.3,0,0.5,0.2,0.5,0.5c0,0.3-0.2,0.5-0.5,0.5
			c-1.2,0-2.3,0.1-3.5,0.1L68.2,292.9z M76.9,292.6c-0.3,0-0.5-0.2-0.5-0.5c0-0.3,0.2-0.5,0.5-0.5c1.7-0.1,3.3-0.3,5-0.4
			c0.3,0,0.5,0.2,0.5,0.4c0,0.3-0.2,0.5-0.4,0.5C80.3,292.3,78.6,292.4,76.9,292.6C76.9,292.6,76.9,292.6,76.9,292.6z M62,292.1
			C62,292.1,62,292.1,62,292.1c-1.6,0-3.3-0.1-5-0.2c-0.3,0-0.5-0.2-0.5-0.5c0-0.3,0.2-0.5,0.5-0.5c1.7,0.1,3.4,0.2,5,0.2
			c0.3,0,0.5,0.2,0.5,0.5C62.5,291.9,62.3,292.1,62,292.1z M52,291.6C52,291.6,52,291.6,52,291.6c-0.9-0.1-1.7-0.2-2.6-0.2
			c-0.8-0.1-1.7-0.2-2.5-0.4c-0.3-0.1-0.4-0.3-0.4-0.6c0.1-0.3,0.3-0.4,0.6-0.4c0.8,0.2,1.6,0.3,2.4,0.4c0.8,0.1,1.7,0.2,2.5,0.2
			c0.3,0,0.5,0.3,0.5,0.5C52.5,291.4,52.3,291.6,52,291.6z M86.8,291.2c-0.2,0-0.4-0.1-0.5-0.3c-0.1-0.3,0-0.5,0.3-0.6
			c0.5-0.2,1.1-0.5,1.6-0.7c0.1,0,0.1-0.1,0.2-0.1c1-0.2,2.1-0.3,3.1-0.5c0.3,0,0.5,0.1,0.6,0.4c0,0.3-0.1,0.5-0.4,0.6
			c-1,0.2-2,0.3-3,0.5c-0.5,0.3-1.1,0.6-1.6,0.8C86.9,291.2,86.8,291.2,86.8,291.2z M99.4,290.6c-0.1,0-0.1,0-0.2,0
			c-0.3-0.1-0.4-0.4-0.3-0.6l0.2-0.6c-0.3,0.1-0.6,0.1-0.9,0.2c-0.6,0.1-1.1,0.2-1.7,0.2c-0.3,0-0.5-0.2-0.5-0.5
			c0-0.3,0.2-0.5,0.5-0.5c0.5,0,1.1-0.1,1.6-0.2c0.6-0.1,1.2-0.3,1.8-0.4c0.2,0,0.4,0,0.5,0.2c0.1,0.1,0.2,0.3,0.1,0.5l-0.5,1.4
			C99.8,290.5,99.6,290.6,99.4,290.6z M358.1,290.4c-0.1,0-0.1,0-0.2,0c-0.2-0.1-0.4-0.4-0.2-0.7c0.7-1.5,1.3-3,1.7-4.6
			c0.1-0.3,0.3-0.4,0.6-0.3c0.3,0.1,0.4,0.4,0.3,0.6c-0.5,1.6-1.1,3.2-1.8,4.8C358.5,290.3,358.3,290.4,358.1,290.4z M42.3,289.6
			c-0.1,0-0.1,0-0.2,0c-1.6-0.6-3.1-1.4-4.5-2.3c-0.2-0.1-0.3-0.5-0.2-0.7c0.1-0.2,0.5-0.3,0.7-0.2c1.4,0.9,2.8,1.6,4.4,2.2
			c0.3,0.1,0.4,0.4,0.3,0.6C42.6,289.5,42.5,289.6,42.3,289.6z M33.9,284.3c-0.1,0-0.2,0-0.3-0.1c-1.2-1.2-2.4-2.4-3.4-3.8
			c-0.2-0.2-0.1-0.5,0.1-0.7c0.2-0.2,0.5-0.1,0.7,0.1c1,1.3,2.1,2.6,3.2,3.7c0.2,0.2,0.2,0.5,0,0.7C34.1,284.2,34,284.3,33.9,284.3z
			 M360.8,280.9C360.8,280.9,360.8,280.9,360.8,280.9c-0.3,0-0.5-0.3-0.5-0.6c0.1-1,0.2-2,0.2-3c0-0.6,0-1.3-0.1-1.9
			c0-0.3,0.2-0.5,0.5-0.5c0.3,0,0.5,0.2,0.5,0.5c0,0.7,0.1,1.3,0.1,2c0,1-0.1,2.1-0.2,3.1C361.3,280.7,361.1,280.9,360.8,280.9z
			 M28,276.2c-0.2,0-0.4-0.1-0.5-0.3c-0.5-1.1-1-2.3-1.4-3.5c0-0.1,0-0.3,0-0.4c0,0,0-0.1,0.1-0.1c-0.1-0.2-0.1-0.4-0.2-0.7
			c-0.1-0.3,0.1-0.5,0.3-0.6c0.3-0.1,0.5,0.1,0.6,0.3c0.1,0.3,0.2,0.7,0.3,1c0,0.1,0,0.3,0,0.4c0,0,0,0.1-0.1,0.1
			c0.3,1,0.7,2,1.2,2.9c0.1,0.2,0,0.5-0.2,0.7C28.2,276.2,28.1,276.2,28,276.2z M360.2,270.9c-0.2,0-0.4-0.2-0.5-0.4
			c-0.1-0.6-0.3-1.2-0.5-1.8l-1.2-3.9c-0.1-0.3-0.2-0.6-0.3-0.8c-0.1-0.3,0-0.5,0.3-0.7c0.3-0.1,0.5,0,0.7,0.3
			c0.1,0.3,0.2,0.6,0.3,0.9l1.2,3.9c0.2,0.6,0.4,1.2,0.5,1.9c0.1,0.3-0.1,0.5-0.4,0.6C360.3,270.9,360.2,270.9,360.2,270.9z
			 M25.5,266.8c-0.3,0-0.5-0.2-0.5-0.4c-0.1-1-0.2-2-0.2-3.1c0-0.6,0-1.3,0.1-1.9l0-0.1c0-0.3,0.3-0.5,0.5-0.5
			c0.3,0,0.5,0.3,0.5,0.5l0,0.1c0,0.6-0.1,1.2-0.1,1.8c0,1,0.1,2,0.2,3C26,266.5,25.8,266.8,25.5,266.8
			C25.6,266.8,25.5,266.8,25.5,266.8z M356.3,259.7c-0.2,0-0.4-0.1-0.5-0.4l-1.5-4.8c-0.1-0.3,0.1-0.5,0.3-0.6
			c0.3-0.1,0.5,0.1,0.6,0.3l1.5,4.8c0.1,0.3-0.1,0.5-0.3,0.6C356.4,259.7,356.4,259.7,356.3,259.7z M25.8,256.8
			C25.8,256.8,25.8,256.8,25.8,256.8c-0.3,0-0.5-0.3-0.5-0.5l0.4-5c0-0.3,0.3-0.5,0.5-0.5c0.3,0,0.5,0.3,0.5,0.5l-0.4,5
			C26.3,256.6,26,256.8,25.8,256.8z M353.4,250.1c-0.2,0-0.4-0.1-0.5-0.4l-0.7-2.1c0,0,0-0.1,0-0.1c0-0.9-0.2-1.7-0.4-2.6
			c-0.1-0.3,0.1-0.5,0.3-0.6c0.3-0.1,0.5,0.1,0.6,0.3c0.3,0.9,0.4,1.8,0.5,2.8l0.6,2.1c0.1,0.3-0.1,0.5-0.3,0.6
			C353.5,250.1,353.4,250.1,353.4,250.1z M26.5,246.9C26.5,246.9,26.5,246.9,26.5,246.9c-0.3,0-0.5-0.3-0.5-0.5l0.4-5
			c0-0.3,0.3-0.5,0.5-0.5c0.3,0,0.5,0.3,0.5,0.5l-0.4,5C27,246.7,26.7,246.9,26.5,246.9z M350.7,240.5c-0.2,0-0.4-0.1-0.5-0.4
			l-1.5-4.8c-0.1-0.3,0.1-0.5,0.3-0.6c0.3-0.1,0.5,0.1,0.6,0.3l1.5,4.8c0.1,0.3-0.1,0.5-0.3,0.6
			C350.8,240.5,350.8,240.5,350.7,240.5z M27.2,236.9C27.2,236.9,27.2,236.9,27.2,236.9c-0.3,0-0.5-0.3-0.5-0.5l0.4-5
			c0-0.3,0.3-0.5,0.5-0.5c0.3,0,0.5,0.3,0.5,0.5l-0.4,5C27.7,236.7,27.5,236.9,27.2,236.9z M347.8,231c-0.2,0-0.4-0.1-0.5-0.4
			l-1.5-4.8c-0.1-0.3,0.1-0.5,0.3-0.6c0.3-0.1,0.5,0.1,0.6,0.3l1.5,4.8c0.1,0.3-0.1,0.5-0.3,0.6C347.9,231,347.8,231,347.8,231z
			 M27.9,226.9C27.9,226.9,27.9,226.9,27.9,226.9c-0.3,0-0.5-0.3-0.5-0.5l0.4-5c0-0.3,0.3-0.5,0.5-0.5c0.3,0,0.5,0.3,0.5,0.5l-0.4,5
			C28.4,226.7,28.2,226.9,27.9,226.9z M344.4,221.6c-0.2,0-0.4-0.1-0.5-0.4l-1.5-4.8c-0.1-0.3,0.1-0.5,0.3-0.6
			c0.3-0.1,0.5,0.1,0.6,0.3l1.5,4.8c0.1,0.3-0.1,0.5-0.3,0.6C344.5,221.6,344.5,221.6,344.4,221.6z M28.6,216.9
			C28.6,216.9,28.6,216.9,28.6,216.9c-0.3,0-0.5-0.3-0.5-0.5l0.4-5c0-0.3,0.3-0.5,0.5-0.5c0.3,0,0.5,0.3,0.5,0.5l-0.4,5
			C29.1,216.7,28.9,216.9,28.6,216.9z M341.5,212c-0.2,0-0.4-0.1-0.5-0.4l-1.5-4.8c-0.1-0.3,0.1-0.5,0.3-0.6
			c0.3-0.1,0.5,0.1,0.6,0.3l1.5,4.8c0.1,0.3-0.1,0.5-0.3,0.6C341.6,212,341.5,212,341.5,212z M29.3,207C29.3,207,29.3,207,29.3,207
			c-0.3,0-0.5-0.3-0.5-0.5l0.4-5c0-0.3,0.3-0.5,0.5-0.5c0.3,0,0.5,0.3,0.5,0.5l-0.4,5C29.8,206.8,29.6,207,29.3,207z M338.9,202.4
			c-0.2,0-0.4-0.1-0.5-0.4l-1.5-4.8c-0.1-0.3,0.1-0.5,0.3-0.6c0.3-0.1,0.5,0.1,0.6,0.3l1.5,4.8c0.1,0.3-0.1,0.5-0.3,0.6
			C339,202.4,338.9,202.4,338.9,202.4z M221.9,198.1C221.9,198.1,221.9,198.1,221.9,198.1c-0.2,0-0.4-0.1-0.5-0.3l-1.3-3.6
			c-0.1-0.3,0-0.5,0.3-0.6c0.3-0.1,0.5,0,0.6,0.3l0.9,2.5c0.1-0.2,0.4-0.2,0.6-0.2c0.3,0.1,0.4,0.4,0.3,0.7l-0.4,1
			C222.3,198,222.1,198.1,221.9,198.1z M30,197C30,197,30,197,30,197c-0.3,0-0.5-0.3-0.5-0.5l0.4-5c0-0.3,0.3-0.5,0.5-0.5
			c0.3,0,0.5,0.3,0.5,0.5l-0.4,5C30.5,196.8,30.3,197,30,197z M335.9,192.8c-0.2,0-0.4-0.1-0.5-0.4l-1.5-4.8
			c-0.1-0.3,0.1-0.5,0.3-0.6c0.3-0.1,0.5,0.1,0.6,0.3l1.5,4.8c0.1,0.3-0.1,0.5-0.3,0.6C336,192.8,335.9,192.8,335.9,192.8z
			 M224.3,192.5c-0.1,0-0.1,0-0.2,0c-0.3-0.1-0.4-0.4-0.3-0.7l1.9-4.6c0.1-0.3,0.4-0.4,0.7-0.3c0.3,0.1,0.4,0.4,0.3,0.7l-1.9,4.6
			C224.6,192.3,224.5,192.5,224.3,192.5z M218.9,189.8c-0.2,0-0.4-0.1-0.5-0.3l-1.7-4.7c-0.1-0.3,0-0.5,0.3-0.6
			c0.3-0.1,0.5,0,0.6,0.3l1.7,4.7c0.1,0.3,0,0.5-0.3,0.6C219,189.8,219,189.8,218.9,189.8z M30.7,187C30.7,187,30.7,187,30.7,187
			c-0.3,0-0.5-0.3-0.5-0.5l0.4-5c0-0.3,0.3-0.5,0.5-0.5c0.3,0,0.5,0.3,0.5,0.5l-0.4,5C31.2,186.8,31,187,30.7,187z M332.9,183.3
			c-0.2,0-0.4-0.1-0.5-0.4l-0.1-0.3c-0.3-0.9-0.6-1.7-1.1-2.4c0,0,0-0.1-0.1-0.1l-0.5-1.8c-0.1-0.3,0.1-0.5,0.3-0.6
			c0.3-0.1,0.5,0.1,0.6,0.3l0.5,1.7c0.5,0.8,0.9,1.7,1.2,2.6l0.1,0.3c0.1,0.3-0.1,0.5-0.3,0.6C333,183.3,332.9,183.3,332.9,183.3z
			 M228.1,183.2c-0.1,0-0.1,0-0.2,0c-0.3-0.1-0.4-0.4-0.3-0.7l1.9-4.6c0.1-0.3,0.4-0.4,0.7-0.3c0.3,0.1,0.4,0.4,0.3,0.7l-1.9,4.6
			C228.5,183.1,228.3,183.2,228.1,183.2z M136.6,181.9c-0.2,0-0.3-0.1-0.4-0.2l-2.9-4.1c-0.2-0.2-0.1-0.5,0.1-0.7
			c0.2-0.2,0.5-0.1,0.7,0.1l2.9,4.1c0.2,0.2,0.1,0.5-0.1,0.7C136.8,181.8,136.7,181.9,136.6,181.9z M138.9,181.3c-0.1,0-0.1,0-0.2,0
			c-0.3-0.1-0.4-0.4-0.3-0.6l1.7-4.7c0.1-0.3,0.4-0.4,0.6-0.3c0.3,0.1,0.4,0.4,0.3,0.6l-1.7,4.7
			C139.3,181.2,139.1,181.3,138.9,181.3z M215.5,180.4c-0.2,0-0.4-0.1-0.5-0.3l-1.7-4.7c-0.1-0.3,0-0.5,0.3-0.6
			c0.3-0.1,0.5,0,0.6,0.3l1.7,4.7c0.1,0.3,0,0.5-0.3,0.6C215.6,180.4,215.6,180.4,215.5,180.4z M31.4,177
			C31.4,177,31.4,177,31.4,177c-0.3,0-0.5-0.3-0.5-0.5l0.4-5c0-0.3,0.3-0.5,0.5-0.5c0.3,0,0.5,0.3,0.5,0.5l-0.4,5
			C31.9,176.8,31.7,177,31.4,177z M231.9,174c-0.1,0-0.1,0-0.2,0c-0.3-0.1-0.4-0.4-0.3-0.7l1.9-4.6c0.1-0.3,0.4-0.4,0.7-0.3
			c0.3,0.1,0.4,0.4,0.3,0.7l-1.9,4.6C232.3,173.9,232.1,174,231.9,174z M329.6,173.9c-0.2,0-0.4-0.1-0.5-0.4l-1.5-4.8
			c-0.1-0.3,0.1-0.5,0.3-0.6c0.3-0.1,0.5,0.1,0.6,0.3l1.5,4.8c0.1,0.3-0.1,0.5-0.3,0.6C329.7,173.9,329.6,173.9,329.6,173.9z
			 M130.8,173.8c-0.2,0-0.3-0.1-0.4-0.2l-2.9-4.1c-0.2-0.2-0.1-0.5,0.1-0.7c0.2-0.2,0.5-0.1,0.7,0.1l2.9,4.1
			c0.2,0.2,0.1,0.5-0.1,0.7C131,173.7,130.9,173.8,130.8,173.8z M142.3,171.9c-0.1,0-0.1,0-0.2,0c-0.3-0.1-0.4-0.4-0.3-0.6l1.7-4.7
			c0.1-0.3,0.4-0.4,0.6-0.3c0.3,0.1,0.4,0.4,0.3,0.6l-1.7,4.7C142.7,171.8,142.5,171.9,142.3,171.9z M212.1,171
			c-0.2,0-0.4-0.1-0.5-0.3l-1.7-4.7c-0.1-0.3,0-0.5,0.3-0.6c0.3-0.1,0.5,0,0.6,0.3l1.7,4.7c0.1,0.3,0,0.5-0.3,0.6
			C212.2,171,212.2,171,212.1,171z M32.1,167.1C32.1,167.1,32.1,167.1,32.1,167.1c-0.3,0-0.5-0.3-0.5-0.5l0.4-5
			c0-0.3,0.3-0.5,0.5-0.5c0.3,0,0.5,0.3,0.5,0.5l-0.4,5C32.6,166.9,32.4,167.1,32.1,167.1z M124.9,165.6c-0.2,0-0.3-0.1-0.4-0.2
			l-2.9-4.1c-0.2-0.2-0.1-0.5,0.1-0.7c0.2-0.2,0.5-0.1,0.7,0.1l2.9,4.1c0.2,0.2,0.1,0.5-0.1,0.7
			C125.2,165.6,125.1,165.6,124.9,165.6z M235.7,164.7c-0.1,0-0.1,0-0.2,0c-0.3-0.1-0.4-0.4-0.3-0.7l1.9-4.6
			c0.1-0.3,0.4-0.4,0.7-0.3c0.3,0.1,0.4,0.4,0.3,0.7l-1.9,4.6C236.1,164.6,235.9,164.7,235.7,164.7z M326.6,164.4
			c-0.2,0-0.4-0.1-0.5-0.4l0-0.2c0,0,0-0.1,0-0.1c0-0.9-0.2-1.8-0.5-2.7l-0.6-1.9c-0.1-0.3,0.1-0.5,0.3-0.6c0.3-0.1,0.5,0.1,0.6,0.3
			l0.6,1.9c0.3,0.9,0.5,1.9,0.5,2.8l0,0.1c0.1,0.3-0.1,0.5-0.3,0.6C326.7,164.3,326.6,164.4,326.6,164.4z M145.7,162.5
			c-0.1,0-0.1,0-0.2,0c-0.3-0.1-0.4-0.4-0.3-0.6l1.7-4.7c0.1-0.3,0.4-0.4,0.6-0.3c0.3,0.1,0.4,0.4,0.3,0.6l-1.7,4.7
			C146.1,162.4,145.9,162.5,145.7,162.5z M208.7,161.6c-0.2,0-0.4-0.1-0.5-0.3l-1.7-4.7c-0.1-0.3,0-0.5,0.3-0.6
			c0.3-0.1,0.5,0,0.6,0.3l1.7,4.7c0.1,0.3,0,0.5-0.3,0.6C208.8,161.6,208.8,161.6,208.7,161.6z M119.1,157.5c-0.2,0-0.3-0.1-0.4-0.2
			l-2.9-4.1c-0.2-0.2-0.1-0.5,0.1-0.7c0.2-0.2,0.5-0.1,0.7,0.1l2.9,4.1c0.2,0.2,0.1,0.5-0.1,0.7
			C119.3,157.5,119.2,157.5,119.1,157.5z M32.8,157.1C32.8,157.1,32.8,157.1,32.8,157.1c-0.3,0-0.5-0.3-0.5-0.5l0.4-5
			c0-0.3,0.3-0.5,0.5-0.5c0.3,0,0.5,0.3,0.5,0.5l-0.4,5C33.3,156.9,33.1,157.1,32.8,157.1z M239.5,155.5c-0.1,0-0.1,0-0.2,0
			c-0.3-0.1-0.4-0.4-0.3-0.7l1.9-4.6c0.1-0.3,0.4-0.4,0.7-0.3c0.3,0.1,0.4,0.4,0.3,0.7l-1.9,4.6
			C239.9,155.4,239.7,155.5,239.5,155.5z M324,154.7c-0.2,0-0.4-0.1-0.5-0.4l-1.5-4.8c-0.1-0.3,0.1-0.5,0.3-0.6
			c0.3-0.1,0.5,0.1,0.6,0.3l1.5,4.8c0.1,0.3-0.1,0.5-0.3,0.6C324.1,154.7,324,154.7,324,154.7z M149.1,153.1c-0.1,0-0.1,0-0.2,0
			c-0.3-0.1-0.4-0.4-0.3-0.6l1.7-4.7c0.1-0.3,0.4-0.4,0.6-0.3c0.3,0.1,0.4,0.4,0.3,0.6l-1.7,4.7C149.5,153,149.3,153.1,149.1,153.1z
			 M205.3,152.2c-0.2,0-0.4-0.1-0.5-0.3l-1.7-4.7c-0.1-0.3,0-0.5,0.3-0.6c0.3-0.1,0.5,0,0.6,0.3l1.7,4.7c0.1,0.3,0,0.5-0.3,0.6
			C205.4,152.2,205.4,152.2,205.3,152.2z M113.3,149.4c-0.2,0-0.3-0.1-0.4-0.2l-2.9-4.1c-0.2-0.2-0.1-0.5,0.1-0.7
			c0.2-0.2,0.5-0.1,0.7,0.1l2.9,4.1c0.2,0.2,0.1,0.5-0.1,0.7C113.5,149.4,113.4,149.4,113.3,149.4z M33.6,147.1
			C33.5,147.1,33.5,147.1,33.6,147.1c-0.3,0-0.5-0.3-0.5-0.5l0.4-5c0-0.3,0.3-0.5,0.5-0.5c0.3,0,0.5,0.3,0.5,0.5l-0.4,5
			C34,146.9,33.8,147.1,33.6,147.1z M243.3,146.2c-0.1,0-0.1,0-0.2,0c-0.3-0.1-0.4-0.4-0.3-0.7l1.9-4.6c0.1-0.3,0.4-0.4,0.7-0.3
			c0.3,0.1,0.4,0.4,0.3,0.7l-1.9,4.6C243.7,146.1,243.5,146.2,243.3,146.2z M321,145.2c-0.2,0-0.4-0.1-0.5-0.4l-1.5-4.8
			c-0.1-0.3,0.1-0.5,0.3-0.6c0.3-0.1,0.5,0.1,0.6,0.3l1.5,4.8c0.1,0.3-0.1,0.5-0.3,0.6C321.1,145.2,321,145.2,321,145.2z
			 M152.5,143.7c-0.1,0-0.1,0-0.2,0c-0.3-0.1-0.4-0.4-0.3-0.6l1.7-4.7c0.1-0.3,0.4-0.4,0.6-0.3c0.3,0.1,0.4,0.4,0.3,0.6l-1.7,4.7
			C152.9,143.6,152.7,143.7,152.5,143.7z M201.9,142.8c-0.2,0-0.4-0.1-0.5-0.3l-1.7-4.7c-0.1-0.3,0-0.5,0.3-0.6
			c0.3-0.1,0.5,0,0.6,0.3l1.7,4.7c0.1,0.3,0,0.5-0.3,0.6C202,142.8,202,142.8,201.9,142.8z M107.4,141.3c-0.2,0-0.3-0.1-0.4-0.2
			l-2.9-4.1c-0.2-0.2-0.1-0.5,0.1-0.7c0.2-0.2,0.5-0.1,0.7,0.1l2.9,4.1c0.2,0.2,0.1,0.5-0.1,0.7
			C107.7,141.2,107.5,141.3,107.4,141.3z M34.3,137.1C34.2,137.1,34.2,137.1,34.3,137.1c-0.3,0-0.5-0.3-0.5-0.5l0.4-5
			c0-0.3,0.3-0.5,0.5-0.5c0.3,0,0.5,0.3,0.5,0.5l-0.4,5C34.7,136.9,34.5,137.1,34.3,137.1z M247.1,137c-0.1,0-0.1,0-0.2,0
			c-0.3-0.1-0.4-0.4-0.3-0.7l1.9-4.6c0.1-0.3,0.4-0.4,0.7-0.3c0.3,0.1,0.4,0.4,0.3,0.7l-1.9,4.6C247.5,136.9,247.3,137,247.1,137z
			 M317.7,135.8c-0.2,0-0.4-0.1-0.5-0.4l-1.5-4.8c-0.1-0.3,0.1-0.5,0.3-0.6c0.3-0.1,0.5,0.1,0.6,0.3l1.5,4.8
			c0.1,0.3-0.1,0.5-0.3,0.6C317.8,135.8,317.7,135.8,317.7,135.8z M155.9,134.3c-0.1,0-0.1,0-0.2,0c-0.3-0.1-0.4-0.4-0.3-0.6
			l1.7-4.7c0.1-0.3,0.4-0.4,0.6-0.3c0.3,0.1,0.4,0.4,0.3,0.6l-1.7,4.7C156.3,134.2,156.1,134.3,155.9,134.3z M198.5,133.4
			c-0.2,0-0.4-0.1-0.5-0.3l-1.7-4.7c-0.1-0.3,0-0.5,0.3-0.6c0.3-0.1,0.5,0,0.6,0.3l1.7,4.7c0.1,0.3,0,0.5-0.3,0.6
			C198.6,133.4,198.6,133.4,198.5,133.4z M101.6,133.1c-0.2,0-0.3-0.1-0.4-0.2l-2.9-4.1c-0.2-0.2-0.1-0.5,0.1-0.7
			c0.2-0.2,0.5-0.1,0.7,0.1l2.9,4.1c0.2,0.2,0.1,0.5-0.1,0.7C101.8,133.1,101.7,133.1,101.6,133.1z M250.9,127.8c-0.1,0-0.1,0-0.2,0
			c-0.3-0.1-0.4-0.4-0.3-0.7l1.9-4.6c0.1-0.3,0.4-0.4,0.7-0.3c0.3,0.1,0.4,0.4,0.3,0.7l-1.9,4.6
			C251.3,127.6,251.1,127.8,250.9,127.8z M35,127.2C35,127.2,34.9,127.2,35,127.2c-0.3,0-0.5-0.3-0.5-0.5l0.4-5
			c0-0.3,0.3-0.5,0.5-0.5c0.3,0,0.5,0.3,0.5,0.5l-0.4,5C35.4,127,35.2,127.2,35,127.2z M314.7,126.2c-0.2,0-0.4-0.1-0.5-0.4
			l-1.5-4.8c-0.1-0.3,0.1-0.5,0.3-0.6c0.3-0.1,0.5,0.1,0.6,0.3l1.5,4.8c0.1,0.3-0.1,0.5-0.3,0.6
			C314.8,126.2,314.7,126.2,314.7,126.2z M95.8,125c-0.2,0-0.3-0.1-0.4-0.2l-2.9-4.1c-0.2-0.2-0.1-0.5,0.1-0.7
			c0.2-0.2,0.5-0.1,0.7,0.1l2.9,4.1c0.2,0.2,0.1,0.5-0.1,0.7C96,125,95.9,125,95.8,125z M159.3,124.9c-0.1,0-0.1,0-0.2,0
			c-0.1,0-0.2-0.1-0.3-0.2c-1.5-0.3-2.9-1-4.2-1.9c-0.2-0.2-0.3-0.5-0.1-0.7c0.2-0.2,0.5-0.3,0.7-0.1c1.2,0.9,2.7,1.5,4.2,1.8
			c0.1,0,0.3,0.1,0.3,0.2c0.1,0.1,0.1,0.3,0,0.4l-0.1,0.2C159.7,124.8,159.5,124.9,159.3,124.9z M196.2,124.5
			c-0.2,0-0.4-0.1-0.5-0.4c-0.1-0.3,0.1-0.5,0.4-0.6c1.2-0.3,2.4-0.9,3.4-1.6c0.3-0.2,0.5-0.4,0.7-0.6c0.2-0.2,0.5-0.2,0.7,0
			c0.2,0.2,0.2,0.5,0,0.7c-0.3,0.2-0.5,0.4-0.8,0.6c-1.1,0.8-2.4,1.4-3.8,1.8C196.3,124.5,196.2,124.5,196.2,124.5z M151.7,119.1
			c-0.2,0-0.4-0.1-0.4-0.3c-0.8-1.5-1.3-3.3-1.3-5c0-0.3,0.2-0.5,0.5-0.5c0.3,0,0.5,0.2,0.5,0.5c0,1.6,0.4,3.2,1.2,4.6
			c0.1,0.2,0,0.5-0.2,0.7C151.9,119.1,151.8,119.1,151.7,119.1z M254.8,118.5c-0.1,0-0.1,0-0.2,0c-0.3-0.1-0.4-0.4-0.3-0.7l1.9-4.6
			c0.1-0.3,0.4-0.4,0.7-0.3c0.3,0.1,0.4,0.4,0.3,0.7l-1.9,4.6C255.1,118.4,255,118.5,254.8,118.5z M203.4,118.2c-0.1,0-0.1,0-0.2,0
			c-0.3-0.1-0.4-0.4-0.3-0.7c0.5-1.2,0.8-2.6,0.8-3.9c0-0.2,0-0.5,0-0.8c0-0.3,0.2-0.5,0.5-0.5c0.2,0,0.5,0.2,0.5,0.5
			c0,0.3,0,0.6,0,0.8c0,1.5-0.3,2.9-0.8,4.3C203.8,118.1,203.6,118.2,203.4,118.2z M35.7,117.2C35.7,117.2,35.6,117.2,35.7,117.2
			c-0.3,0-0.5-0.3-0.5-0.5l0.4-5c0-0.3,0.3-0.5,0.5-0.5c0.3,0,0.5,0.3,0.5,0.5l-0.4,5C36.2,117,35.9,117.2,35.7,117.2z M89.9,116.9
			c-0.2,0-0.3-0.1-0.4-0.2l-2.9-4.1c-0.2-0.2-0.1-0.5,0.1-0.7c0.2-0.2,0.5-0.1,0.7,0.1l2.9,4.1c0.2,0.2,0.1,0.5-0.1,0.7
			C90.2,116.9,90,116.9,89.9,116.9z M312.1,116.6c-0.2,0-0.4-0.1-0.5-0.4l-1.5-4.8c-0.1-0.3,0.1-0.5,0.3-0.6
			c0.3-0.1,0.5,0.1,0.6,0.3l1.5,4.8c0.1,0.3-0.1,0.5-0.3,0.6C312.2,116.6,312.1,116.6,312.1,116.6z M151.1,109.4
			C151.1,109.4,151.1,109.4,151.1,109.4c-0.4-0.1-0.5-0.3-0.5-0.6l0.8-4.9c0-0.3,0.3-0.5,0.6-0.4c0.3,0,0.5,0.3,0.4,0.6l-0.8,4.9
			C151.6,109.2,151.4,109.4,151.1,109.4z M258.6,109.3c-0.1,0-0.1,0-0.2,0c-0.3-0.1-0.4-0.4-0.3-0.7l1.9-4.6
			c0.1-0.3,0.4-0.4,0.7-0.3c0.3,0.1,0.4,0.4,0.3,0.7L259,109C259,109.1,258.8,109.3,258.6,109.3z M84.1,108.8
			c-0.2,0-0.3-0.1-0.4-0.2l-2.9-4.1c-0.2-0.2-0.1-0.5,0.1-0.7c0.2-0.2,0.5-0.1,0.7,0.1l2.9,4.1c0.2,0.2,0.1,0.5-0.1,0.7
			C84.3,108.7,84.2,108.8,84.1,108.8z M203.4,108.4c-0.2,0-0.5-0.2-0.5-0.4l-0.8-4.9c0-0.3,0.1-0.5,0.4-0.6c0.3,0,0.5,0.1,0.6,0.4
			l0.8,4.9C204,108.1,203.8,108.3,203.4,108.4C203.5,108.4,203.5,108.4,203.4,108.4z M36.4,107.2C36.4,107.2,36.4,107.2,36.4,107.2
			c-0.3,0-0.5-0.3-0.5-0.5l0.4-5c0-0.3,0.3-0.5,0.5-0.5c0.3,0,0.5,0.3,0.5,0.5l-0.4,5C36.9,107,36.6,107.2,36.4,107.2z M309.1,107.1
			c-0.2,0-0.4-0.1-0.5-0.4l-1.5-4.8c-0.1-0.3,0.1-0.5,0.3-0.6c0.3-0.1,0.5,0.1,0.6,0.3l1.5,4.8c0.1,0.3-0.1,0.5-0.3,0.6
			C309.2,107.1,309.1,107.1,309.1,107.1z M78.3,100.7c-0.2,0-0.3-0.1-0.4-0.2L75,96.4c-0.2-0.2-0.1-0.5,0.1-0.7
			c0.2-0.2,0.5-0.1,0.7,0.1l2.9,4.1c0.2,0.2,0.1,0.5-0.1,0.7C78.5,100.6,78.4,100.7,78.3,100.7z M262.4,100c-0.1,0-0.1,0-0.2,0
			c-0.3-0.1-0.4-0.4-0.3-0.7l1.9-4.6c0.1-0.3,0.4-0.4,0.7-0.3c0.3,0.1,0.4,0.4,0.3,0.7l-1.9,4.6C262.8,99.9,262.6,100,262.4,100z
			 M152.4,99.6c-0.1,0-0.3,0-0.3-0.1l-3.6-3.5c-0.2-0.2-0.2-0.5,0-0.7c0.2-0.2,0.5-0.2,0.7,0l3.6,3.5c0.2,0.2,0.2,0.5,0,0.7
			C152.7,99.6,152.5,99.6,152.4,99.6z M203.1,98.9c-0.1,0-0.3-0.1-0.4-0.2c-0.2-0.2-0.2-0.5,0-0.7l3.6-3.5c0.2-0.2,0.5-0.2,0.7,0
			c0.2,0.2,0.2,0.5,0,0.7l-3.6,3.5C203.3,98.9,203.2,98.9,203.1,98.9z M306.1,97.5c-0.2,0-0.4-0.1-0.5-0.4l-1.1-3.5
			c-0.1-0.4-0.3-0.8-0.5-1.2c-0.1-0.3,0-0.5,0.2-0.7c0.3-0.1,0.5,0,0.7,0.2c0.2,0.4,0.4,0.9,0.5,1.3l1.1,3.5
			c0.1,0.3-0.1,0.5-0.3,0.6C306.2,97.5,306.2,97.5,306.1,97.5z M37.1,97.2C37.1,97.2,37.1,97.2,37.1,97.2c-0.3,0-0.5-0.3-0.5-0.5
			l0.4-5c0-0.3,0.3-0.5,0.5-0.5c0.3,0,0.5,0.3,0.5,0.5l-0.4,5C37.6,97,37.3,97.2,37.1,97.2z M145.2,92.7c-0.1,0-0.3,0-0.3-0.1
			l-1.4-1.4c-0.8-0.7-1.4-1.6-1.9-2.5c-0.1-0.2-0.1-0.5,0.2-0.7c0.2-0.1,0.5-0.1,0.7,0.2c0.5,0.8,1.1,1.6,1.8,2.3l1.4,1.4
			c0.2,0.2,0.2,0.5,0,0.7C145.5,92.6,145.4,92.7,145.2,92.7z M72.4,92.5c-0.2,0-0.3-0.1-0.4-0.2l-2.9-4.1C69,88,69,87.7,69.2,87.6
			c0.2-0.2,0.5-0.1,0.7,0.1l2.9,4.1c0.2,0.2,0.1,0.5-0.1,0.7C72.6,92.5,72.5,92.5,72.4,92.5z M210.2,92c-0.1,0-0.3-0.1-0.4-0.2
			c-0.2-0.2-0.2-0.5,0-0.7l0.7-0.7c0.9-0.9,1.7-2,2.2-3.1c0.1-0.3,0.4-0.4,0.7-0.2c0.3,0.1,0.4,0.4,0.2,0.7
			c-0.6,1.3-1.4,2.4-2.4,3.4l-0.7,0.7C210.5,91.9,210.3,92,210.2,92z M266.2,90.8c-0.1,0-0.1,0-0.2,0c-0.3-0.1-0.4-0.4-0.3-0.7
			l1.9-4.6c0.1-0.3,0.4-0.4,0.7-0.3c0.3,0.1,0.4,0.4,0.3,0.7l-1.9,4.6C266.6,90.7,266.4,90.8,266.2,90.8z M302.8,88.1
			c-0.2,0-0.4-0.1-0.5-0.4l-1.5-4.8c-0.1-0.3,0.1-0.5,0.3-0.6c0.3-0.1,0.5,0.1,0.6,0.3l1.5,4.8c0.1,0.3-0.1,0.5-0.3,0.6
			C302.9,88.1,302.8,88.1,302.8,88.1z M37.8,87.3C37.8,87.3,37.8,87.3,37.8,87.3c-0.3,0-0.5-0.3-0.5-0.5l0.2-2.4
			c-0.1-0.5-0.1-1-0.1-1.5c0-0.1-0.1-0.4-0.3-0.7c-0.1-0.2-0.1-0.5,0.2-0.7c0.2-0.1,0.5-0.1,0.7,0.2c0.2,0.4,0.4,0.7,0.5,1
			c0,0,0,0.1,0,0.1c0,0.5,0,1,0.1,1.5c0,0,0,0.1,0,0.1l-0.2,2.5C38.3,87.1,38.1,87.3,37.8,87.3z M66.6,84.4c-0.2,0-0.3-0.1-0.4-0.2
			l-2.7-3.8c-0.1-0.1-0.1-0.3-0.1-0.4c0-0.1,0-0.2,0.1-0.3c0.1-0.3,0.3-0.4,0.6-0.4c0.3,0.1,0.4,0.3,0.4,0.6c0,0,0,0,0,0.1l2.6,3.6
			c0.2,0.2,0.1,0.5-0.1,0.7C66.8,84.4,66.7,84.4,66.6,84.4z M140.6,84.1c-0.3,0-0.5-0.2-0.5-0.5c0-0.2,0-0.4,0-0.6
			c0-1.2,0.2-2.4,0.6-3.5c0.1-0.3,0.2-0.7,0.4-1c0.1-0.3,0.4-0.4,0.7-0.3c0.3,0.1,0.4,0.4,0.3,0.7c-0.1,0.3-0.2,0.6-0.3,0.9
			c-0.3,1-0.5,2.1-0.5,3.2c0,0.2,0,0.4,0,0.6C141.1,83.9,140.9,84.1,140.6,84.1C140.6,84.1,140.6,84.1,140.6,84.1z M214.2,83.1
			c-0.3,0-0.5-0.2-0.5-0.5c0-1-0.2-1.9-0.5-2.8c-0.2-0.6-0.4-1.2-0.8-1.7c-0.1-0.2,0-0.5,0.2-0.7c0.2-0.1,0.5,0,0.7,0.2
			c0.3,0.6,0.6,1.3,0.8,1.9c0.3,1,0.5,2,0.5,3.1C214.7,82.9,214.5,83.1,214.2,83.1C214.2,83.1,214.2,83.1,214.2,83.1z M270,81.5
			c-0.1,0-0.1,0-0.2,0c-0.3-0.1-0.4-0.4-0.3-0.7l1.9-4.6c0.1-0.3,0.4-0.4,0.7-0.3c0.3,0.1,0.4,0.4,0.3,0.7l-1.9,4.6
			C270.4,81.4,270.2,81.5,270,81.5z M33.9,78.9c-0.1,0-0.2,0-0.3-0.1c-1.2-0.9-2.6-1.9-4.1-2.8c-0.2-0.1-0.3-0.5-0.2-0.7
			s0.5-0.3,0.7-0.2C31.6,76,33,77,34.2,78c0.2,0.2,0.3,0.5,0.1,0.7C34.2,78.8,34.1,78.9,33.9,78.9z M299.8,78.6
			c-0.2,0-0.4-0.1-0.5-0.4l-0.8-2.5c-0.1-0.2,0-0.5,0.2-0.6l2.1-1.2c0.2-0.1,0.5,0,0.7,0.2c0.1,0.2,0,0.5-0.2,0.7l-1.7,1l0.7,2.1
			c0.1,0.3-0.1,0.5-0.3,0.6C299.9,78.6,299.9,78.6,299.8,78.6z M66.1,75.8c-0.1,0-0.2,0-0.3-0.1c-0.2-0.2-0.3-0.5-0.1-0.7
			c0.8-1.3,1.9-2.6,3.1-4c0.2-0.2,0.5-0.2,0.7,0c0.2,0.2,0.2,0.5,0,0.7c-1.2,1.4-2.2,2.7-3,3.9C66.4,75.7,66.3,75.8,66.1,75.8z
			 M144.4,75.3c-0.1,0-0.3-0.1-0.4-0.2c-0.2-0.2-0.2-0.5,0.1-0.7c1.3-1.1,2.9-1.9,4.6-2.4c0.3-0.1,0.5,0.1,0.6,0.4
			c0.1,0.3-0.1,0.5-0.4,0.6c-1.5,0.4-3,1.1-4.2,2.1C144.6,75.2,144.5,75.3,144.4,75.3z M209.6,74.7c-0.1,0-0.2,0-0.3-0.1
			c-1.3-0.9-2.8-1.5-4.4-1.7c-0.3,0-0.5-0.3-0.4-0.6c0-0.3,0.3-0.5,0.6-0.4c1.7,0.3,3.4,0.9,4.8,1.9c0.2,0.2,0.3,0.5,0.1,0.7
			C209.9,74.6,209.7,74.7,209.6,74.7z M25.4,73.6c-0.1,0-0.2,0-0.2-0.1c-1.5-0.7-2.9-1.4-4.4-2l-0.2-0.1c-0.3-0.1-0.4-0.4-0.3-0.7
			c0.1-0.3,0.4-0.4,0.7-0.3l0.1,0.1c1.5,0.6,3,1.2,4.5,2c0.2,0.1,0.3,0.4,0.2,0.7C25.8,73.5,25.6,73.6,25.4,73.6z M271.6,72.8
			c-0.1,0-0.2,0-0.3-0.1l-3.8-3.2c-0.2-0.2-0.2-0.5-0.1-0.7c0.2-0.2,0.5-0.2,0.7-0.1l3.8,3.2c0.2,0.2,0.2,0.5,0.1,0.7
			C271.9,72.8,271.7,72.8,271.6,72.8z M305.5,72.5c-0.2,0-0.3-0.1-0.4-0.3c-0.1-0.2,0-0.5,0.2-0.7l4.4-2.4c0.2-0.1,0.5,0,0.7,0.2
			c0.1,0.2,0,0.5-0.2,0.7l-4.4,2.4C305.7,72.5,305.6,72.5,305.5,72.5z M153.7,72.3c-0.2,0-0.5-0.2-0.5-0.4c0-0.3,0.1-0.5,0.4-0.6
			l4.9-0.7c0.3,0,0.5,0.1,0.6,0.4c0,0.3-0.1,0.5-0.4,0.6L153.7,72.3C153.8,72.3,153.8,72.3,153.7,72.3z M200,72.1
			C200,72.1,200,72.1,200,72.1l-5-0.7c-0.3,0-0.5-0.3-0.4-0.6c0-0.3,0.3-0.5,0.6-0.4l4.9,0.7c0.3,0,0.5,0.3,0.4,0.6
			C200.5,71.9,200.3,72.1,200,72.1z M162.8,69.7c-0.1,0-0.1,0-0.2-0.1c-0.2-0.1-0.3-0.4-0.2-0.7l2.2-4.5c0.1-0.2,0.4-0.3,0.7-0.2
			c0.2,0.1,0.3,0.4,0.2,0.7l-2.2,4.5C163.2,69.6,163,69.7,162.8,69.7z M191.5,68.8c-0.2,0-0.4-0.1-0.4-0.3l-2.2-4.5
			c-0.1-0.2,0-0.5,0.2-0.7c0.2-0.1,0.5,0,0.7,0.2l2.2,4.5c0.1,0.2,0,0.5-0.2,0.7C191.6,68.8,191.6,68.8,191.5,68.8z M16.8,68.7
			c-0.1,0-0.3-0.1-0.4-0.2c-1.2-1.3-2-2.9-2.5-4.6c-0.1-0.3,0.1-0.5,0.4-0.6c0.3-0.1,0.5,0.1,0.6,0.4c0.4,1.5,1.2,3,2.2,4.2
			c0.2,0.2,0.2,0.5,0,0.7C17.1,68.6,16.9,68.7,16.8,68.7z M72.7,68.3c-0.1,0-0.3-0.1-0.4-0.2c-0.2-0.2-0.2-0.5,0-0.7
			c1.2-1.1,2.4-2.2,3.8-3.3c0.2-0.2,0.5-0.1,0.7,0.1c0.2,0.2,0.1,0.5-0.1,0.7c-1.3,1.1-2.6,2.2-3.7,3.3
			C72.9,68.2,72.8,68.3,72.7,68.3z M314.2,67.6c-0.2,0-0.3-0.1-0.4-0.3c-0.1-0.2,0-0.5,0.2-0.7l4.4-2.4c0.2-0.1,0.5,0,0.7,0.2
			c0.1,0.2,0,0.5-0.2,0.7l-4.4,2.4C314.4,67.6,314.3,67.6,314.2,67.6z M264,66.4c-0.1,0-0.2,0-0.3-0.1l-3.8-3.2
			c-0.2-0.2-0.2-0.5-0.1-0.7c0.2-0.2,0.5-0.2,0.7-0.1l3.8,3.2c0.2,0.2,0.2,0.5,0.1,0.7C264.2,66.3,264.1,66.4,264,66.4z M323,62.7
			c-0.2,0-0.3-0.1-0.4-0.3c-0.1-0.2,0-0.5,0.2-0.7l4.4-2.4c0.2-0.1,0.5,0,0.7,0.2c0.1,0.2,0,0.5-0.2,0.7l-4.4,2.4
			C323.1,62.7,323.1,62.7,323,62.7z M80.3,61.9c-0.2,0-0.3-0.1-0.4-0.2c-0.2-0.2-0.1-0.5,0.1-0.7c1.4-1,2.7-2,4.1-2.9
			c0.2-0.2,0.5-0.1,0.7,0.1c0.2,0.2,0.1,0.5-0.1,0.7c-1.4,0.9-2.7,1.8-4.1,2.8C80.5,61.9,80.4,61.9,80.3,61.9z M167.2,60.7
			c-0.1,0-0.1,0-0.2-0.1c-0.2-0.1-0.3-0.4-0.2-0.7l0.4-0.9c0.6-1.3,1.5-2.4,2.5-3.4c0.2-0.2,0.5-0.2,0.7,0c0.2,0.2,0.2,0.5,0,0.7
			c-1,0.9-1.7,1.9-2.3,3.1l-0.4,0.9C167.6,60.6,167.4,60.7,167.2,60.7z M256.3,59.9c-0.1,0-0.2,0-0.3-0.1l-1.9-1.6
			c-0.7-0.6-1.3-1.2-1.8-1.9c-0.2-0.2-0.1-0.5,0.1-0.7c0.2-0.2,0.5-0.1,0.7,0.1c0.5,0.6,1,1.2,1.6,1.7l1.9,1.6
			c0.2,0.2,0.2,0.5,0.1,0.7C256.6,59.9,256.5,59.9,256.3,59.9z M187.1,59.8c-0.2,0-0.4-0.1-0.4-0.3c-0.7-1.4-1.8-2.7-3-3.6
			c-0.2-0.2-0.3-0.5-0.1-0.7c0.2-0.2,0.5-0.3,0.7-0.1c1.4,1,2.5,2.4,3.3,4c0.1,0.2,0,0.5-0.2,0.7C187.2,59.8,187.1,59.8,187.1,59.8z
			 M14.3,59.4c0,0-0.1,0-0.1,0c-0.3-0.1-0.4-0.3-0.4-0.6l0-0.2l1-4.7c0.1-0.3,0.3-0.4,0.6-0.4c0.3,0.1,0.4,0.3,0.4,0.6L14.8,59
			C14.8,59.2,14.5,59.4,14.3,59.4z M331.7,57.9c-0.2,0-0.3-0.1-0.4-0.3c-0.1-0.2,0-0.5,0.2-0.7l1.7-1c0.8-0.5,1.6-1,2.3-1.7
			c0.2-0.2,0.5-0.2,0.7,0c0.2,0.2,0.2,0.5,0,0.7c-0.7,0.7-1.6,1.4-2.5,1.9l-1.7,1C331.9,57.9,331.8,57.9,331.7,57.9z M88.7,56.4
			c-0.2,0-0.3-0.1-0.4-0.2c-0.1-0.2-0.1-0.5,0.2-0.7c1.4-0.8,2.5-2,3.4-3.3c0.1-0.2,0.5-0.3,0.7-0.2c0.2,0.1,0.3,0.5,0.2,0.7
			c-0.9,1.5-2.2,2.7-3.7,3.6C88.9,56.4,88.8,56.4,88.7,56.4z M174.4,54.2c-0.2,0-0.4-0.1-0.5-0.4c-0.1-0.3,0.1-0.5,0.3-0.6
			c1.7-0.5,3.5-0.6,5.2-0.2c0.3,0.1,0.5,0.3,0.4,0.6c-0.1,0.3-0.3,0.4-0.6,0.4c-1.6-0.3-3.2-0.2-4.7,0.2
			C174.5,54.2,174.5,54.2,174.4,54.2z M250.8,51.9c-0.2,0-0.4-0.2-0.5-0.4c-0.1-0.6-0.2-1.3-0.2-2c0-1.1,0.2-2.2,0.5-3.2
			c0.1-0.3,0.4-0.4,0.6-0.3c0.3,0.1,0.4,0.4,0.3,0.6c-0.3,1-0.4,1.9-0.4,2.9c0,0.6,0.1,1.2,0.2,1.8
			C251.3,51.6,251.1,51.9,250.8,51.9C250.8,51.9,250.8,51.9,250.8,51.9z M338.4,50.9c-0.1,0-0.1,0-0.2,0c-0.3-0.1-0.4-0.4-0.3-0.6
			c0.4-1.1,0.5-2.2,0.5-3.3c0-0.5,0-1-0.1-1.4c0-0.3,0.2-0.5,0.4-0.6c0.3,0,0.5,0.2,0.6,0.4c0.1,0.5,0.1,1,0.1,1.6
			c0,1.2-0.2,2.4-0.6,3.6C338.9,50.8,338.7,50.9,338.4,50.9z M16.9,49.7c-0.1,0-0.2,0-0.2-0.1c-0.2-0.1-0.3-0.4-0.2-0.7
			c0.8-1.5,2-2.9,3.4-3.9c0.2-0.2,0.5-0.1,0.7,0.1c0.2,0.2,0.1,0.5-0.1,0.7c-1.3,0.9-2.4,2.2-3.1,3.6C17.2,49.6,17,49.7,16.9,49.7z
			 M93.9,48.3C93.9,48.3,93.9,48.3,93.9,48.3c-0.3,0-0.5-0.3-0.5-0.6c0-0.4,0.1-0.7,0.1-1.1c0-1.2-0.2-2.4-0.7-3.6
			c-0.1-0.3,0-0.5,0.3-0.6c0.3-0.1,0.5,0,0.6,0.3c0.5,1.3,0.7,2.6,0.7,4c0,0.4,0,0.8-0.1,1.2C94.4,48.1,94.2,48.3,93.9,48.3z
			 M288.5,45.7c-0.1,0-0.2,0-0.3-0.1c-0.2-0.1-0.3-0.4-0.2-0.7l2.6-4.3c0.1-0.2,0.4-0.3,0.7-0.2c0.2,0.1,0.3,0.4,0.2,0.7l-2.6,4.3
			C288.9,45.6,288.7,45.7,288.5,45.7z M286.3,44.2c-0.2,0-0.4-0.1-0.5-0.3l-2-4.6c-0.1-0.3,0-0.5,0.3-0.7c0.3-0.1,0.5,0,0.7,0.3
			l2,4.6c0.1,0.3,0,0.5-0.3,0.7C286.5,44.2,286.4,44.2,286.3,44.2z M24.7,44.1c-0.2,0-0.5-0.2-0.5-0.4c0-0.3,0.1-0.5,0.4-0.6
			C25,43,25.5,43,25.9,43c-0.3-0.8-0.4-1.6-0.5-2.4c0-0.3,0.2-0.5,0.4-0.5c0.3,0,0.5,0.2,0.5,0.4c0.1,1,0.3,1.9,0.7,2.8
			c0.1,0.2,0,0.3-0.1,0.5c-0.1,0.1-0.3,0.2-0.4,0.2l-0.2,0C25.9,44,25.3,44,24.7,44.1C24.7,44.1,24.7,44.1,24.7,44.1z M253.2,42.5
			c-0.1,0-0.2,0-0.2-0.1c-0.2-0.1-0.3-0.4-0.2-0.7l2.5-4.4c0.1-0.2,0.4-0.3,0.7-0.2c0.2,0.1,0.3,0.4,0.2,0.7l-2.5,4.4
			C253.6,42.4,253.4,42.5,253.2,42.5z M337.2,41.3c-0.2,0-0.4-0.1-0.4-0.3l-2.2-4.5c-0.1-0.2,0-0.5,0.2-0.7c0.2-0.1,0.5,0,0.7,0.2
			l2.2,4.5c0.1,0.2,0,0.5-0.2,0.7C337.4,41.3,337.3,41.3,337.2,41.3z M91.5,38.7c-0.2,0-0.4-0.1-0.5-0.3l-1.8-4.7
			c-0.1-0.3,0-0.5,0.3-0.6c0.3-0.1,0.5,0,0.6,0.3l1.8,4.7c0.1,0.3,0,0.5-0.3,0.6C91.6,38.7,91.5,38.7,91.5,38.7z M58.2,37.7
			C58.1,37.7,58.1,37.7,58.2,37.7c-0.2,0-0.4-0.1-0.4-0.3c-0.4-0.7-0.8-1.3-1.2-1.9c-0.1-0.2-0.1-0.5,0.2-0.7
			c0.2-0.1,0.5-0.1,0.7,0.2c0.3,0.5,0.6,1,0.9,1.4c0.5-0.5,1.1-0.9,1.6-1.4c0.2-0.2,0.5-0.1,0.7,0.1c0.2,0.2,0.1,0.5-0.1,0.7
			c-0.7,0.6-1.3,1.2-2,1.8C58.4,37.6,58.3,37.7,58.2,37.7z M293.7,37.1c-0.1,0-0.2,0-0.3-0.1c-0.2-0.1-0.3-0.4-0.2-0.7l2.6-4.3
			c0.1-0.2,0.5-0.3,0.7-0.2c0.2,0.1,0.3,0.4,0.2,0.7l-2.6,4.3C294,37,293.8,37.1,293.7,37.1z M26.5,36.1c-0.1,0-0.1,0-0.2,0
			c-0.3-0.1-0.4-0.4-0.3-0.6c0.6-1.6,1.6-3.1,2.9-4.3c0.2-0.2,0.5-0.2,0.7,0c0.2,0.2,0.2,0.5,0,0.7c-1.2,1.1-2.1,2.4-2.6,3.9
			C26.9,36,26.7,36.1,26.5,36.1z M282.4,35c-0.2,0-0.4-0.1-0.5-0.3l-2-4.6c-0.1-0.3,0-0.5,0.3-0.7c0.3-0.1,0.5,0,0.7,0.3l2,4.6
			c0.1,0.3,0,0.5-0.3,0.7C282.5,35,282.5,35,282.4,35z M258.2,33.8c-0.1,0-0.2,0-0.2-0.1c-0.2-0.1-0.3-0.4-0.2-0.7l2.5-4.4
			c0.1-0.2,0.4-0.3,0.7-0.2c0.2,0.1,0.3,0.4,0.2,0.7l-2.5,4.4C258.5,33.7,258.3,33.8,258.2,33.8z M64.2,32.9c-0.2,0-0.3-0.1-0.4-0.2
			c-0.2-0.2-0.1-0.5,0.1-0.7c1.4-0.9,2.9-1.8,4.4-2.6c0.2-0.1,0.5,0,0.7,0.2c0.1,0.2,0,0.5-0.2,0.7c-1.5,0.7-2.9,1.6-4.3,2.5
			C64.4,32.9,64.3,32.9,64.2,32.9z M332.8,32.3c-0.2,0-0.4-0.1-0.4-0.3l-2.2-4.5c-0.1-0.2,0-0.5,0.2-0.7c0.2-0.1,0.5,0,0.7,0.2
			l2.2,4.5c0.1,0.2,0,0.5-0.2,0.7C333,32.3,332.9,32.3,332.8,32.3z M54.1,31.7c-0.1,0-0.3-0.1-0.4-0.2c-1-1.3-2.1-2.5-3.3-3.7
			c-0.2-0.2-0.2-0.5,0-0.7c0.2-0.2,0.5-0.2,0.7,0c1.2,1.2,2.3,2.5,3.4,3.8c0.2,0.2,0.1,0.5-0.1,0.7C54.3,31.6,54.2,31.7,54.1,31.7z
			 M87,29.9c-0.1,0-0.3,0-0.3-0.1c-1.1-1.1-2.5-2-4-2.4c-0.3-0.1-0.4-0.4-0.3-0.6c0.1-0.3,0.4-0.4,0.6-0.3c1.7,0.5,3.2,1.5,4.4,2.7
			c0.2,0.2,0.2,0.5,0,0.7C87.3,29.8,87.1,29.9,87,29.9z M33.1,28.8c-0.1,0-0.3-0.1-0.4-0.2c-0.2-0.2-0.1-0.5,0.1-0.7l2.5-2.1
			c0.5-0.4,1-0.8,1.5-1.1c0.2-0.1,0.5-0.1,0.7,0.2c0.1,0.2,0.1,0.5-0.2,0.7c-0.5,0.3-1,0.6-1.4,1l-2.5,2.1
			C33.4,28.7,33.2,28.8,33.1,28.8z M298.8,28.5c-0.1,0-0.2,0-0.3-0.1c-0.2-0.1-0.3-0.4-0.2-0.7l2.6-4.3c0.1-0.2,0.4-0.3,0.7-0.2
			c0.2,0.1,0.3,0.4,0.2,0.7l-2.6,4.3C299.1,28.4,298.9,28.5,298.8,28.5z M73.1,28.3c-0.2,0-0.4-0.1-0.5-0.3c-0.1-0.3,0-0.5,0.3-0.6
			c1.1-0.4,2.3-0.8,3.5-1.1c0.5-0.1,0.9-0.2,1.4-0.3c0.3,0,0.5,0.1,0.6,0.4c0,0.3-0.1,0.5-0.4,0.6c-0.4,0.1-0.9,0.2-1.3,0.3
			c-1.2,0.3-2.3,0.7-3.4,1.1C73.2,28.3,73.1,28.3,73.1,28.3z M277.6,26.3c-0.1,0-0.2,0-0.3-0.1c-1.2-1.1-2.6-1.9-4.1-2.3
			c-0.3-0.1-0.4-0.4-0.3-0.6c0.1-0.3,0.4-0.4,0.6-0.3c1.7,0.5,3.2,1.4,4.5,2.5c0.2,0.2,0.2,0.5,0,0.7
			C277.9,26.3,277.7,26.3,277.6,26.3z M263.8,25.6c-0.2,0-0.3-0.1-0.4-0.2c-0.2-0.2-0.1-0.5,0.1-0.7c1.4-1,3-1.8,4.8-2.1
			c0.3-0.1,0.5,0.1,0.6,0.4c0,0.3-0.1,0.5-0.4,0.6c-1.6,0.3-3.1,0.9-4.3,1.9C264,25.6,263.9,25.6,263.8,25.6z M46.7,25.1
			c-0.1,0-0.1,0-0.2,0c-1.5-0.6-3.1-0.9-4.7-0.8c-0.3,0-0.5-0.2-0.5-0.5c0-0.3,0.2-0.5,0.5-0.5c1.8-0.1,3.5,0.2,5.1,0.8
			c0.3,0.1,0.4,0.4,0.3,0.7C47.1,24.9,46.9,25.1,46.7,25.1z M328.4,23.3c-0.2,0-0.4-0.1-0.4-0.3l-2.2-4.5c-0.1-0.2,0-0.5,0.2-0.7
			c0.2-0.1,0.5,0,0.7,0.2l2.2,4.5c0.1,0.2,0,0.5-0.2,0.7C328.6,23.3,328.5,23.3,328.4,23.3z M303.9,19.9c-0.1,0-0.2,0-0.3-0.1
			c-0.2-0.1-0.3-0.4-0.2-0.7l2.3-3.9c0.1-0.1,0.2-0.3,0.3-0.4c0.2-0.2,0.5-0.3,0.7-0.1c0.2,0.2,0.3,0.5,0.1,0.7
			c-0.1,0.1-0.2,0.3-0.2,0.4l-2.3,3.9C304.2,19.8,304.1,19.9,303.9,19.9z M323.7,14.5c-0.1,0-0.3-0.1-0.4-0.2
			c-1-1.2-2.4-2.2-3.8-2.8c-0.3-0.1-0.4-0.4-0.3-0.7c0.1-0.3,0.4-0.4,0.7-0.3c1.6,0.7,3.1,1.7,4.2,3.1c0.2,0.2,0.2,0.5-0.1,0.7
			C323.9,14.5,323.8,14.5,323.7,14.5z M310.1,12.2c-0.2,0-0.3-0.1-0.4-0.2c-0.1-0.2-0.1-0.5,0.2-0.7c1.5-0.9,3.2-1.4,5-1.5
			c0.3,0,0.5,0.2,0.5,0.5c0,0.3-0.2,0.5-0.5,0.5c-1.6,0.1-3.1,0.6-4.5,1.4C310.2,12.2,310.2,12.2,310.1,12.2z"/>
	</g>
</g>
</svg>
